  0
SECTION
  2
HEADER
  9
$ANGBASE
  50
0.0
  9
$ANGDIR
  70
1
  9
$MEASUREMENT
  70
1
  0
ENDSEC
  0
SECTION
  2
TABLES
  0
TABLE
  2
LTYPE
  70
4
  0
LTYPE
  5
40F
  2
CONTINUOUS
  70
0
  3
Solid line
  72
65
  73
0
  40
0.0
  0
LTYPE
  5
410
  2
DASHDOT
 70
0
  3
Dash Dot ____ _ ____ _
 72
65
 73
4
 40
2.0
 49
1.25
 49
-0.25
 49
0.25
 49
-0.25
  0
LTYPE
  5
411
  2
DASHED
 70
0
  3
Dashed __ __ __ __ __
 72
65
 73
2
 40
0.75
 49
0.5
 49
-0.25
  0
LTYPE
  5
43B
  2
DOTTED
 70
0
  3
Dotted .  .  .  .
 72
65
 73
2
 40
0.2
 49
0.0
 49
-0.2
  0
ENDTAB
  0
TABLE
  2
STYLE
  70
4
  0
STYLE
  2
KICAD
  70
0
  40
0
  41
1
  42
1
  50
0
  71
0
  3
isocp.shx
  0
STYLE
  2
KICADB
  70
0
  40
0
  41
1
  42
1
  50
0
  71
0
  3
isocp.shx
  0
STYLE
  2
KICADI
  70
0
  40
0
  41
1
  42
1
  50
15
  71
0
  3
isocp.shx
  0
STYLE
  2
KICADBI
  70
0
  40
0
  41
1
  42
1
  50
15
  71
0
  3
isocp.shx
  0
ENDTAB
  0
TABLE
  2
LAYER
  70
1
  0
LAYER
  2
BLACK
  70
0
  62
7
  6
CONTINUOUS
  0
ENDTAB
  0
ENDSEC
  0
SECTION
  2
ENTITIES
0
LINE
8
BLACK
6
CONTINUOUS
10
94.395670999999993
20
-78.4940299999999951
11
94.4767769999999985
21
-78.548222999999993
0
LINE
8
BLACK
6
CONTINUOUS
10
94.4767769999999985
20
-78.548222999999993
11
94.5309699999999964
21
-78.6293289999999985
0
LINE
8
BLACK
6
CONTINUOUS
10
94.5309699999999964
20
-78.6293289999999985
11
94.5499999999999972
21
-78.7249999999999943
0
LINE
8
BLACK
6
CONTINUOUS
10
94.5499999999999972
20
-78.7249999999999943
11
94.5499999999999972
21
-79.6749999999999972
0
LINE
8
BLACK
6
CONTINUOUS
10
94.5499999999999972
20
-79.6749999999999972
11
94.5309699999999964
21
-79.770670999999993
0
LINE
8
BLACK
6
CONTINUOUS
10
94.5309699999999964
20
-79.770670999999993
11
94.4767769999999985
21
-79.8517769999999985
0
LINE
8
BLACK
6
CONTINUOUS
10
94.4767769999999985
20
-79.8517769999999985
11
94.395670999999993
21
-79.9059699999999964
0
LINE
8
BLACK
6
CONTINUOUS
10
94.395670999999993
20
-79.9059699999999964
11
94.2999999999999972
21
-79.9249999999999972
0
LINE
8
BLACK
6
CONTINUOUS
10
94.2999999999999972
20
-79.9249999999999972
11
93.7999999999999972
21
-79.9249999999999972
0
LINE
8
BLACK
6
CONTINUOUS
10
93.7999999999999972
20
-79.9249999999999972
11
93.7043290000000013
21
-79.9059699999999964
0
LINE
8
BLACK
6
CONTINUOUS
10
93.7043290000000013
20
-79.9059699999999964
11
93.6232229999999959
21
-79.8517769999999985
0
LINE
8
BLACK
6
CONTINUOUS
10
93.6232229999999959
20
-79.8517769999999985
11
93.5690299999999979
21
-79.770670999999993
0
LINE
8
BLACK
6
CONTINUOUS
10
93.5690299999999979
20
-79.770670999999993
11
93.5499999999999972
21
-79.6749999999999972
0
LINE
8
BLACK
6
CONTINUOUS
10
93.5499999999999972
20
-79.6749999999999972
11
93.5499999999999972
21
-78.7249999999999943
0
LINE
8
BLACK
6
CONTINUOUS
10
93.5499999999999972
20
-78.7249999999999943
11
93.5690299999999979
21
-78.6293289999999985
0
LINE
8
BLACK
6
CONTINUOUS
10
93.5690299999999979
20
-78.6293289999999985
11
93.6232229999999959
21
-78.548222999999993
0
LINE
8
BLACK
6
CONTINUOUS
10
93.6232229999999959
20
-78.548222999999993
11
93.7043290000000013
21
-78.4940299999999951
0
LINE
8
BLACK
6
CONTINUOUS
10
93.7043290000000013
20
-78.4940299999999951
11
93.7999999999999972
21
-78.4749999999999943
0
LINE
8
BLACK
6
CONTINUOUS
10
93.7999999999999972
20
-78.4749999999999943
11
94.2999999999999972
21
-78.4749999999999943
0
LINE
8
BLACK
6
CONTINUOUS
10
94.2999999999999972
20
-78.4749999999999943
11
94.395670999999993
21
-78.4940299999999951
0
LINE
8
BLACK
6
CONTINUOUS
10
96.2956709999999987
20
-78.4940299999999951
11
96.3767769999999899
21
-78.548222999999993
0
LINE
8
BLACK
6
CONTINUOUS
10
96.3767769999999899
20
-78.548222999999993
11
96.4309700000000021
21
-78.6293289999999985
0
LINE
8
BLACK
6
CONTINUOUS
10
96.4309700000000021
20
-78.6293289999999985
11
96.4499999999999886
21
-78.7249999999999943
0
LINE
8
BLACK
6
CONTINUOUS
10
96.4499999999999886
20
-78.7249999999999943
11
96.4499999999999886
21
-79.6749999999999972
0
LINE
8
BLACK
6
CONTINUOUS
10
96.4499999999999886
20
-79.6749999999999972
11
96.4309700000000021
21
-79.770670999999993
0
LINE
8
BLACK
6
CONTINUOUS
10
96.4309700000000021
20
-79.770670999999993
11
96.3767769999999899
21
-79.8517769999999985
0
LINE
8
BLACK
6
CONTINUOUS
10
96.3767769999999899
20
-79.8517769999999985
11
96.2956709999999987
21
-79.9059699999999964
0
LINE
8
BLACK
6
CONTINUOUS
10
96.2956709999999987
20
-79.9059699999999964
11
96.1999999999999886
21
-79.9249999999999972
0
LINE
8
BLACK
6
CONTINUOUS
10
96.1999999999999886
20
-79.9249999999999972
11
95.6999999999999886
21
-79.9249999999999972
0
LINE
8
BLACK
6
CONTINUOUS
10
95.6999999999999886
20
-79.9249999999999972
11
95.6043289999999928
21
-79.9059699999999964
0
LINE
8
BLACK
6
CONTINUOUS
10
95.6043289999999928
20
-79.9059699999999964
11
95.5232230000000015
21
-79.8517769999999985
0
LINE
8
BLACK
6
CONTINUOUS
10
95.5232230000000015
20
-79.8517769999999985
11
95.4690299999999894
21
-79.770670999999993
0
LINE
8
BLACK
6
CONTINUOUS
10
95.4690299999999894
20
-79.770670999999993
11
95.4499999999999886
21
-79.6749999999999972
0
LINE
8
BLACK
6
CONTINUOUS
10
95.4499999999999886
20
-79.6749999999999972
11
95.4499999999999886
21
-78.7249999999999943
0
LINE
8
BLACK
6
CONTINUOUS
10
95.4499999999999886
20
-78.7249999999999943
11
95.4690299999999894
21
-78.6293289999999985
0
LINE
8
BLACK
6
CONTINUOUS
10
95.4690299999999894
20
-78.6293289999999985
11
95.5232230000000015
21
-78.548222999999993
0
LINE
8
BLACK
6
CONTINUOUS
10
95.5232230000000015
20
-78.548222999999993
11
95.6043289999999928
21
-78.4940299999999951
0
LINE
8
BLACK
6
CONTINUOUS
10
95.6043289999999928
20
-78.4940299999999951
11
95.6999999999999886
21
-78.4749999999999943
0
LINE
8
BLACK
6
CONTINUOUS
10
95.6999999999999886
20
-78.4749999999999943
11
96.1999999999999886
21
-78.4749999999999943
0
LINE
8
BLACK
6
CONTINUOUS
10
96.1999999999999886
20
-78.4749999999999943
11
96.2956709999999987
21
-78.4940299999999951
0
LINE
8
BLACK
6
CONTINUOUS
10
124.4976709999999969
20
-76.1110299999999995
11
124.5787769999999881
21
-76.1652229999999975
0
LINE
8
BLACK
6
CONTINUOUS
10
124.5787769999999881
20
-76.1652229999999975
11
124.6329700000000003
21
-76.2463290000000029
0
LINE
8
BLACK
6
CONTINUOUS
10
124.6329700000000003
20
-76.2463290000000029
11
124.652000000000001
21
-76.3419999999999987
0
LINE
8
BLACK
6
CONTINUOUS
10
124.652000000000001
20
-76.3419999999999987
11
124.652000000000001
21
-76.8669999999999902
0
LINE
8
BLACK
6
CONTINUOUS
10
124.652000000000001
20
-76.8669999999999902
11
124.6329700000000003
21
-76.9626710000000003
0
LINE
8
BLACK
6
CONTINUOUS
10
124.6329700000000003
20
-76.9626710000000003
11
124.5787769999999881
21
-77.0437769999999915
0
LINE
8
BLACK
6
CONTINUOUS
10
124.5787769999999881
20
-77.0437769999999915
11
124.4976709999999969
21
-77.0979699999999895
0
LINE
8
BLACK
6
CONTINUOUS
10
124.4976709999999969
20
-77.0979699999999895
11
124.402000000000001
21
-77.1169999999999902
0
LINE
8
BLACK
6
CONTINUOUS
10
124.402000000000001
20
-77.1169999999999902
11
123.5019999999999953
21
-77.1169999999999902
0
LINE
8
BLACK
6
CONTINUOUS
10
123.5019999999999953
20
-77.1169999999999902
11
123.4063289999999995
21
-77.0979699999999895
0
LINE
8
BLACK
6
CONTINUOUS
10
123.4063289999999995
20
-77.0979699999999895
11
123.325222999999994
21
-77.0437769999999915
0
LINE
8
BLACK
6
CONTINUOUS
10
123.325222999999994
20
-77.0437769999999915
11
123.2710299999999961
21
-76.9626710000000003
0
LINE
8
BLACK
6
CONTINUOUS
10
123.2710299999999961
20
-76.9626710000000003
11
123.2519999999999953
21
-76.8669999999999902
0
LINE
8
BLACK
6
CONTINUOUS
10
123.2519999999999953
20
-76.8669999999999902
11
123.2519999999999953
21
-76.3419999999999987
0
LINE
8
BLACK
6
CONTINUOUS
10
123.2519999999999953
20
-76.3419999999999987
11
123.2710299999999961
21
-76.2463290000000029
0
LINE
8
BLACK
6
CONTINUOUS
10
123.2710299999999961
20
-76.2463290000000029
11
123.325222999999994
21
-76.1652229999999975
0
LINE
8
BLACK
6
CONTINUOUS
10
123.325222999999994
20
-76.1652229999999975
11
123.4063289999999995
21
-76.1110299999999995
0
LINE
8
BLACK
6
CONTINUOUS
10
123.4063289999999995
20
-76.1110299999999995
11
123.5019999999999953
21
-76.0919999999999987
0
LINE
8
BLACK
6
CONTINUOUS
10
123.5019999999999953
20
-76.0919999999999987
11
124.402000000000001
21
-76.0919999999999987
0
LINE
8
BLACK
6
CONTINUOUS
10
124.402000000000001
20
-76.0919999999999987
11
124.4976709999999969
21
-76.1110299999999995
0
LINE
8
BLACK
6
CONTINUOUS
10
124.4976709999999969
20
-74.2860299999999967
11
124.5787769999999881
21
-74.3402229999999946
0
LINE
8
BLACK
6
CONTINUOUS
10
124.5787769999999881
20
-74.3402229999999946
11
124.6329700000000003
21
-74.4213290000000001
0
LINE
8
BLACK
6
CONTINUOUS
10
124.6329700000000003
20
-74.4213290000000001
11
124.652000000000001
21
-74.5169999999999959
0
LINE
8
BLACK
6
CONTINUOUS
10
124.652000000000001
20
-74.5169999999999959
11
124.652000000000001
21
-75.0420000000000016
0
LINE
8
BLACK
6
CONTINUOUS
10
124.652000000000001
20
-75.0420000000000016
11
124.6329700000000003
21
-75.1376709999999974
0
LINE
8
BLACK
6
CONTINUOUS
10
124.6329700000000003
20
-75.1376709999999974
11
124.5787769999999881
21
-75.2187770000000029
0
LINE
8
BLACK
6
CONTINUOUS
10
124.5787769999999881
20
-75.2187770000000029
11
124.4976709999999969
21
-75.2729700000000008
0
LINE
8
BLACK
6
CONTINUOUS
10
124.4976709999999969
20
-75.2729700000000008
11
124.402000000000001
21
-75.2920000000000016
0
LINE
8
BLACK
6
CONTINUOUS
10
124.402000000000001
20
-75.2920000000000016
11
123.5019999999999953
21
-75.2920000000000016
0
LINE
8
BLACK
6
CONTINUOUS
10
123.5019999999999953
20
-75.2920000000000016
11
123.4063289999999995
21
-75.2729700000000008
0
LINE
8
BLACK
6
CONTINUOUS
10
123.4063289999999995
20
-75.2729700000000008
11
123.325222999999994
21
-75.2187770000000029
0
LINE
8
BLACK
6
CONTINUOUS
10
123.325222999999994
20
-75.2187770000000029
11
123.2710299999999961
21
-75.1376709999999974
0
LINE
8
BLACK
6
CONTINUOUS
10
123.2710299999999961
20
-75.1376709999999974
11
123.2519999999999953
21
-75.0420000000000016
0
LINE
8
BLACK
6
CONTINUOUS
10
123.2519999999999953
20
-75.0420000000000016
11
123.2519999999999953
21
-74.5169999999999959
0
LINE
8
BLACK
6
CONTINUOUS
10
123.2519999999999953
20
-74.5169999999999959
11
123.2710299999999961
21
-74.4213290000000001
0
LINE
8
BLACK
6
CONTINUOUS
10
123.2710299999999961
20
-74.4213290000000001
11
123.325222999999994
21
-74.3402229999999946
0
LINE
8
BLACK
6
CONTINUOUS
10
123.325222999999994
20
-74.3402229999999946
11
123.4063289999999995
21
-74.2860299999999967
0
LINE
8
BLACK
6
CONTINUOUS
10
123.4063289999999995
20
-74.2860299999999967
11
123.5019999999999953
21
-74.2669999999999959
0
LINE
8
BLACK
6
CONTINUOUS
10
123.5019999999999953
20
-74.2669999999999959
11
124.402000000000001
21
-74.2669999999999959
0
LINE
8
BLACK
6
CONTINUOUS
10
124.402000000000001
20
-74.2669999999999959
11
124.4976709999999969
21
-74.2860299999999967
0
LINE
8
BLACK
6
CONTINUOUS
10
84.3656709999999919
20
-73.5710299999999933
11
84.4467769999999973
21
-73.6252229999999912
0
LINE
8
BLACK
6
CONTINUOUS
10
84.4467769999999973
20
-73.6252229999999912
11
84.5009699999999953
21
-73.7063289999999967
0
LINE
8
BLACK
6
CONTINUOUS
10
84.5009699999999953
20
-73.7063289999999967
11
84.519999999999996
21
-73.8019999999999925
0
LINE
8
BLACK
6
CONTINUOUS
10
84.519999999999996
20
-73.8019999999999925
11
84.519999999999996
21
-74.3269999999999982
0
LINE
8
BLACK
6
CONTINUOUS
10
84.519999999999996
20
-74.3269999999999982
11
84.5009699999999953
21
-74.422670999999994
0
LINE
8
BLACK
6
CONTINUOUS
10
84.5009699999999953
20
-74.422670999999994
11
84.4467769999999973
21
-74.5037769999999995
0
LINE
8
BLACK
6
CONTINUOUS
10
84.4467769999999973
20
-74.5037769999999995
11
84.3656709999999919
21
-74.5579699999999974
0
LINE
8
BLACK
6
CONTINUOUS
10
84.3656709999999919
20
-74.5579699999999974
11
84.269999999999996
21
-74.5769999999999982
0
LINE
8
BLACK
6
CONTINUOUS
10
84.269999999999996
20
-74.5769999999999982
11
83.3699999999999903
21
-74.5769999999999982
0
LINE
8
BLACK
6
CONTINUOUS
10
83.3699999999999903
20
-74.5769999999999982
11
83.2743289999999945
21
-74.5579699999999974
0
LINE
8
BLACK
6
CONTINUOUS
10
83.2743289999999945
20
-74.5579699999999974
11
83.1932230000000033
21
-74.5037769999999995
0
LINE
8
BLACK
6
CONTINUOUS
10
83.1932230000000033
20
-74.5037769999999995
11
83.1390299999999911
21
-74.422670999999994
0
LINE
8
BLACK
6
CONTINUOUS
10
83.1390299999999911
20
-74.422670999999994
11
83.1199999999999903
21
-74.3269999999999982
0
LINE
8
BLACK
6
CONTINUOUS
10
83.1199999999999903
20
-74.3269999999999982
11
83.1199999999999903
21
-73.8019999999999925
0
LINE
8
BLACK
6
CONTINUOUS
10
83.1199999999999903
20
-73.8019999999999925
11
83.1390299999999911
21
-73.7063289999999967
0
LINE
8
BLACK
6
CONTINUOUS
10
83.1390299999999911
20
-73.7063289999999967
11
83.1932230000000033
21
-73.6252229999999912
0
LINE
8
BLACK
6
CONTINUOUS
10
83.1932230000000033
20
-73.6252229999999912
11
83.2743289999999945
21
-73.5710299999999933
0
LINE
8
BLACK
6
CONTINUOUS
10
83.2743289999999945
20
-73.5710299999999933
11
83.3699999999999903
21
-73.5519999999999925
0
LINE
8
BLACK
6
CONTINUOUS
10
83.3699999999999903
20
-73.5519999999999925
11
84.269999999999996
21
-73.5519999999999925
0
LINE
8
BLACK
6
CONTINUOUS
10
84.269999999999996
20
-73.5519999999999925
11
84.3656709999999919
21
-73.5710299999999933
0
LINE
8
BLACK
6
CONTINUOUS
10
84.3656709999999919
20
-71.7460299999999904
11
84.4467769999999973
21
-71.8002230000000026
0
LINE
8
BLACK
6
CONTINUOUS
10
84.4467769999999973
20
-71.8002230000000026
11
84.5009699999999953
21
-71.8813289999999938
0
LINE
8
BLACK
6
CONTINUOUS
10
84.5009699999999953
20
-71.8813289999999938
11
84.519999999999996
21
-71.9769999999999897
0
LINE
8
BLACK
6
CONTINUOUS
10
84.519999999999996
20
-71.9769999999999897
11
84.519999999999996
21
-72.5019999999999953
0
LINE
8
BLACK
6
CONTINUOUS
10
84.519999999999996
20
-72.5019999999999953
11
84.5009699999999953
21
-72.5976709999999912
0
LINE
8
BLACK
6
CONTINUOUS
10
84.5009699999999953
20
-72.5976709999999912
11
84.4467769999999973
21
-72.6787769999999966
0
LINE
8
BLACK
6
CONTINUOUS
10
84.4467769999999973
20
-72.6787769999999966
11
84.3656709999999919
21
-72.7329699999999946
0
LINE
8
BLACK
6
CONTINUOUS
10
84.3656709999999919
20
-72.7329699999999946
11
84.269999999999996
21
-72.7519999999999953
0
LINE
8
BLACK
6
CONTINUOUS
10
84.269999999999996
20
-72.7519999999999953
11
83.3699999999999903
21
-72.7519999999999953
0
LINE
8
BLACK
6
CONTINUOUS
10
83.3699999999999903
20
-72.7519999999999953
11
83.2743289999999945
21
-72.7329699999999946
0
LINE
8
BLACK
6
CONTINUOUS
10
83.2743289999999945
20
-72.7329699999999946
11
83.1932230000000033
21
-72.6787769999999966
0
LINE
8
BLACK
6
CONTINUOUS
10
83.1932230000000033
20
-72.6787769999999966
11
83.1390299999999911
21
-72.5976709999999912
0
LINE
8
BLACK
6
CONTINUOUS
10
83.1390299999999911
20
-72.5976709999999912
11
83.1199999999999903
21
-72.5019999999999953
0
LINE
8
BLACK
6
CONTINUOUS
10
83.1199999999999903
20
-72.5019999999999953
11
83.1199999999999903
21
-71.9769999999999897
0
LINE
8
BLACK
6
CONTINUOUS
10
83.1199999999999903
20
-71.9769999999999897
11
83.1390299999999911
21
-71.8813289999999938
0
LINE
8
BLACK
6
CONTINUOUS
10
83.1390299999999911
20
-71.8813289999999938
11
83.1932230000000033
21
-71.8002230000000026
0
LINE
8
BLACK
6
CONTINUOUS
10
83.1932230000000033
20
-71.8002230000000026
11
83.2743289999999945
21
-71.7460299999999904
0
LINE
8
BLACK
6
CONTINUOUS
10
83.2743289999999945
20
-71.7460299999999904
11
83.3699999999999903
21
-71.7269999999999897
0
LINE
8
BLACK
6
CONTINUOUS
10
83.3699999999999903
20
-71.7269999999999897
11
84.269999999999996
21
-71.7269999999999897
0
LINE
8
BLACK
6
CONTINUOUS
10
84.269999999999996
20
-71.7269999999999897
11
84.3656709999999919
21
-71.7460299999999904
0
LINE
8
BLACK
6
CONTINUOUS
10
93.5096709999999973
20
-69.9115299999999991
11
93.5907770000000028
21
-69.965722999999997
0
LINE
8
BLACK
6
CONTINUOUS
10
93.5907770000000028
20
-69.965722999999997
11
93.6449700000000007
21
-70.0468290000000025
0
LINE
8
BLACK
6
CONTINUOUS
10
93.6449700000000007
20
-70.0468290000000025
11
93.6640000000000015
21
-70.1424999999999983
0
LINE
8
BLACK
6
CONTINUOUS
10
93.6640000000000015
20
-70.1424999999999983
11
93.6640000000000015
21
-70.6674999999999898
0
LINE
8
BLACK
6
CONTINUOUS
10
93.6640000000000015
20
-70.6674999999999898
11
93.6449700000000007
21
-70.7631709999999998
0
LINE
8
BLACK
6
CONTINUOUS
10
93.6449700000000007
20
-70.7631709999999998
11
93.5907770000000028
21
-70.8442769999999911
0
LINE
8
BLACK
6
CONTINUOUS
10
93.5907770000000028
20
-70.8442769999999911
11
93.5096709999999973
21
-70.8984700000000032
0
LINE
8
BLACK
6
CONTINUOUS
10
93.5096709999999973
20
-70.8984700000000032
11
93.4140000000000015
21
-70.9174999999999898
0
LINE
8
BLACK
6
CONTINUOUS
10
93.4140000000000015
20
-70.9174999999999898
11
92.5139999999999958
21
-70.9174999999999898
0
LINE
8
BLACK
6
CONTINUOUS
10
92.5139999999999958
20
-70.9174999999999898
11
92.418329
21
-70.8984700000000032
0
LINE
8
BLACK
6
CONTINUOUS
10
92.418329
20
-70.8984700000000032
11
92.3372229999999945
21
-70.8442769999999911
0
LINE
8
BLACK
6
CONTINUOUS
10
92.3372229999999945
20
-70.8442769999999911
11
92.2830299999999966
21
-70.7631709999999998
0
LINE
8
BLACK
6
CONTINUOUS
10
92.2830299999999966
20
-70.7631709999999998
11
92.2639999999999958
21
-70.6674999999999898
0
LINE
8
BLACK
6
CONTINUOUS
10
92.2639999999999958
20
-70.6674999999999898
11
92.2639999999999958
21
-70.1424999999999983
0
LINE
8
BLACK
6
CONTINUOUS
10
92.2639999999999958
20
-70.1424999999999983
11
92.2830299999999966
21
-70.0468290000000025
0
LINE
8
BLACK
6
CONTINUOUS
10
92.2830299999999966
20
-70.0468290000000025
11
92.3372229999999945
21
-69.965722999999997
0
LINE
8
BLACK
6
CONTINUOUS
10
92.3372229999999945
20
-69.965722999999997
11
92.418329
21
-69.9115299999999991
0
LINE
8
BLACK
6
CONTINUOUS
10
92.418329
20
-69.9115299999999991
11
92.5139999999999958
21
-69.8924999999999983
0
LINE
8
BLACK
6
CONTINUOUS
10
92.5139999999999958
20
-69.8924999999999983
11
93.4140000000000015
21
-69.8924999999999983
0
LINE
8
BLACK
6
CONTINUOUS
10
93.4140000000000015
20
-69.8924999999999983
11
93.5096709999999973
21
-69.9115299999999991
0
LINE
8
BLACK
6
CONTINUOUS
10
96.8116709999999898
20
-69.8880300000000005
11
96.8927769999999953
21
-69.9422229999999985
0
LINE
8
BLACK
6
CONTINUOUS
10
96.8927769999999953
20
-69.9422229999999985
11
96.9469699999999932
21
-70.0233290000000039
0
LINE
8
BLACK
6
CONTINUOUS
10
96.9469699999999932
20
-70.0233290000000039
11
96.965999999999994
21
-70.1189999999999998
0
LINE
8
BLACK
6
CONTINUOUS
10
96.965999999999994
20
-70.1189999999999998
11
96.965999999999994
21
-70.6439999999999912
0
LINE
8
BLACK
6
CONTINUOUS
10
96.965999999999994
20
-70.6439999999999912
11
96.9469699999999932
21
-70.7396710000000013
0
LINE
8
BLACK
6
CONTINUOUS
10
96.9469699999999932
20
-70.7396710000000013
11
96.8927769999999953
21
-70.8207769999999925
0
LINE
8
BLACK
6
CONTINUOUS
10
96.8927769999999953
20
-70.8207769999999925
11
96.8116709999999898
21
-70.8749699999999905
0
LINE
8
BLACK
6
CONTINUOUS
10
96.8116709999999898
20
-70.8749699999999905
11
96.715999999999994
21
-70.8939999999999912
0
LINE
8
BLACK
6
CONTINUOUS
10
96.715999999999994
20
-70.8939999999999912
11
95.8160000000000025
21
-70.8939999999999912
0
LINE
8
BLACK
6
CONTINUOUS
10
95.8160000000000025
20
-70.8939999999999912
11
95.7203289999999924
21
-70.8749699999999905
0
LINE
8
BLACK
6
CONTINUOUS
10
95.7203289999999924
20
-70.8749699999999905
11
95.6392230000000012
21
-70.8207769999999925
0
LINE
8
BLACK
6
CONTINUOUS
10
95.6392230000000012
20
-70.8207769999999925
11
95.5850299999999891
21
-70.7396710000000013
0
LINE
8
BLACK
6
CONTINUOUS
10
95.5850299999999891
20
-70.7396710000000013
11
95.5660000000000025
21
-70.6439999999999912
0
LINE
8
BLACK
6
CONTINUOUS
10
95.5660000000000025
20
-70.6439999999999912
11
95.5660000000000025
21
-70.1189999999999998
0
LINE
8
BLACK
6
CONTINUOUS
10
95.5660000000000025
20
-70.1189999999999998
11
95.5850299999999891
21
-70.0233290000000039
0
LINE
8
BLACK
6
CONTINUOUS
10
95.5850299999999891
20
-70.0233290000000039
11
95.6392230000000012
21
-69.9422229999999985
0
LINE
8
BLACK
6
CONTINUOUS
10
95.6392230000000012
20
-69.9422229999999985
11
95.7203289999999924
21
-69.8880300000000005
0
LINE
8
BLACK
6
CONTINUOUS
10
95.7203289999999924
20
-69.8880300000000005
11
95.8160000000000025
21
-69.8689999999999998
0
LINE
8
BLACK
6
CONTINUOUS
10
95.8160000000000025
20
-69.8689999999999998
11
96.715999999999994
21
-69.8689999999999998
0
LINE
8
BLACK
6
CONTINUOUS
10
96.715999999999994
20
-69.8689999999999998
11
96.8116709999999898
21
-69.8880300000000005
0
LINE
8
BLACK
6
CONTINUOUS
10
93.5096709999999973
20
-68.0865299999999962
11
93.5907770000000028
21
-68.1407229999999942
0
LINE
8
BLACK
6
CONTINUOUS
10
93.5907770000000028
20
-68.1407229999999942
11
93.6449700000000007
21
-68.2218289999999996
0
LINE
8
BLACK
6
CONTINUOUS
10
93.6449700000000007
20
-68.2218289999999996
11
93.6640000000000015
21
-68.3174999999999955
0
LINE
8
BLACK
6
CONTINUOUS
10
93.6640000000000015
20
-68.3174999999999955
11
93.6640000000000015
21
-68.8425000000000011
0
LINE
8
BLACK
6
CONTINUOUS
10
93.6640000000000015
20
-68.8425000000000011
11
93.6449700000000007
21
-68.938170999999997
0
LINE
8
BLACK
6
CONTINUOUS
10
93.6449700000000007
20
-68.938170999999997
11
93.5907770000000028
21
-69.0192770000000024
0
LINE
8
BLACK
6
CONTINUOUS
10
93.5907770000000028
20
-69.0192770000000024
11
93.5096709999999973
21
-69.0734700000000004
0
LINE
8
BLACK
6
CONTINUOUS
10
93.5096709999999973
20
-69.0734700000000004
11
93.4140000000000015
21
-69.0925000000000011
0
LINE
8
BLACK
6
CONTINUOUS
10
93.4140000000000015
20
-69.0925000000000011
11
92.5139999999999958
21
-69.0925000000000011
0
LINE
8
BLACK
6
CONTINUOUS
10
92.5139999999999958
20
-69.0925000000000011
11
92.418329
21
-69.0734700000000004
0
LINE
8
BLACK
6
CONTINUOUS
10
92.418329
20
-69.0734700000000004
11
92.3372229999999945
21
-69.0192770000000024
0
LINE
8
BLACK
6
CONTINUOUS
10
92.3372229999999945
20
-69.0192770000000024
11
92.2830299999999966
21
-68.938170999999997
0
LINE
8
BLACK
6
CONTINUOUS
10
92.2830299999999966
20
-68.938170999999997
11
92.2639999999999958
21
-68.8425000000000011
0
LINE
8
BLACK
6
CONTINUOUS
10
92.2639999999999958
20
-68.8425000000000011
11
92.2639999999999958
21
-68.3174999999999955
0
LINE
8
BLACK
6
CONTINUOUS
10
92.2639999999999958
20
-68.3174999999999955
11
92.2830299999999966
21
-68.2218289999999996
0
LINE
8
BLACK
6
CONTINUOUS
10
92.2830299999999966
20
-68.2218289999999996
11
92.3372229999999945
21
-68.1407229999999942
0
LINE
8
BLACK
6
CONTINUOUS
10
92.3372229999999945
20
-68.1407229999999942
11
92.418329
21
-68.0865299999999962
0
LINE
8
BLACK
6
CONTINUOUS
10
92.418329
20
-68.0865299999999962
11
92.5139999999999958
21
-68.0674999999999955
0
LINE
8
BLACK
6
CONTINUOUS
10
92.5139999999999958
20
-68.0674999999999955
11
93.4140000000000015
21
-68.0674999999999955
0
LINE
8
BLACK
6
CONTINUOUS
10
93.4140000000000015
20
-68.0674999999999955
11
93.5096709999999973
21
-68.0865299999999962
0
LINE
8
BLACK
6
CONTINUOUS
10
96.8116709999999898
20
-68.0630299999999977
11
96.8927769999999953
21
-68.1172229999999956
0
LINE
8
BLACK
6
CONTINUOUS
10
96.8927769999999953
20
-68.1172229999999956
11
96.9469699999999932
21
-68.1983290000000011
0
LINE
8
BLACK
6
CONTINUOUS
10
96.9469699999999932
20
-68.1983290000000011
11
96.965999999999994
21
-68.2939999999999969
0
LINE
8
BLACK
6
CONTINUOUS
10
96.965999999999994
20
-68.2939999999999969
11
96.965999999999994
21
-68.8190000000000026
0
LINE
8
BLACK
6
CONTINUOUS
10
96.965999999999994
20
-68.8190000000000026
11
96.9469699999999932
21
-68.9146709999999985
0
LINE
8
BLACK
6
CONTINUOUS
10
96.9469699999999932
20
-68.9146709999999985
11
96.8927769999999953
21
-68.9957770000000039
0
LINE
8
BLACK
6
CONTINUOUS
10
96.8927769999999953
20
-68.9957770000000039
11
96.8116709999999898
21
-69.0499700000000018
0
LINE
8
BLACK
6
CONTINUOUS
10
96.8116709999999898
20
-69.0499700000000018
11
96.715999999999994
21
-69.0690000000000026
0
LINE
8
BLACK
6
CONTINUOUS
10
96.715999999999994
20
-69.0690000000000026
11
95.8160000000000025
21
-69.0690000000000026
0
LINE
8
BLACK
6
CONTINUOUS
10
95.8160000000000025
20
-69.0690000000000026
11
95.7203289999999924
21
-69.0499700000000018
0
LINE
8
BLACK
6
CONTINUOUS
10
95.7203289999999924
20
-69.0499700000000018
11
95.6392230000000012
21
-68.9957770000000039
0
LINE
8
BLACK
6
CONTINUOUS
10
95.6392230000000012
20
-68.9957770000000039
11
95.5850299999999891
21
-68.9146709999999985
0
LINE
8
BLACK
6
CONTINUOUS
10
95.5850299999999891
20
-68.9146709999999985
11
95.5660000000000025
21
-68.8190000000000026
0
LINE
8
BLACK
6
CONTINUOUS
10
95.5660000000000025
20
-68.8190000000000026
11
95.5660000000000025
21
-68.2939999999999969
0
LINE
8
BLACK
6
CONTINUOUS
10
95.5660000000000025
20
-68.2939999999999969
11
95.5850299999999891
21
-68.1983290000000011
0
LINE
8
BLACK
6
CONTINUOUS
10
95.5850299999999891
20
-68.1983290000000011
11
95.6392230000000012
21
-68.1172229999999956
0
LINE
8
BLACK
6
CONTINUOUS
10
95.6392230000000012
20
-68.1172229999999956
11
95.7203289999999924
21
-68.0630299999999977
0
LINE
8
BLACK
6
CONTINUOUS
10
95.7203289999999924
20
-68.0630299999999977
11
95.8160000000000025
21
-68.0439999999999969
0
LINE
8
BLACK
6
CONTINUOUS
10
95.8160000000000025
20
-68.0439999999999969
11
96.715999999999994
21
-68.0439999999999969
0
LINE
8
BLACK
6
CONTINUOUS
10
96.715999999999994
20
-68.0439999999999969
11
96.8116709999999898
21
-68.0630299999999977
0
LINE
8
BLACK
6
CONTINUOUS
10
124.4976709999999969
20
-63.4110299999999967
11
124.5787769999999881
21
-63.4652229999999946
0
LINE
8
BLACK
6
CONTINUOUS
10
124.5787769999999881
20
-63.4652229999999946
11
124.6329700000000003
21
-63.5463290000000001
0
LINE
8
BLACK
6
CONTINUOUS
10
124.6329700000000003
20
-63.5463290000000001
11
124.652000000000001
21
-63.6419999999999959
0
LINE
8
BLACK
6
CONTINUOUS
10
124.652000000000001
20
-63.6419999999999959
11
124.652000000000001
21
-64.1670000000000016
0
LINE
8
BLACK
6
CONTINUOUS
10
124.652000000000001
20
-64.1670000000000016
11
124.6329700000000003
21
-64.2626709999999974
0
LINE
8
BLACK
6
CONTINUOUS
10
124.6329700000000003
20
-64.2626709999999974
11
124.5787769999999881
21
-64.3437770000000029
0
LINE
8
BLACK
6
CONTINUOUS
10
124.5787769999999881
20
-64.3437770000000029
11
124.4976709999999969
21
-64.3979700000000008
0
LINE
8
BLACK
6
CONTINUOUS
10
124.4976709999999969
20
-64.3979700000000008
11
124.402000000000001
21
-64.4170000000000016
0
LINE
8
BLACK
6
CONTINUOUS
10
124.402000000000001
20
-64.4170000000000016
11
123.5019999999999953
21
-64.4170000000000016
0
LINE
8
BLACK
6
CONTINUOUS
10
123.5019999999999953
20
-64.4170000000000016
11
123.4063289999999995
21
-64.3979700000000008
0
LINE
8
BLACK
6
CONTINUOUS
10
123.4063289999999995
20
-64.3979700000000008
11
123.325222999999994
21
-64.3437770000000029
0
LINE
8
BLACK
6
CONTINUOUS
10
123.325222999999994
20
-64.3437770000000029
11
123.2710299999999961
21
-64.2626709999999974
0
LINE
8
BLACK
6
CONTINUOUS
10
123.2710299999999961
20
-64.2626709999999974
11
123.2519999999999953
21
-64.1670000000000016
0
LINE
8
BLACK
6
CONTINUOUS
10
123.2519999999999953
20
-64.1670000000000016
11
123.2519999999999953
21
-63.6419999999999959
0
LINE
8
BLACK
6
CONTINUOUS
10
123.2519999999999953
20
-63.6419999999999959
11
123.2710299999999961
21
-63.5463290000000001
0
LINE
8
BLACK
6
CONTINUOUS
10
123.2710299999999961
20
-63.5463290000000001
11
123.325222999999994
21
-63.4652229999999946
0
LINE
8
BLACK
6
CONTINUOUS
10
123.325222999999994
20
-63.4652229999999946
11
123.4063289999999995
21
-63.4110299999999967
0
LINE
8
BLACK
6
CONTINUOUS
10
123.4063289999999995
20
-63.4110299999999967
11
123.5019999999999953
21
-63.3919999999999959
0
LINE
8
BLACK
6
CONTINUOUS
10
123.5019999999999953
20
-63.3919999999999959
11
124.402000000000001
21
-63.3919999999999959
0
LINE
8
BLACK
6
CONTINUOUS
10
124.402000000000001
20
-63.3919999999999959
11
124.4976709999999969
21
-63.4110299999999967
0
LINE
8
BLACK
6
CONTINUOUS
10
124.4976709999999969
20
-61.5860299999999938
11
124.5787769999999881
21
-61.6402229999999989
0
LINE
8
BLACK
6
CONTINUOUS
10
124.5787769999999881
20
-61.6402229999999989
11
124.6329700000000003
21
-61.7213289999999972
0
LINE
8
BLACK
6
CONTINUOUS
10
124.6329700000000003
20
-61.7213289999999972
11
124.652000000000001
21
-61.8170000000000002
0
LINE
8
BLACK
6
CONTINUOUS
10
124.652000000000001
20
-61.8170000000000002
11
124.652000000000001
21
-62.3419999999999987
0
LINE
8
BLACK
6
CONTINUOUS
10
124.652000000000001
20
-62.3419999999999987
11
124.6329700000000003
21
-62.4376709999999946
0
LINE
8
BLACK
6
CONTINUOUS
10
124.6329700000000003
20
-62.4376709999999946
11
124.5787769999999881
21
-62.518777
0
LINE
8
BLACK
6
CONTINUOUS
10
124.5787769999999881
20
-62.518777
11
124.4976709999999969
21
-62.572969999999998
0
LINE
8
BLACK
6
CONTINUOUS
10
124.4976709999999969
20
-62.572969999999998
11
124.402000000000001
21
-62.5919999999999987
0
LINE
8
BLACK
6
CONTINUOUS
10
124.402000000000001
20
-62.5919999999999987
11
123.5019999999999953
21
-62.5919999999999987
0
LINE
8
BLACK
6
CONTINUOUS
10
123.5019999999999953
20
-62.5919999999999987
11
123.4063289999999995
21
-62.572969999999998
0
LINE
8
BLACK
6
CONTINUOUS
10
123.4063289999999995
20
-62.572969999999998
11
123.325222999999994
21
-62.518777
0
LINE
8
BLACK
6
CONTINUOUS
10
123.325222999999994
20
-62.518777
11
123.2710299999999961
21
-62.4376709999999946
0
LINE
8
BLACK
6
CONTINUOUS
10
123.2710299999999961
20
-62.4376709999999946
11
123.2519999999999953
21
-62.3419999999999987
0
LINE
8
BLACK
6
CONTINUOUS
10
123.2519999999999953
20
-62.3419999999999987
11
123.2519999999999953
21
-61.8170000000000002
0
LINE
8
BLACK
6
CONTINUOUS
10
123.2519999999999953
20
-61.8170000000000002
11
123.2710299999999961
21
-61.7213289999999972
0
LINE
8
BLACK
6
CONTINUOUS
10
123.2710299999999961
20
-61.7213289999999972
11
123.325222999999994
21
-61.6402229999999989
0
LINE
8
BLACK
6
CONTINUOUS
10
123.325222999999994
20
-61.6402229999999989
11
123.4063289999999995
21
-61.5860299999999938
0
LINE
8
BLACK
6
CONTINUOUS
10
123.4063289999999995
20
-61.5860299999999938
11
123.5019999999999953
21
-61.5670000000000002
0
LINE
8
BLACK
6
CONTINUOUS
10
123.5019999999999953
20
-61.5670000000000002
11
124.402000000000001
21
-61.5670000000000002
0
LINE
8
BLACK
6
CONTINUOUS
10
124.402000000000001
20
-61.5670000000000002
11
124.4976709999999969
21
-61.5860299999999938
0
LINE
8
BLACK
6
CONTINUOUS
10
81.7271709999999985
20
-54.775030000000001
11
81.8082769999999897
21
-54.8292229999999989
0
LINE
8
BLACK
6
CONTINUOUS
10
81.8082769999999897
20
-54.8292229999999989
11
81.8624700000000018
21
-54.9103289999999973
0
LINE
8
BLACK
6
CONTINUOUS
10
81.8624700000000018
20
-54.9103289999999973
11
81.8815000000000026
21
-55.0060000000000002
0
LINE
8
BLACK
6
CONTINUOUS
10
81.8815000000000026
20
-55.0060000000000002
11
81.8815000000000026
21
-55.5309999999999988
0
LINE
8
BLACK
6
CONTINUOUS
10
81.8815000000000026
20
-55.5309999999999988
11
81.8624700000000018
21
-55.6266709999999946
0
LINE
8
BLACK
6
CONTINUOUS
10
81.8624700000000018
20
-55.6266709999999946
11
81.8082769999999897
21
-55.7077770000000001
0
LINE
8
BLACK
6
CONTINUOUS
10
81.8082769999999897
20
-55.7077770000000001
11
81.7271709999999985
21
-55.761969999999998
0
LINE
8
BLACK
6
CONTINUOUS
10
81.7271709999999985
20
-55.761969999999998
11
81.6315000000000026
21
-55.7809999999999988
0
LINE
8
BLACK
6
CONTINUOUS
10
81.6315000000000026
20
-55.7809999999999988
11
80.7314999999999969
21
-55.7809999999999988
0
LINE
8
BLACK
6
CONTINUOUS
10
80.7314999999999969
20
-55.7809999999999988
11
80.6358290000000011
21
-55.761969999999998
0
LINE
8
BLACK
6
CONTINUOUS
10
80.6358290000000011
20
-55.761969999999998
11
80.5547229999999956
21
-55.7077770000000001
0
LINE
8
BLACK
6
CONTINUOUS
10
80.5547229999999956
20
-55.7077770000000001
11
80.5005299999999977
21
-55.6266709999999946
0
LINE
8
BLACK
6
CONTINUOUS
10
80.5005299999999977
20
-55.6266709999999946
11
80.4814999999999969
21
-55.5309999999999988
0
LINE
8
BLACK
6
CONTINUOUS
10
80.4814999999999969
20
-55.5309999999999988
11
80.4814999999999969
21
-55.0060000000000002
0
LINE
8
BLACK
6
CONTINUOUS
10
80.4814999999999969
20
-55.0060000000000002
11
80.5005299999999977
21
-54.9103289999999973
0
LINE
8
BLACK
6
CONTINUOUS
10
80.5005299999999977
20
-54.9103289999999973
11
80.5547229999999956
21
-54.8292229999999989
0
LINE
8
BLACK
6
CONTINUOUS
10
80.5547229999999956
20
-54.8292229999999989
11
80.6358290000000011
21
-54.775030000000001
0
LINE
8
BLACK
6
CONTINUOUS
10
80.6358290000000011
20
-54.775030000000001
11
80.7314999999999969
21
-54.7560000000000002
0
LINE
8
BLACK
6
CONTINUOUS
10
80.7314999999999969
20
-54.7560000000000002
11
81.6315000000000026
21
-54.7560000000000002
0
LINE
8
BLACK
6
CONTINUOUS
10
81.6315000000000026
20
-54.7560000000000002
11
81.7271709999999985
21
-54.775030000000001
0
LINE
8
BLACK
6
CONTINUOUS
10
125.4706709999999958
20
-53.8690299999999951
11
125.5517770000000013
21
-53.9232230000000001
0
LINE
8
BLACK
6
CONTINUOUS
10
125.5517770000000013
20
-53.9232230000000001
11
125.6059699999999992
21
-54.0043289999999985
0
LINE
8
BLACK
6
CONTINUOUS
10
125.6059699999999992
20
-54.0043289999999985
11
125.625
21
-54.0999999999999943
0
LINE
8
BLACK
6
CONTINUOUS
10
125.625
20
-54.0999999999999943
11
125.625
21
-54.5999999999999943
0
LINE
8
BLACK
6
CONTINUOUS
10
125.625
20
-54.5999999999999943
11
125.6059699999999992
21
-54.6956709999999973
0
LINE
8
BLACK
6
CONTINUOUS
10
125.6059699999999992
20
-54.6956709999999973
11
125.5517770000000013
21
-54.7767769999999956
0
LINE
8
BLACK
6
CONTINUOUS
10
125.5517770000000013
20
-54.7767769999999956
11
125.4706709999999958
21
-54.8309700000000007
0
LINE
8
BLACK
6
CONTINUOUS
10
125.4706709999999958
20
-54.8309700000000007
11
125.375
21
-54.8499999999999943
0
LINE
8
BLACK
6
CONTINUOUS
10
125.375
20
-54.8499999999999943
11
124.4249999999999972
21
-54.8499999999999943
0
LINE
8
BLACK
6
CONTINUOUS
10
124.4249999999999972
20
-54.8499999999999943
11
124.3293290000000013
21
-54.8309700000000007
0
LINE
8
BLACK
6
CONTINUOUS
10
124.3293290000000013
20
-54.8309700000000007
11
124.2482229999999959
21
-54.7767769999999956
0
LINE
8
BLACK
6
CONTINUOUS
10
124.2482229999999959
20
-54.7767769999999956
11
124.1940299999999979
21
-54.6956709999999973
0
LINE
8
BLACK
6
CONTINUOUS
10
124.1940299999999979
20
-54.6956709999999973
11
124.1749999999999972
21
-54.5999999999999943
0
LINE
8
BLACK
6
CONTINUOUS
10
124.1749999999999972
20
-54.5999999999999943
11
124.1749999999999972
21
-54.0999999999999943
0
LINE
8
BLACK
6
CONTINUOUS
10
124.1749999999999972
20
-54.0999999999999943
11
124.1940299999999979
21
-54.0043289999999985
0
LINE
8
BLACK
6
CONTINUOUS
10
124.1940299999999979
20
-54.0043289999999985
11
124.2482229999999959
21
-53.9232230000000001
0
LINE
8
BLACK
6
CONTINUOUS
10
124.2482229999999959
20
-53.9232230000000001
11
124.3293290000000013
21
-53.8690299999999951
0
LINE
8
BLACK
6
CONTINUOUS
10
124.3293290000000013
20
-53.8690299999999951
11
124.4249999999999972
21
-53.8499999999999943
0
LINE
8
BLACK
6
CONTINUOUS
10
124.4249999999999972
20
-53.8499999999999943
11
125.375
21
-53.8499999999999943
0
LINE
8
BLACK
6
CONTINUOUS
10
125.375
20
-53.8499999999999943
11
125.4706709999999958
21
-53.8690299999999951
0
LINE
8
BLACK
6
CONTINUOUS
10
81.7271709999999985
20
-52.9500299999999982
11
81.8082769999999897
21
-53.0042229999999961
0
LINE
8
BLACK
6
CONTINUOUS
10
81.8082769999999897
20
-53.0042229999999961
11
81.8624700000000018
21
-53.0853289999999944
0
LINE
8
BLACK
6
CONTINUOUS
10
81.8624700000000018
20
-53.0853289999999944
11
81.8815000000000026
21
-53.1809999999999974
0
LINE
8
BLACK
6
CONTINUOUS
10
81.8815000000000026
20
-53.1809999999999974
11
81.8815000000000026
21
-53.705999999999996
0
LINE
8
BLACK
6
CONTINUOUS
10
81.8815000000000026
20
-53.705999999999996
11
81.8624700000000018
21
-53.8016709999999989
0
LINE
8
BLACK
6
CONTINUOUS
10
81.8624700000000018
20
-53.8016709999999989
11
81.8082769999999897
21
-53.8827769999999973
0
LINE
8
BLACK
6
CONTINUOUS
10
81.8082769999999897
20
-53.8827769999999973
11
81.7271709999999985
21
-53.9369699999999952
0
LINE
8
BLACK
6
CONTINUOUS
10
81.7271709999999985
20
-53.9369699999999952
11
81.6315000000000026
21
-53.955999999999996
0
LINE
8
BLACK
6
CONTINUOUS
10
81.6315000000000026
20
-53.955999999999996
11
80.7314999999999969
21
-53.955999999999996
0
LINE
8
BLACK
6
CONTINUOUS
10
80.7314999999999969
20
-53.955999999999996
11
80.6358290000000011
21
-53.9369699999999952
0
LINE
8
BLACK
6
CONTINUOUS
10
80.6358290000000011
20
-53.9369699999999952
11
80.5547229999999956
21
-53.8827769999999973
0
LINE
8
BLACK
6
CONTINUOUS
10
80.5547229999999956
20
-53.8827769999999973
11
80.5005299999999977
21
-53.8016709999999989
0
LINE
8
BLACK
6
CONTINUOUS
10
80.5005299999999977
20
-53.8016709999999989
11
80.4814999999999969
21
-53.705999999999996
0
LINE
8
BLACK
6
CONTINUOUS
10
80.4814999999999969
20
-53.705999999999996
11
80.4814999999999969
21
-53.1809999999999974
0
LINE
8
BLACK
6
CONTINUOUS
10
80.4814999999999969
20
-53.1809999999999974
11
80.5005299999999977
21
-53.0853289999999944
0
LINE
8
BLACK
6
CONTINUOUS
10
80.5005299999999977
20
-53.0853289999999944
11
80.5547229999999956
21
-53.0042229999999961
0
LINE
8
BLACK
6
CONTINUOUS
10
80.5547229999999956
20
-53.0042229999999961
11
80.6358290000000011
21
-52.9500299999999982
0
LINE
8
BLACK
6
CONTINUOUS
10
80.6358290000000011
20
-52.9500299999999982
11
80.7314999999999969
21
-52.9309999999999974
0
LINE
8
BLACK
6
CONTINUOUS
10
80.7314999999999969
20
-52.9309999999999974
11
81.6315000000000026
21
-52.9309999999999974
0
LINE
8
BLACK
6
CONTINUOUS
10
81.6315000000000026
20
-52.9309999999999974
11
81.7271709999999985
21
-52.9500299999999982
0
LINE
8
BLACK
6
CONTINUOUS
10
116.2956709999999987
20
-52.9190299999999993
11
116.3767769999999899
21
-52.9732229999999973
0
LINE
8
BLACK
6
CONTINUOUS
10
116.3767769999999899
20
-52.9732229999999973
11
116.4309699999999879
21
-53.0543289999999956
0
LINE
8
BLACK
6
CONTINUOUS
10
116.4309699999999879
20
-53.0543289999999956
11
116.4499999999999886
21
-53.1499999999999986
0
LINE
8
BLACK
6
CONTINUOUS
10
116.4499999999999886
20
-53.1499999999999986
11
116.4499999999999886
21
-53.6749999999999972
0
LINE
8
BLACK
6
CONTINUOUS
10
116.4499999999999886
20
-53.6749999999999972
11
116.4309699999999879
21
-53.7706710000000001
0
LINE
8
BLACK
6
CONTINUOUS
10
116.4309699999999879
20
-53.7706710000000001
11
116.3767769999999899
21
-53.8517769999999985
0
LINE
8
BLACK
6
CONTINUOUS
10
116.3767769999999899
20
-53.8517769999999985
11
116.2956709999999987
21
-53.9059699999999964
0
LINE
8
BLACK
6
CONTINUOUS
10
116.2956709999999987
20
-53.9059699999999964
11
116.1999999999999886
21
-53.9249999999999972
0
LINE
8
BLACK
6
CONTINUOUS
10
116.1999999999999886
20
-53.9249999999999972
11
115.2999999999999972
21
-53.9249999999999972
0
LINE
8
BLACK
6
CONTINUOUS
10
115.2999999999999972
20
-53.9249999999999972
11
115.2043290000000013
21
-53.9059699999999964
0
LINE
8
BLACK
6
CONTINUOUS
10
115.2043290000000013
20
-53.9059699999999964
11
115.1232229999999959
21
-53.8517769999999985
0
LINE
8
BLACK
6
CONTINUOUS
10
115.1232229999999959
20
-53.8517769999999985
11
115.0690299999999979
21
-53.7706710000000001
0
LINE
8
BLACK
6
CONTINUOUS
10
115.0690299999999979
20
-53.7706710000000001
11
115.0499999999999972
21
-53.6749999999999972
0
LINE
8
BLACK
6
CONTINUOUS
10
115.0499999999999972
20
-53.6749999999999972
11
115.0499999999999972
21
-53.1499999999999986
0
LINE
8
BLACK
6
CONTINUOUS
10
115.0499999999999972
20
-53.1499999999999986
11
115.0690299999999979
21
-53.0543289999999956
0
LINE
8
BLACK
6
CONTINUOUS
10
115.0690299999999979
20
-53.0543289999999956
11
115.1232229999999959
21
-52.9732229999999973
0
LINE
8
BLACK
6
CONTINUOUS
10
115.1232229999999959
20
-52.9732229999999973
11
115.2043290000000013
21
-52.9190299999999993
0
LINE
8
BLACK
6
CONTINUOUS
10
115.2043290000000013
20
-52.9190299999999993
11
115.2999999999999972
21
-52.8999999999999986
0
LINE
8
BLACK
6
CONTINUOUS
10
115.2999999999999972
20
-52.8999999999999986
11
116.1999999999999886
21
-52.8999999999999986
0
LINE
8
BLACK
6
CONTINUOUS
10
116.1999999999999886
20
-52.8999999999999986
11
116.2956709999999987
21
-52.9190299999999993
0
LINE
8
BLACK
6
CONTINUOUS
10
125.4706709999999958
20
-51.9690299999999965
11
125.5517770000000013
21
-52.0232229999999944
0
LINE
8
BLACK
6
CONTINUOUS
10
125.5517770000000013
20
-52.0232229999999944
11
125.6059699999999992
21
-52.1043289999999999
0
LINE
8
BLACK
6
CONTINUOUS
10
125.6059699999999992
20
-52.1043289999999999
11
125.625
21
-52.1999999999999957
0
LINE
8
BLACK
6
CONTINUOUS
10
125.625
20
-52.1999999999999957
11
125.625
21
-52.6999999999999957
0
LINE
8
BLACK
6
CONTINUOUS
10
125.625
20
-52.6999999999999957
11
125.6059699999999992
21
-52.7956709999999987
0
LINE
8
BLACK
6
CONTINUOUS
10
125.6059699999999992
20
-52.7956709999999987
11
125.5517770000000013
21
-52.876776999999997
0
LINE
8
BLACK
6
CONTINUOUS
10
125.5517770000000013
20
-52.876776999999997
11
125.4706709999999958
21
-52.930969999999995
0
LINE
8
BLACK
6
CONTINUOUS
10
125.4706709999999958
20
-52.930969999999995
11
125.375
21
-52.9499999999999957
0
LINE
8
BLACK
6
CONTINUOUS
10
125.375
20
-52.9499999999999957
11
124.4249999999999972
21
-52.9499999999999957
0
LINE
8
BLACK
6
CONTINUOUS
10
124.4249999999999972
20
-52.9499999999999957
11
124.3293290000000013
21
-52.930969999999995
0
LINE
8
BLACK
6
CONTINUOUS
10
124.3293290000000013
20
-52.930969999999995
11
124.2482229999999959
21
-52.876776999999997
0
LINE
8
BLACK
6
CONTINUOUS
10
124.2482229999999959
20
-52.876776999999997
11
124.1940299999999979
21
-52.7956709999999987
0
LINE
8
BLACK
6
CONTINUOUS
10
124.1940299999999979
20
-52.7956709999999987
11
124.1749999999999972
21
-52.6999999999999957
0
LINE
8
BLACK
6
CONTINUOUS
10
124.1749999999999972
20
-52.6999999999999957
11
124.1749999999999972
21
-52.1999999999999957
0
LINE
8
BLACK
6
CONTINUOUS
10
124.1749999999999972
20
-52.1999999999999957
11
124.1940299999999979
21
-52.1043289999999999
0
LINE
8
BLACK
6
CONTINUOUS
10
124.1940299999999979
20
-52.1043289999999999
11
124.2482229999999959
21
-52.0232229999999944
0
LINE
8
BLACK
6
CONTINUOUS
10
124.2482229999999959
20
-52.0232229999999944
11
124.3293290000000013
21
-51.9690299999999965
0
LINE
8
BLACK
6
CONTINUOUS
10
124.3293290000000013
20
-51.9690299999999965
11
124.4249999999999972
21
-51.9499999999999957
0
LINE
8
BLACK
6
CONTINUOUS
10
124.4249999999999972
20
-51.9499999999999957
11
125.375
21
-51.9499999999999957
0
LINE
8
BLACK
6
CONTINUOUS
10
125.375
20
-51.9499999999999957
11
125.4706709999999958
21
-51.9690299999999965
0
LINE
8
BLACK
6
CONTINUOUS
10
116.2956709999999987
20
-51.0940299999999965
11
116.3767769999999899
21
-51.1482229999999944
0
LINE
8
BLACK
6
CONTINUOUS
10
116.3767769999999899
20
-51.1482229999999944
11
116.4309699999999879
21
-51.2293289999999999
0
LINE
8
BLACK
6
CONTINUOUS
10
116.4309699999999879
20
-51.2293289999999999
11
116.4499999999999886
21
-51.3249999999999957
0
LINE
8
BLACK
6
CONTINUOUS
10
116.4499999999999886
20
-51.3249999999999957
11
116.4499999999999886
21
-51.8499999999999943
0
LINE
8
BLACK
6
CONTINUOUS
10
116.4499999999999886
20
-51.8499999999999943
11
116.4309699999999879
21
-51.9456709999999973
0
LINE
8
BLACK
6
CONTINUOUS
10
116.4309699999999879
20
-51.9456709999999973
11
116.3767769999999899
21
-52.0267769999999956
0
LINE
8
BLACK
6
CONTINUOUS
10
116.3767769999999899
20
-52.0267769999999956
11
116.2956709999999987
21
-52.0809700000000007
0
LINE
8
BLACK
6
CONTINUOUS
10
116.2956709999999987
20
-52.0809700000000007
11
116.1999999999999886
21
-52.0999999999999943
0
LINE
8
BLACK
6
CONTINUOUS
10
116.1999999999999886
20
-52.0999999999999943
11
115.2999999999999972
21
-52.0999999999999943
0
LINE
8
BLACK
6
CONTINUOUS
10
115.2999999999999972
20
-52.0999999999999943
11
115.2043290000000013
21
-52.0809700000000007
0
LINE
8
BLACK
6
CONTINUOUS
10
115.2043290000000013
20
-52.0809700000000007
11
115.1232229999999959
21
-52.0267769999999956
0
LINE
8
BLACK
6
CONTINUOUS
10
115.1232229999999959
20
-52.0267769999999956
11
115.0690299999999979
21
-51.9456709999999973
0
LINE
8
BLACK
6
CONTINUOUS
10
115.0690299999999979
20
-51.9456709999999973
11
115.0499999999999972
21
-51.8499999999999943
0
LINE
8
BLACK
6
CONTINUOUS
10
115.0499999999999972
20
-51.8499999999999943
11
115.0499999999999972
21
-51.3249999999999957
0
LINE
8
BLACK
6
CONTINUOUS
10
115.0499999999999972
20
-51.3249999999999957
11
115.0690299999999979
21
-51.2293289999999999
0
LINE
8
BLACK
6
CONTINUOUS
10
115.0690299999999979
20
-51.2293289999999999
11
115.1232229999999959
21
-51.1482229999999944
0
LINE
8
BLACK
6
CONTINUOUS
10
115.1232229999999959
20
-51.1482229999999944
11
115.2043290000000013
21
-51.0940299999999965
0
LINE
8
BLACK
6
CONTINUOUS
10
115.2043290000000013
20
-51.0940299999999965
11
115.2999999999999972
21
-51.0749999999999957
0
LINE
8
BLACK
6
CONTINUOUS
10
115.2999999999999972
20
-51.0749999999999957
11
116.1999999999999886
21
-51.0749999999999957
0
LINE
8
BLACK
6
CONTINUOUS
10
116.1999999999999886
20
-51.0749999999999957
11
116.2956709999999987
21
-51.0940299999999965
0
LINE
8
BLACK
6
CONTINUOUS
10
96.6774619999999913
20
-48.9586509999999961
11
96.748429999999999
21
-49.0060700000000011
0
LINE
8
BLACK
6
CONTINUOUS
10
96.748429999999999
20
-49.0060700000000011
11
96.7958489999999898
21
-49.0770379999999946
0
LINE
8
BLACK
6
CONTINUOUS
10
96.7958489999999898
20
-49.0770379999999946
11
96.8125
21
-49.1607500000000002
0
LINE
8
BLACK
6
CONTINUOUS
10
96.8125
20
-49.1607500000000002
11
96.8125
21
-49.9232499999999959
0
LINE
8
BLACK
6
CONTINUOUS
10
96.8125
20
-49.9232499999999959
11
96.7958489999999898
21
-50.0069619999999944
0
LINE
8
BLACK
6
CONTINUOUS
10
96.7958489999999898
20
-50.0069619999999944
11
96.748429999999999
21
-50.0779299999999949
0
LINE
8
BLACK
6
CONTINUOUS
10
96.748429999999999
20
-50.0779299999999949
11
96.6774619999999913
21
-50.1253489999999999
0
LINE
8
BLACK
6
CONTINUOUS
10
96.6774619999999913
20
-50.1253489999999999
11
96.59375
21
-50.1419999999999959
0
LINE
8
BLACK
6
CONTINUOUS
10
96.59375
20
-50.1419999999999959
11
96.15625
21
-50.1419999999999959
0
LINE
8
BLACK
6
CONTINUOUS
10
96.15625
20
-50.1419999999999959
11
96.0725379999999944
21
-50.1253489999999999
0
LINE
8
BLACK
6
CONTINUOUS
10
96.0725379999999944
20
-50.1253489999999999
11
96.001570000000001
21
-50.0779299999999949
0
LINE
8
BLACK
6
CONTINUOUS
10
96.001570000000001
20
-50.0779299999999949
11
95.954150999999996
21
-50.0069619999999944
0
LINE
8
BLACK
6
CONTINUOUS
10
95.954150999999996
20
-50.0069619999999944
11
95.9375
21
-49.9232499999999959
0
LINE
8
BLACK
6
CONTINUOUS
10
95.9375
20
-49.9232499999999959
11
95.9375
21
-49.1607500000000002
0
LINE
8
BLACK
6
CONTINUOUS
10
95.9375
20
-49.1607500000000002
11
95.954150999999996
21
-49.0770379999999946
0
LINE
8
BLACK
6
CONTINUOUS
10
95.954150999999996
20
-49.0770379999999946
11
96.001570000000001
21
-49.0060700000000011
0
LINE
8
BLACK
6
CONTINUOUS
10
96.001570000000001
20
-49.0060700000000011
11
96.0725379999999944
21
-48.9586509999999961
0
LINE
8
BLACK
6
CONTINUOUS
10
96.0725379999999944
20
-48.9586509999999961
11
96.15625
21
-48.9420000000000002
0
LINE
8
BLACK
6
CONTINUOUS
10
96.15625
20
-48.9420000000000002
11
96.59375
21
-48.9420000000000002
0
LINE
8
BLACK
6
CONTINUOUS
10
96.59375
20
-48.9420000000000002
11
96.6774619999999913
21
-48.9586509999999961
0
LINE
8
BLACK
6
CONTINUOUS
10
98.8024619999999913
20
-48.9586509999999961
11
98.873429999999999
21
-49.0060700000000011
0
LINE
8
BLACK
6
CONTINUOUS
10
98.873429999999999
20
-49.0060700000000011
11
98.9208489999999898
21
-49.0770379999999946
0
LINE
8
BLACK
6
CONTINUOUS
10
98.9208489999999898
20
-49.0770379999999946
11
98.9375
21
-49.1607500000000002
0
LINE
8
BLACK
6
CONTINUOUS
10
98.9375
20
-49.1607500000000002
11
98.9375
21
-49.9232499999999959
0
LINE
8
BLACK
6
CONTINUOUS
10
98.9375
20
-49.9232499999999959
11
98.9208489999999898
21
-50.0069619999999944
0
LINE
8
BLACK
6
CONTINUOUS
10
98.9208489999999898
20
-50.0069619999999944
11
98.873429999999999
21
-50.0779299999999949
0
LINE
8
BLACK
6
CONTINUOUS
10
98.873429999999999
20
-50.0779299999999949
11
98.8024619999999913
21
-50.1253489999999999
0
LINE
8
BLACK
6
CONTINUOUS
10
98.8024619999999913
20
-50.1253489999999999
11
98.71875
21
-50.1419999999999959
0
LINE
8
BLACK
6
CONTINUOUS
10
98.71875
20
-50.1419999999999959
11
98.28125
21
-50.1419999999999959
0
LINE
8
BLACK
6
CONTINUOUS
10
98.28125
20
-50.1419999999999959
11
98.1975379999999944
21
-50.1253489999999999
0
LINE
8
BLACK
6
CONTINUOUS
10
98.1975379999999944
20
-50.1253489999999999
11
98.126570000000001
21
-50.0779299999999949
0
LINE
8
BLACK
6
CONTINUOUS
10
98.126570000000001
20
-50.0779299999999949
11
98.079150999999996
21
-50.0069619999999944
0
LINE
8
BLACK
6
CONTINUOUS
10
98.079150999999996
20
-50.0069619999999944
11
98.0625
21
-49.9232499999999959
0
LINE
8
BLACK
6
CONTINUOUS
10
98.0625
20
-49.9232499999999959
11
98.0625
21
-49.1607500000000002
0
LINE
8
BLACK
6
CONTINUOUS
10
98.0625
20
-49.1607500000000002
11
98.079150999999996
21
-49.0770379999999946
0
LINE
8
BLACK
6
CONTINUOUS
10
98.079150999999996
20
-49.0770379999999946
11
98.126570000000001
21
-49.0060700000000011
0
LINE
8
BLACK
6
CONTINUOUS
10
98.126570000000001
20
-49.0060700000000011
11
98.1975379999999944
21
-48.9586509999999961
0
LINE
8
BLACK
6
CONTINUOUS
10
98.1975379999999944
20
-48.9586509999999961
11
98.28125
21
-48.9420000000000002
0
LINE
8
BLACK
6
CONTINUOUS
10
98.28125
20
-48.9420000000000002
11
98.71875
21
-48.9420000000000002
0
LINE
8
BLACK
6
CONTINUOUS
10
98.71875
20
-48.9420000000000002
11
98.8024619999999913
21
-48.9586509999999961
0
LINE
8
BLACK
6
CONTINUOUS
10
116.270670999999993
20
-47.9690299999999965
11
116.3517769999999985
21
-48.0232229999999944
0
LINE
8
BLACK
6
CONTINUOUS
10
116.3517769999999985
20
-48.0232229999999944
11
116.4059699999999964
21
-48.1043289999999999
0
LINE
8
BLACK
6
CONTINUOUS
10
116.4059699999999964
20
-48.1043289999999999
11
116.4249999999999972
21
-48.1999999999999957
0
LINE
8
BLACK
6
CONTINUOUS
10
116.4249999999999972
20
-48.1999999999999957
11
116.4249999999999972
21
-48.6999999999999957
0
LINE
8
BLACK
6
CONTINUOUS
10
116.4249999999999972
20
-48.6999999999999957
11
116.4059699999999964
21
-48.7956709999999987
0
LINE
8
BLACK
6
CONTINUOUS
10
116.4059699999999964
20
-48.7956709999999987
11
116.3517769999999985
21
-48.876776999999997
0
LINE
8
BLACK
6
CONTINUOUS
10
116.3517769999999985
20
-48.876776999999997
11
116.270670999999993
21
-48.930969999999995
0
LINE
8
BLACK
6
CONTINUOUS
10
116.270670999999993
20
-48.930969999999995
11
116.1749999999999972
21
-48.9499999999999957
0
LINE
8
BLACK
6
CONTINUOUS
10
116.1749999999999972
20
-48.9499999999999957
11
115.2249999999999943
21
-48.9499999999999957
0
LINE
8
BLACK
6
CONTINUOUS
10
115.2249999999999943
20
-48.9499999999999957
11
115.1293289999999985
21
-48.930969999999995
0
LINE
8
BLACK
6
CONTINUOUS
10
115.1293289999999985
20
-48.930969999999995
11
115.048222999999993
21
-48.876776999999997
0
LINE
8
BLACK
6
CONTINUOUS
10
115.048222999999993
20
-48.876776999999997
11
114.9940299999999951
21
-48.7956709999999987
0
LINE
8
BLACK
6
CONTINUOUS
10
114.9940299999999951
20
-48.7956709999999987
11
114.9749999999999943
21
-48.6999999999999957
0
LINE
8
BLACK
6
CONTINUOUS
10
114.9749999999999943
20
-48.6999999999999957
11
114.9749999999999943
21
-48.1999999999999957
0
LINE
8
BLACK
6
CONTINUOUS
10
114.9749999999999943
20
-48.1999999999999957
11
114.9940299999999951
21
-48.1043289999999999
0
LINE
8
BLACK
6
CONTINUOUS
10
114.9940299999999951
20
-48.1043289999999999
11
115.048222999999993
21
-48.0232229999999944
0
LINE
8
BLACK
6
CONTINUOUS
10
115.048222999999993
20
-48.0232229999999944
11
115.1293289999999985
21
-47.9690299999999965
0
LINE
8
BLACK
6
CONTINUOUS
10
115.1293289999999985
20
-47.9690299999999965
11
115.2249999999999943
21
-47.9499999999999957
0
LINE
8
BLACK
6
CONTINUOUS
10
115.2249999999999943
20
-47.9499999999999957
11
116.1749999999999972
21
-47.9499999999999957
0
LINE
8
BLACK
6
CONTINUOUS
10
116.1749999999999972
20
-47.9499999999999957
11
116.270670999999993
21
-47.9690299999999965
0
LINE
8
BLACK
6
CONTINUOUS
10
116.270670999999993
20
-46.0690299999999979
11
116.3517769999999985
21
-46.1232229999999959
0
LINE
8
BLACK
6
CONTINUOUS
10
116.3517769999999985
20
-46.1232229999999959
11
116.4059699999999964
21
-46.2043290000000013
0
LINE
8
BLACK
6
CONTINUOUS
10
116.4059699999999964
20
-46.2043290000000013
11
116.4249999999999972
21
-46.2999999999999972
0
LINE
8
BLACK
6
CONTINUOUS
10
116.4249999999999972
20
-46.2999999999999972
11
116.4249999999999972
21
-46.7999999999999972
0
LINE
8
BLACK
6
CONTINUOUS
10
116.4249999999999972
20
-46.7999999999999972
11
116.4059699999999964
21
-46.8956710000000001
0
LINE
8
BLACK
6
CONTINUOUS
10
116.4059699999999964
20
-46.8956710000000001
11
116.3517769999999985
21
-46.9767769999999985
0
LINE
8
BLACK
6
CONTINUOUS
10
116.3517769999999985
20
-46.9767769999999985
11
116.270670999999993
21
-47.0309699999999964
0
LINE
8
BLACK
6
CONTINUOUS
10
116.270670999999993
20
-47.0309699999999964
11
116.1749999999999972
21
-47.0499999999999972
0
LINE
8
BLACK
6
CONTINUOUS
10
116.1749999999999972
20
-47.0499999999999972
11
115.2249999999999943
21
-47.0499999999999972
0
LINE
8
BLACK
6
CONTINUOUS
10
115.2249999999999943
20
-47.0499999999999972
11
115.1293289999999985
21
-47.0309699999999964
0
LINE
8
BLACK
6
CONTINUOUS
10
115.1293289999999985
20
-47.0309699999999964
11
115.048222999999993
21
-46.9767769999999985
0
LINE
8
BLACK
6
CONTINUOUS
10
115.048222999999993
20
-46.9767769999999985
11
114.9940299999999951
21
-46.8956710000000001
0
LINE
8
BLACK
6
CONTINUOUS
10
114.9940299999999951
20
-46.8956710000000001
11
114.9749999999999943
21
-46.7999999999999972
0
LINE
8
BLACK
6
CONTINUOUS
10
114.9749999999999943
20
-46.7999999999999972
11
114.9749999999999943
21
-46.2999999999999972
0
LINE
8
BLACK
6
CONTINUOUS
10
114.9749999999999943
20
-46.2999999999999972
11
114.9940299999999951
21
-46.2043290000000013
0
LINE
8
BLACK
6
CONTINUOUS
10
114.9940299999999951
20
-46.2043290000000013
11
115.048222999999993
21
-46.1232229999999959
0
LINE
8
BLACK
6
CONTINUOUS
10
115.048222999999993
20
-46.1232229999999959
11
115.1293289999999985
21
-46.0690299999999979
0
LINE
8
BLACK
6
CONTINUOUS
10
115.1293289999999985
20
-46.0690299999999979
11
115.2249999999999943
21
-46.0499999999999972
0
LINE
8
BLACK
6
CONTINUOUS
10
115.2249999999999943
20
-46.0499999999999972
11
116.1749999999999972
21
-46.0499999999999972
0
LINE
8
BLACK
6
CONTINUOUS
10
116.1749999999999972
20
-46.0499999999999972
11
116.270670999999993
21
-46.0690299999999979
0
LINE
8
BLACK
6
CONTINUOUS
10
68.6176710000000014
20
-44.5115300000000005
11
68.6987769999999927
21
-44.5657229999999984
0
LINE
8
BLACK
6
CONTINUOUS
10
68.6987769999999927
20
-44.5657229999999984
11
68.7529699999999906
21
-44.6468289999999968
0
LINE
8
BLACK
6
CONTINUOUS
10
68.7529699999999906
20
-44.6468289999999968
11
68.7719999999999914
21
-44.7424999999999997
0
LINE
8
BLACK
6
CONTINUOUS
10
68.7719999999999914
20
-44.7424999999999997
11
68.7719999999999914
21
-45.2674999999999983
0
LINE
8
BLACK
6
CONTINUOUS
10
68.7719999999999914
20
-45.2674999999999983
11
68.7529699999999906
21
-45.3631710000000012
0
LINE
8
BLACK
6
CONTINUOUS
10
68.7529699999999906
20
-45.3631710000000012
11
68.6987769999999927
21
-45.4442769999999996
0
LINE
8
BLACK
6
CONTINUOUS
10
68.6987769999999927
20
-45.4442769999999996
11
68.6176710000000014
21
-45.4984699999999975
0
LINE
8
BLACK
6
CONTINUOUS
10
68.6176710000000014
20
-45.4984699999999975
11
68.5219999999999914
21
-45.5174999999999983
0
LINE
8
BLACK
6
CONTINUOUS
10
68.5219999999999914
20
-45.5174999999999983
11
67.6219999999999999
21
-45.5174999999999983
0
LINE
8
BLACK
6
CONTINUOUS
10
67.6219999999999999
20
-45.5174999999999983
11
67.526329000000004
21
-45.4984699999999975
0
LINE
8
BLACK
6
CONTINUOUS
10
67.526329000000004
20
-45.4984699999999975
11
67.4452229999999986
21
-45.4442769999999996
0
LINE
8
BLACK
6
CONTINUOUS
10
67.4452229999999986
20
-45.4442769999999996
11
67.3910300000000007
21
-45.3631710000000012
0
LINE
8
BLACK
6
CONTINUOUS
10
67.3910300000000007
20
-45.3631710000000012
11
67.3719999999999999
21
-45.2674999999999983
0
LINE
8
BLACK
6
CONTINUOUS
10
67.3719999999999999
20
-45.2674999999999983
11
67.3719999999999999
21
-44.7424999999999997
0
LINE
8
BLACK
6
CONTINUOUS
10
67.3719999999999999
20
-44.7424999999999997
11
67.3910300000000007
21
-44.6468289999999968
0
LINE
8
BLACK
6
CONTINUOUS
10
67.3910300000000007
20
-44.6468289999999968
11
67.4452229999999986
21
-44.5657229999999984
0
LINE
8
BLACK
6
CONTINUOUS
10
67.4452229999999986
20
-44.5657229999999984
11
67.526329000000004
21
-44.5115300000000005
0
LINE
8
BLACK
6
CONTINUOUS
10
67.526329000000004
20
-44.5115300000000005
11
67.6219999999999999
21
-44.4924999999999997
0
LINE
8
BLACK
6
CONTINUOUS
10
67.6219999999999999
20
-44.4924999999999997
11
68.5219999999999914
21
-44.4924999999999997
0
LINE
8
BLACK
6
CONTINUOUS
10
68.5219999999999914
20
-44.4924999999999997
11
68.6176710000000014
21
-44.5115300000000005
0
LINE
8
BLACK
6
CONTINUOUS
10
120.1326709999999878
20
-43.7615300000000005
11
120.2137769999999932
21
-43.8157229999999984
0
LINE
8
BLACK
6
CONTINUOUS
10
120.2137769999999932
20
-43.8157229999999984
11
120.2679699999999912
21
-43.8968289999999968
0
LINE
8
BLACK
6
CONTINUOUS
10
120.2679699999999912
20
-43.8968289999999968
11
120.2869999999999919
21
-43.9924999999999997
0
LINE
8
BLACK
6
CONTINUOUS
10
120.2869999999999919
20
-43.9924999999999997
11
120.2869999999999919
21
-44.5174999999999983
0
LINE
8
BLACK
6
CONTINUOUS
10
120.2869999999999919
20
-44.5174999999999983
11
120.2679699999999912
21
-44.6131710000000012
0
LINE
8
BLACK
6
CONTINUOUS
10
120.2679699999999912
20
-44.6131710000000012
11
120.2137769999999932
21
-44.6942769999999996
0
LINE
8
BLACK
6
CONTINUOUS
10
120.2137769999999932
20
-44.6942769999999996
11
120.1326709999999878
21
-44.7484699999999975
0
LINE
8
BLACK
6
CONTINUOUS
10
120.1326709999999878
20
-44.7484699999999975
11
120.0369999999999919
21
-44.7674999999999983
0
LINE
8
BLACK
6
CONTINUOUS
10
120.0369999999999919
20
-44.7674999999999983
11
119.1370000000000005
21
-44.7674999999999983
0
LINE
8
BLACK
6
CONTINUOUS
10
119.1370000000000005
20
-44.7674999999999983
11
119.0413289999999904
21
-44.7484699999999975
0
LINE
8
BLACK
6
CONTINUOUS
10
119.0413289999999904
20
-44.7484699999999975
11
118.9602229999999992
21
-44.6942769999999996
0
LINE
8
BLACK
6
CONTINUOUS
10
118.9602229999999992
20
-44.6942769999999996
11
118.9060300000000012
21
-44.6131710000000012
0
LINE
8
BLACK
6
CONTINUOUS
10
118.9060300000000012
20
-44.6131710000000012
11
118.8870000000000005
21
-44.5174999999999983
0
LINE
8
BLACK
6
CONTINUOUS
10
118.8870000000000005
20
-44.5174999999999983
11
118.8870000000000005
21
-43.9924999999999997
0
LINE
8
BLACK
6
CONTINUOUS
10
118.8870000000000005
20
-43.9924999999999997
11
118.9060300000000012
21
-43.8968289999999968
0
LINE
8
BLACK
6
CONTINUOUS
10
118.9060300000000012
20
-43.8968289999999968
11
118.9602229999999992
21
-43.8157229999999984
0
LINE
8
BLACK
6
CONTINUOUS
10
118.9602229999999992
20
-43.8157229999999984
11
119.0413289999999904
21
-43.7615300000000005
0
LINE
8
BLACK
6
CONTINUOUS
10
119.0413289999999904
20
-43.7615300000000005
11
119.1370000000000005
21
-43.7424999999999997
0
LINE
8
BLACK
6
CONTINUOUS
10
119.1370000000000005
20
-43.7424999999999997
11
120.0369999999999919
21
-43.7424999999999997
0
LINE
8
BLACK
6
CONTINUOUS
10
120.0369999999999919
20
-43.7424999999999997
11
120.1326709999999878
21
-43.7615300000000005
0
LINE
8
BLACK
6
CONTINUOUS
10
116.1206710000000015
20
-42.9190299999999993
11
116.2017769999999928
21
-42.9732229999999973
0
LINE
8
BLACK
6
CONTINUOUS
10
116.2017769999999928
20
-42.9732229999999973
11
116.2559699999999907
21
-43.0543289999999956
0
LINE
8
BLACK
6
CONTINUOUS
10
116.2559699999999907
20
-43.0543289999999956
11
116.2749999999999915
21
-43.1499999999999986
0
LINE
8
BLACK
6
CONTINUOUS
10
116.2749999999999915
20
-43.1499999999999986
11
116.2749999999999915
21
-43.6499999999999986
0
LINE
8
BLACK
6
CONTINUOUS
10
116.2749999999999915
20
-43.6499999999999986
11
116.2559699999999907
21
-43.7456710000000015
0
LINE
8
BLACK
6
CONTINUOUS
10
116.2559699999999907
20
-43.7456710000000015
11
116.2017769999999928
21
-43.8267769999999999
0
LINE
8
BLACK
6
CONTINUOUS
10
116.2017769999999928
20
-43.8267769999999999
11
116.1206710000000015
21
-43.8809699999999978
0
LINE
8
BLACK
6
CONTINUOUS
10
116.1206710000000015
20
-43.8809699999999978
11
116.0249999999999915
21
-43.8999999999999986
0
LINE
8
BLACK
6
CONTINUOUS
10
116.0249999999999915
20
-43.8999999999999986
11
115.0749999999999886
21
-43.8999999999999986
0
LINE
8
BLACK
6
CONTINUOUS
10
115.0749999999999886
20
-43.8999999999999986
11
114.9793289999999928
21
-43.8809699999999978
0
LINE
8
BLACK
6
CONTINUOUS
10
114.9793289999999928
20
-43.8809699999999978
11
114.8982230000000015
21
-43.8267769999999999
0
LINE
8
BLACK
6
CONTINUOUS
10
114.8982230000000015
20
-43.8267769999999999
11
114.8440299999999894
21
-43.7456710000000015
0
LINE
8
BLACK
6
CONTINUOUS
10
114.8440299999999894
20
-43.7456710000000015
11
114.8249999999999886
21
-43.6499999999999986
0
LINE
8
BLACK
6
CONTINUOUS
10
114.8249999999999886
20
-43.6499999999999986
11
114.8249999999999886
21
-43.1499999999999986
0
LINE
8
BLACK
6
CONTINUOUS
10
114.8249999999999886
20
-43.1499999999999986
11
114.8440299999999894
21
-43.0543289999999956
0
LINE
8
BLACK
6
CONTINUOUS
10
114.8440299999999894
20
-43.0543289999999956
11
114.8982230000000015
21
-42.9732229999999973
0
LINE
8
BLACK
6
CONTINUOUS
10
114.8982230000000015
20
-42.9732229999999973
11
114.9793289999999928
21
-42.9190299999999993
0
LINE
8
BLACK
6
CONTINUOUS
10
114.9793289999999928
20
-42.9190299999999993
11
115.0749999999999886
21
-42.8999999999999986
0
LINE
8
BLACK
6
CONTINUOUS
10
115.0749999999999886
20
-42.8999999999999986
11
116.0249999999999915
21
-42.8999999999999986
0
LINE
8
BLACK
6
CONTINUOUS
10
116.0249999999999915
20
-42.8999999999999986
11
116.1206710000000015
21
-42.9190299999999993
0
LINE
8
BLACK
6
CONTINUOUS
10
68.6176710000000014
20
-42.6865299999999976
11
68.6987769999999927
21
-42.7407229999999956
0
LINE
8
BLACK
6
CONTINUOUS
10
68.6987769999999927
20
-42.7407229999999956
11
68.7529699999999906
21
-42.821829000000001
0
LINE
8
BLACK
6
CONTINUOUS
10
68.7529699999999906
20
-42.821829000000001
11
68.7719999999999914
21
-42.9174999999999969
0
LINE
8
BLACK
6
CONTINUOUS
10
68.7719999999999914
20
-42.9174999999999969
11
68.7719999999999914
21
-43.4424999999999955
0
LINE
8
BLACK
6
CONTINUOUS
10
68.7719999999999914
20
-43.4424999999999955
11
68.7529699999999906
21
-43.5381709999999984
0
LINE
8
BLACK
6
CONTINUOUS
10
68.7529699999999906
20
-43.5381709999999984
11
68.6987769999999927
21
-43.6192769999999967
0
LINE
8
BLACK
6
CONTINUOUS
10
68.6987769999999927
20
-43.6192769999999967
11
68.6176710000000014
21
-43.6734699999999947
0
LINE
8
BLACK
6
CONTINUOUS
10
68.6176710000000014
20
-43.6734699999999947
11
68.5219999999999914
21
-43.6924999999999955
0
LINE
8
BLACK
6
CONTINUOUS
10
68.5219999999999914
20
-43.6924999999999955
11
67.6219999999999999
21
-43.6924999999999955
0
LINE
8
BLACK
6
CONTINUOUS
10
67.6219999999999999
20
-43.6924999999999955
11
67.526329000000004
21
-43.6734699999999947
0
LINE
8
BLACK
6
CONTINUOUS
10
67.526329000000004
20
-43.6734699999999947
11
67.4452229999999986
21
-43.6192769999999967
0
LINE
8
BLACK
6
CONTINUOUS
10
67.4452229999999986
20
-43.6192769999999967
11
67.3910300000000007
21
-43.5381709999999984
0
LINE
8
BLACK
6
CONTINUOUS
10
67.3910300000000007
20
-43.5381709999999984
11
67.3719999999999999
21
-43.4424999999999955
0
LINE
8
BLACK
6
CONTINUOUS
10
67.3719999999999999
20
-43.4424999999999955
11
67.3719999999999999
21
-42.9174999999999969
0
LINE
8
BLACK
6
CONTINUOUS
10
67.3719999999999999
20
-42.9174999999999969
11
67.3910300000000007
21
-42.821829000000001
0
LINE
8
BLACK
6
CONTINUOUS
10
67.3910300000000007
20
-42.821829000000001
11
67.4452229999999986
21
-42.7407229999999956
0
LINE
8
BLACK
6
CONTINUOUS
10
67.4452229999999986
20
-42.7407229999999956
11
67.526329000000004
21
-42.6865299999999976
0
LINE
8
BLACK
6
CONTINUOUS
10
67.526329000000004
20
-42.6865299999999976
11
67.6219999999999999
21
-42.6674999999999969
0
LINE
8
BLACK
6
CONTINUOUS
10
67.6219999999999999
20
-42.6674999999999969
11
68.5219999999999914
21
-42.6674999999999969
0
LINE
8
BLACK
6
CONTINUOUS
10
68.5219999999999914
20
-42.6674999999999969
11
68.6176710000000014
21
-42.6865299999999976
0
LINE
8
BLACK
6
CONTINUOUS
10
120.1326709999999878
20
-41.9365299999999976
11
120.2137769999999932
21
-41.9907229999999956
0
LINE
8
BLACK
6
CONTINUOUS
10
120.2137769999999932
20
-41.9907229999999956
11
120.2679699999999912
21
-42.071829000000001
0
LINE
8
BLACK
6
CONTINUOUS
10
120.2679699999999912
20
-42.071829000000001
11
120.2869999999999919
21
-42.1674999999999969
0
LINE
8
BLACK
6
CONTINUOUS
10
120.2869999999999919
20
-42.1674999999999969
11
120.2869999999999919
21
-42.6924999999999955
0
LINE
8
BLACK
6
CONTINUOUS
10
120.2869999999999919
20
-42.6924999999999955
11
120.2679699999999912
21
-42.7881709999999984
0
LINE
8
BLACK
6
CONTINUOUS
10
120.2679699999999912
20
-42.7881709999999984
11
120.2137769999999932
21
-42.8692769999999967
0
LINE
8
BLACK
6
CONTINUOUS
10
120.2137769999999932
20
-42.8692769999999967
11
120.1326709999999878
21
-42.9234699999999947
0
LINE
8
BLACK
6
CONTINUOUS
10
120.1326709999999878
20
-42.9234699999999947
11
120.0369999999999919
21
-42.9424999999999955
0
LINE
8
BLACK
6
CONTINUOUS
10
120.0369999999999919
20
-42.9424999999999955
11
119.1370000000000005
21
-42.9424999999999955
0
LINE
8
BLACK
6
CONTINUOUS
10
119.1370000000000005
20
-42.9424999999999955
11
119.0413289999999904
21
-42.9234699999999947
0
LINE
8
BLACK
6
CONTINUOUS
10
119.0413289999999904
20
-42.9234699999999947
11
118.9602229999999992
21
-42.8692769999999967
0
LINE
8
BLACK
6
CONTINUOUS
10
118.9602229999999992
20
-42.8692769999999967
11
118.9060300000000012
21
-42.7881709999999984
0
LINE
8
BLACK
6
CONTINUOUS
10
118.9060300000000012
20
-42.7881709999999984
11
118.8870000000000005
21
-42.6924999999999955
0
LINE
8
BLACK
6
CONTINUOUS
10
118.8870000000000005
20
-42.6924999999999955
11
118.8870000000000005
21
-42.1674999999999969
0
LINE
8
BLACK
6
CONTINUOUS
10
118.8870000000000005
20
-42.1674999999999969
11
118.9060300000000012
21
-42.071829000000001
0
LINE
8
BLACK
6
CONTINUOUS
10
118.9060300000000012
20
-42.071829000000001
11
118.9602229999999992
21
-41.9907229999999956
0
LINE
8
BLACK
6
CONTINUOUS
10
118.9602229999999992
20
-41.9907229999999956
11
119.0413289999999904
21
-41.9365299999999976
0
LINE
8
BLACK
6
CONTINUOUS
10
119.0413289999999904
20
-41.9365299999999976
11
119.1370000000000005
21
-41.9174999999999969
0
LINE
8
BLACK
6
CONTINUOUS
10
119.1370000000000005
20
-41.9174999999999969
11
120.0369999999999919
21
-41.9174999999999969
0
LINE
8
BLACK
6
CONTINUOUS
10
120.0369999999999919
20
-41.9174999999999969
11
120.1326709999999878
21
-41.9365299999999976
0
LINE
8
BLACK
6
CONTINUOUS
10
96.7456710000000015
20
-41.3440299999999965
11
96.8267769999999928
21
-41.3982230000000015
0
LINE
8
BLACK
6
CONTINUOUS
10
96.8267769999999928
20
-41.3982230000000015
11
96.8809699999999907
21
-41.4793289999999999
0
LINE
8
BLACK
6
CONTINUOUS
10
96.8809699999999907
20
-41.4793289999999999
11
96.8999999999999915
21
-41.5749999999999957
0
LINE
8
BLACK
6
CONTINUOUS
10
96.8999999999999915
20
-41.5749999999999957
11
96.8999999999999915
21
-42.5249999999999986
0
LINE
8
BLACK
6
CONTINUOUS
10
96.8999999999999915
20
-42.5249999999999986
11
96.8809699999999907
21
-42.6206710000000015
0
LINE
8
BLACK
6
CONTINUOUS
10
96.8809699999999907
20
-42.6206710000000015
11
96.8267769999999928
21
-42.7017769999999999
0
LINE
8
BLACK
6
CONTINUOUS
10
96.8267769999999928
20
-42.7017769999999999
11
96.7456710000000015
21
-42.7559699999999978
0
LINE
8
BLACK
6
CONTINUOUS
10
96.7456710000000015
20
-42.7559699999999978
11
96.6499999999999915
21
-42.7749999999999986
0
LINE
8
BLACK
6
CONTINUOUS
10
96.6499999999999915
20
-42.7749999999999986
11
96.1499999999999915
21
-42.7749999999999986
0
LINE
8
BLACK
6
CONTINUOUS
10
96.1499999999999915
20
-42.7749999999999986
11
96.0543289999999956
21
-42.7559699999999978
0
LINE
8
BLACK
6
CONTINUOUS
10
96.0543289999999956
20
-42.7559699999999978
11
95.9732229999999902
21
-42.7017769999999999
0
LINE
8
BLACK
6
CONTINUOUS
10
95.9732229999999902
20
-42.7017769999999999
11
95.9190299999999922
21
-42.6206710000000015
0
LINE
8
BLACK
6
CONTINUOUS
10
95.9190299999999922
20
-42.6206710000000015
11
95.8999999999999915
21
-42.5249999999999986
0
LINE
8
BLACK
6
CONTINUOUS
10
95.8999999999999915
20
-42.5249999999999986
11
95.8999999999999915
21
-41.5749999999999957
0
LINE
8
BLACK
6
CONTINUOUS
10
95.8999999999999915
20
-41.5749999999999957
11
95.9190299999999922
21
-41.4793289999999999
0
LINE
8
BLACK
6
CONTINUOUS
10
95.9190299999999922
20
-41.4793289999999999
11
95.9732229999999902
21
-41.3982230000000015
0
LINE
8
BLACK
6
CONTINUOUS
10
95.9732229999999902
20
-41.3982230000000015
11
96.0543289999999956
21
-41.3440299999999965
0
LINE
8
BLACK
6
CONTINUOUS
10
96.0543289999999956
20
-41.3440299999999965
11
96.1499999999999915
21
-41.3249999999999957
0
LINE
8
BLACK
6
CONTINUOUS
10
96.1499999999999915
20
-41.3249999999999957
11
96.6499999999999915
21
-41.3249999999999957
0
LINE
8
BLACK
6
CONTINUOUS
10
96.6499999999999915
20
-41.3249999999999957
11
96.7456710000000015
21
-41.3440299999999965
0
LINE
8
BLACK
6
CONTINUOUS
10
98.645670999999993
20
-41.3440299999999965
11
98.7267769999999985
21
-41.3982230000000015
0
LINE
8
BLACK
6
CONTINUOUS
10
98.7267769999999985
20
-41.3982230000000015
11
98.7809699999999964
21
-41.4793289999999999
0
LINE
8
BLACK
6
CONTINUOUS
10
98.7809699999999964
20
-41.4793289999999999
11
98.7999999999999972
21
-41.5749999999999957
0
LINE
8
BLACK
6
CONTINUOUS
10
98.7999999999999972
20
-41.5749999999999957
11
98.7999999999999972
21
-42.5249999999999986
0
LINE
8
BLACK
6
CONTINUOUS
10
98.7999999999999972
20
-42.5249999999999986
11
98.7809699999999964
21
-42.6206710000000015
0
LINE
8
BLACK
6
CONTINUOUS
10
98.7809699999999964
20
-42.6206710000000015
11
98.7267769999999985
21
-42.7017769999999999
0
LINE
8
BLACK
6
CONTINUOUS
10
98.7267769999999985
20
-42.7017769999999999
11
98.645670999999993
21
-42.7559699999999978
0
LINE
8
BLACK
6
CONTINUOUS
10
98.645670999999993
20
-42.7559699999999978
11
98.5499999999999972
21
-42.7749999999999986
0
LINE
8
BLACK
6
CONTINUOUS
10
98.5499999999999972
20
-42.7749999999999986
11
98.0499999999999972
21
-42.7749999999999986
0
LINE
8
BLACK
6
CONTINUOUS
10
98.0499999999999972
20
-42.7749999999999986
11
97.9543290000000013
21
-42.7559699999999978
0
LINE
8
BLACK
6
CONTINUOUS
10
97.9543290000000013
20
-42.7559699999999978
11
97.8732229999999959
21
-42.7017769999999999
0
LINE
8
BLACK
6
CONTINUOUS
10
97.8732229999999959
20
-42.7017769999999999
11
97.8190299999999979
21
-42.6206710000000015
0
LINE
8
BLACK
6
CONTINUOUS
10
97.8190299999999979
20
-42.6206710000000015
11
97.7999999999999972
21
-42.5249999999999986
0
LINE
8
BLACK
6
CONTINUOUS
10
97.7999999999999972
20
-42.5249999999999986
11
97.7999999999999972
21
-41.5749999999999957
0
LINE
8
BLACK
6
CONTINUOUS
10
97.7999999999999972
20
-41.5749999999999957
11
97.8190299999999979
21
-41.4793289999999999
0
LINE
8
BLACK
6
CONTINUOUS
10
97.8190299999999979
20
-41.4793289999999999
11
97.8732229999999959
21
-41.3982230000000015
0
LINE
8
BLACK
6
CONTINUOUS
10
97.8732229999999959
20
-41.3982230000000015
11
97.9543290000000013
21
-41.3440299999999965
0
LINE
8
BLACK
6
CONTINUOUS
10
97.9543290000000013
20
-41.3440299999999965
11
98.0499999999999972
21
-41.3249999999999957
0
LINE
8
BLACK
6
CONTINUOUS
10
98.0499999999999972
20
-41.3249999999999957
11
98.5499999999999972
21
-41.3249999999999957
0
LINE
8
BLACK
6
CONTINUOUS
10
98.5499999999999972
20
-41.3249999999999957
11
98.645670999999993
21
-41.3440299999999965
0
LINE
8
BLACK
6
CONTINUOUS
10
116.1206710000000015
20
-41.0190300000000008
11
116.2017769999999928
21
-41.0732229999999987
0
LINE
8
BLACK
6
CONTINUOUS
10
116.2017769999999928
20
-41.0732229999999987
11
116.2559699999999907
21
-41.1543289999999971
0
LINE
8
BLACK
6
CONTINUOUS
10
116.2559699999999907
20
-41.1543289999999971
11
116.2749999999999915
21
-41.25
0
LINE
8
BLACK
6
CONTINUOUS
10
116.2749999999999915
20
-41.25
11
116.2749999999999915
21
-41.75
0
LINE
8
BLACK
6
CONTINUOUS
10
116.2749999999999915
20
-41.75
11
116.2559699999999907
21
-41.8456709999999958
0
LINE
8
BLACK
6
CONTINUOUS
10
116.2559699999999907
20
-41.8456709999999958
11
116.2017769999999928
21
-41.9267770000000013
0
LINE
8
BLACK
6
CONTINUOUS
10
116.2017769999999928
20
-41.9267770000000013
11
116.1206710000000015
21
-41.9809699999999992
0
LINE
8
BLACK
6
CONTINUOUS
10
116.1206710000000015
20
-41.9809699999999992
11
116.0249999999999915
21
-42.
0
LINE
8
BLACK
6
CONTINUOUS
10
116.0249999999999915
20
-42.
11
115.0749999999999886
21
-42.
0
LINE
8
BLACK
6
CONTINUOUS
10
115.0749999999999886
20
-42.
11
114.9793289999999928
21
-41.9809699999999992
0
LINE
8
BLACK
6
CONTINUOUS
10
114.9793289999999928
20
-41.9809699999999992
11
114.8982230000000015
21
-41.9267770000000013
0
LINE
8
BLACK
6
CONTINUOUS
10
114.8982230000000015
20
-41.9267770000000013
11
114.8440299999999894
21
-41.8456709999999958
0
LINE
8
BLACK
6
CONTINUOUS
10
114.8440299999999894
20
-41.8456709999999958
11
114.8249999999999886
21
-41.75
0
LINE
8
BLACK
6
CONTINUOUS
10
114.8249999999999886
20
-41.75
11
114.8249999999999886
21
-41.25
0
LINE
8
BLACK
6
CONTINUOUS
10
114.8249999999999886
20
-41.25
11
114.8440299999999894
21
-41.1543289999999971
0
LINE
8
BLACK
6
CONTINUOUS
10
114.8440299999999894
20
-41.1543289999999971
11
114.8982230000000015
21
-41.0732229999999987
0
LINE
8
BLACK
6
CONTINUOUS
10
114.8982230000000015
20
-41.0732229999999987
11
114.9793289999999928
21
-41.0190300000000008
0
LINE
8
BLACK
6
CONTINUOUS
10
114.9793289999999928
20
-41.0190300000000008
11
115.0749999999999886
21
-41.
0
LINE
8
BLACK
6
CONTINUOUS
10
115.0749999999999886
20
-41.
11
116.0249999999999915
21
-41.
0
LINE
8
BLACK
6
CONTINUOUS
10
116.0249999999999915
20
-41.
11
116.1206710000000015
21
-41.0190300000000008
0
LINE
8
BLACK
6
CONTINUOUS
10
102.0048709999999943
20
-33.116029999999995
11
102.0859769999999997
21
-33.170223
0
LINE
8
BLACK
6
CONTINUOUS
10
102.0859769999999997
20
-33.170223
11
102.1401699999999977
21
-33.2513289999999984
0
LINE
8
BLACK
6
CONTINUOUS
10
102.1401699999999977
20
-33.2513289999999984
11
102.1591999999999985
21
-33.3470000000000013
0
LINE
8
BLACK
6
CONTINUOUS
10
102.1591999999999985
20
-33.3470000000000013
11
102.1591999999999985
21
-34.296999999999997
0
LINE
8
BLACK
6
CONTINUOUS
10
102.1591999999999985
20
-34.296999999999997
11
102.1401699999999977
21
-34.392671
0
LINE
8
BLACK
6
CONTINUOUS
10
102.1401699999999977
20
-34.392671
11
102.0859769999999997
21
-34.4737769999999983
0
LINE
8
BLACK
6
CONTINUOUS
10
102.0859769999999997
20
-34.4737769999999983
11
102.0048709999999943
21
-34.5279699999999963
0
LINE
8
BLACK
6
CONTINUOUS
10
102.0048709999999943
20
-34.5279699999999963
11
101.9091999999999985
21
-34.546999999999997
0
LINE
8
BLACK
6
CONTINUOUS
10
101.9091999999999985
20
-34.546999999999997
11
101.4091999999999985
21
-34.546999999999997
0
LINE
8
BLACK
6
CONTINUOUS
10
101.4091999999999985
20
-34.546999999999997
11
101.3135289999999884
21
-34.5279699999999963
0
LINE
8
BLACK
6
CONTINUOUS
10
101.3135289999999884
20
-34.5279699999999963
11
101.2324229999999972
21
-34.4737769999999983
0
LINE
8
BLACK
6
CONTINUOUS
10
101.2324229999999972
20
-34.4737769999999983
11
101.1782299999999992
21
-34.392671
0
LINE
8
BLACK
6
CONTINUOUS
10
101.1782299999999992
20
-34.392671
11
101.1591999999999985
21
-34.296999999999997
0
LINE
8
BLACK
6
CONTINUOUS
10
101.1591999999999985
20
-34.296999999999997
11
101.1591999999999985
21
-33.3470000000000013
0
LINE
8
BLACK
6
CONTINUOUS
10
101.1591999999999985
20
-33.3470000000000013
11
101.1782299999999992
21
-33.2513289999999984
0
LINE
8
BLACK
6
CONTINUOUS
10
101.1782299999999992
20
-33.2513289999999984
11
101.2324229999999972
21
-33.170223
0
LINE
8
BLACK
6
CONTINUOUS
10
101.2324229999999972
20
-33.170223
11
101.3135289999999884
21
-33.116029999999995
0
LINE
8
BLACK
6
CONTINUOUS
10
101.3135289999999884
20
-33.116029999999995
11
101.4091999999999985
21
-33.0970000000000013
0
LINE
8
BLACK
6
CONTINUOUS
10
101.4091999999999985
20
-33.0970000000000013
11
101.9091999999999985
21
-33.0970000000000013
0
LINE
8
BLACK
6
CONTINUOUS
10
101.9091999999999985
20
-33.0970000000000013
11
102.0048709999999943
21
-33.116029999999995
0
LINE
8
BLACK
6
CONTINUOUS
10
103.904871
20
-33.116029999999995
11
103.9859769999999912
21
-33.170223
0
LINE
8
BLACK
6
CONTINUOUS
10
103.9859769999999912
20
-33.170223
11
104.0401699999999892
21
-33.2513289999999984
0
LINE
8
BLACK
6
CONTINUOUS
10
104.0401699999999892
20
-33.2513289999999984
11
104.0591999999999899
21
-33.3470000000000013
0
LINE
8
BLACK
6
CONTINUOUS
10
104.0591999999999899
20
-33.3470000000000013
11
104.0591999999999899
21
-34.296999999999997
0
LINE
8
BLACK
6
CONTINUOUS
10
104.0591999999999899
20
-34.296999999999997
11
104.0401699999999892
21
-34.392671
0
LINE
8
BLACK
6
CONTINUOUS
10
104.0401699999999892
20
-34.392671
11
103.9859769999999912
21
-34.4737769999999983
0
LINE
8
BLACK
6
CONTINUOUS
10
103.9859769999999912
20
-34.4737769999999983
11
103.904871
21
-34.5279699999999963
0
LINE
8
BLACK
6
CONTINUOUS
10
103.904871
20
-34.5279699999999963
11
103.8091999999999899
21
-34.546999999999997
0
LINE
8
BLACK
6
CONTINUOUS
10
103.8091999999999899
20
-34.546999999999997
11
103.3091999999999899
21
-34.546999999999997
0
LINE
8
BLACK
6
CONTINUOUS
10
103.3091999999999899
20
-34.546999999999997
11
103.2135289999999941
21
-34.5279699999999963
0
LINE
8
BLACK
6
CONTINUOUS
10
103.2135289999999941
20
-34.5279699999999963
11
103.1324229999999886
21
-34.4737769999999983
0
LINE
8
BLACK
6
CONTINUOUS
10
103.1324229999999886
20
-34.4737769999999983
11
103.0782299999999907
21
-34.392671
0
LINE
8
BLACK
6
CONTINUOUS
10
103.0782299999999907
20
-34.392671
11
103.0591999999999899
21
-34.296999999999997
0
LINE
8
BLACK
6
CONTINUOUS
10
103.0591999999999899
20
-34.296999999999997
11
103.0591999999999899
21
-33.3470000000000013
0
LINE
8
BLACK
6
CONTINUOUS
10
103.0591999999999899
20
-33.3470000000000013
11
103.0782299999999907
21
-33.2513289999999984
0
LINE
8
BLACK
6
CONTINUOUS
10
103.0782299999999907
20
-33.2513289999999984
11
103.1324229999999886
21
-33.170223
0
LINE
8
BLACK
6
CONTINUOUS
10
103.1324229999999886
20
-33.170223
11
103.2135289999999941
21
-33.116029999999995
0
LINE
8
BLACK
6
CONTINUOUS
10
103.2135289999999941
20
-33.116029999999995
11
103.3091999999999899
21
-33.0970000000000013
0
LINE
8
BLACK
6
CONTINUOUS
10
103.3091999999999899
20
-33.0970000000000013
11
103.8091999999999899
21
-33.0970000000000013
0
LINE
8
BLACK
6
CONTINUOUS
10
103.8091999999999899
20
-33.0970000000000013
11
103.904871
21
-33.116029999999995
0
LINE
8
BLACK
6
CONTINUOUS
10
115.0526709999999895
20
-33.197029999999998
11
115.1337769999999949
21
-33.251222999999996
0
LINE
8
BLACK
6
CONTINUOUS
10
115.1337769999999949
20
-33.251222999999996
11
115.1879699999999929
21
-33.3323290000000014
0
LINE
8
BLACK
6
CONTINUOUS
10
115.1879699999999929
20
-33.3323290000000014
11
115.2069999999999936
21
-33.4279999999999973
0
LINE
8
BLACK
6
CONTINUOUS
10
115.2069999999999936
20
-33.4279999999999973
11
115.2069999999999936
21
-33.9529999999999959
0
LINE
8
BLACK
6
CONTINUOUS
10
115.2069999999999936
20
-33.9529999999999959
11
115.1879699999999929
21
-34.0486709999999988
0
LINE
8
BLACK
6
CONTINUOUS
10
115.1879699999999929
20
-34.0486709999999988
11
115.1337769999999949
21
-34.1297769999999971
0
LINE
8
BLACK
6
CONTINUOUS
10
115.1337769999999949
20
-34.1297769999999971
11
115.0526709999999895
21
-34.1839699999999951
0
LINE
8
BLACK
6
CONTINUOUS
10
115.0526709999999895
20
-34.1839699999999951
11
114.9569999999999936
21
-34.2029999999999959
0
LINE
8
BLACK
6
CONTINUOUS
10
114.9569999999999936
20
-34.2029999999999959
11
114.0569999999999879
21
-34.2029999999999959
0
LINE
8
BLACK
6
CONTINUOUS
10
114.0569999999999879
20
-34.2029999999999959
11
113.9613289999999921
21
-34.1839699999999951
0
LINE
8
BLACK
6
CONTINUOUS
10
113.9613289999999921
20
-34.1839699999999951
11
113.8802230000000009
21
-34.1297769999999971
0
LINE
8
BLACK
6
CONTINUOUS
10
113.8802230000000009
20
-34.1297769999999971
11
113.8260299999999887
21
-34.0486709999999988
0
LINE
8
BLACK
6
CONTINUOUS
10
113.8260299999999887
20
-34.0486709999999988
11
113.8069999999999879
21
-33.9529999999999959
0
LINE
8
BLACK
6
CONTINUOUS
10
113.8069999999999879
20
-33.9529999999999959
11
113.8069999999999879
21
-33.4279999999999973
0
LINE
8
BLACK
6
CONTINUOUS
10
113.8069999999999879
20
-33.4279999999999973
11
113.8260299999999887
21
-33.3323290000000014
0
LINE
8
BLACK
6
CONTINUOUS
10
113.8260299999999887
20
-33.3323290000000014
11
113.8802230000000009
21
-33.251222999999996
0
LINE
8
BLACK
6
CONTINUOUS
10
113.8802230000000009
20
-33.251222999999996
11
113.9613289999999921
21
-33.197029999999998
0
LINE
8
BLACK
6
CONTINUOUS
10
113.9613289999999921
20
-33.197029999999998
11
114.0569999999999879
21
-33.1779999999999973
0
LINE
8
BLACK
6
CONTINUOUS
10
114.0569999999999879
20
-33.1779999999999973
11
114.9569999999999936
21
-33.1779999999999973
0
LINE
8
BLACK
6
CONTINUOUS
10
114.9569999999999936
20
-33.1779999999999973
11
115.0526709999999895
21
-33.197029999999998
0
LINE
8
BLACK
6
CONTINUOUS
10
115.0526709999999895
20
-31.3720299999999988
11
115.1337769999999949
21
-31.4262230000000002
0
LINE
8
BLACK
6
CONTINUOUS
10
115.1337769999999949
20
-31.4262230000000002
11
115.1879699999999929
21
-31.5073289999999986
0
LINE
8
BLACK
6
CONTINUOUS
10
115.1879699999999929
20
-31.5073289999999986
11
115.2069999999999936
21
-31.602999999999998
0
LINE
8
BLACK
6
CONTINUOUS
10
115.2069999999999936
20
-31.602999999999998
11
115.2069999999999936
21
-32.1280000000000001
0
LINE
8
BLACK
6
CONTINUOUS
10
115.2069999999999936
20
-32.1280000000000001
11
115.1879699999999929
21
-32.223670999999996
0
LINE
8
BLACK
6
CONTINUOUS
10
115.1879699999999929
20
-32.223670999999996
11
115.1337769999999949
21
-32.3047770000000014
0
LINE
8
BLACK
6
CONTINUOUS
10
115.1337769999999949
20
-32.3047770000000014
11
115.0526709999999895
21
-32.3589699999999993
0
LINE
8
BLACK
6
CONTINUOUS
10
115.0526709999999895
20
-32.3589699999999993
11
114.9569999999999936
21
-32.3780000000000001
0
LINE
8
BLACK
6
CONTINUOUS
10
114.9569999999999936
20
-32.3780000000000001
11
114.0569999999999879
21
-32.3780000000000001
0
LINE
8
BLACK
6
CONTINUOUS
10
114.0569999999999879
20
-32.3780000000000001
11
113.9613289999999921
21
-32.3589699999999993
0
LINE
8
BLACK
6
CONTINUOUS
10
113.9613289999999921
20
-32.3589699999999993
11
113.8802230000000009
21
-32.3047770000000014
0
LINE
8
BLACK
6
CONTINUOUS
10
113.8802230000000009
20
-32.3047770000000014
11
113.8260299999999887
21
-32.223670999999996
0
LINE
8
BLACK
6
CONTINUOUS
10
113.8260299999999887
20
-32.223670999999996
11
113.8069999999999879
21
-32.1280000000000001
0
LINE
8
BLACK
6
CONTINUOUS
10
113.8069999999999879
20
-32.1280000000000001
11
113.8069999999999879
21
-31.602999999999998
0
LINE
8
BLACK
6
CONTINUOUS
10
113.8069999999999879
20
-31.602999999999998
11
113.8260299999999887
21
-31.5073289999999986
0
LINE
8
BLACK
6
CONTINUOUS
10
113.8260299999999887
20
-31.5073289999999986
11
113.8802230000000009
21
-31.4262230000000002
0
LINE
8
BLACK
6
CONTINUOUS
10
113.8802230000000009
20
-31.4262230000000002
11
113.9613289999999921
21
-31.3720299999999988
0
LINE
8
BLACK
6
CONTINUOUS
10
113.9613289999999921
20
-31.3720299999999988
11
114.0569999999999879
21
-31.352999999999998
0
LINE
8
BLACK
6
CONTINUOUS
10
114.0569999999999879
20
-31.352999999999998
11
114.9569999999999936
21
-31.352999999999998
0
LINE
8
BLACK
6
CONTINUOUS
10
114.9569999999999936
20
-31.352999999999998
11
115.0526709999999895
21
-31.3720299999999988
0
LINE
8
BLACK
6
CONTINUOUS
10
125.4370709999999889
20
-30.390229999999999
11
125.5181769999999943
21
-30.4444229999999969
0
LINE
8
BLACK
6
CONTINUOUS
10
125.5181769999999943
20
-30.4444229999999969
11
125.5723699999999923
21
-30.5255289999999988
0
LINE
8
BLACK
6
CONTINUOUS
10
125.5723699999999923
20
-30.5255289999999988
11
125.591399999999993
21
-30.6211999999999982
0
LINE
8
BLACK
6
CONTINUOUS
10
125.591399999999993
20
-30.6211999999999982
11
125.591399999999993
21
-31.1211999999999982
0
LINE
8
BLACK
6
CONTINUOUS
10
125.591399999999993
20
-31.1211999999999982
11
125.5723699999999923
21
-31.2168709999999976
0
LINE
8
BLACK
6
CONTINUOUS
10
125.5723699999999923
20
-31.2168709999999976
11
125.5181769999999943
21
-31.2979769999999995
0
LINE
8
BLACK
6
CONTINUOUS
10
125.5181769999999943
20
-31.2979769999999995
11
125.4370709999999889
21
-31.3521699999999974
0
LINE
8
BLACK
6
CONTINUOUS
10
125.4370709999999889
20
-31.3521699999999974
11
125.341399999999993
21
-31.3711999999999982
0
LINE
8
BLACK
6
CONTINUOUS
10
125.341399999999993
20
-31.3711999999999982
11
124.3913999999999902
21
-31.3711999999999982
0
LINE
8
BLACK
6
CONTINUOUS
10
124.3913999999999902
20
-31.3711999999999982
11
124.2957289999999944
21
-31.3521699999999974
0
LINE
8
BLACK
6
CONTINUOUS
10
124.2957289999999944
20
-31.3521699999999974
11
124.2146229999999889
21
-31.2979769999999995
0
LINE
8
BLACK
6
CONTINUOUS
10
124.2146229999999889
20
-31.2979769999999995
11
124.160429999999991
21
-31.2168709999999976
0
LINE
8
BLACK
6
CONTINUOUS
10
124.160429999999991
20
-31.2168709999999976
11
124.1413999999999902
21
-31.1211999999999982
0
LINE
8
BLACK
6
CONTINUOUS
10
124.1413999999999902
20
-31.1211999999999982
11
124.1413999999999902
21
-30.6211999999999982
0
LINE
8
BLACK
6
CONTINUOUS
10
124.1413999999999902
20
-30.6211999999999982
11
124.160429999999991
21
-30.5255289999999988
0
LINE
8
BLACK
6
CONTINUOUS
10
124.160429999999991
20
-30.5255289999999988
11
124.2146229999999889
21
-30.4444229999999969
0
LINE
8
BLACK
6
CONTINUOUS
10
124.2146229999999889
20
-30.4444229999999969
11
124.2957289999999944
21
-30.390229999999999
0
LINE
8
BLACK
6
CONTINUOUS
10
124.2957289999999944
20
-30.390229999999999
11
124.3913999999999902
21
-30.3711999999999982
0
LINE
8
BLACK
6
CONTINUOUS
10
124.3913999999999902
20
-30.3711999999999982
11
125.341399999999993
21
-30.3711999999999982
0
LINE
8
BLACK
6
CONTINUOUS
10
125.341399999999993
20
-30.3711999999999982
11
125.4370709999999889
21
-30.390229999999999
0
LINE
8
BLACK
6
CONTINUOUS
10
85.3520709999999951
20
-29.5690299999999979
11
85.4331770000000006
21
-29.6232229999999994
0
LINE
8
BLACK
6
CONTINUOUS
10
85.4331770000000006
20
-29.6232229999999994
11
85.4873699999999985
21
-29.7043289999999978
0
LINE
8
BLACK
6
CONTINUOUS
10
85.4873699999999985
20
-29.7043289999999978
11
85.5063999999999993
21
-29.7999999999999972
0
LINE
8
BLACK
6
CONTINUOUS
10
85.5063999999999993
20
-29.7999999999999972
11
85.5063999999999993
21
-30.3249999999999993
0
LINE
8
BLACK
6
CONTINUOUS
10
85.5063999999999993
20
-30.3249999999999993
11
85.4873699999999985
21
-30.4206709999999987
0
LINE
8
BLACK
6
CONTINUOUS
10
85.4873699999999985
20
-30.4206709999999987
11
85.4331770000000006
21
-30.501776999999997
0
LINE
8
BLACK
6
CONTINUOUS
10
85.4331770000000006
20
-30.501776999999997
11
85.3520709999999951
21
-30.5559699999999985
0
LINE
8
BLACK
6
CONTINUOUS
10
85.3520709999999951
20
-30.5559699999999985
11
85.2563999999999993
21
-30.5749999999999993
0
LINE
8
BLACK
6
CONTINUOUS
10
85.2563999999999993
20
-30.5749999999999993
11
84.3563999999999936
21
-30.5749999999999993
0
LINE
8
BLACK
6
CONTINUOUS
10
84.3563999999999936
20
-30.5749999999999993
11
84.2607289999999978
21
-30.5559699999999985
0
LINE
8
BLACK
6
CONTINUOUS
10
84.2607289999999978
20
-30.5559699999999985
11
84.1796229999999923
21
-30.501776999999997
0
LINE
8
BLACK
6
CONTINUOUS
10
84.1796229999999923
20
-30.501776999999997
11
84.1254299999999944
21
-30.4206709999999987
0
LINE
8
BLACK
6
CONTINUOUS
10
84.1254299999999944
20
-30.4206709999999987
11
84.1063999999999936
21
-30.3249999999999993
0
LINE
8
BLACK
6
CONTINUOUS
10
84.1063999999999936
20
-30.3249999999999993
11
84.1063999999999936
21
-29.7999999999999972
0
LINE
8
BLACK
6
CONTINUOUS
10
84.1063999999999936
20
-29.7999999999999972
11
84.1254299999999944
21
-29.7043289999999978
0
LINE
8
BLACK
6
CONTINUOUS
10
84.1254299999999944
20
-29.7043289999999978
11
84.1796229999999923
21
-29.6232229999999994
0
LINE
8
BLACK
6
CONTINUOUS
10
84.1796229999999923
20
-29.6232229999999994
11
84.2607289999999978
21
-29.5690299999999979
0
LINE
8
BLACK
6
CONTINUOUS
10
84.2607289999999978
20
-29.5690299999999979
11
84.3563999999999936
21
-29.5499999999999972
0
LINE
8
BLACK
6
CONTINUOUS
10
84.3563999999999936
20
-29.5499999999999972
11
85.2563999999999993
21
-29.5499999999999972
0
LINE
8
BLACK
6
CONTINUOUS
10
85.2563999999999993
20
-29.5499999999999972
11
85.3520709999999951
21
-29.5690299999999979
0
LINE
8
BLACK
6
CONTINUOUS
10
73.4104710000000011
20
-29.5190299999999972
11
73.4915769999999924
21
-29.5732229999999987
0
LINE
8
BLACK
6
CONTINUOUS
10
73.4915769999999924
20
-29.5732229999999987
11
73.5457699999999903
21
-29.6543289999999971
0
LINE
8
BLACK
6
CONTINUOUS
10
73.5457699999999903
20
-29.6543289999999971
11
73.5647999999999911
21
-29.75
0
LINE
8
BLACK
6
CONTINUOUS
10
73.5647999999999911
20
-29.75
11
73.5647999999999911
21
-30.2749999999999986
0
LINE
8
BLACK
6
CONTINUOUS
10
73.5647999999999911
20
-30.2749999999999986
11
73.5457699999999903
21
-30.370670999999998
0
LINE
8
BLACK
6
CONTINUOUS
10
73.5457699999999903
20
-30.370670999999998
11
73.4915769999999924
21
-30.4517769999999999
0
LINE
8
BLACK
6
CONTINUOUS
10
73.4915769999999924
20
-30.4517769999999999
11
73.4104710000000011
21
-30.5059699999999978
0
LINE
8
BLACK
6
CONTINUOUS
10
73.4104710000000011
20
-30.5059699999999978
11
73.3147999999999911
21
-30.5249999999999986
0
LINE
8
BLACK
6
CONTINUOUS
10
73.3147999999999911
20
-30.5249999999999986
11
72.4147999999999996
21
-30.5249999999999986
0
LINE
8
BLACK
6
CONTINUOUS
10
72.4147999999999996
20
-30.5249999999999986
11
72.3191290000000038
21
-30.5059699999999978
0
LINE
8
BLACK
6
CONTINUOUS
10
72.3191290000000038
20
-30.5059699999999978
11
72.2380229999999983
21
-30.4517769999999999
0
LINE
8
BLACK
6
CONTINUOUS
10
72.2380229999999983
20
-30.4517769999999999
11
72.1838300000000004
21
-30.370670999999998
0
LINE
8
BLACK
6
CONTINUOUS
10
72.1838300000000004
20
-30.370670999999998
11
72.1647999999999996
21
-30.2749999999999986
0
LINE
8
BLACK
6
CONTINUOUS
10
72.1647999999999996
20
-30.2749999999999986
11
72.1647999999999996
21
-29.75
0
LINE
8
BLACK
6
CONTINUOUS
10
72.1647999999999996
20
-29.75
11
72.1838300000000004
21
-29.6543289999999971
0
LINE
8
BLACK
6
CONTINUOUS
10
72.1838300000000004
20
-29.6543289999999971
11
72.2380229999999983
21
-29.5732229999999987
0
LINE
8
BLACK
6
CONTINUOUS
10
72.2380229999999983
20
-29.5732229999999987
11
72.3191290000000038
21
-29.5190299999999972
0
LINE
8
BLACK
6
CONTINUOUS
10
72.3191290000000038
20
-29.5190299999999972
11
72.4147999999999996
21
-29.5
0
LINE
8
BLACK
6
CONTINUOUS
10
72.4147999999999996
20
-29.5
11
73.3147999999999911
21
-29.5
0
LINE
8
BLACK
6
CONTINUOUS
10
73.3147999999999911
20
-29.5
11
73.4104710000000011
21
-29.5190299999999972
0
LINE
8
BLACK
6
CONTINUOUS
10
125.4370709999999889
20
-28.4902300000000004
11
125.5181769999999943
21
-28.5444229999999983
0
LINE
8
BLACK
6
CONTINUOUS
10
125.5181769999999943
20
-28.5444229999999983
11
125.5723699999999923
21
-28.6255290000000002
0
LINE
8
BLACK
6
CONTINUOUS
10
125.5723699999999923
20
-28.6255290000000002
11
125.591399999999993
21
-28.7211999999999996
0
LINE
8
BLACK
6
CONTINUOUS
10
125.591399999999993
20
-28.7211999999999996
11
125.591399999999993
21
-29.2211999999999996
0
LINE
8
BLACK
6
CONTINUOUS
10
125.591399999999993
20
-29.2211999999999996
11
125.5723699999999923
21
-29.316870999999999
0
LINE
8
BLACK
6
CONTINUOUS
10
125.5723699999999923
20
-29.316870999999999
11
125.5181769999999943
21
-29.3979769999999974
0
LINE
8
BLACK
6
CONTINUOUS
10
125.5181769999999943
20
-29.3979769999999974
11
125.4370709999999889
21
-29.4521699999999989
0
LINE
8
BLACK
6
CONTINUOUS
10
125.4370709999999889
20
-29.4521699999999989
11
125.341399999999993
21
-29.4711999999999996
0
LINE
8
BLACK
6
CONTINUOUS
10
125.341399999999993
20
-29.4711999999999996
11
124.3913999999999902
21
-29.4711999999999996
0
LINE
8
BLACK
6
CONTINUOUS
10
124.3913999999999902
20
-29.4711999999999996
11
124.2957289999999944
21
-29.4521699999999989
0
LINE
8
BLACK
6
CONTINUOUS
10
124.2957289999999944
20
-29.4521699999999989
11
124.2146229999999889
21
-29.3979769999999974
0
LINE
8
BLACK
6
CONTINUOUS
10
124.2146229999999889
20
-29.3979769999999974
11
124.160429999999991
21
-29.316870999999999
0
LINE
8
BLACK
6
CONTINUOUS
10
124.160429999999991
20
-29.316870999999999
11
124.1413999999999902
21
-29.2211999999999996
0
LINE
8
BLACK
6
CONTINUOUS
10
124.1413999999999902
20
-29.2211999999999996
11
124.1413999999999902
21
-28.7211999999999996
0
LINE
8
BLACK
6
CONTINUOUS
10
124.1413999999999902
20
-28.7211999999999996
11
124.160429999999991
21
-28.6255290000000002
0
LINE
8
BLACK
6
CONTINUOUS
10
124.160429999999991
20
-28.6255290000000002
11
124.2146229999999889
21
-28.5444229999999983
0
LINE
8
BLACK
6
CONTINUOUS
10
124.2146229999999889
20
-28.5444229999999983
11
124.2957289999999944
21
-28.4902300000000004
0
LINE
8
BLACK
6
CONTINUOUS
10
124.2957289999999944
20
-28.4902300000000004
11
124.3913999999999902
21
-28.4711999999999996
0
LINE
8
BLACK
6
CONTINUOUS
10
124.3913999999999902
20
-28.4711999999999996
11
125.341399999999993
21
-28.4711999999999996
0
LINE
8
BLACK
6
CONTINUOUS
10
125.341399999999993
20
-28.4711999999999996
11
125.4370709999999889
21
-28.4902300000000004
0
LINE
8
BLACK
6
CONTINUOUS
10
85.3520709999999951
20
-27.7440299999999986
11
85.4331770000000006
21
-27.7982230000000001
0
LINE
8
BLACK
6
CONTINUOUS
10
85.4331770000000006
20
-27.7982230000000001
11
85.4873699999999985
21
-27.8793289999999985
0
LINE
8
BLACK
6
CONTINUOUS
10
85.4873699999999985
20
-27.8793289999999985
11
85.5063999999999993
21
-27.9749999999999979
0
LINE
8
BLACK
6
CONTINUOUS
10
85.5063999999999993
20
-27.9749999999999979
11
85.5063999999999993
21
-28.5
0
LINE
8
BLACK
6
CONTINUOUS
10
85.5063999999999993
20
-28.5
11
85.4873699999999985
21
-28.5956709999999994
0
LINE
8
BLACK
6
CONTINUOUS
10
85.4873699999999985
20
-28.5956709999999994
11
85.4331770000000006
21
-28.6767769999999977
0
LINE
8
BLACK
6
CONTINUOUS
10
85.4331770000000006
20
-28.6767769999999977
11
85.3520709999999951
21
-28.7309699999999992
0
LINE
8
BLACK
6
CONTINUOUS
10
85.3520709999999951
20
-28.7309699999999992
11
85.2563999999999993
21
-28.75
0
LINE
8
BLACK
6
CONTINUOUS
10
85.2563999999999993
20
-28.75
11
84.3563999999999936
21
-28.75
0
LINE
8
BLACK
6
CONTINUOUS
10
84.3563999999999936
20
-28.75
11
84.2607289999999978
21
-28.7309699999999992
0
LINE
8
BLACK
6
CONTINUOUS
10
84.2607289999999978
20
-28.7309699999999992
11
84.1796229999999923
21
-28.6767769999999977
0
LINE
8
BLACK
6
CONTINUOUS
10
84.1796229999999923
20
-28.6767769999999977
11
84.1254299999999944
21
-28.5956709999999994
0
LINE
8
BLACK
6
CONTINUOUS
10
84.1254299999999944
20
-28.5956709999999994
11
84.1063999999999936
21
-28.5
0
LINE
8
BLACK
6
CONTINUOUS
10
84.1063999999999936
20
-28.5
11
84.1063999999999936
21
-27.9749999999999979
0
LINE
8
BLACK
6
CONTINUOUS
10
84.1063999999999936
20
-27.9749999999999979
11
84.1254299999999944
21
-27.8793289999999985
0
LINE
8
BLACK
6
CONTINUOUS
10
84.1254299999999944
20
-27.8793289999999985
11
84.1796229999999923
21
-27.7982230000000001
0
LINE
8
BLACK
6
CONTINUOUS
10
84.1796229999999923
20
-27.7982230000000001
11
84.2607289999999978
21
-27.7440299999999986
0
LINE
8
BLACK
6
CONTINUOUS
10
84.2607289999999978
20
-27.7440299999999986
11
84.3563999999999936
21
-27.7249999999999979
0
LINE
8
BLACK
6
CONTINUOUS
10
84.3563999999999936
20
-27.7249999999999979
11
85.2563999999999993
21
-27.7249999999999979
0
LINE
8
BLACK
6
CONTINUOUS
10
85.2563999999999993
20
-27.7249999999999979
11
85.3520709999999951
21
-27.7440299999999986
0
LINE
8
BLACK
6
CONTINUOUS
10
73.4104710000000011
20
-27.6940299999999979
11
73.4915769999999924
21
-27.7482229999999994
0
LINE
8
BLACK
6
CONTINUOUS
10
73.4915769999999924
20
-27.7482229999999994
11
73.5457699999999903
21
-27.8293289999999978
0
LINE
8
BLACK
6
CONTINUOUS
10
73.5457699999999903
20
-27.8293289999999978
11
73.5647999999999911
21
-27.9249999999999972
0
LINE
8
BLACK
6
CONTINUOUS
10
73.5647999999999911
20
-27.9249999999999972
11
73.5647999999999911
21
-28.4499999999999993
0
LINE
8
BLACK
6
CONTINUOUS
10
73.5647999999999911
20
-28.4499999999999993
11
73.5457699999999903
21
-28.5456709999999987
0
LINE
8
BLACK
6
CONTINUOUS
10
73.5457699999999903
20
-28.5456709999999987
11
73.4915769999999924
21
-28.626776999999997
0
LINE
8
BLACK
6
CONTINUOUS
10
73.4915769999999924
20
-28.626776999999997
11
73.4104710000000011
21
-28.6809699999999985
0
LINE
8
BLACK
6
CONTINUOUS
10
73.4104710000000011
20
-28.6809699999999985
11
73.3147999999999911
21
-28.6999999999999993
0
LINE
8
BLACK
6
CONTINUOUS
10
73.3147999999999911
20
-28.6999999999999993
11
72.4147999999999996
21
-28.6999999999999993
0
LINE
8
BLACK
6
CONTINUOUS
10
72.4147999999999996
20
-28.6999999999999993
11
72.3191290000000038
21
-28.6809699999999985
0
LINE
8
BLACK
6
CONTINUOUS
10
72.3191290000000038
20
-28.6809699999999985
11
72.2380229999999983
21
-28.626776999999997
0
LINE
8
BLACK
6
CONTINUOUS
10
72.2380229999999983
20
-28.626776999999997
11
72.1838300000000004
21
-28.5456709999999987
0
LINE
8
BLACK
6
CONTINUOUS
10
72.1838300000000004
20
-28.5456709999999987
11
72.1647999999999996
21
-28.4499999999999993
0
LINE
8
BLACK
6
CONTINUOUS
10
72.1647999999999996
20
-28.4499999999999993
11
72.1647999999999996
21
-27.9249999999999972
0
LINE
8
BLACK
6
CONTINUOUS
10
72.1647999999999996
20
-27.9249999999999972
11
72.1838300000000004
21
-27.8293289999999978
0
LINE
8
BLACK
6
CONTINUOUS
10
72.1838300000000004
20
-27.8293289999999978
11
72.2380229999999983
21
-27.7482229999999994
0
LINE
8
BLACK
6
CONTINUOUS
10
72.2380229999999983
20
-27.7482229999999994
11
72.3191290000000038
21
-27.6940299999999979
0
LINE
8
BLACK
6
CONTINUOUS
10
72.3191290000000038
20
-27.6940299999999979
11
72.4147999999999996
21
-27.6749999999999972
0
LINE
8
BLACK
6
CONTINUOUS
10
72.4147999999999996
20
-27.6749999999999972
11
73.3147999999999911
21
-27.6749999999999972
0
LINE
8
BLACK
6
CONTINUOUS
10
73.3147999999999911
20
-27.6749999999999972
11
73.4104710000000011
21
-27.6940299999999979
  0
ENDSEC
  0
EOF
