  0
SECTION
  2
HEADER
  9
$ANGBASE
  50
0.0
  9
$ANGDIR
  70
1
  9
$MEASUREMENT
  70
1
  0
ENDSEC
  0
SECTION
  2
TABLES
  0
TABLE
  2
LTYPE
  70
4
  0
LTYPE
  5
40F
  2
CONTINUOUS
  70
0
  3
Solid line
  72
65
  73
0
  40
0.0
  0
LTYPE
  5
410
  2
DASHDOT
 70
0
  3
Dash Dot ____ _ ____ _
 72
65
 73
4
 40
2.0
 49
1.25
 49
-0.25
 49
0.25
 49
-0.25
  0
LTYPE
  5
411
  2
DASHED
 70
0
  3
Dashed __ __ __ __ __
 72
65
 73
2
 40
0.75
 49
0.5
 49
-0.25
  0
LTYPE
  5
43B
  2
DOTTED
 70
0
  3
Dotted .  .  .  .
 72
65
 73
2
 40
0.2
 49
0.0
 49
-0.2
  0
ENDTAB
  0
TABLE
  2
STYLE
  70
4
  0
STYLE
  2
KICAD
  70
0
  40
0
  41
1
  42
1
  50
0
  71
0
  3
isocp.shx
  0
STYLE
  2
KICADB
  70
0
  40
0
  41
1
  42
1
  50
0
  71
0
  3
isocp.shx
  0
STYLE
  2
KICADI
  70
0
  40
0
  41
1
  42
1
  50
15
  71
0
  3
isocp.shx
  0
STYLE
  2
KICADBI
  70
0
  40
0
  41
1
  42
1
  50
15
  71
0
  3
isocp.shx
  0
ENDTAB
  0
TABLE
  2
LAYER
  70
1
  0
LAYER
  2
BLACK
  70
0
  62
7
  6
CONTINUOUS
  0
ENDTAB
  0
ENDSEC
  0
SECTION
  2
ENTITIES
0
LINE
8
BLACK
6
CONTINUOUS
10
142.4000000000000057
20
-24.8499999999999979
11
142.767563999999993
21
-24.8680570000000003
0
LINE
8
BLACK
6
CONTINUOUS
10
142.767563999999993
20
-24.8680570000000003
11
143.1315889999999911
21
-24.9220550000000003
0
LINE
8
BLACK
6
CONTINUOUS
10
143.1315889999999911
20
-24.9220550000000003
11
143.4885679999999866
21
-25.0114739999999998
0
LINE
8
BLACK
6
CONTINUOUS
10
143.4885679999999866
20
-25.0114739999999998
11
143.835062999999991
21
-25.1354519999999972
0
LINE
8
BLACK
6
CONTINUOUS
10
143.835062999999991
20
-25.1354519999999972
11
144.1677379999999857
21
-25.2927949999999981
0
LINE
8
BLACK
6
CONTINUOUS
10
144.1677379999999857
20
-25.2927949999999981
11
144.4833879999999908
21
-25.4819889999999987
0
LINE
8
BLACK
6
CONTINUOUS
10
144.4833879999999908
20
-25.4819889999999987
11
144.7789750000000026
21
-25.7012109999999971
0
LINE
8
BLACK
6
CONTINUOUS
10
144.7789750000000026
20
-25.7012109999999971
11
145.0516499999999951
21
-25.9483499999999978
0
LINE
8
BLACK
6
CONTINUOUS
10
145.0516499999999951
20
-25.9483499999999978
11
145.2987889999999993
21
-26.2210249999999974
0
LINE
8
BLACK
6
CONTINUOUS
10
145.2987889999999993
20
-26.2210249999999974
11
145.5180110000000013
21
-26.5166119999999985
0
LINE
8
BLACK
6
CONTINUOUS
10
145.5180110000000013
20
-26.5166119999999985
11
145.7072049999999876
21
-26.8322620000000001
0
LINE
8
BLACK
6
CONTINUOUS
10
145.7072049999999876
20
-26.8322620000000001
11
145.864547999999985
21
-27.1649369999999983
0
LINE
8
BLACK
6
CONTINUOUS
10
145.864547999999985
20
-27.1649369999999983
11
145.9885260000000073
21
-27.5114319999999992
0
LINE
8
BLACK
6
CONTINUOUS
10
145.9885260000000073
20
-27.5114319999999992
11
146.0779449999999997
21
-27.8684109999999983
0
LINE
8
BLACK
6
CONTINUOUS
10
146.0779449999999997
20
-27.8684109999999983
11
146.1319430000000068
21
-28.2324359999999999
0
LINE
8
BLACK
6
CONTINUOUS
10
146.1319430000000068
20
-28.2324359999999999
11
146.1500000000000057
21
-28.5999999999999979
0
LINE
8
BLACK
6
CONTINUOUS
10
146.1500000000000057
20
-28.5999999999999979
11
146.1500000000000057
21
-83.3999999999999915
0
LINE
8
BLACK
6
CONTINUOUS
10
146.1500000000000057
20
-83.3999999999999915
11
146.1319430000000068
21
-83.767563999999993
0
LINE
8
BLACK
6
CONTINUOUS
10
146.1319430000000068
20
-83.767563999999993
11
146.0779449999999997
21
-84.1315889999999911
0
LINE
8
BLACK
6
CONTINUOUS
10
146.0779449999999997
20
-84.1315889999999911
11
145.9885260000000073
21
-84.4885680000000008
0
LINE
8
BLACK
6
CONTINUOUS
10
145.9885260000000073
20
-84.4885680000000008
11
145.864547999999985
21
-84.835062999999991
0
LINE
8
BLACK
6
CONTINUOUS
10
145.864547999999985
20
-84.835062999999991
11
145.7072049999999876
21
-85.1677379999999999
0
LINE
8
BLACK
6
CONTINUOUS
10
145.7072049999999876
20
-85.1677379999999999
11
145.5180110000000013
21
-85.4833879999999908
0
LINE
8
BLACK
6
CONTINUOUS
10
145.5180110000000013
20
-85.4833879999999908
11
145.2987889999999993
21
-85.7789750000000026
0
LINE
8
BLACK
6
CONTINUOUS
10
145.2987889999999993
20
-85.7789750000000026
11
145.0516499999999951
21
-86.0516499999999951
0
LINE
8
BLACK
6
CONTINUOUS
10
145.0516499999999951
20
-86.0516499999999951
11
144.7789750000000026
21
-86.2987889999999993
0
LINE
8
BLACK
6
CONTINUOUS
10
144.7789750000000026
20
-86.2987889999999993
11
144.4833879999999908
21
-86.5180110000000013
0
LINE
8
BLACK
6
CONTINUOUS
10
144.4833879999999908
20
-86.5180110000000013
11
144.1677379999999857
21
-86.7072050000000019
0
LINE
8
BLACK
6
CONTINUOUS
10
144.1677379999999857
20
-86.7072050000000019
11
143.835062999999991
21
-86.8645479999999992
0
LINE
8
BLACK
6
CONTINUOUS
10
143.835062999999991
20
-86.8645479999999992
11
143.4885679999999866
21
-86.9885259999999931
0
LINE
8
BLACK
6
CONTINUOUS
10
143.4885679999999866
20
-86.9885259999999931
11
143.1315889999999911
21
-87.0779449999999997
0
LINE
8
BLACK
6
CONTINUOUS
10
143.1315889999999911
20
-87.0779449999999997
11
142.767563999999993
21
-87.1319429999999926
0
LINE
8
BLACK
6
CONTINUOUS
10
142.767563999999993
20
-87.1319429999999926
11
142.4000000000000057
21
-87.1499999999999915
0
LINE
8
BLACK
6
CONTINUOUS
10
142.4000000000000057
20
-87.1499999999999915
11
47.1000000000000014
21
-87.1499999999999915
0
LINE
8
BLACK
6
CONTINUOUS
10
47.1000000000000014
20
-87.1499999999999915
11
46.7324359999999999
21
-87.1319429999999926
0
LINE
8
BLACK
6
CONTINUOUS
10
46.7324359999999999
20
-87.1319429999999926
11
46.3684109999999947
21
-87.0779449999999997
0
LINE
8
BLACK
6
CONTINUOUS
10
46.3684109999999947
20
-87.0779449999999997
11
46.0114319999999992
21
-86.9885259999999931
0
LINE
8
BLACK
6
CONTINUOUS
10
46.0114319999999992
20
-86.9885259999999931
11
45.6649369999999948
21
-86.8645479999999992
0
LINE
8
BLACK
6
CONTINUOUS
10
45.6649369999999948
20
-86.8645479999999992
11
45.3322620000000001
21
-86.7072050000000019
0
LINE
8
BLACK
6
CONTINUOUS
10
45.3322620000000001
20
-86.7072050000000019
11
45.016611999999995
21
-86.5180110000000013
0
LINE
8
BLACK
6
CONTINUOUS
10
45.016611999999995
20
-86.5180110000000013
11
44.7210249999999974
21
-86.2987889999999993
0
LINE
8
BLACK
6
CONTINUOUS
10
44.7210249999999974
20
-86.2987889999999993
11
44.4483499999999978
21
-86.0516499999999951
0
LINE
8
BLACK
6
CONTINUOUS
10
44.4483499999999978
20
-86.0516499999999951
11
44.2012110000000007
21
-85.7789750000000026
0
LINE
8
BLACK
6
CONTINUOUS
10
44.2012110000000007
20
-85.7789750000000026
11
43.9819889999999987
21
-85.4833879999999908
0
LINE
8
BLACK
6
CONTINUOUS
10
43.9819889999999987
20
-85.4833879999999908
11
43.7927949999999981
21
-85.1677379999999999
0
LINE
8
BLACK
6
CONTINUOUS
10
43.7927949999999981
20
-85.1677379999999999
11
43.6354520000000008
21
-84.835062999999991
0
LINE
8
BLACK
6
CONTINUOUS
10
43.6354520000000008
20
-84.835062999999991
11
43.5114739999999998
21
-84.4885680000000008
0
LINE
8
BLACK
6
CONTINUOUS
10
43.5114739999999998
20
-84.4885680000000008
11
43.4220550000000003
21
-84.1315889999999911
0
LINE
8
BLACK
6
CONTINUOUS
10
43.4220550000000003
20
-84.1315889999999911
11
43.3680570000000003
21
-83.767563999999993
0
LINE
8
BLACK
6
CONTINUOUS
10
43.3680570000000003
20
-83.767563999999993
11
43.3500000000000014
21
-83.3999999999999915
0
LINE
8
BLACK
6
CONTINUOUS
10
43.3500000000000014
20
-83.3999999999999915
11
43.3500000000000014
21
-28.5999999999999979
0
LINE
8
BLACK
6
CONTINUOUS
10
43.3500000000000014
20
-28.5999999999999979
11
43.3680570000000003
21
-28.2324359999999999
0
LINE
8
BLACK
6
CONTINUOUS
10
43.3680570000000003
20
-28.2324359999999999
11
43.4220550000000003
21
-27.8684109999999983
0
LINE
8
BLACK
6
CONTINUOUS
10
43.4220550000000003
20
-27.8684109999999983
11
43.5114739999999998
21
-27.5114319999999992
0
LINE
8
BLACK
6
CONTINUOUS
10
43.5114739999999998
20
-27.5114319999999992
11
43.6354520000000008
21
-27.1649369999999983
0
LINE
8
BLACK
6
CONTINUOUS
10
43.6354520000000008
20
-27.1649369999999983
11
43.7927949999999981
21
-26.8322620000000001
0
LINE
8
BLACK
6
CONTINUOUS
10
43.7927949999999981
20
-26.8322620000000001
11
43.9819889999999987
21
-26.5166119999999985
0
LINE
8
BLACK
6
CONTINUOUS
10
43.9819889999999987
20
-26.5166119999999985
11
44.2012110000000007
21
-26.2210249999999974
0
LINE
8
BLACK
6
CONTINUOUS
10
44.2012110000000007
20
-26.2210249999999974
11
44.4483499999999978
21
-25.9483499999999978
0
LINE
8
BLACK
6
CONTINUOUS
10
44.4483499999999978
20
-25.9483499999999978
11
44.7210249999999974
21
-25.7012109999999971
0
LINE
8
BLACK
6
CONTINUOUS
10
44.7210249999999974
20
-25.7012109999999971
11
45.016611999999995
21
-25.4819889999999987
0
LINE
8
BLACK
6
CONTINUOUS
10
45.016611999999995
20
-25.4819889999999987
11
45.3322620000000001
21
-25.2927949999999981
0
LINE
8
BLACK
6
CONTINUOUS
10
45.3322620000000001
20
-25.2927949999999981
11
45.6649369999999948
21
-25.1354519999999972
0
LINE
8
BLACK
6
CONTINUOUS
10
45.6649369999999948
20
-25.1354519999999972
11
46.0114319999999992
21
-25.0114739999999998
0
LINE
8
BLACK
6
CONTINUOUS
10
46.0114319999999992
20
-25.0114739999999998
11
46.3684109999999947
21
-24.9220550000000003
0
LINE
8
BLACK
6
CONTINUOUS
10
46.3684109999999947
20
-24.9220550000000003
11
46.7324359999999999
21
-24.8680570000000003
0
LINE
8
BLACK
6
CONTINUOUS
10
46.7324359999999999
20
-24.8680570000000003
11
47.1000000000000014
21
-24.8499999999999979
0
LINE
8
BLACK
6
CONTINUOUS
10
47.1000000000000014
20
-24.8499999999999979
11
142.4000000000000057
21
-24.8499999999999979
0
LINE
8
BLACK
6
CONTINUOUS
10
47.1000000000000014
20
-25.1499999999999986
11
46.9305120000000002
21
-25.1499999999999986
0
LINE
8
BLACK
6
CONTINUOUS
10
46.9305120000000002
20
-25.1499999999999986
11
46.5931689999999961
21
-25.1832250000000002
0
LINE
8
BLACK
6
CONTINUOUS
10
46.5931689999999961
20
-25.1832250000000002
11
46.2607069999999965
21
-25.2493559999999988
0
LINE
8
BLACK
6
CONTINUOUS
10
46.2607069999999965
20
-25.2493559999999988
11
45.9363279999999961
21
-25.3477549999999994
0
LINE
8
BLACK
6
CONTINUOUS
10
45.9363279999999961
20
-25.3477549999999994
11
45.6231559999999945
21
-25.4774749999999983
0
LINE
8
BLACK
6
CONTINUOUS
10
45.6231559999999945
20
-25.4774749999999983
11
45.3242059999999967
21
-25.6372669999999978
0
LINE
8
BLACK
6
CONTINUOUS
10
45.3242059999999967
20
-25.6372669999999978
11
45.0423589999999976
21
-25.8255920000000003
0
LINE
8
BLACK
6
CONTINUOUS
10
45.0423589999999976
20
-25.8255920000000003
11
44.7803269999999998
21
-26.0406359999999992
0
LINE
8
BLACK
6
CONTINUOUS
10
44.7803269999999998
20
-26.0406359999999992
11
44.5406359999999992
21
-26.2803269999999998
0
LINE
8
BLACK
6
CONTINUOUS
10
44.5406359999999992
20
-26.2803269999999998
11
44.3255920000000003
21
-26.5423589999999976
0
LINE
8
BLACK
6
CONTINUOUS
10
44.3255920000000003
20
-26.5423589999999976
11
44.1372670000000014
21
-26.8242060000000002
0
LINE
8
BLACK
6
CONTINUOUS
10
44.1372670000000014
20
-26.8242060000000002
11
43.9774749999999983
21
-27.123155999999998
0
LINE
8
BLACK
6
CONTINUOUS
10
43.9774749999999983
20
-27.123155999999998
11
43.8477549999999994
21
-27.4363279999999996
0
LINE
8
BLACK
6
CONTINUOUS
10
43.8477549999999994
20
-27.4363279999999996
11
43.7493559999999988
21
-27.760707
0
LINE
8
BLACK
6
CONTINUOUS
10
43.7493559999999988
20
-27.760707
11
43.6832250000000002
21
-28.0931689999999996
0
LINE
8
BLACK
6
CONTINUOUS
10
43.6832250000000002
20
-28.0931689999999996
11
43.6499999999999986
21
-28.4305120000000002
0
LINE
8
BLACK
6
CONTINUOUS
10
43.6499999999999986
20
-28.4305120000000002
11
43.6499999999999986
21
-28.5999999999999979
0
LINE
8
BLACK
6
CONTINUOUS
10
43.6499999999999986
20
-28.5999999999999979
11
43.6499999999999986
21
-83.3999999999999915
0
LINE
8
BLACK
6
CONTINUOUS
10
43.6499999999999986
20
-83.3999999999999915
11
43.6499999999999986
21
-83.5694879999999927
0
LINE
8
BLACK
6
CONTINUOUS
10
43.6499999999999986
20
-83.5694879999999927
11
43.6832250000000002
21
-83.9068309999999968
0
LINE
8
BLACK
6
CONTINUOUS
10
43.6832250000000002
20
-83.9068309999999968
11
43.7493559999999988
21
-84.2392929999999893
0
LINE
8
BLACK
6
CONTINUOUS
10
43.7493559999999988
20
-84.2392929999999893
11
43.8477549999999994
21
-84.5636719999999968
0
LINE
8
BLACK
6
CONTINUOUS
10
43.8477549999999994
20
-84.5636719999999968
11
43.9774749999999983
21
-84.8768439999999913
0
LINE
8
BLACK
6
CONTINUOUS
10
43.9774749999999983
20
-84.8768439999999913
11
44.1372670000000014
21
-85.1757939999999962
0
LINE
8
BLACK
6
CONTINUOUS
10
44.1372670000000014
20
-85.1757939999999962
11
44.3255920000000003
21
-85.4576409999999953
0
LINE
8
BLACK
6
CONTINUOUS
10
44.3255920000000003
20
-85.4576409999999953
11
44.5406359999999992
21
-85.7196730000000002
0
LINE
8
BLACK
6
CONTINUOUS
10
44.5406359999999992
20
-85.7196730000000002
11
44.7803269999999998
21
-85.9593639999999937
0
LINE
8
BLACK
6
CONTINUOUS
10
44.7803269999999998
20
-85.9593639999999937
11
45.0423589999999976
21
-86.1744079999999997
0
LINE
8
BLACK
6
CONTINUOUS
10
45.0423589999999976
20
-86.1744079999999997
11
45.3242059999999967
21
-86.3627329999999915
0
LINE
8
BLACK
6
CONTINUOUS
10
45.3242059999999967
20
-86.3627329999999915
11
45.6231559999999945
21
-86.5225250000000017
0
LINE
8
BLACK
6
CONTINUOUS
10
45.6231559999999945
20
-86.5225250000000017
11
45.9363279999999961
21
-86.6522449999999935
0
LINE
8
BLACK
6
CONTINUOUS
10
45.9363279999999961
20
-86.6522449999999935
11
46.2607069999999965
21
-86.7506439999999941
0
LINE
8
BLACK
6
CONTINUOUS
10
46.2607069999999965
20
-86.7506439999999941
11
46.5931689999999961
21
-86.8167749999999927
0
LINE
8
BLACK
6
CONTINUOUS
10
46.5931689999999961
20
-86.8167749999999927
11
46.9305120000000002
21
-86.8499999999999943
0
LINE
8
BLACK
6
CONTINUOUS
10
46.9305120000000002
20
-86.8499999999999943
11
47.1000000000000014
21
-86.8499999999999943
0
LINE
8
BLACK
6
CONTINUOUS
10
47.1000000000000014
20
-86.8499999999999943
11
142.4000000000000057
21
-86.8499999999999943
0
LINE
8
BLACK
6
CONTINUOUS
10
142.4000000000000057
20
-86.8499999999999943
11
142.5694880000000069
21
-86.8499999999999943
0
LINE
8
BLACK
6
CONTINUOUS
10
142.5694880000000069
20
-86.8499999999999943
11
142.9068309999999826
21
-86.8167749999999927
0
LINE
8
BLACK
6
CONTINUOUS
10
142.9068309999999826
20
-86.8167749999999927
11
143.2392930000000035
21
-86.7506439999999941
0
LINE
8
BLACK
6
CONTINUOUS
10
143.2392930000000035
20
-86.7506439999999941
11
143.5636719999999968
21
-86.6522449999999935
0
LINE
8
BLACK
6
CONTINUOUS
10
143.5636719999999968
20
-86.6522449999999935
11
143.8768440000000055
21
-86.5225250000000017
0
LINE
8
BLACK
6
CONTINUOUS
10
143.8768440000000055
20
-86.5225250000000017
11
144.1757939999999962
21
-86.3627329999999915
0
LINE
8
BLACK
6
CONTINUOUS
10
144.1757939999999962
20
-86.3627329999999915
11
144.4576409999999953
21
-86.1744079999999997
0
LINE
8
BLACK
6
CONTINUOUS
10
144.4576409999999953
20
-86.1744079999999997
11
144.7196730000000002
21
-85.9593639999999937
0
LINE
8
BLACK
6
CONTINUOUS
10
144.7196730000000002
20
-85.9593639999999937
11
144.9593639999999937
21
-85.7196730000000002
0
LINE
8
BLACK
6
CONTINUOUS
10
144.9593639999999937
20
-85.7196730000000002
11
145.1744079999999997
21
-85.4576409999999953
0
LINE
8
BLACK
6
CONTINUOUS
10
145.1744079999999997
20
-85.4576409999999953
11
145.3627329999999915
21
-85.1757939999999962
0
LINE
8
BLACK
6
CONTINUOUS
10
145.3627329999999915
20
-85.1757939999999962
11
145.5225250000000017
21
-84.8768439999999913
0
LINE
8
BLACK
6
CONTINUOUS
10
145.5225250000000017
20
-84.8768439999999913
11
145.6522449999999935
21
-84.5636719999999968
0
LINE
8
BLACK
6
CONTINUOUS
10
145.6522449999999935
20
-84.5636719999999968
11
145.7506439999999941
21
-84.2392929999999893
0
LINE
8
BLACK
6
CONTINUOUS
10
145.7506439999999941
20
-84.2392929999999893
11
145.8167750000000069
21
-83.9068309999999968
0
LINE
8
BLACK
6
CONTINUOUS
10
145.8167750000000069
20
-83.9068309999999968
11
145.8499999999999943
21
-83.5694879999999927
0
LINE
8
BLACK
6
CONTINUOUS
10
145.8499999999999943
20
-83.5694879999999927
11
145.8499999999999943
21
-83.3999999999999915
0
LINE
8
BLACK
6
CONTINUOUS
10
145.8499999999999943
20
-83.3999999999999915
11
145.8499999999999943
21
-28.5999999999999979
0
LINE
8
BLACK
6
CONTINUOUS
10
145.8499999999999943
20
-28.5999999999999979
11
145.8499999999999943
21
-28.4305120000000002
0
LINE
8
BLACK
6
CONTINUOUS
10
145.8499999999999943
20
-28.4305120000000002
11
145.8167750000000069
21
-28.0931689999999996
0
LINE
8
BLACK
6
CONTINUOUS
10
145.8167750000000069
20
-28.0931689999999996
11
145.7506439999999941
21
-27.760707
0
LINE
8
BLACK
6
CONTINUOUS
10
145.7506439999999941
20
-27.760707
11
145.6522449999999935
21
-27.4363279999999996
0
LINE
8
BLACK
6
CONTINUOUS
10
145.6522449999999935
20
-27.4363279999999996
11
145.5225250000000017
21
-27.123155999999998
0
LINE
8
BLACK
6
CONTINUOUS
10
145.5225250000000017
20
-27.123155999999998
11
145.3627329999999915
21
-26.8242060000000002
0
LINE
8
BLACK
6
CONTINUOUS
10
145.3627329999999915
20
-26.8242060000000002
11
145.1744079999999997
21
-26.5423589999999976
0
LINE
8
BLACK
6
CONTINUOUS
10
145.1744079999999997
20
-26.5423589999999976
11
144.9593639999999937
21
-26.2803269999999998
0
LINE
8
BLACK
6
CONTINUOUS
10
144.9593639999999937
20
-26.2803269999999998
11
144.7196730000000002
21
-26.0406359999999992
0
LINE
8
BLACK
6
CONTINUOUS
10
144.7196730000000002
20
-26.0406359999999992
11
144.4576409999999953
21
-25.8255920000000003
0
LINE
8
BLACK
6
CONTINUOUS
10
144.4576409999999953
20
-25.8255920000000003
11
144.1757939999999962
21
-25.6372669999999978
0
LINE
8
BLACK
6
CONTINUOUS
10
144.1757939999999962
20
-25.6372669999999978
11
143.8768440000000055
21
-25.4774749999999983
0
LINE
8
BLACK
6
CONTINUOUS
10
143.8768440000000055
20
-25.4774749999999983
11
143.5636719999999968
21
-25.3477549999999994
0
LINE
8
BLACK
6
CONTINUOUS
10
143.5636719999999968
20
-25.3477549999999994
11
143.2392930000000035
21
-25.2493559999999988
0
LINE
8
BLACK
6
CONTINUOUS
10
143.2392930000000035
20
-25.2493559999999988
11
142.9068309999999826
21
-25.1832250000000002
0
LINE
8
BLACK
6
CONTINUOUS
10
142.9068309999999826
20
-25.1832250000000002
11
142.5694880000000069
21
-25.1499999999999986
0
LINE
8
BLACK
6
CONTINUOUS
10
142.5694880000000069
20
-25.1499999999999986
11
142.4000000000000057
21
-25.1499999999999986
0
LINE
8
BLACK
6
CONTINUOUS
10
142.4000000000000057
20
-25.1499999999999986
11
47.1000000000000014
21
-25.1499999999999986
  0
ENDSEC
  0
EOF
