<?xml version="1.0" standalone="no"?>
 <!DOCTYPE svg PUBLIC "-//W3C//DTD SVG 1.1//EN" 
 "http://www.w3.org/Graphics/SVG/1.1/DTD/svg11.dtd"> 
<svg
  xmlns:svg="http://www.w3.org/2000/svg"
  xmlns="http://www.w3.org/2000/svg"
  xmlns:xlink="http://www.w3.org/1999/xlink"
  version="1.1"
  width="297.0022mm" height="210.0072mm" viewBox="0.0000 0.0000 297.0022 210.0072">
<title>SVG Image created as Oxygen Monitoring-B_Silkscreen.svg date 2024/03/15 07:26:25 </title>
  <desc>Image generated by PCBNEW </desc>
<g style="fill:#000000; fill-opacity:1.0000;stroke:#000000; stroke-opacity:1.0000;
stroke-linecap:round; stroke-linejoin:round;"
 transform="translate(0 0) scale(1 1)">
</g>
<g style="fill:#000000; fill-opacity:0.0; 
stroke:#000000; stroke-width:0.0000; stroke-opacity:1; 
stroke-linecap:round; stroke-linejoin:round;">
</g>
<g style="fill:#E8B2A7; fill-opacity:0.0; 
stroke:#E8B2A7; stroke-width:0.0000; stroke-opacity:1; 
stroke-linecap:round; stroke-linejoin:round;">
</g>
<g style="fill:#E8B2A7; fill-opacity:0.0; 
stroke:#E8B2A7; stroke-width:0.1500; stroke-opacity:1; 
stroke-linecap:round; stroke-linejoin:round;">
<g transform="rotate(-90.000000 118.0084 43.2308)">
<text x="118.0084" y="43.7308"
transform="scale(-1 1) translate(-236.016800 0)"
textLength="3.1548" font-size="1.3333" lengthAdjust="spacingAndGlyphs"
text-anchor="middle" opacity="0">R10</text>
</g>
<g class="stroked-text"><desc>R10</desc>
<path d="M118.4632 42.5879
L117.9870 42.2546
" />
<path d="M118.4632 42.0165
L117.4632 42.0165
" />
<path d="M117.4632 42.0165
L117.4632 42.3975
" />
<path d="M117.4632 42.3975
L117.5108 42.4927
" />
<path d="M117.5108 42.4927
L117.5585 42.5403
" />
<path d="M117.5585 42.5403
L117.6537 42.5879
" />
<path d="M117.6537 42.5879
L117.7966 42.5879
" />
<path d="M117.7966 42.5879
L117.8918 42.5403
" />
<path d="M117.8918 42.5403
L117.9394 42.4927
" />
<path d="M117.9394 42.4927
L117.9870 42.3975
" />
<path d="M117.9870 42.3975
L117.9870 42.0165
" />
<path d="M118.4632 43.5403
L118.4632 42.9689
" />
<path d="M118.4632 43.2546
L117.4632 43.2546
" />
<path d="M117.4632 43.2546
L117.6061 43.1594
" />
<path d="M117.6061 43.1594
L117.7013 43.0641
" />
<path d="M117.7013 43.0641
L117.7489 42.9689
" />
<path d="M117.4632 44.1594
L117.4632 44.2546
" />
<path d="M117.4632 44.2546
L117.5108 44.3498
" />
<path d="M117.5108 44.3498
L117.5585 44.3975
" />
<path d="M117.5585 44.3975
L117.6537 44.4451
" />
<path d="M117.6537 44.4451
L117.8442 44.4927
" />
<path d="M117.8442 44.4927
L118.0823 44.4927
" />
<path d="M118.0823 44.4927
L118.2727 44.4451
" />
<path d="M118.2727 44.4451
L118.3680 44.3975
" />
<path d="M118.3680 44.3975
L118.4156 44.3498
" />
<path d="M118.4156 44.3498
L118.4632 44.2546
" />
<path d="M118.4632 44.2546
L118.4632 44.1594
" />
<path d="M118.4632 44.1594
L118.4156 44.0641
" />
<path d="M118.4156 44.0641
L118.3680 44.0165
" />
<path d="M118.3680 44.0165
L118.2727 43.9689
" />
<path d="M118.2727 43.9689
L118.0823 43.9213
" />
<path d="M118.0823 43.9213
L117.8442 43.9213
" />
<path d="M117.8442 43.9213
L117.6537 43.9689
" />
<path d="M117.6537 43.9689
L117.5585 44.0165
" />
<path d="M117.5585 44.0165
L117.5108 44.0641
" />
<path d="M117.5108 44.0641
L117.4632 44.1594
" />
</g><g transform="rotate(-90.000000 112.8570 32.7780)">
<text x="112.8570" y="33.2780"
transform="scale(-1 1) translate(-225.714000 0)"
textLength="2.2024" font-size="1.3333" lengthAdjust="spacingAndGlyphs"
text-anchor="middle" opacity="0">R7</text>
</g>
<g class="stroked-text"><desc>R7</desc>
<path d="M113.3118 32.6113
L112.8356 32.2780
" />
<path d="M113.3118 32.0399
L112.3118 32.0399
" />
<path d="M112.3118 32.0399
L112.3118 32.4209
" />
<path d="M112.3118 32.4209
L112.3594 32.5161
" />
<path d="M112.3594 32.5161
L112.4071 32.5637
" />
<path d="M112.4071 32.5637
L112.5023 32.6113
" />
<path d="M112.5023 32.6113
L112.6452 32.6113
" />
<path d="M112.6452 32.6113
L112.7404 32.5637
" />
<path d="M112.7404 32.5637
L112.7880 32.5161
" />
<path d="M112.7880 32.5161
L112.8356 32.4209
" />
<path d="M112.8356 32.4209
L112.8356 32.0399
" />
<path d="M112.3118 32.9447
L112.3118 33.6113
" />
<path d="M112.3118 33.6113
L113.3118 33.1828
" />
</g><g transform="rotate(-90.000000 123.3480 53.4000)">
<text x="123.3480" y="53.9000"
transform="scale(-1 1) translate(-246.696000 0)"
textLength="3.1548" font-size="1.3333" lengthAdjust="spacingAndGlyphs"
text-anchor="middle" opacity="0">C27</text>
</g>
<g class="stroked-text"><desc>C27</desc>
<path d="M123.7076 52.7571
L123.7552 52.7095
" />
<path d="M123.7552 52.7095
L123.8028 52.5667
" />
<path d="M123.8028 52.5667
L123.8028 52.4714
" />
<path d="M123.8028 52.4714
L123.7552 52.3286
" />
<path d="M123.7552 52.3286
L123.6600 52.2333
" />
<path d="M123.6600 52.2333
L123.5647 52.1857
" />
<path d="M123.5647 52.1857
L123.3742 52.1381
" />
<path d="M123.3742 52.1381
L123.2314 52.1381
" />
<path d="M123.2314 52.1381
L123.0409 52.1857
" />
<path d="M123.0409 52.1857
L122.9457 52.2333
" />
<path d="M122.9457 52.2333
L122.8504 52.3286
" />
<path d="M122.8504 52.3286
L122.8028 52.4714
" />
<path d="M122.8028 52.4714
L122.8028 52.5667
" />
<path d="M122.8028 52.5667
L122.8504 52.7095
" />
<path d="M122.8504 52.7095
L122.8981 52.7571
" />
<path d="M122.8981 53.1381
L122.8504 53.1857
" />
<path d="M122.8504 53.1857
L122.8028 53.2810
" />
<path d="M122.8028 53.2810
L122.8028 53.5190
" />
<path d="M122.8028 53.5190
L122.8504 53.6143
" />
<path d="M122.8504 53.6143
L122.8981 53.6619
" />
<path d="M122.8981 53.6619
L122.9933 53.7095
" />
<path d="M122.9933 53.7095
L123.0885 53.7095
" />
<path d="M123.0885 53.7095
L123.2314 53.6619
" />
<path d="M123.2314 53.6619
L123.8028 53.0905
" />
<path d="M123.8028 53.0905
L123.8028 53.7095
" />
<path d="M122.8028 54.0429
L122.8028 54.7095
" />
<path d="M122.8028 54.7095
L123.8028 54.2810
" />
</g><g transform="rotate(-90.000000 94.6912 69.4709)">
<text x="94.6912" y="69.9709"
transform="scale(-1 1) translate(-189.382400 0)"
textLength="3.1548" font-size="1.3333" lengthAdjust="spacingAndGlyphs"
text-anchor="middle" opacity="0">R16</text>
</g>
<g class="stroked-text"><desc>R16</desc>
<path d="M95.1460 68.8280
L94.6698 68.4947
" />
<path d="M95.1460 68.2566
L94.1460 68.2566
" />
<path d="M94.1460 68.2566
L94.1460 68.6376
" />
<path d="M94.1460 68.6376
L94.1936 68.7328
" />
<path d="M94.1936 68.7328
L94.2413 68.7804
" />
<path d="M94.2413 68.7804
L94.3365 68.8280
" />
<path d="M94.3365 68.8280
L94.4794 68.8280
" />
<path d="M94.4794 68.8280
L94.5746 68.7804
" />
<path d="M94.5746 68.7804
L94.6222 68.7328
" />
<path d="M94.6222 68.7328
L94.6698 68.6376
" />
<path d="M94.6698 68.6376
L94.6698 68.2566
" />
<path d="M95.1460 69.7804
L95.1460 69.2090
" />
<path d="M95.1460 69.4947
L94.1460 69.4947
" />
<path d="M94.1460 69.4947
L94.2889 69.3995
" />
<path d="M94.2889 69.3995
L94.3841 69.3042
" />
<path d="M94.3841 69.3042
L94.4317 69.2090
" />
<path d="M94.1460 70.6376
L94.1460 70.4471
" />
<path d="M94.1460 70.4471
L94.1936 70.3519
" />
<path d="M94.1936 70.3519
L94.2413 70.3042
" />
<path d="M94.2413 70.3042
L94.3841 70.2090
" />
<path d="M94.3841 70.2090
L94.5746 70.1614
" />
<path d="M94.5746 70.1614
L94.9555 70.1614
" />
<path d="M94.9555 70.1614
L95.0508 70.2090
" />
<path d="M95.0508 70.2090
L95.0984 70.2566
" />
<path d="M95.0984 70.2566
L95.1460 70.3519
" />
<path d="M95.1460 70.3519
L95.1460 70.5423
" />
<path d="M95.1460 70.5423
L95.0984 70.6376
" />
<path d="M95.0984 70.6376
L95.0508 70.6852
" />
<path d="M95.0508 70.6852
L94.9555 70.7328
" />
<path d="M94.9555 70.7328
L94.7174 70.7328
" />
<path d="M94.7174 70.7328
L94.6222 70.6852
" />
<path d="M94.6222 70.6852
L94.5746 70.6376
" />
<path d="M94.5746 70.6376
L94.5270 70.5423
" />
<path d="M94.5270 70.5423
L94.5270 70.3519
" />
<path d="M94.5270 70.3519
L94.5746 70.2566
" />
<path d="M94.5746 70.2566
L94.6222 70.2090
" />
<path d="M94.6222 70.2090
L94.7174 70.1614
" />
</g><text x="95.0000" y="78.0200"
transform="scale(-1 1) translate(-190.000000 0)"
textLength="3.1548" font-size="1.3333" lengthAdjust="spacingAndGlyphs"
text-anchor="middle" opacity="0">C41</text>
<g class="stroked-text"><desc>C41</desc>
<path d="M95.6429 77.8796
L95.6905 77.9272
" />
<path d="M95.6905 77.9272
L95.8333 77.9748
" />
<path d="M95.8333 77.9748
L95.9286 77.9748
" />
<path d="M95.9286 77.9748
L96.0714 77.9272
" />
<path d="M96.0714 77.9272
L96.1667 77.8320
" />
<path d="M96.1667 77.8320
L96.2143 77.7367
" />
<path d="M96.2143 77.7367
L96.2619 77.5462
" />
<path d="M96.2619 77.5462
L96.2619 77.4034
" />
<path d="M96.2619 77.4034
L96.2143 77.2129
" />
<path d="M96.2143 77.2129
L96.1667 77.1177
" />
<path d="M96.1667 77.1177
L96.0714 77.0224
" />
<path d="M96.0714 77.0224
L95.9286 76.9748
" />
<path d="M95.9286 76.9748
L95.8333 76.9748
" />
<path d="M95.8333 76.9748
L95.6905 77.0224
" />
<path d="M95.6905 77.0224
L95.6429 77.0701
" />
<path d="M94.7857 77.3082
L94.7857 77.9748
" />
<path d="M95.0238 76.9272
L95.2619 77.6415
" />
<path d="M95.2619 77.6415
L94.6429 77.6415
" />
<path d="M93.7381 77.9748
L94.3095 77.9748
" />
<path d="M94.0238 77.9748
L94.0238 76.9748
" />
<path d="M94.0238 76.9748
L94.1190 77.1177
" />
<path d="M94.1190 77.1177
L94.2143 77.2129
" />
<path d="M94.2143 77.2129
L94.3095 77.2605
" />
</g><g transform="rotate(-90.000000 123.1864 29.9212)">
<text x="123.1864" y="30.4212"
transform="scale(-1 1) translate(-246.372800 0)"
textLength="3.1548" font-size="1.3333" lengthAdjust="spacingAndGlyphs"
text-anchor="middle" opacity="0">C28</text>
</g>
<g class="stroked-text"><desc>C28</desc>
<path d="M123.5460 29.2783
L123.5936 29.2307
" />
<path d="M123.5936 29.2307
L123.6412 29.0879
" />
<path d="M123.6412 29.0879
L123.6412 28.9926
" />
<path d="M123.6412 28.9926
L123.5936 28.8498
" />
<path d="M123.5936 28.8498
L123.4984 28.7545
" />
<path d="M123.4984 28.7545
L123.4031 28.7069
" />
<path d="M123.4031 28.7069
L123.2126 28.6593
" />
<path d="M123.2126 28.6593
L123.0698 28.6593
" />
<path d="M123.0698 28.6593
L122.8793 28.7069
" />
<path d="M122.8793 28.7069
L122.7841 28.7545
" />
<path d="M122.7841 28.7545
L122.6888 28.8498
" />
<path d="M122.6888 28.8498
L122.6412 28.9926
" />
<path d="M122.6412 28.9926
L122.6412 29.0879
" />
<path d="M122.6412 29.0879
L122.6888 29.2307
" />
<path d="M122.6888 29.2307
L122.7365 29.2783
" />
<path d="M122.7365 29.6593
L122.6888 29.7069
" />
<path d="M122.6888 29.7069
L122.6412 29.8022
" />
<path d="M122.6412 29.8022
L122.6412 30.0402
" />
<path d="M122.6412 30.0402
L122.6888 30.1355
" />
<path d="M122.6888 30.1355
L122.7365 30.1831
" />
<path d="M122.7365 30.1831
L122.8317 30.2307
" />
<path d="M122.8317 30.2307
L122.9269 30.2307
" />
<path d="M122.9269 30.2307
L123.0698 30.1831
" />
<path d="M123.0698 30.1831
L123.6412 29.6117
" />
<path d="M123.6412 29.6117
L123.6412 30.2307
" />
<path d="M123.0698 30.8022
L123.0222 30.7069
" />
<path d="M123.0222 30.7069
L122.9746 30.6593
" />
<path d="M122.9746 30.6593
L122.8793 30.6117
" />
<path d="M122.8793 30.6117
L122.8317 30.6117
" />
<path d="M122.8317 30.6117
L122.7365 30.6593
" />
<path d="M122.7365 30.6593
L122.6888 30.7069
" />
<path d="M122.6888 30.7069
L122.6412 30.8022
" />
<path d="M122.6412 30.8022
L122.6412 30.9926
" />
<path d="M122.6412 30.9926
L122.6888 31.0879
" />
<path d="M122.6888 31.0879
L122.7365 31.1355
" />
<path d="M122.7365 31.1355
L122.8317 31.1831
" />
<path d="M122.8317 31.1831
L122.8793 31.1831
" />
<path d="M122.8793 31.1831
L122.9746 31.1355
" />
<path d="M122.9746 31.1355
L123.0222 31.0879
" />
<path d="M123.0222 31.0879
L123.0698 30.9926
" />
<path d="M123.0698 30.9926
L123.0698 30.8022
" />
<path d="M123.0698 30.8022
L123.1174 30.7069
" />
<path d="M123.1174 30.7069
L123.1650 30.6593
" />
<path d="M123.1650 30.6593
L123.2603 30.6117
" />
<path d="M123.2603 30.6117
L123.4507 30.6117
" />
<path d="M123.4507 30.6117
L123.5460 30.6593
" />
<path d="M123.5460 30.6593
L123.5936 30.7069
" />
<path d="M123.5936 30.7069
L123.6412 30.8022
" />
<path d="M123.6412 30.8022
L123.6412 30.9926
" />
<path d="M123.6412 30.9926
L123.5936 31.0879
" />
<path d="M123.5936 31.0879
L123.5460 31.1355
" />
<path d="M123.5460 31.1355
L123.4507 31.1831
" />
<path d="M123.4507 31.1831
L123.2603 31.1831
" />
<path d="M123.2603 31.1831
L123.1650 31.1355
" />
<path d="M123.1650 31.1355
L123.1174 31.0879
" />
<path d="M123.1174 31.0879
L123.0698 30.9926
" />
</g><text x="97.4375" y="48.5568"
transform="scale(-1 1) translate(-194.875000 0)"
textLength="3.0595" font-size="1.3333" lengthAdjust="spacingAndGlyphs"
text-anchor="middle" opacity="0">FB1</text>
<g class="stroked-text"><desc>FB1</desc>
<path d="M98.2708 47.9878
L98.6042 47.9878
" />
<path d="M98.6042 48.5116
L98.6042 47.5116
" />
<path d="M98.6042 47.5116
L98.1280 47.5116
" />
<path d="M97.4137 47.9878
L97.2708 48.0354
" />
<path d="M97.2708 48.0354
L97.2232 48.0830
" />
<path d="M97.2232 48.0830
L97.1756 48.1783
" />
<path d="M97.1756 48.1783
L97.1756 48.3211
" />
<path d="M97.1756 48.3211
L97.2232 48.4164
" />
<path d="M97.2232 48.4164
L97.2708 48.4640
" />
<path d="M97.2708 48.4640
L97.3661 48.5116
" />
<path d="M97.3661 48.5116
L97.7470 48.5116
" />
<path d="M97.7470 48.5116
L97.7470 47.5116
" />
<path d="M97.7470 47.5116
L97.4137 47.5116
" />
<path d="M97.4137 47.5116
L97.3185 47.5592
" />
<path d="M97.3185 47.5592
L97.2708 47.6069
" />
<path d="M97.2708 47.6069
L97.2232 47.7021
" />
<path d="M97.2232 47.7021
L97.2232 47.7973
" />
<path d="M97.2232 47.7973
L97.2708 47.8926
" />
<path d="M97.2708 47.8926
L97.3185 47.9402
" />
<path d="M97.3185 47.9402
L97.4137 47.9878
" />
<path d="M97.4137 47.9878
L97.7470 47.9878
" />
<path d="M96.2232 48.5116
L96.7946 48.5116
" />
<path d="M96.5089 48.5116
L96.5089 47.5116
" />
<path d="M96.5089 47.5116
L96.6042 47.6545
" />
<path d="M96.6042 47.6545
L96.6994 47.7497
" />
<path d="M96.6994 47.7497
L96.7946 47.7973
" />
</g><text x="102.6092" y="32.6420"
transform="scale(-1 1) translate(-205.218400 0)"
textLength="3.1548" font-size="1.3333" lengthAdjust="spacingAndGlyphs"
text-anchor="middle" opacity="0">C15</text>
<g class="stroked-text"><desc>C15</desc>
<path d="M103.2521 32.5016
L103.2997 32.5492
" />
<path d="M103.2997 32.5492
L103.4425 32.5968
" />
<path d="M103.4425 32.5968
L103.5378 32.5968
" />
<path d="M103.5378 32.5968
L103.6806 32.5492
" />
<path d="M103.6806 32.5492
L103.7759 32.4540
" />
<path d="M103.7759 32.4540
L103.8235 32.3587
" />
<path d="M103.8235 32.3587
L103.8711 32.1682
" />
<path d="M103.8711 32.1682
L103.8711 32.0254
" />
<path d="M103.8711 32.0254
L103.8235 31.8349
" />
<path d="M103.8235 31.8349
L103.7759 31.7397
" />
<path d="M103.7759 31.7397
L103.6806 31.6444
" />
<path d="M103.6806 31.6444
L103.5378 31.5968
" />
<path d="M103.5378 31.5968
L103.4425 31.5968
" />
<path d="M103.4425 31.5968
L103.2997 31.6444
" />
<path d="M103.2997 31.6444
L103.2521 31.6921
" />
<path d="M102.2997 32.5968
L102.8711 32.5968
" />
<path d="M102.5854 32.5968
L102.5854 31.5968
" />
<path d="M102.5854 31.5968
L102.6806 31.7397
" />
<path d="M102.6806 31.7397
L102.7759 31.8349
" />
<path d="M102.7759 31.8349
L102.8711 31.8825
" />
<path d="M101.3949 31.5968
L101.8711 31.5968
" />
<path d="M101.8711 31.5968
L101.9187 32.0730
" />
<path d="M101.9187 32.0730
L101.8711 32.0254
" />
<path d="M101.8711 32.0254
L101.7759 31.9778
" />
<path d="M101.7759 31.9778
L101.5378 31.9778
" />
<path d="M101.5378 31.9778
L101.4425 32.0254
" />
<path d="M101.4425 32.0254
L101.3949 32.0730
" />
<path d="M101.3949 32.0730
L101.3473 32.1682
" />
<path d="M101.3473 32.1682
L101.3473 32.4063
" />
<path d="M101.3473 32.4063
L101.3949 32.5016
" />
<path d="M101.3949 32.5016
L101.4425 32.5492
" />
<path d="M101.4425 32.5492
L101.5378 32.5968
" />
<path d="M101.5378 32.5968
L101.7759 32.5968
" />
<path d="M101.7759 32.5968
L101.8711 32.5492
" />
<path d="M101.8711 32.5492
L101.9187 32.5016
" />
</g><g transform="rotate(-90.000000 91.3892 69.4944)">
<text x="91.3892" y="69.9944"
transform="scale(-1 1) translate(-182.778400 0)"
textLength="3.1548" font-size="1.3333" lengthAdjust="spacingAndGlyphs"
text-anchor="middle" opacity="0">R17</text>
</g>
<g class="stroked-text"><desc>R17</desc>
<path d="M91.8440 68.8515
L91.3678 68.5182
" />
<path d="M91.8440 68.2801
L90.8440 68.2801
" />
<path d="M90.8440 68.2801
L90.8440 68.6611
" />
<path d="M90.8440 68.6611
L90.8916 68.7563
" />
<path d="M90.8916 68.7563
L90.9393 68.8039
" />
<path d="M90.9393 68.8039
L91.0345 68.8515
" />
<path d="M91.0345 68.8515
L91.1774 68.8515
" />
<path d="M91.1774 68.8515
L91.2726 68.8039
" />
<path d="M91.2726 68.8039
L91.3202 68.7563
" />
<path d="M91.3202 68.7563
L91.3678 68.6611
" />
<path d="M91.3678 68.6611
L91.3678 68.2801
" />
<path d="M91.8440 69.8039
L91.8440 69.2325
" />
<path d="M91.8440 69.5182
L90.8440 69.5182
" />
<path d="M90.8440 69.5182
L90.9869 69.4230
" />
<path d="M90.9869 69.4230
L91.0821 69.3277
" />
<path d="M91.0821 69.3277
L91.1297 69.2325
" />
<path d="M90.8440 70.1373
L90.8440 70.8039
" />
<path d="M90.8440 70.8039
L91.8440 70.3754
" />
</g><g transform="rotate(-90.000000 82.1436 73.2028)">
<text x="82.1436" y="73.7028"
transform="scale(-1 1) translate(-164.287200 0)"
textLength="3.1548" font-size="1.3333" lengthAdjust="spacingAndGlyphs"
text-anchor="middle" opacity="0">R18</text>
</g>
<g class="stroked-text"><desc>R18</desc>
<path d="M82.5984 72.5599
L82.1222 72.2266
" />
<path d="M82.5984 71.9885
L81.5984 71.9885
" />
<path d="M81.5984 71.9885
L81.5984 72.3695
" />
<path d="M81.5984 72.3695
L81.6460 72.4647
" />
<path d="M81.6460 72.4647
L81.6937 72.5123
" />
<path d="M81.6937 72.5123
L81.7889 72.5599
" />
<path d="M81.7889 72.5599
L81.9318 72.5599
" />
<path d="M81.9318 72.5599
L82.0270 72.5123
" />
<path d="M82.0270 72.5123
L82.0746 72.4647
" />
<path d="M82.0746 72.4647
L82.1222 72.3695
" />
<path d="M82.1222 72.3695
L82.1222 71.9885
" />
<path d="M82.5984 73.5123
L82.5984 72.9409
" />
<path d="M82.5984 73.2266
L81.5984 73.2266
" />
<path d="M81.5984 73.2266
L81.7413 73.1314
" />
<path d="M81.7413 73.1314
L81.8365 73.0361
" />
<path d="M81.8365 73.0361
L81.8841 72.9409
" />
<path d="M82.0270 74.0838
L81.9794 73.9885
" />
<path d="M81.9794 73.9885
L81.9318 73.9409
" />
<path d="M81.9318 73.9409
L81.8365 73.8933
" />
<path d="M81.8365 73.8933
L81.7889 73.8933
" />
<path d="M81.7889 73.8933
L81.6937 73.9409
" />
<path d="M81.6937 73.9409
L81.6460 73.9885
" />
<path d="M81.6460 73.9885
L81.5984 74.0838
" />
<path d="M81.5984 74.0838
L81.5984 74.2742
" />
<path d="M81.5984 74.2742
L81.6460 74.3695
" />
<path d="M81.6460 74.3695
L81.6937 74.4171
" />
<path d="M81.6937 74.4171
L81.7889 74.4647
" />
<path d="M81.7889 74.4647
L81.8365 74.4647
" />
<path d="M81.8365 74.4647
L81.9318 74.4171
" />
<path d="M81.9318 74.4171
L81.9794 74.3695
" />
<path d="M81.9794 74.3695
L82.0270 74.2742
" />
<path d="M82.0270 74.2742
L82.0270 74.0838
" />
<path d="M82.0270 74.0838
L82.0746 73.9885
" />
<path d="M82.0746 73.9885
L82.1222 73.9409
" />
<path d="M82.1222 73.9409
L82.2175 73.8933
" />
<path d="M82.2175 73.8933
L82.4079 73.8933
" />
<path d="M82.4079 73.8933
L82.5032 73.9409
" />
<path d="M82.5032 73.9409
L82.5508 73.9885
" />
<path d="M82.5508 73.9885
L82.5984 74.0838
" />
<path d="M82.5984 74.0838
L82.5984 74.2742
" />
<path d="M82.5984 74.2742
L82.5508 74.3695
" />
<path d="M82.5508 74.3695
L82.5032 74.4171
" />
<path d="M82.5032 74.4171
L82.4079 74.4647
" />
<path d="M82.4079 74.4647
L82.2175 74.4647
" />
<path d="M82.2175 74.4647
L82.1222 74.4171
" />
<path d="M82.1222 74.4171
L82.0746 74.3695
" />
<path d="M82.0746 74.3695
L82.0270 74.2742
" />
</g><g transform="rotate(-90.000000 122.2750 75.7000)">
<text x="122.2750" y="76.2000"
transform="scale(-1 1) translate(-244.550000 0)"
textLength="3.1548" font-size="1.3333" lengthAdjust="spacingAndGlyphs"
text-anchor="middle" opacity="0">R26</text>
</g>
<g class="stroked-text"><desc>R26</desc>
<path d="M122.7298 75.0571
L122.2536 74.7238
" />
<path d="M122.7298 74.4857
L121.7298 74.4857
" />
<path d="M121.7298 74.4857
L121.7298 74.8667
" />
<path d="M121.7298 74.8667
L121.7774 74.9619
" />
<path d="M121.7774 74.9619
L121.8251 75.0095
" />
<path d="M121.8251 75.0095
L121.9203 75.0571
" />
<path d="M121.9203 75.0571
L122.0632 75.0571
" />
<path d="M122.0632 75.0571
L122.1584 75.0095
" />
<path d="M122.1584 75.0095
L122.2060 74.9619
" />
<path d="M122.2060 74.9619
L122.2536 74.8667
" />
<path d="M122.2536 74.8667
L122.2536 74.4857
" />
<path d="M121.8251 75.4381
L121.7774 75.4857
" />
<path d="M121.7774 75.4857
L121.7298 75.5810
" />
<path d="M121.7298 75.5810
L121.7298 75.8190
" />
<path d="M121.7298 75.8190
L121.7774 75.9143
" />
<path d="M121.7774 75.9143
L121.8251 75.9619
" />
<path d="M121.8251 75.9619
L121.9203 76.0095
" />
<path d="M121.9203 76.0095
L122.0155 76.0095
" />
<path d="M122.0155 76.0095
L122.1584 75.9619
" />
<path d="M122.1584 75.9619
L122.7298 75.3905
" />
<path d="M122.7298 75.3905
L122.7298 76.0095
" />
<path d="M121.7298 76.8667
L121.7298 76.6762
" />
<path d="M121.7298 76.6762
L121.7774 76.5810
" />
<path d="M121.7774 76.5810
L121.8251 76.5333
" />
<path d="M121.8251 76.5333
L121.9679 76.4381
" />
<path d="M121.9679 76.4381
L122.1584 76.3905
" />
<path d="M122.1584 76.3905
L122.5393 76.3905
" />
<path d="M122.5393 76.3905
L122.6346 76.4381
" />
<path d="M122.6346 76.4381
L122.6822 76.4857
" />
<path d="M122.6822 76.4857
L122.7298 76.5810
" />
<path d="M122.7298 76.5810
L122.7298 76.7714
" />
<path d="M122.7298 76.7714
L122.6822 76.8667
" />
<path d="M122.6822 76.8667
L122.6346 76.9143
" />
<path d="M122.6346 76.9143
L122.5393 76.9619
" />
<path d="M122.5393 76.9619
L122.3012 76.9619
" />
<path d="M122.3012 76.9619
L122.2060 76.9143
" />
<path d="M122.2060 76.9143
L122.1584 76.8667
" />
<path d="M122.1584 76.8667
L122.1108 76.7714
" />
<path d="M122.1108 76.7714
L122.1108 76.5810
" />
<path d="M122.1108 76.5810
L122.1584 76.4857
" />
<path d="M122.1584 76.4857
L122.2060 76.4381
" />
<path d="M122.2060 76.4381
L122.3012 76.3905
" />
</g><g transform="rotate(-90.000000 79.6000 54.4000)">
<text x="79.6000" y="54.9000"
transform="scale(-1 1) translate(-159.200000 0)"
textLength="2.2024" font-size="1.3333" lengthAdjust="spacingAndGlyphs"
text-anchor="middle" opacity="0">R4</text>
</g>
<g class="stroked-text"><desc>R4</desc>
<path d="M80.0548 54.2333
L79.5786 53.9000
" />
<path d="M80.0548 53.6619
L79.0548 53.6619
" />
<path d="M79.0548 53.6619
L79.0548 54.0429
" />
<path d="M79.0548 54.0429
L79.1024 54.1381
" />
<path d="M79.1024 54.1381
L79.1501 54.1857
" />
<path d="M79.1501 54.1857
L79.2453 54.2333
" />
<path d="M79.2453 54.2333
L79.3882 54.2333
" />
<path d="M79.3882 54.2333
L79.4834 54.1857
" />
<path d="M79.4834 54.1857
L79.5310 54.1381
" />
<path d="M79.5310 54.1381
L79.5786 54.0429
" />
<path d="M79.5786 54.0429
L79.5786 53.6619
" />
<path d="M79.3882 55.0905
L80.0548 55.0905
" />
<path d="M79.0072 54.8524
L79.7215 54.6143
" />
<path d="M79.7215 54.6143
L79.7215 55.2333
" />
</g><g transform="rotate(-90.000000 122.1242 63.0000)">
<text x="122.1242" y="63.5000"
transform="scale(-1 1) translate(-244.248400 0)"
textLength="3.1548" font-size="1.3333" lengthAdjust="spacingAndGlyphs"
text-anchor="middle" opacity="0">R25</text>
</g>
<g class="stroked-text"><desc>R25</desc>
<path d="M122.5790 62.3571
L122.1028 62.0238
" />
<path d="M122.5790 61.7857
L121.5790 61.7857
" />
<path d="M121.5790 61.7857
L121.5790 62.1667
" />
<path d="M121.5790 62.1667
L121.6266 62.2619
" />
<path d="M121.6266 62.2619
L121.6743 62.3095
" />
<path d="M121.6743 62.3095
L121.7695 62.3571
" />
<path d="M121.7695 62.3571
L121.9124 62.3571
" />
<path d="M121.9124 62.3571
L122.0076 62.3095
" />
<path d="M122.0076 62.3095
L122.0552 62.2619
" />
<path d="M122.0552 62.2619
L122.1028 62.1667
" />
<path d="M122.1028 62.1667
L122.1028 61.7857
" />
<path d="M121.6743 62.7381
L121.6266 62.7857
" />
<path d="M121.6266 62.7857
L121.5790 62.8810
" />
<path d="M121.5790 62.8810
L121.5790 63.1190
" />
<path d="M121.5790 63.1190
L121.6266 63.2143
" />
<path d="M121.6266 63.2143
L121.6743 63.2619
" />
<path d="M121.6743 63.2619
L121.7695 63.3095
" />
<path d="M121.7695 63.3095
L121.8647 63.3095
" />
<path d="M121.8647 63.3095
L122.0076 63.2619
" />
<path d="M122.0076 63.2619
L122.5790 62.6905
" />
<path d="M122.5790 62.6905
L122.5790 63.3095
" />
<path d="M121.5790 64.2143
L121.5790 63.7381
" />
<path d="M121.5790 63.7381
L122.0552 63.6905
" />
<path d="M122.0552 63.6905
L122.0076 63.7381
" />
<path d="M122.0076 63.7381
L121.9600 63.8333
" />
<path d="M121.9600 63.8333
L121.9600 64.0714
" />
<path d="M121.9600 64.0714
L122.0076 64.1667
" />
<path d="M122.0076 64.1667
L122.0552 64.2143
" />
<path d="M122.0552 64.2143
L122.1504 64.2619
" />
<path d="M122.1504 64.2619
L122.3885 64.2619
" />
<path d="M122.3885 64.2619
L122.4838 64.2143
" />
<path d="M122.4838 64.2143
L122.5314 64.1667
" />
<path d="M122.5314 64.1667
L122.5790 64.0714
" />
<path d="M122.5790 64.0714
L122.5790 63.8333
" />
<path d="M122.5790 63.8333
L122.5314 63.7381
" />
<path d="M122.5314 63.7381
L122.4838 63.6905
" />
</g><g transform="rotate(-90.000000 114.1430 52.5000)">
<text x="114.1430" y="53.0000"
transform="scale(-1 1) translate(-228.286000 0)"
textLength="2.2024" font-size="1.3333" lengthAdjust="spacingAndGlyphs"
text-anchor="middle" opacity="0">R9</text>
</g>
<g class="stroked-text"><desc>R9</desc>
<path d="M114.5978 52.3333
L114.1216 52.0000
" />
<path d="M114.5978 51.7619
L113.5978 51.7619
" />
<path d="M113.5978 51.7619
L113.5978 52.1429
" />
<path d="M113.5978 52.1429
L113.6454 52.2381
" />
<path d="M113.6454 52.2381
L113.6931 52.2857
" />
<path d="M113.6931 52.2857
L113.7883 52.3333
" />
<path d="M113.7883 52.3333
L113.9312 52.3333
" />
<path d="M113.9312 52.3333
L114.0264 52.2857
" />
<path d="M114.0264 52.2857
L114.0740 52.2381
" />
<path d="M114.0740 52.2381
L114.1216 52.1429
" />
<path d="M114.1216 52.1429
L114.1216 51.7619
" />
<path d="M114.5978 52.8095
L114.5978 53.0000
" />
<path d="M114.5978 53.0000
L114.5502 53.0952
" />
<path d="M114.5502 53.0952
L114.5026 53.1429
" />
<path d="M114.5026 53.1429
L114.3597 53.2381
" />
<path d="M114.3597 53.2381
L114.1692 53.2857
" />
<path d="M114.1692 53.2857
L113.7883 53.2857
" />
<path d="M113.7883 53.2857
L113.6931 53.2381
" />
<path d="M113.6931 53.2381
L113.6454 53.1905
" />
<path d="M113.6454 53.1905
L113.5978 53.0952
" />
<path d="M113.5978 53.0952
L113.5978 52.9048
" />
<path d="M113.5978 52.9048
L113.6454 52.8095
" />
<path d="M113.6454 52.8095
L113.6931 52.7619
" />
<path d="M113.6931 52.7619
L113.7883 52.7143
" />
<path d="M113.7883 52.7143
L114.0264 52.7143
" />
<path d="M114.0264 52.7143
L114.1216 52.7619
" />
<path d="M114.1216 52.7619
L114.1692 52.8095
" />
<path d="M114.1692 52.8095
L114.2169 52.9048
" />
<path d="M114.2169 52.9048
L114.2169 53.0952
" />
<path d="M114.2169 53.0952
L114.1692 53.1905
" />
<path d="M114.1692 53.1905
L114.1216 53.2381
" />
<path d="M114.1216 53.2381
L114.0264 53.2857
" />
</g><text x="97.3469" y="44.1876"
transform="scale(-1 1) translate(-194.693800 0)"
textLength="3.1548" font-size="1.3333" lengthAdjust="spacingAndGlyphs"
text-anchor="middle" opacity="0">C22</text>
<g class="stroked-text"><desc>C22</desc>
<path d="M97.9898 44.0472
L98.0374 44.0948
" />
<path d="M98.0374 44.0948
L98.1802 44.1424
" />
<path d="M98.1802 44.1424
L98.2755 44.1424
" />
<path d="M98.2755 44.1424
L98.4183 44.0948
" />
<path d="M98.4183 44.0948
L98.5136 43.9996
" />
<path d="M98.5136 43.9996
L98.5612 43.9043
" />
<path d="M98.5612 43.9043
L98.6088 43.7138
" />
<path d="M98.6088 43.7138
L98.6088 43.5710
" />
<path d="M98.6088 43.5710
L98.5612 43.3805
" />
<path d="M98.5612 43.3805
L98.5136 43.2853
" />
<path d="M98.5136 43.2853
L98.4183 43.1900
" />
<path d="M98.4183 43.1900
L98.2755 43.1424
" />
<path d="M98.2755 43.1424
L98.1802 43.1424
" />
<path d="M98.1802 43.1424
L98.0374 43.1900
" />
<path d="M98.0374 43.1900
L97.9898 43.2377
" />
<path d="M97.6088 43.2377
L97.5612 43.1900
" />
<path d="M97.5612 43.1900
L97.4659 43.1424
" />
<path d="M97.4659 43.1424
L97.2279 43.1424
" />
<path d="M97.2279 43.1424
L97.1326 43.1900
" />
<path d="M97.1326 43.1900
L97.0850 43.2377
" />
<path d="M97.0850 43.2377
L97.0374 43.3329
" />
<path d="M97.0374 43.3329
L97.0374 43.4281
" />
<path d="M97.0374 43.4281
L97.0850 43.5710
" />
<path d="M97.0850 43.5710
L97.6564 44.1424
" />
<path d="M97.6564 44.1424
L97.0374 44.1424
" />
<path d="M96.6564 43.2377
L96.6088 43.1900
" />
<path d="M96.6088 43.1900
L96.5136 43.1424
" />
<path d="M96.5136 43.1424
L96.2755 43.1424
" />
<path d="M96.2755 43.1424
L96.1802 43.1900
" />
<path d="M96.1802 43.1900
L96.1326 43.2377
" />
<path d="M96.1326 43.2377
L96.0850 43.3329
" />
<path d="M96.0850 43.3329
L96.0850 43.4281
" />
<path d="M96.0850 43.4281
L96.1326 43.5710
" />
<path d="M96.1326 43.5710
L96.7040 44.1424
" />
<path d="M96.7040 44.1424
L96.0850 44.1424
" />
</g><g transform="rotate(-90.000000 113.9830 42.4500)">
<text x="113.9830" y="42.9500"
transform="scale(-1 1) translate(-227.966000 0)"
textLength="3.1548" font-size="1.3333" lengthAdjust="spacingAndGlyphs"
text-anchor="middle" opacity="0">C24</text>
</g>
<g class="stroked-text"><desc>C24</desc>
<path d="M114.3426 41.8071
L114.3902 41.7595
" />
<path d="M114.3902 41.7595
L114.4378 41.6167
" />
<path d="M114.4378 41.6167
L114.4378 41.5214
" />
<path d="M114.4378 41.5214
L114.3902 41.3786
" />
<path d="M114.3902 41.3786
L114.2950 41.2833
" />
<path d="M114.2950 41.2833
L114.1997 41.2357
" />
<path d="M114.1997 41.2357
L114.0092 41.1881
" />
<path d="M114.0092 41.1881
L113.8664 41.1881
" />
<path d="M113.8664 41.1881
L113.6759 41.2357
" />
<path d="M113.6759 41.2357
L113.5807 41.2833
" />
<path d="M113.5807 41.2833
L113.4854 41.3786
" />
<path d="M113.4854 41.3786
L113.4378 41.5214
" />
<path d="M113.4378 41.5214
L113.4378 41.6167
" />
<path d="M113.4378 41.6167
L113.4854 41.7595
" />
<path d="M113.4854 41.7595
L113.5331 41.8071
" />
<path d="M113.5331 42.1881
L113.4854 42.2357
" />
<path d="M113.4854 42.2357
L113.4378 42.3310
" />
<path d="M113.4378 42.3310
L113.4378 42.5690
" />
<path d="M113.4378 42.5690
L113.4854 42.6643
" />
<path d="M113.4854 42.6643
L113.5331 42.7119
" />
<path d="M113.5331 42.7119
L113.6283 42.7595
" />
<path d="M113.6283 42.7595
L113.7235 42.7595
" />
<path d="M113.7235 42.7595
L113.8664 42.7119
" />
<path d="M113.8664 42.7119
L114.4378 42.1405
" />
<path d="M114.4378 42.1405
L114.4378 42.7595
" />
<path d="M113.7712 43.6167
L114.4378 43.6167
" />
<path d="M113.3902 43.3786
L114.1045 43.1405
" />
<path d="M114.1045 43.1405
L114.1045 43.7595
" />
</g><g transform="rotate(-90.000000 114.0330 47.5000)">
<text x="114.0330" y="48.0000"
transform="scale(-1 1) translate(-228.066000 0)"
textLength="3.1548" font-size="1.3333" lengthAdjust="spacingAndGlyphs"
text-anchor="middle" opacity="0">C25</text>
</g>
<g class="stroked-text"><desc>C25</desc>
<path d="M114.3926 46.8571
L114.4402 46.8095
" />
<path d="M114.4402 46.8095
L114.4878 46.6667
" />
<path d="M114.4878 46.6667
L114.4878 46.5714
" />
<path d="M114.4878 46.5714
L114.4402 46.4286
" />
<path d="M114.4402 46.4286
L114.3450 46.3333
" />
<path d="M114.3450 46.3333
L114.2497 46.2857
" />
<path d="M114.2497 46.2857
L114.0592 46.2381
" />
<path d="M114.0592 46.2381
L113.9164 46.2381
" />
<path d="M113.9164 46.2381
L113.7259 46.2857
" />
<path d="M113.7259 46.2857
L113.6307 46.3333
" />
<path d="M113.6307 46.3333
L113.5354 46.4286
" />
<path d="M113.5354 46.4286
L113.4878 46.5714
" />
<path d="M113.4878 46.5714
L113.4878 46.6667
" />
<path d="M113.4878 46.6667
L113.5354 46.8095
" />
<path d="M113.5354 46.8095
L113.5831 46.8571
" />
<path d="M113.5831 47.2381
L113.5354 47.2857
" />
<path d="M113.5354 47.2857
L113.4878 47.3810
" />
<path d="M113.4878 47.3810
L113.4878 47.6190
" />
<path d="M113.4878 47.6190
L113.5354 47.7143
" />
<path d="M113.5354 47.7143
L113.5831 47.7619
" />
<path d="M113.5831 47.7619
L113.6783 47.8095
" />
<path d="M113.6783 47.8095
L113.7735 47.8095
" />
<path d="M113.7735 47.8095
L113.9164 47.7619
" />
<path d="M113.9164 47.7619
L114.4878 47.1905
" />
<path d="M114.4878 47.1905
L114.4878 47.8095
" />
<path d="M113.4878 48.7143
L113.4878 48.2381
" />
<path d="M113.4878 48.2381
L113.9640 48.1905
" />
<path d="M113.9640 48.1905
L113.9164 48.2381
" />
<path d="M113.9164 48.2381
L113.8688 48.3333
" />
<path d="M113.8688 48.3333
L113.8688 48.5714
" />
<path d="M113.8688 48.5714
L113.9164 48.6667
" />
<path d="M113.9164 48.6667
L113.9640 48.7143
" />
<path d="M113.9640 48.7143
L114.0592 48.7619
" />
<path d="M114.0592 48.7619
L114.2973 48.7619
" />
<path d="M114.2973 48.7619
L114.3926 48.7143
" />
<path d="M114.3926 48.7143
L114.4402 48.6667
" />
<path d="M114.4402 48.6667
L114.4878 48.5714
" />
<path d="M114.4878 48.5714
L114.4878 48.3333
" />
<path d="M114.4878 48.3333
L114.4402 48.2381
" />
<path d="M114.4402 48.2381
L114.3926 48.1905
" />
</g><g transform="rotate(-90.000000 83.2348 29.0700)">
<text x="83.2348" y="29.5700"
transform="scale(-1 1) translate(-166.469600 0)"
textLength="2.2024" font-size="1.3333" lengthAdjust="spacingAndGlyphs"
text-anchor="middle" opacity="0">R5</text>
</g>
<g class="stroked-text"><desc>R5</desc>
<path d="M83.6896 28.9033
L83.2134 28.5700
" />
<path d="M83.6896 28.3319
L82.6896 28.3319
" />
<path d="M82.6896 28.3319
L82.6896 28.7129
" />
<path d="M82.6896 28.7129
L82.7372 28.8081
" />
<path d="M82.7372 28.8081
L82.7849 28.8557
" />
<path d="M82.7849 28.8557
L82.8801 28.9033
" />
<path d="M82.8801 28.9033
L83.0230 28.9033
" />
<path d="M83.0230 28.9033
L83.1182 28.8557
" />
<path d="M83.1182 28.8557
L83.1658 28.8081
" />
<path d="M83.1658 28.8081
L83.2134 28.7129
" />
<path d="M83.2134 28.7129
L83.2134 28.3319
" />
<path d="M82.6896 29.8081
L82.6896 29.3319
" />
<path d="M82.6896 29.3319
L83.1658 29.2843
" />
<path d="M83.1658 29.2843
L83.1182 29.3319
" />
<path d="M83.1182 29.3319
L83.0706 29.4271
" />
<path d="M83.0706 29.4271
L83.0706 29.6652
" />
<path d="M83.0706 29.6652
L83.1182 29.7605
" />
<path d="M83.1182 29.7605
L83.1658 29.8081
" />
<path d="M83.1658 29.8081
L83.2610 29.8557
" />
<path d="M83.2610 29.8557
L83.4991 29.8557
" />
<path d="M83.4991 29.8557
L83.5944 29.8081
" />
<path d="M83.5944 29.8081
L83.6420 29.7605
" />
<path d="M83.6420 29.7605
L83.6896 29.6652
" />
<path d="M83.6896 29.6652
L83.6896 29.4271
" />
<path d="M83.6896 29.4271
L83.6420 29.3319
" />
<path d="M83.6420 29.3319
L83.5944 29.2843
" />
</g><g transform="rotate(-90.000000 66.1860 44.0675)">
<text x="66.1860" y="44.5675"
transform="scale(-1 1) translate(-132.372000 0)"
textLength="2.2024" font-size="1.3333" lengthAdjust="spacingAndGlyphs"
text-anchor="middle" opacity="0">R1</text>
</g>
<g class="stroked-text"><desc>R1</desc>
<path d="M66.6408 43.9008
L66.1646 43.5675
" />
<path d="M66.6408 43.3294
L65.6408 43.3294
" />
<path d="M65.6408 43.3294
L65.6408 43.7104
" />
<path d="M65.6408 43.7104
L65.6884 43.8056
" />
<path d="M65.6884 43.8056
L65.7361 43.8532
" />
<path d="M65.7361 43.8532
L65.8313 43.9008
" />
<path d="M65.8313 43.9008
L65.9742 43.9008
" />
<path d="M65.9742 43.9008
L66.0694 43.8532
" />
<path d="M66.0694 43.8532
L66.1170 43.8056
" />
<path d="M66.1170 43.8056
L66.1646 43.7104
" />
<path d="M66.1646 43.7104
L66.1646 43.3294
" />
<path d="M66.6408 44.8532
L66.6408 44.2818
" />
<path d="M66.6408 44.5675
L65.6408 44.5675
" />
<path d="M65.6408 44.5675
L65.7837 44.4723
" />
<path d="M65.7837 44.4723
L65.8789 44.3770
" />
<path d="M65.8789 44.3770
L65.9265 44.2818
" />
</g><g transform="rotate(-90.000000 71.2000 29.1000)">
<text x="71.2000" y="29.6000"
transform="scale(-1 1) translate(-142.400000 0)"
textLength="2.2024" font-size="1.3333" lengthAdjust="spacingAndGlyphs"
text-anchor="middle" opacity="0">R6</text>
</g>
<g class="stroked-text"><desc>R6</desc>
<path d="M71.6548 28.9333
L71.1786 28.6000
" />
<path d="M71.6548 28.3619
L70.6548 28.3619
" />
<path d="M70.6548 28.3619
L70.6548 28.7429
" />
<path d="M70.6548 28.7429
L70.7024 28.8381
" />
<path d="M70.7024 28.8381
L70.7501 28.8857
" />
<path d="M70.7501 28.8857
L70.8453 28.9333
" />
<path d="M70.8453 28.9333
L70.9882 28.9333
" />
<path d="M70.9882 28.9333
L71.0834 28.8857
" />
<path d="M71.0834 28.8857
L71.1310 28.8381
" />
<path d="M71.1310 28.8381
L71.1786 28.7429
" />
<path d="M71.1786 28.7429
L71.1786 28.3619
" />
<path d="M70.6548 29.7905
L70.6548 29.6000
" />
<path d="M70.6548 29.6000
L70.7024 29.5048
" />
<path d="M70.7024 29.5048
L70.7501 29.4571
" />
<path d="M70.7501 29.4571
L70.8929 29.3619
" />
<path d="M70.8929 29.3619
L71.0834 29.3143
" />
<path d="M71.0834 29.3143
L71.4643 29.3143
" />
<path d="M71.4643 29.3143
L71.5596 29.3619
" />
<path d="M71.5596 29.3619
L71.6072 29.4095
" />
<path d="M71.6072 29.4095
L71.6548 29.5048
" />
<path d="M71.6548 29.5048
L71.6548 29.6952
" />
<path d="M71.6548 29.6952
L71.6072 29.7905
" />
<path d="M71.6072 29.7905
L71.5596 29.8381
" />
<path d="M71.5596 29.8381
L71.4643 29.8857
" />
<path d="M71.4643 29.8857
L71.2262 29.8857
" />
<path d="M71.2262 29.8857
L71.1310 29.8381
" />
<path d="M71.1310 29.8381
L71.0834 29.7905
" />
<path d="M71.0834 29.7905
L71.0358 29.6952
" />
<path d="M71.0358 29.6952
L71.0358 29.5048
" />
<path d="M71.0358 29.5048
L71.0834 29.4095
" />
<path d="M71.0834 29.4095
L71.1310 29.3619
" />
<path d="M71.1310 29.3619
L71.2262 29.3143
" />
</g></g>
<g style="fill:#E8B2A7; fill-opacity:0.0; 
stroke:#E8B2A7; stroke-width:0.1200; stroke-opacity:1; 
stroke-linecap:round; stroke-linejoin:round;">
<path d="M118.8520 43.5696
L118.8520 43.1154
" />
<path d="M120.3220 43.5696
L120.3220 43.1154
" />
<path d="M115.2420 32.5509
L115.2420 33.0051
" />
<path d="M113.7720 32.5509
L113.7720 33.0051
" />
<path d="M124.1650 53.6613
L124.1650 53.1387
" />
<path d="M125.6350 53.6613
L125.6350 53.1387
" />
<path d="M95.5310 69.6961
L95.5310 69.2419
" />
<path d="M97.0010 69.6961
L97.0010 69.2419
" />
<path d="M95.2613 79.9350
L94.7387 79.9350
" />
<path d="M95.2613 78.4650
L94.7387 78.4650
" />
<path d="M125.6014 29.6599
L125.6014 30.1825
" />
<path d="M124.1314 29.6599
L124.1314 30.1825
" />
<path d="M97.0379 48.9820
L97.8371 48.9820
" />
<path d="M97.0379 50.1020
L97.8371 50.1020
" />
<path d="M102.8705 34.5570
L102.3479 34.5570
" />
<path d="M102.8705 33.0870
L102.3479 33.0870
" />
<path d="M92.2290 69.7196
L92.2290 69.2654
" />
<path d="M93.6990 69.7196
L93.6990 69.2654
" />
<path d="M83.0850 73.3791
L83.0850 72.9249
" />
<path d="M84.5550 73.3791
L84.5550 72.9249
" />
<path d="M123.2170 75.9191
L123.2170 75.4649
" />
<path d="M124.6870 75.9191
L124.6870 75.4649
" />
<path d="M81.9165 54.1289
L81.9165 54.5831
" />
<path d="M80.4465 54.1289
L80.4465 54.5831
" />
<path d="M124.6870 62.7649
L124.6870 63.2191
" />
<path d="M123.2170 62.7649
L123.2170 63.2191
" />
<path d="M115.0150 52.7271
L115.0150 52.2729
" />
<path d="M116.4850 52.7271
L116.4850 52.2729
" />
<path d="M97.0887 41.3150
L97.6113 41.3150
" />
<path d="M97.0887 42.7850
L97.6113 42.7850
" />
<path d="M114.8150 42.7113
L114.8150 42.1887
" />
<path d="M116.2850 42.7113
L116.2850 42.1887
" />
<path d="M114.9650 47.7613
L114.9650 47.2387
" />
<path d="M116.4350 47.7613
L116.4350 47.2387
" />
<path d="M84.0714 29.3771
L84.0714 28.9229
" />
<path d="M85.5414 29.3771
L85.5414 28.9229
" />
<path d="M68.8070 43.8654
L68.8070 44.3196
" />
<path d="M67.3370 43.8654
L67.3370 44.3196
" />
<path d="M72.1298 29.3271
L72.1298 28.8729
" />
<path d="M73.5998 29.3271
L73.5998 28.8729
" />
<g >
</g>
<g >
</g>
<g >
</g>
<g >
</g>
<g >
</g>
<g >
</g>
<g >
</g>
<g >
</g>
<g >
</g>
<g >
</g>
<g >
</g>
<g >
</g>
<g >
</g>
<g >
</g>
<g >
</g>
<g >
</g>
<g >
</g>
<g >
</g>
<g >
</g>
<g >
</g>
<g >
</g>
<g >
</g>
<g >
</g>
<g >
</g>
<g >
</g>
<g >
</g>
<g >
</g>
<g >
</g>
<g >
</g>
<g >
</g>
<g >
</g>
<g >
</g>
<g >
</g>
<g >
</g>
<g >
</g>
<g >
</g>
<g >
</g>
<g >
</g>
<g >
</g>
<g >
</g>
<g >
</g>
<g >
</g>
<g >
</g>
<g >
</g>
<g >
</g>
<g >
</g>
<g >
</g>
<g >
</g>
<g >
</g>
<g >
</g>
<g >
</g>
<g >
</g>
<g >
</g>
<g >
</g>
<g >
</g>
<g >
</g>
<g >
</g>
<g >
</g>
<g >
</g>
<g >
</g>
<g >
</g>
<g >
</g>
<g >
</g>
<g >
</g>
<g >
</g>
<g >
</g>
<g >
</g>
<g >
</g>
<g >
</g>
<g >
</g>
<g >
</g>
<g >
</g>
<g >
</g>
<g >
</g>
<g >
</g>
<g >
</g>
<g >
</g>
<g >
</g>
<g >
</g>
<g >
</g>
<g >
</g>
<g >
</g>
<g >
</g>
<g >
</g>
<g >
</g>
<g >
</g>
<g >
</g>
<g >
</g>
<g >
</g>
<g >
</g>
<g >
</g>
<g >
</g>
<g >
</g>
<g >
</g>
<g >
</g>
<g >
</g>
<g >
</g>
<g >
</g>
<g >
</g>
<g >
</g>
<g >
</g>
<g >
</g>
<g >
</g>
<g >
</g>
<g >
</g>
<g >
</g>
<g >
</g>
<g >
</g>
<g >
</g>
<g >
</g>
<g >
</g>
<g >
</g>
<g >
</g>
<g >
</g>
<g >
</g>
<g >
</g>
<g >
</g>
<g >
</g>
<g >
</g>
<g >
</g>
<g >
</g>
<g >
</g>
<g >
</g>
<g >
</g>
</g> 
</svg>
