%TF.GenerationSoftware,KiCad,Pcbnew,(6.0.11)*%
%TF.CreationDate,2024-04-30T16:24:52+07:00*%
%TF.ProjectId,Oxygen Monitoring,4f787967-656e-4204-9d6f-6e69746f7269,rev?*%
%TF.SameCoordinates,Original*%
%TF.FileFunction,Drillmap*%
%TF.FilePolarity,Positive*%
%FSLAX45Y45*%
G04 Gerber Fmt 4.5, Leading zero omitted, Abs format (unit mm)*
G04 Created by KiCad (PCBNEW (6.0.11)) date 2024-04-30 16:24:52*
%MOMM*%
%LPD*%
G01*
G04 APERTURE LIST*
%ADD10C,0.100000*%
%ADD11C,0.200000*%
%ADD12C,0.040000*%
%ADD13C,0.050000*%
%ADD14C,0.060000*%
%ADD15C,0.080000*%
%ADD16C,0.090000*%
%ADD17C,0.102000*%
%ADD18C,0.119000*%
%ADD19C,0.130000*%
%ADD20C,0.160000*%
%ADD21C,0.320000*%
G04 APERTURE END LIST*
D10*
X11694800Y-19503700D02*
X1915800Y-19503700D01*
X12069560Y-19128180D02*
X12069560Y-13651940D01*
X11694800Y-13273700D02*
X1915800Y-13273700D01*
X1539560Y-19128180D02*
X1539560Y-13651940D01*
X11694800Y-19503699D02*
G75*
G03*
X12069560Y-19128180I-15750J390479D01*
G01*
X1915800Y-13273700D02*
G75*
G03*
X1539560Y-13651940I18783J-394929D01*
G01*
X1539559Y-19128180D02*
G75*
G03*
X1915800Y-19503700I392053J16564D01*
G01*
X12069566Y-13651940D02*
G75*
G03*
X11694800Y-13273700I-393466J-15070D01*
G01*
D11*
D12*
X2723840Y-14607300D02*
X2763840Y-14647300D01*
X2763840Y-14607300D02*
X2723840Y-14647300D01*
X2726380Y-15374380D02*
X2766380Y-15414380D01*
X2766380Y-15374380D02*
X2726380Y-15414380D01*
X2838140Y-14995920D02*
X2878140Y-15035920D01*
X2878140Y-14995920D02*
X2838140Y-15035920D01*
X3744920Y-14561580D02*
X3784920Y-14601580D01*
X3784920Y-14561580D02*
X3744920Y-14601580D01*
X3744920Y-15409940D02*
X3784920Y-15449940D01*
X3784920Y-15409940D02*
X3744920Y-15449940D01*
X3925260Y-16540240D02*
X3965260Y-16580240D01*
X3965260Y-16540240D02*
X3925260Y-16580240D01*
X3948120Y-17076180D02*
X3988120Y-17116180D01*
X3988120Y-17076180D02*
X3948120Y-17116180D01*
X3953200Y-15816340D02*
X3993200Y-15856340D01*
X3993200Y-15816340D02*
X3953200Y-15856340D01*
X4562800Y-15816340D02*
X4602800Y-15856340D01*
X4602800Y-15816340D02*
X4562800Y-15856340D01*
X4562800Y-17076180D02*
X4602800Y-17116180D01*
X4602800Y-17076180D02*
X4562800Y-17116180D01*
X4649160Y-17899140D02*
X4689160Y-17939140D01*
X4689160Y-17899140D02*
X4649160Y-17939140D01*
X4651700Y-17561320D02*
X4691700Y-17601320D01*
X4691700Y-17561320D02*
X4651700Y-17601320D01*
X4834580Y-14607300D02*
X4874580Y-14647300D01*
X4874580Y-14607300D02*
X4834580Y-14647300D01*
X4834580Y-14868920D02*
X4874580Y-14908920D01*
X4874580Y-14868920D02*
X4834580Y-14908920D01*
X4890460Y-15404860D02*
X4930460Y-15444860D01*
X4930460Y-15404860D02*
X4890460Y-15444860D01*
X4893000Y-13560820D02*
X4933000Y-13600820D01*
X4933000Y-13560820D02*
X4893000Y-13600820D01*
X4893000Y-16431020D02*
X4933000Y-16471020D01*
X4933000Y-16431020D02*
X4893000Y-16471020D01*
X5035240Y-18264900D02*
X5075240Y-18304900D01*
X5075240Y-18264900D02*
X5035240Y-18304900D01*
X5041940Y-17550770D02*
X5081940Y-17590770D01*
X5081940Y-17550770D02*
X5041940Y-17590770D01*
X5080960Y-15890000D02*
X5120960Y-15930000D01*
X5120960Y-15890000D02*
X5080960Y-15930000D01*
X5139560Y-17153700D02*
X5179560Y-17193700D01*
X5179560Y-17153700D02*
X5139560Y-17193700D01*
X5174550Y-16466580D02*
X5214550Y-16506580D01*
X5214550Y-16466580D02*
X5174550Y-16506580D01*
X5177480Y-15348980D02*
X5217480Y-15388980D01*
X5217480Y-15348980D02*
X5177480Y-15388980D01*
X5469560Y-19133700D02*
X5509560Y-19173700D01*
X5509560Y-19133700D02*
X5469560Y-19173700D01*
X5503020Y-16898380D02*
X5543020Y-16938380D01*
X5543020Y-16898380D02*
X5503020Y-16938380D01*
X5503020Y-17904220D02*
X5543020Y-17944220D01*
X5543020Y-17904220D02*
X5503020Y-17944220D01*
X5657540Y-16641840D02*
X5697540Y-16681840D01*
X5697540Y-16641840D02*
X5657540Y-16681840D01*
X5832800Y-15448040D02*
X5872800Y-15488040D01*
X5872800Y-15448040D02*
X5832800Y-15488040D01*
X5850580Y-18470640D02*
X5890580Y-18510640D01*
X5890580Y-18470640D02*
X5850580Y-18510640D01*
X5992820Y-18470640D02*
X6032820Y-18510640D01*
X6032820Y-18470640D02*
X5992820Y-18510640D01*
X6109660Y-14970520D02*
X6149660Y-15010520D01*
X6149660Y-14970520D02*
X6109660Y-15010520D01*
X6129980Y-18473180D02*
X6169980Y-18513180D01*
X6169980Y-18473180D02*
X6129980Y-18513180D01*
X6249360Y-15064500D02*
X6289360Y-15104500D01*
X6289360Y-15064500D02*
X6249360Y-15104500D01*
X6249360Y-15699500D02*
X6289360Y-15739500D01*
X6289360Y-15699500D02*
X6249360Y-15739500D01*
X6284920Y-15539480D02*
X6324920Y-15579480D01*
X6324920Y-15539480D02*
X6284920Y-15579480D01*
X6368740Y-17694520D02*
X6408740Y-17734520D01*
X6408740Y-17694520D02*
X6368740Y-17734520D01*
X6375000Y-17235000D02*
X6415000Y-17275000D01*
X6415000Y-17235000D02*
X6375000Y-17275000D01*
X6442400Y-17048240D02*
X6482400Y-17088240D01*
X6482400Y-17048240D02*
X6442400Y-17088240D01*
X6489560Y-19083700D02*
X6529560Y-19123700D01*
X6529560Y-19083700D02*
X6489560Y-19123700D01*
X6556700Y-14995920D02*
X6596700Y-15035920D01*
X6596700Y-14995920D02*
X6556700Y-15035920D01*
X6785300Y-13517640D02*
X6825300Y-13557640D01*
X6825300Y-13517640D02*
X6785300Y-13557640D01*
X6798000Y-16278620D02*
X6838000Y-16318620D01*
X6838000Y-16278620D02*
X6798000Y-16318620D01*
X6838640Y-14475220D02*
X6878640Y-14515220D01*
X6878640Y-14475220D02*
X6838640Y-14515220D01*
X6843720Y-17152380D02*
X6883720Y-17192380D01*
X6883720Y-17152380D02*
X6843720Y-17192380D01*
X6848800Y-13924040D02*
X6888800Y-13964040D01*
X6888800Y-13924040D02*
X6848800Y-13964040D01*
X6848800Y-16997440D02*
X6888800Y-17037440D01*
X6888800Y-16997440D02*
X6848800Y-17037440D01*
X6949560Y-19283700D02*
X6989560Y-19323700D01*
X6989560Y-19283700D02*
X6949560Y-19323700D01*
X6960560Y-16359900D02*
X7000560Y-16399900D01*
X7000560Y-16359900D02*
X6960560Y-16399900D01*
X7009560Y-15573700D02*
X7049560Y-15613700D01*
X7049560Y-15573700D02*
X7009560Y-15613700D01*
X7018980Y-17025380D02*
X7058980Y-17065380D01*
X7058980Y-17025380D02*
X7018980Y-17065380D01*
X7050105Y-13931015D02*
X7090105Y-13971015D01*
X7090105Y-13931015D02*
X7050105Y-13971015D01*
X7082480Y-16248140D02*
X7122480Y-16288140D01*
X7122480Y-16248140D02*
X7082480Y-16288140D01*
X7168840Y-15275320D02*
X7208840Y-15315320D01*
X7208840Y-15275320D02*
X7168840Y-15315320D01*
X7168840Y-16517380D02*
X7208840Y-16557380D01*
X7208840Y-16517380D02*
X7168840Y-16557380D01*
X7189160Y-16177020D02*
X7229160Y-16217020D01*
X7229160Y-16177020D02*
X7189160Y-16217020D01*
X7267900Y-16077960D02*
X7307900Y-16117960D01*
X7307900Y-16077960D02*
X7267900Y-16117960D01*
X7280600Y-17203180D02*
X7320600Y-17243180D01*
X7320600Y-17203180D02*
X7280600Y-17243180D01*
X7319560Y-19133700D02*
X7359560Y-19173700D01*
X7359560Y-19133700D02*
X7319560Y-19173700D01*
X7356800Y-17459720D02*
X7396800Y-17499720D01*
X7396800Y-17459720D02*
X7356800Y-17499720D01*
X7406340Y-17270480D02*
X7446340Y-17310480D01*
X7446340Y-17270480D02*
X7406340Y-17310480D01*
X7468560Y-14475220D02*
X7508560Y-14515220D01*
X7508560Y-14475220D02*
X7468560Y-14515220D01*
X7504120Y-16288780D02*
X7544120Y-16328780D01*
X7544120Y-16288780D02*
X7504120Y-16328780D01*
X7521900Y-17406380D02*
X7561900Y-17446380D01*
X7561900Y-17406380D02*
X7521900Y-17446380D01*
X7620960Y-16420860D02*
X7660960Y-16460860D01*
X7660960Y-16420860D02*
X7620960Y-16460860D01*
X7656520Y-17312400D02*
X7696520Y-17352400D01*
X7696520Y-17312400D02*
X7656520Y-17352400D01*
X7659560Y-15783700D02*
X7699560Y-15823700D01*
X7699560Y-15783700D02*
X7659560Y-15823700D01*
X7676840Y-14475220D02*
X7716840Y-14515220D01*
X7716840Y-14475220D02*
X7676840Y-14515220D01*
X7753040Y-17177780D02*
X7793040Y-17217780D01*
X7793040Y-17177780D02*
X7753040Y-17217780D01*
X8062920Y-15064500D02*
X8102920Y-15104500D01*
X8102920Y-15064500D02*
X8062920Y-15104500D01*
X8078160Y-16517380D02*
X8118160Y-16557380D01*
X8118160Y-16517380D02*
X8078160Y-16557380D01*
X8159560Y-19093700D02*
X8199560Y-19133700D01*
X8199560Y-19093700D02*
X8159560Y-19133700D01*
X8189920Y-17137140D02*
X8229920Y-17177140D01*
X8229920Y-17137140D02*
X8189920Y-17177140D01*
X8286440Y-17045700D02*
X8326440Y-17085700D01*
X8326440Y-17045700D02*
X8286440Y-17085700D01*
X8435030Y-13948170D02*
X8475030Y-13988170D01*
X8475030Y-13948170D02*
X8435030Y-13988170D01*
X8586160Y-18051540D02*
X8626160Y-18091540D01*
X8626160Y-18051540D02*
X8586160Y-18091540D01*
X8591240Y-14465060D02*
X8631240Y-14505060D01*
X8631240Y-14465060D02*
X8591240Y-14505060D01*
X8596320Y-15247380D02*
X8636320Y-15287380D01*
X8636320Y-15247380D02*
X8596320Y-15287380D01*
X8619180Y-17251050D02*
X8659180Y-17291050D01*
X8659180Y-17251050D02*
X8619180Y-17291050D01*
X8624260Y-17518140D02*
X8664260Y-17558140D01*
X8664260Y-17518140D02*
X8624260Y-17558140D01*
X8624260Y-17810240D02*
X8664260Y-17850240D01*
X8664260Y-17810240D02*
X8624260Y-17850240D01*
X8804600Y-16062720D02*
X8844600Y-16102720D01*
X8844600Y-16062720D02*
X8804600Y-16102720D01*
X8893500Y-13695440D02*
X8933500Y-13735440D01*
X8933500Y-13695440D02*
X8893500Y-13735440D01*
X8896040Y-13517640D02*
X8936040Y-13557640D01*
X8936040Y-13517640D02*
X8896040Y-13557640D01*
X8936680Y-14005320D02*
X8976680Y-14045320D01*
X8976680Y-14005320D02*
X8936680Y-14045320D01*
X9048440Y-17695940D02*
X9088440Y-17735940D01*
X9088440Y-17695940D02*
X9048440Y-17735940D01*
X9048440Y-18396980D02*
X9088440Y-18436980D01*
X9088440Y-18396980D02*
X9048440Y-18436980D01*
X9320220Y-14934960D02*
X9360220Y-14974960D01*
X9360220Y-14934960D02*
X9320220Y-14974960D01*
X9329560Y-14583700D02*
X9369560Y-14623700D01*
X9369560Y-14583700D02*
X9329560Y-14623700D01*
X9330380Y-15943340D02*
X9370380Y-15983340D01*
X9370380Y-15943340D02*
X9330380Y-15983340D01*
X9373560Y-17939780D02*
X9413560Y-17979780D01*
X9413560Y-17939780D02*
X9373560Y-17979780D01*
X9373560Y-18148060D02*
X9413560Y-18188060D01*
X9413560Y-18148060D02*
X9373560Y-18188060D01*
X9505640Y-17426700D02*
X9545640Y-17466700D01*
X9545640Y-17426700D02*
X9505640Y-17466700D01*
X9576760Y-18046460D02*
X9616760Y-18086460D01*
X9616760Y-18046460D02*
X9576760Y-18086460D01*
X9685980Y-13383020D02*
X9725980Y-13423020D01*
X9725980Y-13383020D02*
X9685980Y-13423020D01*
X9716460Y-14739380D02*
X9756460Y-14779380D01*
X9756460Y-14739380D02*
X9716460Y-14779380D01*
X9816760Y-16646760D02*
X9856760Y-16686760D01*
X9856760Y-16646760D02*
X9816760Y-16686760D01*
X9917120Y-15427720D02*
X9957120Y-15467720D01*
X9957120Y-15427720D02*
X9917120Y-15467720D01*
X10199060Y-14551420D02*
X10239060Y-14591420D01*
X10239060Y-14551420D02*
X10199060Y-14591420D01*
X10199060Y-15836660D02*
X10239060Y-15876660D01*
X10239060Y-15836660D02*
X10199060Y-15876660D01*
X10348920Y-13502790D02*
X10388920Y-13542790D01*
X10388920Y-13502790D02*
X10348920Y-13542790D01*
X10348920Y-15499230D02*
X10388920Y-15539230D01*
X10388920Y-15499230D02*
X10348920Y-15539230D01*
X10348920Y-16050020D02*
X10388920Y-16090020D01*
X10388920Y-16050020D02*
X10348920Y-16090020D01*
X10348920Y-16212970D02*
X10388920Y-16252970D01*
X10388920Y-16212970D02*
X10348920Y-16252970D01*
X10359080Y-14658100D02*
X10399080Y-14698100D01*
X10399080Y-14658100D02*
X10359080Y-14698100D01*
X10376860Y-14294880D02*
X10416860Y-14334880D01*
X10416860Y-14294880D02*
X10376860Y-14334880D01*
X10544500Y-15308340D02*
X10584500Y-15348340D01*
X10584500Y-15308340D02*
X10544500Y-15348340D01*
X10699440Y-15775700D02*
X10739440Y-15815700D01*
X10739440Y-15775700D02*
X10699440Y-15815700D01*
X10828980Y-16050020D02*
X10868980Y-16090020D01*
X10868980Y-16050020D02*
X10828980Y-16090020D01*
X10862000Y-14957820D02*
X10902000Y-14997820D01*
X10902000Y-14957820D02*
X10862000Y-14997820D01*
D13*
X1705880Y-13651940D02*
G75*
G03*
X1705880Y-13651940I-25000J0D01*
G01*
X1705880Y-19128180D02*
G75*
G03*
X1705880Y-19128180I-25000J0D01*
G01*
X1776174Y-13482234D02*
G75*
G03*
X1776174Y-13482234I-25000J0D01*
G01*
X1776174Y-13821646D02*
G75*
G03*
X1776174Y-13821646I-25000J0D01*
G01*
X1776174Y-18958474D02*
G75*
G03*
X1776174Y-18958474I-25000J0D01*
G01*
X1776174Y-19297886D02*
G75*
G03*
X1776174Y-19297886I-25000J0D01*
G01*
X1945880Y-13411940D02*
G75*
G03*
X1945880Y-13411940I-25000J0D01*
G01*
X1945880Y-13891940D02*
G75*
G03*
X1945880Y-13891940I-25000J0D01*
G01*
X1945880Y-18888180D02*
G75*
G03*
X1945880Y-18888180I-25000J0D01*
G01*
X1945880Y-19368180D02*
G75*
G03*
X1945880Y-19368180I-25000J0D01*
G01*
X2115586Y-13482234D02*
G75*
G03*
X2115586Y-13482234I-25000J0D01*
G01*
X2115586Y-13821646D02*
G75*
G03*
X2115586Y-13821646I-25000J0D01*
G01*
X2115586Y-18958474D02*
G75*
G03*
X2115586Y-18958474I-25000J0D01*
G01*
X2115586Y-19297886D02*
G75*
G03*
X2115586Y-19297886I-25000J0D01*
G01*
X2185880Y-13651940D02*
G75*
G03*
X2185880Y-13651940I-25000J0D01*
G01*
X2185880Y-19128180D02*
G75*
G03*
X2185880Y-19128180I-25000J0D01*
G01*
X11479800Y-13651940D02*
G75*
G03*
X11479800Y-13651940I-25000J0D01*
G01*
X11479800Y-19128180D02*
G75*
G03*
X11479800Y-19128180I-25000J0D01*
G01*
X11550094Y-13482234D02*
G75*
G03*
X11550094Y-13482234I-25000J0D01*
G01*
X11550094Y-13821646D02*
G75*
G03*
X11550094Y-13821646I-25000J0D01*
G01*
X11550094Y-18958474D02*
G75*
G03*
X11550094Y-18958474I-25000J0D01*
G01*
X11550094Y-19297886D02*
G75*
G03*
X11550094Y-19297886I-25000J0D01*
G01*
X11719800Y-13411940D02*
G75*
G03*
X11719800Y-13411940I-25000J0D01*
G01*
X11719800Y-13891940D02*
G75*
G03*
X11719800Y-13891940I-25000J0D01*
G01*
X11719800Y-18888180D02*
G75*
G03*
X11719800Y-18888180I-25000J0D01*
G01*
X11719800Y-19368180D02*
G75*
G03*
X11719800Y-19368180I-25000J0D01*
G01*
X11889506Y-13482234D02*
G75*
G03*
X11889506Y-13482234I-25000J0D01*
G01*
X11889506Y-13821646D02*
G75*
G03*
X11889506Y-13821646I-25000J0D01*
G01*
X11889506Y-18958474D02*
G75*
G03*
X11889506Y-18958474I-25000J0D01*
G01*
X11889506Y-19297886D02*
G75*
G03*
X11889506Y-19297886I-25000J0D01*
G01*
X11959800Y-13651940D02*
G75*
G03*
X11959800Y-13651940I-25000J0D01*
G01*
X11959800Y-19128180D02*
G75*
G03*
X11959800Y-19128180I-25000J0D01*
G01*
D14*
X5509560Y-18423700D02*
X5509560Y-18483700D01*
X5479560Y-18453700D02*
X5539560Y-18453700D01*
X5659560Y-18423700D02*
X5659560Y-18483700D01*
X5629560Y-18453700D02*
X5689560Y-18453700D01*
X6450040Y-18423700D02*
X6450040Y-18483700D01*
X6420040Y-18453700D02*
X6480040Y-18453700D01*
X6600040Y-18423700D02*
X6600040Y-18483700D01*
X6570040Y-18453700D02*
X6630040Y-18453700D01*
D15*
X2746725Y-18865372D02*
X2746725Y-18808803D01*
X2690156Y-18808803D01*
X2690156Y-18865372D01*
X2746725Y-18865372D01*
X2746725Y-19115372D02*
X2746725Y-19058803D01*
X2690156Y-19058803D01*
X2690156Y-19115372D01*
X2746725Y-19115372D01*
X3554444Y-16390456D02*
X3554444Y-16333887D01*
X3497875Y-16333887D01*
X3497875Y-16390456D01*
X3554444Y-16390456D01*
X3554444Y-16640456D02*
X3554444Y-16583887D01*
X3497875Y-16583887D01*
X3497875Y-16640456D01*
X3554444Y-16640456D01*
X5860764Y-15711064D02*
X5860764Y-15654495D01*
X5804195Y-15654495D01*
X5804195Y-15711064D01*
X5860764Y-15711064D01*
X5860764Y-16199064D02*
X5860764Y-16142495D01*
X5804195Y-16142495D01*
X5804195Y-16199064D01*
X5860764Y-16199064D01*
X6186304Y-17204585D02*
X6186304Y-17148016D01*
X6129735Y-17148016D01*
X6129735Y-17204585D01*
X6186304Y-17204585D01*
X6186304Y-17692585D02*
X6186304Y-17636016D01*
X6129735Y-17636016D01*
X6129735Y-17692585D01*
X6186304Y-17692585D01*
D16*
X10328440Y-17214840D02*
X10373440Y-17169840D01*
X10328440Y-17124840D01*
X10283440Y-17169840D01*
X10328440Y-17214840D01*
X10328440Y-17468840D02*
X10373440Y-17423840D01*
X10328440Y-17378840D01*
X10283440Y-17423840D01*
X10328440Y-17468840D01*
X10328440Y-17722840D02*
X10373440Y-17677840D01*
X10328440Y-17632840D01*
X10283440Y-17677840D01*
X10328440Y-17722840D01*
X10328440Y-17976840D02*
X10373440Y-17931840D01*
X10328440Y-17886840D01*
X10283440Y-17931840D01*
X10328440Y-17976840D01*
X10582440Y-17341840D02*
X10627440Y-17296840D01*
X10582440Y-17251840D01*
X10537440Y-17296840D01*
X10582440Y-17341840D01*
X10582440Y-17595840D02*
X10627440Y-17550840D01*
X10582440Y-17505840D01*
X10537440Y-17550840D01*
X10582440Y-17595840D01*
X10582440Y-17849840D02*
X10627440Y-17804840D01*
X10582440Y-17759840D01*
X10537440Y-17804840D01*
X10582440Y-17849840D01*
X10582440Y-18103840D02*
X10627440Y-18058840D01*
X10582440Y-18013840D01*
X10537440Y-18058840D01*
X10582440Y-18103840D01*
D10*
X3704760Y-13576540D02*
X3804760Y-13676540D01*
X3804760Y-13576540D02*
X3704760Y-13676540D01*
X3804760Y-13626540D02*
G75*
G03*
X3804760Y-13626540I-50000J0D01*
G01*
X3704760Y-13830540D02*
X3804760Y-13930540D01*
X3804760Y-13830540D02*
X3704760Y-13930540D01*
X3804760Y-13880540D02*
G75*
G03*
X3804760Y-13880540I-50000J0D01*
G01*
X3958760Y-13576540D02*
X4058760Y-13676540D01*
X4058760Y-13576540D02*
X3958760Y-13676540D01*
X4058760Y-13626540D02*
G75*
G03*
X4058760Y-13626540I-50000J0D01*
G01*
X3958760Y-13830540D02*
X4058760Y-13930540D01*
X4058760Y-13830540D02*
X3958760Y-13930540D01*
X4058760Y-13880540D02*
G75*
G03*
X4058760Y-13880540I-50000J0D01*
G01*
X4212760Y-13576540D02*
X4312760Y-13676540D01*
X4312760Y-13576540D02*
X4212760Y-13676540D01*
X4312760Y-13626540D02*
G75*
G03*
X4312760Y-13626540I-50000J0D01*
G01*
X4212760Y-13830540D02*
X4312760Y-13930540D01*
X4312760Y-13830540D02*
X4212760Y-13930540D01*
X4312760Y-13880540D02*
G75*
G03*
X4312760Y-13880540I-50000J0D01*
G01*
X7149000Y-13566380D02*
X7249000Y-13666380D01*
X7249000Y-13566380D02*
X7149000Y-13666380D01*
X7249000Y-13616380D02*
G75*
G03*
X7249000Y-13616380I-50000J0D01*
G01*
X7403000Y-13566380D02*
X7503000Y-13666380D01*
X7503000Y-13566380D02*
X7403000Y-13666380D01*
X7503000Y-13616380D02*
G75*
G03*
X7503000Y-13616380I-50000J0D01*
G01*
X7657000Y-13566380D02*
X7757000Y-13666380D01*
X7757000Y-13566380D02*
X7657000Y-13666380D01*
X7757000Y-13616380D02*
G75*
G03*
X7757000Y-13616380I-50000J0D01*
G01*
X7911000Y-13566380D02*
X8011000Y-13666380D01*
X8011000Y-13566380D02*
X7911000Y-13666380D01*
X8011000Y-13616380D02*
G75*
G03*
X8011000Y-13616380I-50000J0D01*
G01*
D17*
X11504440Y-16930840D02*
X11606440Y-17032840D01*
X11606440Y-16930840D02*
X11504440Y-17032840D01*
X11555440Y-16930840D02*
X11555440Y-17032840D01*
X11504440Y-16981840D02*
X11606440Y-16981840D01*
X11504440Y-17941840D02*
X11606440Y-18043840D01*
X11606440Y-17941840D02*
X11504440Y-18043840D01*
X11555440Y-17941840D02*
X11555440Y-18043840D01*
X11504440Y-17992840D02*
X11606440Y-17992840D01*
X11674440Y-17184840D02*
X11776440Y-17286840D01*
X11776440Y-17184840D02*
X11674440Y-17286840D01*
X11725440Y-17184840D02*
X11725440Y-17286840D01*
X11674440Y-17235840D02*
X11776440Y-17235840D01*
X11674440Y-18195840D02*
X11776440Y-18297840D01*
X11776440Y-18195840D02*
X11674440Y-18297840D01*
X11725440Y-18195840D02*
X11725440Y-18297840D01*
X11674440Y-18246840D02*
X11776440Y-18246840D01*
D18*
X5511360Y-13791100D02*
X5630360Y-13910100D01*
X5630360Y-13791100D02*
X5511360Y-13910100D01*
X5612933Y-13892673D02*
X5612933Y-13808527D01*
X5528787Y-13808527D01*
X5528787Y-13892673D01*
X5612933Y-13892673D01*
X5765360Y-13791100D02*
X5884360Y-13910100D01*
X5884360Y-13791100D02*
X5765360Y-13910100D01*
X5866933Y-13892673D02*
X5866933Y-13808527D01*
X5782787Y-13808527D01*
X5782787Y-13892673D01*
X5866933Y-13892673D01*
X6019360Y-13791100D02*
X6138360Y-13910100D01*
X6138360Y-13791100D02*
X6019360Y-13910100D01*
X6120933Y-13892673D02*
X6120933Y-13808527D01*
X6036787Y-13808527D01*
X6036787Y-13892673D01*
X6120933Y-13892673D01*
X6273360Y-13791100D02*
X6392360Y-13910100D01*
X6392360Y-13791100D02*
X6273360Y-13910100D01*
X6374933Y-13892673D02*
X6374933Y-13808527D01*
X6290787Y-13808527D01*
X6290787Y-13892673D01*
X6374933Y-13892673D01*
D19*
X2047240Y-17606620D02*
X2177240Y-17736620D01*
X2177240Y-17606620D02*
X2047240Y-17736620D01*
X2112240Y-17736620D02*
X2177240Y-17671620D01*
X2112240Y-17606620D01*
X2047240Y-17671620D01*
X2112240Y-17736620D01*
X2047240Y-18114620D02*
X2177240Y-18244620D01*
X2177240Y-18114620D02*
X2047240Y-18244620D01*
X2112240Y-18244620D02*
X2177240Y-18179620D01*
X2112240Y-18114620D01*
X2047240Y-18179620D01*
X2112240Y-18244620D01*
X11279280Y-14404820D02*
X11409280Y-14534820D01*
X11409280Y-14404820D02*
X11279280Y-14534820D01*
X11344280Y-14534820D02*
X11409280Y-14469820D01*
X11344280Y-14404820D01*
X11279280Y-14469820D01*
X11344280Y-14534820D01*
X11279280Y-14912820D02*
X11409280Y-15042820D01*
X11409280Y-14912820D02*
X11279280Y-15042820D01*
X11344280Y-15042820D02*
X11409280Y-14977820D01*
X11344280Y-14912820D01*
X11279280Y-14977820D01*
X11344280Y-15042820D01*
X11279280Y-15420820D02*
X11409280Y-15550820D01*
X11409280Y-15420820D02*
X11279280Y-15550820D01*
X11344280Y-15550820D02*
X11409280Y-15485820D01*
X11344280Y-15420820D01*
X11279280Y-15485820D01*
X11344280Y-15550820D01*
D20*
X3378840Y-18883080D02*
X3378840Y-19043080D01*
X3298840Y-18963080D02*
X3458840Y-18963080D01*
X3458840Y-18963080D02*
G75*
G03*
X3458840Y-18963080I-80000J0D01*
G01*
X4902840Y-18883080D02*
X4902840Y-19043080D01*
X4822840Y-18963080D02*
X4982840Y-18963080D01*
X4982840Y-18963080D02*
G75*
G03*
X4982840Y-18963080I-80000J0D01*
G01*
X10912440Y-16746840D02*
X10912440Y-16906840D01*
X10832440Y-16826840D02*
X10992440Y-16826840D01*
X10992440Y-16826840D02*
G75*
G03*
X10992440Y-16826840I-80000J0D01*
G01*
X10912440Y-18321840D02*
X10912440Y-18481840D01*
X10832440Y-18401840D02*
X10992440Y-18401840D01*
X10992440Y-18401840D02*
G75*
G03*
X10992440Y-18401840I-80000J0D01*
G01*
D21*
X2034018Y-13765078D02*
X2034018Y-13538802D01*
X1807742Y-13538802D01*
X1807742Y-13765078D01*
X2034018Y-13765078D01*
X2080880Y-13651940D02*
G75*
G03*
X2080880Y-13651940I-160000J0D01*
G01*
X2034018Y-19241318D02*
X2034018Y-19015042D01*
X1807742Y-19015042D01*
X1807742Y-19241318D01*
X2034018Y-19241318D01*
X2080880Y-19128180D02*
G75*
G03*
X2080880Y-19128180I-160000J0D01*
G01*
X11807938Y-13765078D02*
X11807938Y-13538802D01*
X11581662Y-13538802D01*
X11581662Y-13765078D01*
X11807938Y-13765078D01*
X11854800Y-13651940D02*
G75*
G03*
X11854800Y-13651940I-160000J0D01*
G01*
X11807938Y-19241318D02*
X11807938Y-19015042D01*
X11581662Y-19015042D01*
X11581662Y-19241318D01*
X11807938Y-19241318D01*
X11854800Y-19128180D02*
G75*
G03*
X11854800Y-19128180I-160000J0D01*
G01*
D11*
X1792179Y-19819176D02*
X1792179Y-19619176D01*
X1839798Y-19619176D01*
X1868369Y-19628700D01*
X1887417Y-19647748D01*
X1896941Y-19666795D01*
X1906465Y-19704890D01*
X1906465Y-19733462D01*
X1896941Y-19771557D01*
X1887417Y-19790605D01*
X1868369Y-19809652D01*
X1839798Y-19819176D01*
X1792179Y-19819176D01*
X1992179Y-19819176D02*
X1992179Y-19685843D01*
X1992179Y-19723938D02*
X2001703Y-19704890D01*
X2011227Y-19695367D01*
X2030274Y-19685843D01*
X2049322Y-19685843D01*
X2115989Y-19819176D02*
X2115989Y-19685843D01*
X2115989Y-19619176D02*
X2106465Y-19628700D01*
X2115989Y-19638224D01*
X2125512Y-19628700D01*
X2115989Y-19619176D01*
X2115989Y-19638224D01*
X2239798Y-19819176D02*
X2220750Y-19809652D01*
X2211227Y-19790605D01*
X2211227Y-19619176D01*
X2344560Y-19819176D02*
X2325512Y-19809652D01*
X2315989Y-19790605D01*
X2315989Y-19619176D01*
X2573131Y-19819176D02*
X2573131Y-19619176D01*
X2639798Y-19762033D01*
X2706465Y-19619176D01*
X2706465Y-19819176D01*
X2887417Y-19819176D02*
X2887417Y-19714414D01*
X2877893Y-19695367D01*
X2858846Y-19685843D01*
X2820750Y-19685843D01*
X2801703Y-19695367D01*
X2887417Y-19809652D02*
X2868369Y-19819176D01*
X2820750Y-19819176D01*
X2801703Y-19809652D01*
X2792179Y-19790605D01*
X2792179Y-19771557D01*
X2801703Y-19752510D01*
X2820750Y-19742986D01*
X2868369Y-19742986D01*
X2887417Y-19733462D01*
X2982655Y-19685843D02*
X2982655Y-19885843D01*
X2982655Y-19695367D02*
X3001703Y-19685843D01*
X3039798Y-19685843D01*
X3058846Y-19695367D01*
X3068369Y-19704890D01*
X3077893Y-19723938D01*
X3077893Y-19781081D01*
X3068369Y-19800129D01*
X3058846Y-19809652D01*
X3039798Y-19819176D01*
X3001703Y-19819176D01*
X2982655Y-19809652D01*
X3163608Y-19800129D02*
X3173131Y-19809652D01*
X3163608Y-19819176D01*
X3154084Y-19809652D01*
X3163608Y-19800129D01*
X3163608Y-19819176D01*
X3163608Y-19695367D02*
X3173131Y-19704890D01*
X3163608Y-19714414D01*
X3154084Y-19704890D01*
X3163608Y-19695367D01*
X3163608Y-19714414D01*
D12*
X1494560Y-20128700D02*
X1534560Y-20168700D01*
X1534560Y-20128700D02*
X1494560Y-20168700D01*
D11*
X1830274Y-20039176D02*
X1849322Y-20039176D01*
X1868369Y-20048700D01*
X1877893Y-20058224D01*
X1887417Y-20077271D01*
X1896941Y-20115367D01*
X1896941Y-20162986D01*
X1887417Y-20201081D01*
X1877893Y-20220129D01*
X1868369Y-20229652D01*
X1849322Y-20239176D01*
X1830274Y-20239176D01*
X1811227Y-20229652D01*
X1801703Y-20220129D01*
X1792179Y-20201081D01*
X1782655Y-20162986D01*
X1782655Y-20115367D01*
X1792179Y-20077271D01*
X1801703Y-20058224D01*
X1811227Y-20048700D01*
X1830274Y-20039176D01*
X1982655Y-20220129D02*
X1992179Y-20229652D01*
X1982655Y-20239176D01*
X1973131Y-20229652D01*
X1982655Y-20220129D01*
X1982655Y-20239176D01*
X2163608Y-20105843D02*
X2163608Y-20239176D01*
X2115989Y-20029652D02*
X2068369Y-20172510D01*
X2192179Y-20172510D01*
X2306465Y-20039176D02*
X2325512Y-20039176D01*
X2344560Y-20048700D01*
X2354084Y-20058224D01*
X2363608Y-20077271D01*
X2373131Y-20115367D01*
X2373131Y-20162986D01*
X2363608Y-20201081D01*
X2354084Y-20220129D01*
X2344560Y-20229652D01*
X2325512Y-20239176D01*
X2306465Y-20239176D01*
X2287417Y-20229652D01*
X2277893Y-20220129D01*
X2268370Y-20201081D01*
X2258846Y-20162986D01*
X2258846Y-20115367D01*
X2268370Y-20077271D01*
X2277893Y-20058224D01*
X2287417Y-20048700D01*
X2306465Y-20039176D01*
X2496941Y-20039176D02*
X2515989Y-20039176D01*
X2535036Y-20048700D01*
X2544560Y-20058224D01*
X2554084Y-20077271D01*
X2563608Y-20115367D01*
X2563608Y-20162986D01*
X2554084Y-20201081D01*
X2544560Y-20220129D01*
X2535036Y-20229652D01*
X2515989Y-20239176D01*
X2496941Y-20239176D01*
X2477893Y-20229652D01*
X2468370Y-20220129D01*
X2458846Y-20201081D01*
X2449322Y-20162986D01*
X2449322Y-20115367D01*
X2458846Y-20077271D01*
X2468370Y-20058224D01*
X2477893Y-20048700D01*
X2496941Y-20039176D01*
X2649322Y-20239176D02*
X2649322Y-20105843D01*
X2649322Y-20124890D02*
X2658846Y-20115367D01*
X2677893Y-20105843D01*
X2706465Y-20105843D01*
X2725512Y-20115367D01*
X2735036Y-20134414D01*
X2735036Y-20239176D01*
X2735036Y-20134414D02*
X2744560Y-20115367D01*
X2763608Y-20105843D01*
X2792179Y-20105843D01*
X2811227Y-20115367D01*
X2820750Y-20134414D01*
X2820750Y-20239176D01*
X2915988Y-20239176D02*
X2915988Y-20105843D01*
X2915988Y-20124890D02*
X2925512Y-20115367D01*
X2944560Y-20105843D01*
X2973131Y-20105843D01*
X2992179Y-20115367D01*
X3001703Y-20134414D01*
X3001703Y-20239176D01*
X3001703Y-20134414D02*
X3011227Y-20115367D01*
X3030274Y-20105843D01*
X3058846Y-20105843D01*
X3077893Y-20115367D01*
X3087417Y-20134414D01*
X3087417Y-20239176D01*
X3477893Y-20029652D02*
X3306465Y-20286795D01*
X3735036Y-20039176D02*
X3754084Y-20039176D01*
X3773131Y-20048700D01*
X3782655Y-20058224D01*
X3792179Y-20077271D01*
X3801703Y-20115367D01*
X3801703Y-20162986D01*
X3792179Y-20201081D01*
X3782655Y-20220129D01*
X3773131Y-20229652D01*
X3754084Y-20239176D01*
X3735036Y-20239176D01*
X3715988Y-20229652D01*
X3706465Y-20220129D01*
X3696941Y-20201081D01*
X3687417Y-20162986D01*
X3687417Y-20115367D01*
X3696941Y-20077271D01*
X3706465Y-20058224D01*
X3715988Y-20048700D01*
X3735036Y-20039176D01*
X3887417Y-20220129D02*
X3896941Y-20229652D01*
X3887417Y-20239176D01*
X3877893Y-20229652D01*
X3887417Y-20220129D01*
X3887417Y-20239176D01*
X4020750Y-20039176D02*
X4039798Y-20039176D01*
X4058846Y-20048700D01*
X4068369Y-20058224D01*
X4077893Y-20077271D01*
X4087417Y-20115367D01*
X4087417Y-20162986D01*
X4077893Y-20201081D01*
X4068369Y-20220129D01*
X4058846Y-20229652D01*
X4039798Y-20239176D01*
X4020750Y-20239176D01*
X4001703Y-20229652D01*
X3992179Y-20220129D01*
X3982655Y-20201081D01*
X3973131Y-20162986D01*
X3973131Y-20115367D01*
X3982655Y-20077271D01*
X3992179Y-20058224D01*
X4001703Y-20048700D01*
X4020750Y-20039176D01*
X4277893Y-20239176D02*
X4163608Y-20239176D01*
X4220750Y-20239176D02*
X4220750Y-20039176D01*
X4201703Y-20067748D01*
X4182655Y-20086795D01*
X4163608Y-20096319D01*
X4458846Y-20039176D02*
X4363608Y-20039176D01*
X4354084Y-20134414D01*
X4363608Y-20124890D01*
X4382655Y-20115367D01*
X4430274Y-20115367D01*
X4449322Y-20124890D01*
X4458846Y-20134414D01*
X4468370Y-20153462D01*
X4468370Y-20201081D01*
X4458846Y-20220129D01*
X4449322Y-20229652D01*
X4430274Y-20239176D01*
X4382655Y-20239176D01*
X4363608Y-20229652D01*
X4354084Y-20220129D01*
X4535036Y-20039176D02*
X4668370Y-20039176D01*
X4582655Y-20239176D01*
X4735036Y-20039176D02*
X4735036Y-20077271D01*
X4811227Y-20039176D02*
X4811227Y-20077271D01*
X5106465Y-20315367D02*
X5096941Y-20305843D01*
X5077893Y-20277271D01*
X5068370Y-20258224D01*
X5058846Y-20229652D01*
X5049322Y-20182033D01*
X5049322Y-20143938D01*
X5058846Y-20096319D01*
X5068370Y-20067748D01*
X5077893Y-20048700D01*
X5096941Y-20020129D01*
X5106465Y-20010605D01*
X5287417Y-20239176D02*
X5173131Y-20239176D01*
X5230274Y-20239176D02*
X5230274Y-20039176D01*
X5211227Y-20067748D01*
X5192179Y-20086795D01*
X5173131Y-20096319D01*
X5411227Y-20039176D02*
X5430274Y-20039176D01*
X5449322Y-20048700D01*
X5458846Y-20058224D01*
X5468370Y-20077271D01*
X5477893Y-20115367D01*
X5477893Y-20162986D01*
X5468370Y-20201081D01*
X5458846Y-20220129D01*
X5449322Y-20229652D01*
X5430274Y-20239176D01*
X5411227Y-20239176D01*
X5392179Y-20229652D01*
X5382655Y-20220129D01*
X5373131Y-20201081D01*
X5363608Y-20162986D01*
X5363608Y-20115367D01*
X5373131Y-20077271D01*
X5382655Y-20058224D01*
X5392179Y-20048700D01*
X5411227Y-20039176D01*
X5573131Y-20239176D02*
X5611227Y-20239176D01*
X5630274Y-20229652D01*
X5639798Y-20220129D01*
X5658846Y-20191557D01*
X5668369Y-20153462D01*
X5668369Y-20077271D01*
X5658846Y-20058224D01*
X5649322Y-20048700D01*
X5630274Y-20039176D01*
X5592179Y-20039176D01*
X5573131Y-20048700D01*
X5563608Y-20058224D01*
X5554084Y-20077271D01*
X5554084Y-20124890D01*
X5563608Y-20143938D01*
X5573131Y-20153462D01*
X5592179Y-20162986D01*
X5630274Y-20162986D01*
X5649322Y-20153462D01*
X5658846Y-20143938D01*
X5668369Y-20124890D01*
X5906465Y-20239176D02*
X5906465Y-20039176D01*
X5992179Y-20239176D02*
X5992179Y-20134414D01*
X5982655Y-20115367D01*
X5963608Y-20105843D01*
X5935036Y-20105843D01*
X5915988Y-20115367D01*
X5906465Y-20124890D01*
X6115988Y-20239176D02*
X6096941Y-20229652D01*
X6087417Y-20220129D01*
X6077893Y-20201081D01*
X6077893Y-20143938D01*
X6087417Y-20124890D01*
X6096941Y-20115367D01*
X6115988Y-20105843D01*
X6144560Y-20105843D01*
X6163608Y-20115367D01*
X6173131Y-20124890D01*
X6182655Y-20143938D01*
X6182655Y-20201081D01*
X6173131Y-20220129D01*
X6163608Y-20229652D01*
X6144560Y-20239176D01*
X6115988Y-20239176D01*
X6296941Y-20239176D02*
X6277893Y-20229652D01*
X6268369Y-20210605D01*
X6268369Y-20039176D01*
X6449322Y-20229652D02*
X6430274Y-20239176D01*
X6392179Y-20239176D01*
X6373131Y-20229652D01*
X6363608Y-20210605D01*
X6363608Y-20134414D01*
X6373131Y-20115367D01*
X6392179Y-20105843D01*
X6430274Y-20105843D01*
X6449322Y-20115367D01*
X6458846Y-20134414D01*
X6458846Y-20153462D01*
X6363608Y-20172510D01*
X6535036Y-20229652D02*
X6554084Y-20239176D01*
X6592179Y-20239176D01*
X6611227Y-20229652D01*
X6620750Y-20210605D01*
X6620750Y-20201081D01*
X6611227Y-20182033D01*
X6592179Y-20172510D01*
X6563608Y-20172510D01*
X6544560Y-20162986D01*
X6535036Y-20143938D01*
X6535036Y-20134414D01*
X6544560Y-20115367D01*
X6563608Y-20105843D01*
X6592179Y-20105843D01*
X6611227Y-20115367D01*
X6687417Y-20315367D02*
X6696941Y-20305843D01*
X6715988Y-20277271D01*
X6725512Y-20258224D01*
X6735036Y-20229652D01*
X6744560Y-20182033D01*
X6744560Y-20143938D01*
X6735036Y-20096319D01*
X6725512Y-20067748D01*
X6715988Y-20048700D01*
X6696941Y-20020129D01*
X6687417Y-20010605D01*
D13*
X1534560Y-20412700D02*
G75*
G03*
X1534560Y-20412700I-25000J0D01*
G01*
D11*
X1830274Y-20303176D02*
X1849322Y-20303176D01*
X1868369Y-20312700D01*
X1877893Y-20322224D01*
X1887417Y-20341271D01*
X1896941Y-20379367D01*
X1896941Y-20426986D01*
X1887417Y-20465081D01*
X1877893Y-20484129D01*
X1868369Y-20493652D01*
X1849322Y-20503176D01*
X1830274Y-20503176D01*
X1811227Y-20493652D01*
X1801703Y-20484129D01*
X1792179Y-20465081D01*
X1782655Y-20426986D01*
X1782655Y-20379367D01*
X1792179Y-20341271D01*
X1801703Y-20322224D01*
X1811227Y-20312700D01*
X1830274Y-20303176D01*
X1982655Y-20484129D02*
X1992179Y-20493652D01*
X1982655Y-20503176D01*
X1973131Y-20493652D01*
X1982655Y-20484129D01*
X1982655Y-20503176D01*
X2173131Y-20303176D02*
X2077893Y-20303176D01*
X2068369Y-20398414D01*
X2077893Y-20388890D01*
X2096941Y-20379367D01*
X2144560Y-20379367D01*
X2163608Y-20388890D01*
X2173131Y-20398414D01*
X2182655Y-20417462D01*
X2182655Y-20465081D01*
X2173131Y-20484129D01*
X2163608Y-20493652D01*
X2144560Y-20503176D01*
X2096941Y-20503176D01*
X2077893Y-20493652D01*
X2068369Y-20484129D01*
X2306465Y-20303176D02*
X2325512Y-20303176D01*
X2344560Y-20312700D01*
X2354084Y-20322224D01*
X2363608Y-20341271D01*
X2373131Y-20379367D01*
X2373131Y-20426986D01*
X2363608Y-20465081D01*
X2354084Y-20484129D01*
X2344560Y-20493652D01*
X2325512Y-20503176D01*
X2306465Y-20503176D01*
X2287417Y-20493652D01*
X2277893Y-20484129D01*
X2268370Y-20465081D01*
X2258846Y-20426986D01*
X2258846Y-20379367D01*
X2268370Y-20341271D01*
X2277893Y-20322224D01*
X2287417Y-20312700D01*
X2306465Y-20303176D01*
X2496941Y-20303176D02*
X2515989Y-20303176D01*
X2535036Y-20312700D01*
X2544560Y-20322224D01*
X2554084Y-20341271D01*
X2563608Y-20379367D01*
X2563608Y-20426986D01*
X2554084Y-20465081D01*
X2544560Y-20484129D01*
X2535036Y-20493652D01*
X2515989Y-20503176D01*
X2496941Y-20503176D01*
X2477893Y-20493652D01*
X2468370Y-20484129D01*
X2458846Y-20465081D01*
X2449322Y-20426986D01*
X2449322Y-20379367D01*
X2458846Y-20341271D01*
X2468370Y-20322224D01*
X2477893Y-20312700D01*
X2496941Y-20303176D01*
X2649322Y-20503176D02*
X2649322Y-20369843D01*
X2649322Y-20388890D02*
X2658846Y-20379367D01*
X2677893Y-20369843D01*
X2706465Y-20369843D01*
X2725512Y-20379367D01*
X2735036Y-20398414D01*
X2735036Y-20503176D01*
X2735036Y-20398414D02*
X2744560Y-20379367D01*
X2763608Y-20369843D01*
X2792179Y-20369843D01*
X2811227Y-20379367D01*
X2820750Y-20398414D01*
X2820750Y-20503176D01*
X2915988Y-20503176D02*
X2915988Y-20369843D01*
X2915988Y-20388890D02*
X2925512Y-20379367D01*
X2944560Y-20369843D01*
X2973131Y-20369843D01*
X2992179Y-20379367D01*
X3001703Y-20398414D01*
X3001703Y-20503176D01*
X3001703Y-20398414D02*
X3011227Y-20379367D01*
X3030274Y-20369843D01*
X3058846Y-20369843D01*
X3077893Y-20379367D01*
X3087417Y-20398414D01*
X3087417Y-20503176D01*
X3477893Y-20293652D02*
X3306465Y-20550795D01*
X3735036Y-20303176D02*
X3754084Y-20303176D01*
X3773131Y-20312700D01*
X3782655Y-20322224D01*
X3792179Y-20341271D01*
X3801703Y-20379367D01*
X3801703Y-20426986D01*
X3792179Y-20465081D01*
X3782655Y-20484129D01*
X3773131Y-20493652D01*
X3754084Y-20503176D01*
X3735036Y-20503176D01*
X3715988Y-20493652D01*
X3706465Y-20484129D01*
X3696941Y-20465081D01*
X3687417Y-20426986D01*
X3687417Y-20379367D01*
X3696941Y-20341271D01*
X3706465Y-20322224D01*
X3715988Y-20312700D01*
X3735036Y-20303176D01*
X3887417Y-20484129D02*
X3896941Y-20493652D01*
X3887417Y-20503176D01*
X3877893Y-20493652D01*
X3887417Y-20484129D01*
X3887417Y-20503176D01*
X4020750Y-20303176D02*
X4039798Y-20303176D01*
X4058846Y-20312700D01*
X4068369Y-20322224D01*
X4077893Y-20341271D01*
X4087417Y-20379367D01*
X4087417Y-20426986D01*
X4077893Y-20465081D01*
X4068369Y-20484129D01*
X4058846Y-20493652D01*
X4039798Y-20503176D01*
X4020750Y-20503176D01*
X4001703Y-20493652D01*
X3992179Y-20484129D01*
X3982655Y-20465081D01*
X3973131Y-20426986D01*
X3973131Y-20379367D01*
X3982655Y-20341271D01*
X3992179Y-20322224D01*
X4001703Y-20312700D01*
X4020750Y-20303176D01*
X4277893Y-20503176D02*
X4163608Y-20503176D01*
X4220750Y-20503176D02*
X4220750Y-20303176D01*
X4201703Y-20331748D01*
X4182655Y-20350795D01*
X4163608Y-20360319D01*
X4373131Y-20503176D02*
X4411227Y-20503176D01*
X4430274Y-20493652D01*
X4439798Y-20484129D01*
X4458846Y-20455557D01*
X4468370Y-20417462D01*
X4468370Y-20341271D01*
X4458846Y-20322224D01*
X4449322Y-20312700D01*
X4430274Y-20303176D01*
X4392179Y-20303176D01*
X4373131Y-20312700D01*
X4363608Y-20322224D01*
X4354084Y-20341271D01*
X4354084Y-20388890D01*
X4363608Y-20407938D01*
X4373131Y-20417462D01*
X4392179Y-20426986D01*
X4430274Y-20426986D01*
X4449322Y-20417462D01*
X4458846Y-20407938D01*
X4468370Y-20388890D01*
X4535036Y-20303176D02*
X4668370Y-20303176D01*
X4582655Y-20503176D01*
X4735036Y-20303176D02*
X4735036Y-20341271D01*
X4811227Y-20303176D02*
X4811227Y-20341271D01*
X5106465Y-20579367D02*
X5096941Y-20569843D01*
X5077893Y-20541271D01*
X5068370Y-20522224D01*
X5058846Y-20493652D01*
X5049322Y-20446033D01*
X5049322Y-20407938D01*
X5058846Y-20360319D01*
X5068370Y-20331748D01*
X5077893Y-20312700D01*
X5096941Y-20284129D01*
X5106465Y-20274605D01*
X5163608Y-20303176D02*
X5287417Y-20303176D01*
X5220750Y-20379367D01*
X5249322Y-20379367D01*
X5268370Y-20388890D01*
X5277893Y-20398414D01*
X5287417Y-20417462D01*
X5287417Y-20465081D01*
X5277893Y-20484129D01*
X5268370Y-20493652D01*
X5249322Y-20503176D01*
X5192179Y-20503176D01*
X5173131Y-20493652D01*
X5163608Y-20484129D01*
X5363608Y-20322224D02*
X5373131Y-20312700D01*
X5392179Y-20303176D01*
X5439798Y-20303176D01*
X5458846Y-20312700D01*
X5468370Y-20322224D01*
X5477893Y-20341271D01*
X5477893Y-20360319D01*
X5468370Y-20388890D01*
X5354084Y-20503176D01*
X5477893Y-20503176D01*
X5715988Y-20503176D02*
X5715988Y-20303176D01*
X5801703Y-20503176D02*
X5801703Y-20398414D01*
X5792179Y-20379367D01*
X5773131Y-20369843D01*
X5744560Y-20369843D01*
X5725512Y-20379367D01*
X5715988Y-20388890D01*
X5925512Y-20503176D02*
X5906465Y-20493652D01*
X5896941Y-20484129D01*
X5887417Y-20465081D01*
X5887417Y-20407938D01*
X5896941Y-20388890D01*
X5906465Y-20379367D01*
X5925512Y-20369843D01*
X5954084Y-20369843D01*
X5973131Y-20379367D01*
X5982655Y-20388890D01*
X5992179Y-20407938D01*
X5992179Y-20465081D01*
X5982655Y-20484129D01*
X5973131Y-20493652D01*
X5954084Y-20503176D01*
X5925512Y-20503176D01*
X6106465Y-20503176D02*
X6087417Y-20493652D01*
X6077893Y-20474605D01*
X6077893Y-20303176D01*
X6258846Y-20493652D02*
X6239798Y-20503176D01*
X6201703Y-20503176D01*
X6182655Y-20493652D01*
X6173131Y-20474605D01*
X6173131Y-20398414D01*
X6182655Y-20379367D01*
X6201703Y-20369843D01*
X6239798Y-20369843D01*
X6258846Y-20379367D01*
X6268369Y-20398414D01*
X6268369Y-20417462D01*
X6173131Y-20436510D01*
X6344560Y-20493652D02*
X6363608Y-20503176D01*
X6401703Y-20503176D01*
X6420750Y-20493652D01*
X6430274Y-20474605D01*
X6430274Y-20465081D01*
X6420750Y-20446033D01*
X6401703Y-20436510D01*
X6373131Y-20436510D01*
X6354084Y-20426986D01*
X6344560Y-20407938D01*
X6344560Y-20398414D01*
X6354084Y-20379367D01*
X6373131Y-20369843D01*
X6401703Y-20369843D01*
X6420750Y-20379367D01*
X6496941Y-20579367D02*
X6506465Y-20569843D01*
X6525512Y-20541271D01*
X6535036Y-20522224D01*
X6544560Y-20493652D01*
X6554084Y-20446033D01*
X6554084Y-20407938D01*
X6544560Y-20360319D01*
X6535036Y-20331748D01*
X6525512Y-20312700D01*
X6506465Y-20284129D01*
X6496941Y-20274605D01*
D14*
X1504560Y-20646700D02*
X1504560Y-20706700D01*
X1474560Y-20676700D02*
X1534560Y-20676700D01*
D11*
X1830274Y-20567176D02*
X1849322Y-20567176D01*
X1868369Y-20576700D01*
X1877893Y-20586224D01*
X1887417Y-20605271D01*
X1896941Y-20643367D01*
X1896941Y-20690986D01*
X1887417Y-20729081D01*
X1877893Y-20748129D01*
X1868369Y-20757652D01*
X1849322Y-20767176D01*
X1830274Y-20767176D01*
X1811227Y-20757652D01*
X1801703Y-20748129D01*
X1792179Y-20729081D01*
X1782655Y-20690986D01*
X1782655Y-20643367D01*
X1792179Y-20605271D01*
X1801703Y-20586224D01*
X1811227Y-20576700D01*
X1830274Y-20567176D01*
X1982655Y-20748129D02*
X1992179Y-20757652D01*
X1982655Y-20767176D01*
X1973131Y-20757652D01*
X1982655Y-20748129D01*
X1982655Y-20767176D01*
X2163608Y-20567176D02*
X2125512Y-20567176D01*
X2106465Y-20576700D01*
X2096941Y-20586224D01*
X2077893Y-20614795D01*
X2068369Y-20652890D01*
X2068369Y-20729081D01*
X2077893Y-20748129D01*
X2087417Y-20757652D01*
X2106465Y-20767176D01*
X2144560Y-20767176D01*
X2163608Y-20757652D01*
X2173131Y-20748129D01*
X2182655Y-20729081D01*
X2182655Y-20681462D01*
X2173131Y-20662414D01*
X2163608Y-20652890D01*
X2144560Y-20643367D01*
X2106465Y-20643367D01*
X2087417Y-20652890D01*
X2077893Y-20662414D01*
X2068369Y-20681462D01*
X2306465Y-20567176D02*
X2325512Y-20567176D01*
X2344560Y-20576700D01*
X2354084Y-20586224D01*
X2363608Y-20605271D01*
X2373131Y-20643367D01*
X2373131Y-20690986D01*
X2363608Y-20729081D01*
X2354084Y-20748129D01*
X2344560Y-20757652D01*
X2325512Y-20767176D01*
X2306465Y-20767176D01*
X2287417Y-20757652D01*
X2277893Y-20748129D01*
X2268370Y-20729081D01*
X2258846Y-20690986D01*
X2258846Y-20643367D01*
X2268370Y-20605271D01*
X2277893Y-20586224D01*
X2287417Y-20576700D01*
X2306465Y-20567176D01*
X2496941Y-20567176D02*
X2515989Y-20567176D01*
X2535036Y-20576700D01*
X2544560Y-20586224D01*
X2554084Y-20605271D01*
X2563608Y-20643367D01*
X2563608Y-20690986D01*
X2554084Y-20729081D01*
X2544560Y-20748129D01*
X2535036Y-20757652D01*
X2515989Y-20767176D01*
X2496941Y-20767176D01*
X2477893Y-20757652D01*
X2468370Y-20748129D01*
X2458846Y-20729081D01*
X2449322Y-20690986D01*
X2449322Y-20643367D01*
X2458846Y-20605271D01*
X2468370Y-20586224D01*
X2477893Y-20576700D01*
X2496941Y-20567176D01*
X2649322Y-20767176D02*
X2649322Y-20633843D01*
X2649322Y-20652890D02*
X2658846Y-20643367D01*
X2677893Y-20633843D01*
X2706465Y-20633843D01*
X2725512Y-20643367D01*
X2735036Y-20662414D01*
X2735036Y-20767176D01*
X2735036Y-20662414D02*
X2744560Y-20643367D01*
X2763608Y-20633843D01*
X2792179Y-20633843D01*
X2811227Y-20643367D01*
X2820750Y-20662414D01*
X2820750Y-20767176D01*
X2915988Y-20767176D02*
X2915988Y-20633843D01*
X2915988Y-20652890D02*
X2925512Y-20643367D01*
X2944560Y-20633843D01*
X2973131Y-20633843D01*
X2992179Y-20643367D01*
X3001703Y-20662414D01*
X3001703Y-20767176D01*
X3001703Y-20662414D02*
X3011227Y-20643367D01*
X3030274Y-20633843D01*
X3058846Y-20633843D01*
X3077893Y-20643367D01*
X3087417Y-20662414D01*
X3087417Y-20767176D01*
X3477893Y-20557652D02*
X3306465Y-20814795D01*
X3735036Y-20567176D02*
X3754084Y-20567176D01*
X3773131Y-20576700D01*
X3782655Y-20586224D01*
X3792179Y-20605271D01*
X3801703Y-20643367D01*
X3801703Y-20690986D01*
X3792179Y-20729081D01*
X3782655Y-20748129D01*
X3773131Y-20757652D01*
X3754084Y-20767176D01*
X3735036Y-20767176D01*
X3715988Y-20757652D01*
X3706465Y-20748129D01*
X3696941Y-20729081D01*
X3687417Y-20690986D01*
X3687417Y-20643367D01*
X3696941Y-20605271D01*
X3706465Y-20586224D01*
X3715988Y-20576700D01*
X3735036Y-20567176D01*
X3887417Y-20748129D02*
X3896941Y-20757652D01*
X3887417Y-20767176D01*
X3877893Y-20757652D01*
X3887417Y-20748129D01*
X3887417Y-20767176D01*
X4020750Y-20567176D02*
X4039798Y-20567176D01*
X4058846Y-20576700D01*
X4068369Y-20586224D01*
X4077893Y-20605271D01*
X4087417Y-20643367D01*
X4087417Y-20690986D01*
X4077893Y-20729081D01*
X4068369Y-20748129D01*
X4058846Y-20757652D01*
X4039798Y-20767176D01*
X4020750Y-20767176D01*
X4001703Y-20757652D01*
X3992179Y-20748129D01*
X3982655Y-20729081D01*
X3973131Y-20690986D01*
X3973131Y-20643367D01*
X3982655Y-20605271D01*
X3992179Y-20586224D01*
X4001703Y-20576700D01*
X4020750Y-20567176D01*
X4163608Y-20586224D02*
X4173131Y-20576700D01*
X4192179Y-20567176D01*
X4239798Y-20567176D01*
X4258846Y-20576700D01*
X4268370Y-20586224D01*
X4277893Y-20605271D01*
X4277893Y-20624319D01*
X4268370Y-20652890D01*
X4154084Y-20767176D01*
X4277893Y-20767176D01*
X4344560Y-20567176D02*
X4468370Y-20567176D01*
X4401703Y-20643367D01*
X4430274Y-20643367D01*
X4449322Y-20652890D01*
X4458846Y-20662414D01*
X4468370Y-20681462D01*
X4468370Y-20729081D01*
X4458846Y-20748129D01*
X4449322Y-20757652D01*
X4430274Y-20767176D01*
X4373131Y-20767176D01*
X4354084Y-20757652D01*
X4344560Y-20748129D01*
X4639798Y-20567176D02*
X4601703Y-20567176D01*
X4582655Y-20576700D01*
X4573131Y-20586224D01*
X4554084Y-20614795D01*
X4544560Y-20652890D01*
X4544560Y-20729081D01*
X4554084Y-20748129D01*
X4563608Y-20757652D01*
X4582655Y-20767176D01*
X4620750Y-20767176D01*
X4639798Y-20757652D01*
X4649322Y-20748129D01*
X4658846Y-20729081D01*
X4658846Y-20681462D01*
X4649322Y-20662414D01*
X4639798Y-20652890D01*
X4620750Y-20643367D01*
X4582655Y-20643367D01*
X4563608Y-20652890D01*
X4554084Y-20662414D01*
X4544560Y-20681462D01*
X4735036Y-20567176D02*
X4735036Y-20605271D01*
X4811227Y-20567176D02*
X4811227Y-20605271D01*
X5106465Y-20843367D02*
X5096941Y-20833843D01*
X5077893Y-20805271D01*
X5068370Y-20786224D01*
X5058846Y-20757652D01*
X5049322Y-20710033D01*
X5049322Y-20671938D01*
X5058846Y-20624319D01*
X5068370Y-20595748D01*
X5077893Y-20576700D01*
X5096941Y-20548129D01*
X5106465Y-20538605D01*
X5268370Y-20633843D02*
X5268370Y-20767176D01*
X5220750Y-20557652D02*
X5173131Y-20700510D01*
X5296941Y-20700510D01*
X5525512Y-20767176D02*
X5525512Y-20567176D01*
X5611227Y-20767176D02*
X5611227Y-20662414D01*
X5601703Y-20643367D01*
X5582655Y-20633843D01*
X5554084Y-20633843D01*
X5535036Y-20643367D01*
X5525512Y-20652890D01*
X5735036Y-20767176D02*
X5715988Y-20757652D01*
X5706465Y-20748129D01*
X5696941Y-20729081D01*
X5696941Y-20671938D01*
X5706465Y-20652890D01*
X5715988Y-20643367D01*
X5735036Y-20633843D01*
X5763608Y-20633843D01*
X5782655Y-20643367D01*
X5792179Y-20652890D01*
X5801703Y-20671938D01*
X5801703Y-20729081D01*
X5792179Y-20748129D01*
X5782655Y-20757652D01*
X5763608Y-20767176D01*
X5735036Y-20767176D01*
X5915988Y-20767176D02*
X5896941Y-20757652D01*
X5887417Y-20738605D01*
X5887417Y-20567176D01*
X6068369Y-20757652D02*
X6049322Y-20767176D01*
X6011227Y-20767176D01*
X5992179Y-20757652D01*
X5982655Y-20738605D01*
X5982655Y-20662414D01*
X5992179Y-20643367D01*
X6011227Y-20633843D01*
X6049322Y-20633843D01*
X6068369Y-20643367D01*
X6077893Y-20662414D01*
X6077893Y-20681462D01*
X5982655Y-20700510D01*
X6154084Y-20757652D02*
X6173131Y-20767176D01*
X6211227Y-20767176D01*
X6230274Y-20757652D01*
X6239798Y-20738605D01*
X6239798Y-20729081D01*
X6230274Y-20710033D01*
X6211227Y-20700510D01*
X6182655Y-20700510D01*
X6163608Y-20690986D01*
X6154084Y-20671938D01*
X6154084Y-20662414D01*
X6163608Y-20643367D01*
X6182655Y-20633843D01*
X6211227Y-20633843D01*
X6230274Y-20643367D01*
X6306465Y-20843367D02*
X6315988Y-20833843D01*
X6335036Y-20805271D01*
X6344560Y-20786224D01*
X6354084Y-20757652D01*
X6363608Y-20710033D01*
X6363608Y-20671938D01*
X6354084Y-20624319D01*
X6344560Y-20595748D01*
X6335036Y-20576700D01*
X6315988Y-20548129D01*
X6306465Y-20538605D01*
D15*
X1522844Y-20968985D02*
X1522844Y-20912416D01*
X1466275Y-20912416D01*
X1466275Y-20968985D01*
X1522844Y-20968985D01*
D11*
X1830274Y-20831176D02*
X1849322Y-20831176D01*
X1868369Y-20840700D01*
X1877893Y-20850224D01*
X1887417Y-20869271D01*
X1896941Y-20907367D01*
X1896941Y-20954986D01*
X1887417Y-20993081D01*
X1877893Y-21012129D01*
X1868369Y-21021652D01*
X1849322Y-21031176D01*
X1830274Y-21031176D01*
X1811227Y-21021652D01*
X1801703Y-21012129D01*
X1792179Y-20993081D01*
X1782655Y-20954986D01*
X1782655Y-20907367D01*
X1792179Y-20869271D01*
X1801703Y-20850224D01*
X1811227Y-20840700D01*
X1830274Y-20831176D01*
X1982655Y-21012129D02*
X1992179Y-21021652D01*
X1982655Y-21031176D01*
X1973131Y-21021652D01*
X1982655Y-21012129D01*
X1982655Y-21031176D01*
X2106465Y-20916890D02*
X2087417Y-20907367D01*
X2077893Y-20897843D01*
X2068369Y-20878795D01*
X2068369Y-20869271D01*
X2077893Y-20850224D01*
X2087417Y-20840700D01*
X2106465Y-20831176D01*
X2144560Y-20831176D01*
X2163608Y-20840700D01*
X2173131Y-20850224D01*
X2182655Y-20869271D01*
X2182655Y-20878795D01*
X2173131Y-20897843D01*
X2163608Y-20907367D01*
X2144560Y-20916890D01*
X2106465Y-20916890D01*
X2087417Y-20926414D01*
X2077893Y-20935938D01*
X2068369Y-20954986D01*
X2068369Y-20993081D01*
X2077893Y-21012129D01*
X2087417Y-21021652D01*
X2106465Y-21031176D01*
X2144560Y-21031176D01*
X2163608Y-21021652D01*
X2173131Y-21012129D01*
X2182655Y-20993081D01*
X2182655Y-20954986D01*
X2173131Y-20935938D01*
X2163608Y-20926414D01*
X2144560Y-20916890D01*
X2306465Y-20831176D02*
X2325512Y-20831176D01*
X2344560Y-20840700D01*
X2354084Y-20850224D01*
X2363608Y-20869271D01*
X2373131Y-20907367D01*
X2373131Y-20954986D01*
X2363608Y-20993081D01*
X2354084Y-21012129D01*
X2344560Y-21021652D01*
X2325512Y-21031176D01*
X2306465Y-21031176D01*
X2287417Y-21021652D01*
X2277893Y-21012129D01*
X2268370Y-20993081D01*
X2258846Y-20954986D01*
X2258846Y-20907367D01*
X2268370Y-20869271D01*
X2277893Y-20850224D01*
X2287417Y-20840700D01*
X2306465Y-20831176D01*
X2496941Y-20831176D02*
X2515989Y-20831176D01*
X2535036Y-20840700D01*
X2544560Y-20850224D01*
X2554084Y-20869271D01*
X2563608Y-20907367D01*
X2563608Y-20954986D01*
X2554084Y-20993081D01*
X2544560Y-21012129D01*
X2535036Y-21021652D01*
X2515989Y-21031176D01*
X2496941Y-21031176D01*
X2477893Y-21021652D01*
X2468370Y-21012129D01*
X2458846Y-20993081D01*
X2449322Y-20954986D01*
X2449322Y-20907367D01*
X2458846Y-20869271D01*
X2468370Y-20850224D01*
X2477893Y-20840700D01*
X2496941Y-20831176D01*
X2649322Y-21031176D02*
X2649322Y-20897843D01*
X2649322Y-20916890D02*
X2658846Y-20907367D01*
X2677893Y-20897843D01*
X2706465Y-20897843D01*
X2725512Y-20907367D01*
X2735036Y-20926414D01*
X2735036Y-21031176D01*
X2735036Y-20926414D02*
X2744560Y-20907367D01*
X2763608Y-20897843D01*
X2792179Y-20897843D01*
X2811227Y-20907367D01*
X2820750Y-20926414D01*
X2820750Y-21031176D01*
X2915988Y-21031176D02*
X2915988Y-20897843D01*
X2915988Y-20916890D02*
X2925512Y-20907367D01*
X2944560Y-20897843D01*
X2973131Y-20897843D01*
X2992179Y-20907367D01*
X3001703Y-20926414D01*
X3001703Y-21031176D01*
X3001703Y-20926414D02*
X3011227Y-20907367D01*
X3030274Y-20897843D01*
X3058846Y-20897843D01*
X3077893Y-20907367D01*
X3087417Y-20926414D01*
X3087417Y-21031176D01*
X3477893Y-20821652D02*
X3306465Y-21078795D01*
X3735036Y-20831176D02*
X3754084Y-20831176D01*
X3773131Y-20840700D01*
X3782655Y-20850224D01*
X3792179Y-20869271D01*
X3801703Y-20907367D01*
X3801703Y-20954986D01*
X3792179Y-20993081D01*
X3782655Y-21012129D01*
X3773131Y-21021652D01*
X3754084Y-21031176D01*
X3735036Y-21031176D01*
X3715988Y-21021652D01*
X3706465Y-21012129D01*
X3696941Y-20993081D01*
X3687417Y-20954986D01*
X3687417Y-20907367D01*
X3696941Y-20869271D01*
X3706465Y-20850224D01*
X3715988Y-20840700D01*
X3735036Y-20831176D01*
X3887417Y-21012129D02*
X3896941Y-21021652D01*
X3887417Y-21031176D01*
X3877893Y-21021652D01*
X3887417Y-21012129D01*
X3887417Y-21031176D01*
X4020750Y-20831176D02*
X4039798Y-20831176D01*
X4058846Y-20840700D01*
X4068369Y-20850224D01*
X4077893Y-20869271D01*
X4087417Y-20907367D01*
X4087417Y-20954986D01*
X4077893Y-20993081D01*
X4068369Y-21012129D01*
X4058846Y-21021652D01*
X4039798Y-21031176D01*
X4020750Y-21031176D01*
X4001703Y-21021652D01*
X3992179Y-21012129D01*
X3982655Y-20993081D01*
X3973131Y-20954986D01*
X3973131Y-20907367D01*
X3982655Y-20869271D01*
X3992179Y-20850224D01*
X4001703Y-20840700D01*
X4020750Y-20831176D01*
X4154084Y-20831176D02*
X4277893Y-20831176D01*
X4211227Y-20907367D01*
X4239798Y-20907367D01*
X4258846Y-20916890D01*
X4268370Y-20926414D01*
X4277893Y-20945462D01*
X4277893Y-20993081D01*
X4268370Y-21012129D01*
X4258846Y-21021652D01*
X4239798Y-21031176D01*
X4182655Y-21031176D01*
X4163608Y-21021652D01*
X4154084Y-21012129D01*
X4468370Y-21031176D02*
X4354084Y-21031176D01*
X4411227Y-21031176D02*
X4411227Y-20831176D01*
X4392179Y-20859748D01*
X4373131Y-20878795D01*
X4354084Y-20888319D01*
X4649322Y-20831176D02*
X4554084Y-20831176D01*
X4544560Y-20926414D01*
X4554084Y-20916890D01*
X4573131Y-20907367D01*
X4620750Y-20907367D01*
X4639798Y-20916890D01*
X4649322Y-20926414D01*
X4658846Y-20945462D01*
X4658846Y-20993081D01*
X4649322Y-21012129D01*
X4639798Y-21021652D01*
X4620750Y-21031176D01*
X4573131Y-21031176D01*
X4554084Y-21021652D01*
X4544560Y-21012129D01*
X4735036Y-20831176D02*
X4735036Y-20869271D01*
X4811227Y-20831176D02*
X4811227Y-20869271D01*
X5106465Y-21107367D02*
X5096941Y-21097843D01*
X5077893Y-21069271D01*
X5068370Y-21050224D01*
X5058846Y-21021652D01*
X5049322Y-20974033D01*
X5049322Y-20935938D01*
X5058846Y-20888319D01*
X5068370Y-20859748D01*
X5077893Y-20840700D01*
X5096941Y-20812129D01*
X5106465Y-20802605D01*
X5211227Y-20916890D02*
X5192179Y-20907367D01*
X5182655Y-20897843D01*
X5173131Y-20878795D01*
X5173131Y-20869271D01*
X5182655Y-20850224D01*
X5192179Y-20840700D01*
X5211227Y-20831176D01*
X5249322Y-20831176D01*
X5268370Y-20840700D01*
X5277893Y-20850224D01*
X5287417Y-20869271D01*
X5287417Y-20878795D01*
X5277893Y-20897843D01*
X5268370Y-20907367D01*
X5249322Y-20916890D01*
X5211227Y-20916890D01*
X5192179Y-20926414D01*
X5182655Y-20935938D01*
X5173131Y-20954986D01*
X5173131Y-20993081D01*
X5182655Y-21012129D01*
X5192179Y-21021652D01*
X5211227Y-21031176D01*
X5249322Y-21031176D01*
X5268370Y-21021652D01*
X5277893Y-21012129D01*
X5287417Y-20993081D01*
X5287417Y-20954986D01*
X5277893Y-20935938D01*
X5268370Y-20926414D01*
X5249322Y-20916890D01*
X5525512Y-21031176D02*
X5525512Y-20831176D01*
X5611227Y-21031176D02*
X5611227Y-20926414D01*
X5601703Y-20907367D01*
X5582655Y-20897843D01*
X5554084Y-20897843D01*
X5535036Y-20907367D01*
X5525512Y-20916890D01*
X5735036Y-21031176D02*
X5715988Y-21021652D01*
X5706465Y-21012129D01*
X5696941Y-20993081D01*
X5696941Y-20935938D01*
X5706465Y-20916890D01*
X5715988Y-20907367D01*
X5735036Y-20897843D01*
X5763608Y-20897843D01*
X5782655Y-20907367D01*
X5792179Y-20916890D01*
X5801703Y-20935938D01*
X5801703Y-20993081D01*
X5792179Y-21012129D01*
X5782655Y-21021652D01*
X5763608Y-21031176D01*
X5735036Y-21031176D01*
X5915988Y-21031176D02*
X5896941Y-21021652D01*
X5887417Y-21002605D01*
X5887417Y-20831176D01*
X6068369Y-21021652D02*
X6049322Y-21031176D01*
X6011227Y-21031176D01*
X5992179Y-21021652D01*
X5982655Y-21002605D01*
X5982655Y-20926414D01*
X5992179Y-20907367D01*
X6011227Y-20897843D01*
X6049322Y-20897843D01*
X6068369Y-20907367D01*
X6077893Y-20926414D01*
X6077893Y-20945462D01*
X5982655Y-20964510D01*
X6154084Y-21021652D02*
X6173131Y-21031176D01*
X6211227Y-21031176D01*
X6230274Y-21021652D01*
X6239798Y-21002605D01*
X6239798Y-20993081D01*
X6230274Y-20974033D01*
X6211227Y-20964510D01*
X6182655Y-20964510D01*
X6163608Y-20954986D01*
X6154084Y-20935938D01*
X6154084Y-20926414D01*
X6163608Y-20907367D01*
X6182655Y-20897843D01*
X6211227Y-20897843D01*
X6230274Y-20907367D01*
X6306465Y-21107367D02*
X6315988Y-21097843D01*
X6335036Y-21069271D01*
X6344560Y-21050224D01*
X6354084Y-21021652D01*
X6363608Y-20974033D01*
X6363608Y-20935938D01*
X6354084Y-20888319D01*
X6344560Y-20859748D01*
X6335036Y-20840700D01*
X6315988Y-20812129D01*
X6306465Y-20802605D01*
D16*
X1489560Y-21249700D02*
X1534560Y-21204700D01*
X1489560Y-21159700D01*
X1444560Y-21204700D01*
X1489560Y-21249700D01*
D11*
X1830274Y-21095176D02*
X1849322Y-21095176D01*
X1868369Y-21104700D01*
X1877893Y-21114224D01*
X1887417Y-21133271D01*
X1896941Y-21171367D01*
X1896941Y-21218986D01*
X1887417Y-21257081D01*
X1877893Y-21276129D01*
X1868369Y-21285652D01*
X1849322Y-21295176D01*
X1830274Y-21295176D01*
X1811227Y-21285652D01*
X1801703Y-21276129D01*
X1792179Y-21257081D01*
X1782655Y-21218986D01*
X1782655Y-21171367D01*
X1792179Y-21133271D01*
X1801703Y-21114224D01*
X1811227Y-21104700D01*
X1830274Y-21095176D01*
X1982655Y-21276129D02*
X1992179Y-21285652D01*
X1982655Y-21295176D01*
X1973131Y-21285652D01*
X1982655Y-21276129D01*
X1982655Y-21295176D01*
X2087417Y-21295176D02*
X2125512Y-21295176D01*
X2144560Y-21285652D01*
X2154084Y-21276129D01*
X2173131Y-21247557D01*
X2182655Y-21209462D01*
X2182655Y-21133271D01*
X2173131Y-21114224D01*
X2163608Y-21104700D01*
X2144560Y-21095176D01*
X2106465Y-21095176D01*
X2087417Y-21104700D01*
X2077893Y-21114224D01*
X2068369Y-21133271D01*
X2068369Y-21180890D01*
X2077893Y-21199938D01*
X2087417Y-21209462D01*
X2106465Y-21218986D01*
X2144560Y-21218986D01*
X2163608Y-21209462D01*
X2173131Y-21199938D01*
X2182655Y-21180890D01*
X2306465Y-21095176D02*
X2325512Y-21095176D01*
X2344560Y-21104700D01*
X2354084Y-21114224D01*
X2363608Y-21133271D01*
X2373131Y-21171367D01*
X2373131Y-21218986D01*
X2363608Y-21257081D01*
X2354084Y-21276129D01*
X2344560Y-21285652D01*
X2325512Y-21295176D01*
X2306465Y-21295176D01*
X2287417Y-21285652D01*
X2277893Y-21276129D01*
X2268370Y-21257081D01*
X2258846Y-21218986D01*
X2258846Y-21171367D01*
X2268370Y-21133271D01*
X2277893Y-21114224D01*
X2287417Y-21104700D01*
X2306465Y-21095176D01*
X2496941Y-21095176D02*
X2515989Y-21095176D01*
X2535036Y-21104700D01*
X2544560Y-21114224D01*
X2554084Y-21133271D01*
X2563608Y-21171367D01*
X2563608Y-21218986D01*
X2554084Y-21257081D01*
X2544560Y-21276129D01*
X2535036Y-21285652D01*
X2515989Y-21295176D01*
X2496941Y-21295176D01*
X2477893Y-21285652D01*
X2468370Y-21276129D01*
X2458846Y-21257081D01*
X2449322Y-21218986D01*
X2449322Y-21171367D01*
X2458846Y-21133271D01*
X2468370Y-21114224D01*
X2477893Y-21104700D01*
X2496941Y-21095176D01*
X2649322Y-21295176D02*
X2649322Y-21161843D01*
X2649322Y-21180890D02*
X2658846Y-21171367D01*
X2677893Y-21161843D01*
X2706465Y-21161843D01*
X2725512Y-21171367D01*
X2735036Y-21190414D01*
X2735036Y-21295176D01*
X2735036Y-21190414D02*
X2744560Y-21171367D01*
X2763608Y-21161843D01*
X2792179Y-21161843D01*
X2811227Y-21171367D01*
X2820750Y-21190414D01*
X2820750Y-21295176D01*
X2915988Y-21295176D02*
X2915988Y-21161843D01*
X2915988Y-21180890D02*
X2925512Y-21171367D01*
X2944560Y-21161843D01*
X2973131Y-21161843D01*
X2992179Y-21171367D01*
X3001703Y-21190414D01*
X3001703Y-21295176D01*
X3001703Y-21190414D02*
X3011227Y-21171367D01*
X3030274Y-21161843D01*
X3058846Y-21161843D01*
X3077893Y-21171367D01*
X3087417Y-21190414D01*
X3087417Y-21295176D01*
X3477893Y-21085652D02*
X3306465Y-21342795D01*
X3735036Y-21095176D02*
X3754084Y-21095176D01*
X3773131Y-21104700D01*
X3782655Y-21114224D01*
X3792179Y-21133271D01*
X3801703Y-21171367D01*
X3801703Y-21218986D01*
X3792179Y-21257081D01*
X3782655Y-21276129D01*
X3773131Y-21285652D01*
X3754084Y-21295176D01*
X3735036Y-21295176D01*
X3715988Y-21285652D01*
X3706465Y-21276129D01*
X3696941Y-21257081D01*
X3687417Y-21218986D01*
X3687417Y-21171367D01*
X3696941Y-21133271D01*
X3706465Y-21114224D01*
X3715988Y-21104700D01*
X3735036Y-21095176D01*
X3887417Y-21276129D02*
X3896941Y-21285652D01*
X3887417Y-21295176D01*
X3877893Y-21285652D01*
X3887417Y-21276129D01*
X3887417Y-21295176D01*
X4020750Y-21095176D02*
X4039798Y-21095176D01*
X4058846Y-21104700D01*
X4068369Y-21114224D01*
X4077893Y-21133271D01*
X4087417Y-21171367D01*
X4087417Y-21218986D01*
X4077893Y-21257081D01*
X4068369Y-21276129D01*
X4058846Y-21285652D01*
X4039798Y-21295176D01*
X4020750Y-21295176D01*
X4001703Y-21285652D01*
X3992179Y-21276129D01*
X3982655Y-21257081D01*
X3973131Y-21218986D01*
X3973131Y-21171367D01*
X3982655Y-21133271D01*
X3992179Y-21114224D01*
X4001703Y-21104700D01*
X4020750Y-21095176D01*
X4154084Y-21095176D02*
X4277893Y-21095176D01*
X4211227Y-21171367D01*
X4239798Y-21171367D01*
X4258846Y-21180890D01*
X4268370Y-21190414D01*
X4277893Y-21209462D01*
X4277893Y-21257081D01*
X4268370Y-21276129D01*
X4258846Y-21285652D01*
X4239798Y-21295176D01*
X4182655Y-21295176D01*
X4163608Y-21285652D01*
X4154084Y-21276129D01*
X4458846Y-21095176D02*
X4363608Y-21095176D01*
X4354084Y-21190414D01*
X4363608Y-21180890D01*
X4382655Y-21171367D01*
X4430274Y-21171367D01*
X4449322Y-21180890D01*
X4458846Y-21190414D01*
X4468370Y-21209462D01*
X4468370Y-21257081D01*
X4458846Y-21276129D01*
X4449322Y-21285652D01*
X4430274Y-21295176D01*
X4382655Y-21295176D01*
X4363608Y-21285652D01*
X4354084Y-21276129D01*
X4639798Y-21161843D02*
X4639798Y-21295176D01*
X4592179Y-21085652D02*
X4544560Y-21228510D01*
X4668370Y-21228510D01*
X4735036Y-21095176D02*
X4735036Y-21133271D01*
X4811227Y-21095176D02*
X4811227Y-21133271D01*
X5106465Y-21371367D02*
X5096941Y-21361843D01*
X5077893Y-21333271D01*
X5068370Y-21314224D01*
X5058846Y-21285652D01*
X5049322Y-21238033D01*
X5049322Y-21199938D01*
X5058846Y-21152319D01*
X5068370Y-21123748D01*
X5077893Y-21104700D01*
X5096941Y-21076129D01*
X5106465Y-21066605D01*
X5211227Y-21180890D02*
X5192179Y-21171367D01*
X5182655Y-21161843D01*
X5173131Y-21142795D01*
X5173131Y-21133271D01*
X5182655Y-21114224D01*
X5192179Y-21104700D01*
X5211227Y-21095176D01*
X5249322Y-21095176D01*
X5268370Y-21104700D01*
X5277893Y-21114224D01*
X5287417Y-21133271D01*
X5287417Y-21142795D01*
X5277893Y-21161843D01*
X5268370Y-21171367D01*
X5249322Y-21180890D01*
X5211227Y-21180890D01*
X5192179Y-21190414D01*
X5182655Y-21199938D01*
X5173131Y-21218986D01*
X5173131Y-21257081D01*
X5182655Y-21276129D01*
X5192179Y-21285652D01*
X5211227Y-21295176D01*
X5249322Y-21295176D01*
X5268370Y-21285652D01*
X5277893Y-21276129D01*
X5287417Y-21257081D01*
X5287417Y-21218986D01*
X5277893Y-21199938D01*
X5268370Y-21190414D01*
X5249322Y-21180890D01*
X5525512Y-21295176D02*
X5525512Y-21095176D01*
X5611227Y-21295176D02*
X5611227Y-21190414D01*
X5601703Y-21171367D01*
X5582655Y-21161843D01*
X5554084Y-21161843D01*
X5535036Y-21171367D01*
X5525512Y-21180890D01*
X5735036Y-21295176D02*
X5715988Y-21285652D01*
X5706465Y-21276129D01*
X5696941Y-21257081D01*
X5696941Y-21199938D01*
X5706465Y-21180890D01*
X5715988Y-21171367D01*
X5735036Y-21161843D01*
X5763608Y-21161843D01*
X5782655Y-21171367D01*
X5792179Y-21180890D01*
X5801703Y-21199938D01*
X5801703Y-21257081D01*
X5792179Y-21276129D01*
X5782655Y-21285652D01*
X5763608Y-21295176D01*
X5735036Y-21295176D01*
X5915988Y-21295176D02*
X5896941Y-21285652D01*
X5887417Y-21266605D01*
X5887417Y-21095176D01*
X6068369Y-21285652D02*
X6049322Y-21295176D01*
X6011227Y-21295176D01*
X5992179Y-21285652D01*
X5982655Y-21266605D01*
X5982655Y-21190414D01*
X5992179Y-21171367D01*
X6011227Y-21161843D01*
X6049322Y-21161843D01*
X6068369Y-21171367D01*
X6077893Y-21190414D01*
X6077893Y-21209462D01*
X5982655Y-21228510D01*
X6154084Y-21285652D02*
X6173131Y-21295176D01*
X6211227Y-21295176D01*
X6230274Y-21285652D01*
X6239798Y-21266605D01*
X6239798Y-21257081D01*
X6230274Y-21238033D01*
X6211227Y-21228510D01*
X6182655Y-21228510D01*
X6163608Y-21218986D01*
X6154084Y-21199938D01*
X6154084Y-21190414D01*
X6163608Y-21171367D01*
X6182655Y-21161843D01*
X6211227Y-21161843D01*
X6230274Y-21171367D01*
X6306465Y-21371367D02*
X6315988Y-21361843D01*
X6335036Y-21333271D01*
X6344560Y-21314224D01*
X6354084Y-21285652D01*
X6363608Y-21238033D01*
X6363608Y-21199938D01*
X6354084Y-21152319D01*
X6344560Y-21123748D01*
X6335036Y-21104700D01*
X6315988Y-21076129D01*
X6306465Y-21066605D01*
D10*
X1434560Y-21418700D02*
X1534560Y-21518700D01*
X1534560Y-21418700D02*
X1434560Y-21518700D01*
X1534560Y-21468700D02*
G75*
G03*
X1534560Y-21468700I-50000J0D01*
G01*
D11*
X1896941Y-21559176D02*
X1782655Y-21559176D01*
X1839798Y-21559176D02*
X1839798Y-21359176D01*
X1820750Y-21387748D01*
X1801703Y-21406795D01*
X1782655Y-21416319D01*
X1982655Y-21540129D02*
X1992179Y-21549652D01*
X1982655Y-21559176D01*
X1973131Y-21549652D01*
X1982655Y-21540129D01*
X1982655Y-21559176D01*
X2115989Y-21359176D02*
X2135036Y-21359176D01*
X2154084Y-21368700D01*
X2163608Y-21378224D01*
X2173131Y-21397271D01*
X2182655Y-21435367D01*
X2182655Y-21482986D01*
X2173131Y-21521081D01*
X2163608Y-21540129D01*
X2154084Y-21549652D01*
X2135036Y-21559176D01*
X2115989Y-21559176D01*
X2096941Y-21549652D01*
X2087417Y-21540129D01*
X2077893Y-21521081D01*
X2068369Y-21482986D01*
X2068369Y-21435367D01*
X2077893Y-21397271D01*
X2087417Y-21378224D01*
X2096941Y-21368700D01*
X2115989Y-21359176D01*
X2306465Y-21359176D02*
X2325512Y-21359176D01*
X2344560Y-21368700D01*
X2354084Y-21378224D01*
X2363608Y-21397271D01*
X2373131Y-21435367D01*
X2373131Y-21482986D01*
X2363608Y-21521081D01*
X2354084Y-21540129D01*
X2344560Y-21549652D01*
X2325512Y-21559176D01*
X2306465Y-21559176D01*
X2287417Y-21549652D01*
X2277893Y-21540129D01*
X2268370Y-21521081D01*
X2258846Y-21482986D01*
X2258846Y-21435367D01*
X2268370Y-21397271D01*
X2277893Y-21378224D01*
X2287417Y-21368700D01*
X2306465Y-21359176D01*
X2496941Y-21359176D02*
X2515989Y-21359176D01*
X2535036Y-21368700D01*
X2544560Y-21378224D01*
X2554084Y-21397271D01*
X2563608Y-21435367D01*
X2563608Y-21482986D01*
X2554084Y-21521081D01*
X2544560Y-21540129D01*
X2535036Y-21549652D01*
X2515989Y-21559176D01*
X2496941Y-21559176D01*
X2477893Y-21549652D01*
X2468370Y-21540129D01*
X2458846Y-21521081D01*
X2449322Y-21482986D01*
X2449322Y-21435367D01*
X2458846Y-21397271D01*
X2468370Y-21378224D01*
X2477893Y-21368700D01*
X2496941Y-21359176D01*
X2649322Y-21559176D02*
X2649322Y-21425843D01*
X2649322Y-21444890D02*
X2658846Y-21435367D01*
X2677893Y-21425843D01*
X2706465Y-21425843D01*
X2725512Y-21435367D01*
X2735036Y-21454414D01*
X2735036Y-21559176D01*
X2735036Y-21454414D02*
X2744560Y-21435367D01*
X2763608Y-21425843D01*
X2792179Y-21425843D01*
X2811227Y-21435367D01*
X2820750Y-21454414D01*
X2820750Y-21559176D01*
X2915988Y-21559176D02*
X2915988Y-21425843D01*
X2915988Y-21444890D02*
X2925512Y-21435367D01*
X2944560Y-21425843D01*
X2973131Y-21425843D01*
X2992179Y-21435367D01*
X3001703Y-21454414D01*
X3001703Y-21559176D01*
X3001703Y-21454414D02*
X3011227Y-21435367D01*
X3030274Y-21425843D01*
X3058846Y-21425843D01*
X3077893Y-21435367D01*
X3087417Y-21454414D01*
X3087417Y-21559176D01*
X3477893Y-21349652D02*
X3306465Y-21606795D01*
X3735036Y-21359176D02*
X3754084Y-21359176D01*
X3773131Y-21368700D01*
X3782655Y-21378224D01*
X3792179Y-21397271D01*
X3801703Y-21435367D01*
X3801703Y-21482986D01*
X3792179Y-21521081D01*
X3782655Y-21540129D01*
X3773131Y-21549652D01*
X3754084Y-21559176D01*
X3735036Y-21559176D01*
X3715988Y-21549652D01*
X3706465Y-21540129D01*
X3696941Y-21521081D01*
X3687417Y-21482986D01*
X3687417Y-21435367D01*
X3696941Y-21397271D01*
X3706465Y-21378224D01*
X3715988Y-21368700D01*
X3735036Y-21359176D01*
X3887417Y-21540129D02*
X3896941Y-21549652D01*
X3887417Y-21559176D01*
X3877893Y-21549652D01*
X3887417Y-21540129D01*
X3887417Y-21559176D01*
X4020750Y-21359176D02*
X4039798Y-21359176D01*
X4058846Y-21368700D01*
X4068369Y-21378224D01*
X4077893Y-21397271D01*
X4087417Y-21435367D01*
X4087417Y-21482986D01*
X4077893Y-21521081D01*
X4068369Y-21540129D01*
X4058846Y-21549652D01*
X4039798Y-21559176D01*
X4020750Y-21559176D01*
X4001703Y-21549652D01*
X3992179Y-21540129D01*
X3982655Y-21521081D01*
X3973131Y-21482986D01*
X3973131Y-21435367D01*
X3982655Y-21397271D01*
X3992179Y-21378224D01*
X4001703Y-21368700D01*
X4020750Y-21359176D01*
X4154084Y-21359176D02*
X4277893Y-21359176D01*
X4211227Y-21435367D01*
X4239798Y-21435367D01*
X4258846Y-21444890D01*
X4268370Y-21454414D01*
X4277893Y-21473462D01*
X4277893Y-21521081D01*
X4268370Y-21540129D01*
X4258846Y-21549652D01*
X4239798Y-21559176D01*
X4182655Y-21559176D01*
X4163608Y-21549652D01*
X4154084Y-21540129D01*
X4373131Y-21559176D02*
X4411227Y-21559176D01*
X4430274Y-21549652D01*
X4439798Y-21540129D01*
X4458846Y-21511557D01*
X4468370Y-21473462D01*
X4468370Y-21397271D01*
X4458846Y-21378224D01*
X4449322Y-21368700D01*
X4430274Y-21359176D01*
X4392179Y-21359176D01*
X4373131Y-21368700D01*
X4363608Y-21378224D01*
X4354084Y-21397271D01*
X4354084Y-21444890D01*
X4363608Y-21463938D01*
X4373131Y-21473462D01*
X4392179Y-21482986D01*
X4430274Y-21482986D01*
X4449322Y-21473462D01*
X4458846Y-21463938D01*
X4468370Y-21444890D01*
X4639798Y-21425843D02*
X4639798Y-21559176D01*
X4592179Y-21349652D02*
X4544560Y-21492510D01*
X4668370Y-21492510D01*
X4735036Y-21359176D02*
X4735036Y-21397271D01*
X4811227Y-21359176D02*
X4811227Y-21397271D01*
X5106465Y-21635367D02*
X5096941Y-21625843D01*
X5077893Y-21597271D01*
X5068370Y-21578224D01*
X5058846Y-21549652D01*
X5049322Y-21502033D01*
X5049322Y-21463938D01*
X5058846Y-21416319D01*
X5068370Y-21387748D01*
X5077893Y-21368700D01*
X5096941Y-21340129D01*
X5106465Y-21330605D01*
X5287417Y-21559176D02*
X5173131Y-21559176D01*
X5230274Y-21559176D02*
X5230274Y-21359176D01*
X5211227Y-21387748D01*
X5192179Y-21406795D01*
X5173131Y-21416319D01*
X5411227Y-21359176D02*
X5430274Y-21359176D01*
X5449322Y-21368700D01*
X5458846Y-21378224D01*
X5468370Y-21397271D01*
X5477893Y-21435367D01*
X5477893Y-21482986D01*
X5468370Y-21521081D01*
X5458846Y-21540129D01*
X5449322Y-21549652D01*
X5430274Y-21559176D01*
X5411227Y-21559176D01*
X5392179Y-21549652D01*
X5382655Y-21540129D01*
X5373131Y-21521081D01*
X5363608Y-21482986D01*
X5363608Y-21435367D01*
X5373131Y-21397271D01*
X5382655Y-21378224D01*
X5392179Y-21368700D01*
X5411227Y-21359176D01*
X5715988Y-21559176D02*
X5715988Y-21359176D01*
X5801703Y-21559176D02*
X5801703Y-21454414D01*
X5792179Y-21435367D01*
X5773131Y-21425843D01*
X5744560Y-21425843D01*
X5725512Y-21435367D01*
X5715988Y-21444890D01*
X5925512Y-21559176D02*
X5906465Y-21549652D01*
X5896941Y-21540129D01*
X5887417Y-21521081D01*
X5887417Y-21463938D01*
X5896941Y-21444890D01*
X5906465Y-21435367D01*
X5925512Y-21425843D01*
X5954084Y-21425843D01*
X5973131Y-21435367D01*
X5982655Y-21444890D01*
X5992179Y-21463938D01*
X5992179Y-21521081D01*
X5982655Y-21540129D01*
X5973131Y-21549652D01*
X5954084Y-21559176D01*
X5925512Y-21559176D01*
X6106465Y-21559176D02*
X6087417Y-21549652D01*
X6077893Y-21530605D01*
X6077893Y-21359176D01*
X6258846Y-21549652D02*
X6239798Y-21559176D01*
X6201703Y-21559176D01*
X6182655Y-21549652D01*
X6173131Y-21530605D01*
X6173131Y-21454414D01*
X6182655Y-21435367D01*
X6201703Y-21425843D01*
X6239798Y-21425843D01*
X6258846Y-21435367D01*
X6268369Y-21454414D01*
X6268369Y-21473462D01*
X6173131Y-21492510D01*
X6344560Y-21549652D02*
X6363608Y-21559176D01*
X6401703Y-21559176D01*
X6420750Y-21549652D01*
X6430274Y-21530605D01*
X6430274Y-21521081D01*
X6420750Y-21502033D01*
X6401703Y-21492510D01*
X6373131Y-21492510D01*
X6354084Y-21482986D01*
X6344560Y-21463938D01*
X6344560Y-21454414D01*
X6354084Y-21435367D01*
X6373131Y-21425843D01*
X6401703Y-21425843D01*
X6420750Y-21435367D01*
X6496941Y-21635367D02*
X6506465Y-21625843D01*
X6525512Y-21597271D01*
X6535036Y-21578224D01*
X6544560Y-21549652D01*
X6554084Y-21502033D01*
X6554084Y-21463938D01*
X6544560Y-21416319D01*
X6535036Y-21387748D01*
X6525512Y-21368700D01*
X6506465Y-21340129D01*
X6496941Y-21330605D01*
D17*
X1432560Y-21681700D02*
X1534560Y-21783700D01*
X1534560Y-21681700D02*
X1432560Y-21783700D01*
X1483560Y-21681700D02*
X1483560Y-21783700D01*
X1432560Y-21732700D02*
X1534560Y-21732700D01*
D11*
X1896941Y-21823176D02*
X1782655Y-21823176D01*
X1839798Y-21823176D02*
X1839798Y-21623176D01*
X1820750Y-21651748D01*
X1801703Y-21670795D01*
X1782655Y-21680319D01*
X1982655Y-21804129D02*
X1992179Y-21813652D01*
X1982655Y-21823176D01*
X1973131Y-21813652D01*
X1982655Y-21804129D01*
X1982655Y-21823176D01*
X2115989Y-21623176D02*
X2135036Y-21623176D01*
X2154084Y-21632700D01*
X2163608Y-21642224D01*
X2173131Y-21661271D01*
X2182655Y-21699367D01*
X2182655Y-21746986D01*
X2173131Y-21785081D01*
X2163608Y-21804129D01*
X2154084Y-21813652D01*
X2135036Y-21823176D01*
X2115989Y-21823176D01*
X2096941Y-21813652D01*
X2087417Y-21804129D01*
X2077893Y-21785081D01*
X2068369Y-21746986D01*
X2068369Y-21699367D01*
X2077893Y-21661271D01*
X2087417Y-21642224D01*
X2096941Y-21632700D01*
X2115989Y-21623176D01*
X2258846Y-21642224D02*
X2268370Y-21632700D01*
X2287417Y-21623176D01*
X2335036Y-21623176D01*
X2354084Y-21632700D01*
X2363608Y-21642224D01*
X2373131Y-21661271D01*
X2373131Y-21680319D01*
X2363608Y-21708890D01*
X2249322Y-21823176D01*
X2373131Y-21823176D01*
X2496941Y-21623176D02*
X2515989Y-21623176D01*
X2535036Y-21632700D01*
X2544560Y-21642224D01*
X2554084Y-21661271D01*
X2563608Y-21699367D01*
X2563608Y-21746986D01*
X2554084Y-21785081D01*
X2544560Y-21804129D01*
X2535036Y-21813652D01*
X2515989Y-21823176D01*
X2496941Y-21823176D01*
X2477893Y-21813652D01*
X2468370Y-21804129D01*
X2458846Y-21785081D01*
X2449322Y-21746986D01*
X2449322Y-21699367D01*
X2458846Y-21661271D01*
X2468370Y-21642224D01*
X2477893Y-21632700D01*
X2496941Y-21623176D01*
X2649322Y-21823176D02*
X2649322Y-21689843D01*
X2649322Y-21708890D02*
X2658846Y-21699367D01*
X2677893Y-21689843D01*
X2706465Y-21689843D01*
X2725512Y-21699367D01*
X2735036Y-21718414D01*
X2735036Y-21823176D01*
X2735036Y-21718414D02*
X2744560Y-21699367D01*
X2763608Y-21689843D01*
X2792179Y-21689843D01*
X2811227Y-21699367D01*
X2820750Y-21718414D01*
X2820750Y-21823176D01*
X2915988Y-21823176D02*
X2915988Y-21689843D01*
X2915988Y-21708890D02*
X2925512Y-21699367D01*
X2944560Y-21689843D01*
X2973131Y-21689843D01*
X2992179Y-21699367D01*
X3001703Y-21718414D01*
X3001703Y-21823176D01*
X3001703Y-21718414D02*
X3011227Y-21699367D01*
X3030274Y-21689843D01*
X3058846Y-21689843D01*
X3077893Y-21699367D01*
X3087417Y-21718414D01*
X3087417Y-21823176D01*
X3477893Y-21613652D02*
X3306465Y-21870795D01*
X3735036Y-21623176D02*
X3754084Y-21623176D01*
X3773131Y-21632700D01*
X3782655Y-21642224D01*
X3792179Y-21661271D01*
X3801703Y-21699367D01*
X3801703Y-21746986D01*
X3792179Y-21785081D01*
X3782655Y-21804129D01*
X3773131Y-21813652D01*
X3754084Y-21823176D01*
X3735036Y-21823176D01*
X3715988Y-21813652D01*
X3706465Y-21804129D01*
X3696941Y-21785081D01*
X3687417Y-21746986D01*
X3687417Y-21699367D01*
X3696941Y-21661271D01*
X3706465Y-21642224D01*
X3715988Y-21632700D01*
X3735036Y-21623176D01*
X3887417Y-21804129D02*
X3896941Y-21813652D01*
X3887417Y-21823176D01*
X3877893Y-21813652D01*
X3887417Y-21804129D01*
X3887417Y-21823176D01*
X4020750Y-21623176D02*
X4039798Y-21623176D01*
X4058846Y-21632700D01*
X4068369Y-21642224D01*
X4077893Y-21661271D01*
X4087417Y-21699367D01*
X4087417Y-21746986D01*
X4077893Y-21785081D01*
X4068369Y-21804129D01*
X4058846Y-21813652D01*
X4039798Y-21823176D01*
X4020750Y-21823176D01*
X4001703Y-21813652D01*
X3992179Y-21804129D01*
X3982655Y-21785081D01*
X3973131Y-21746986D01*
X3973131Y-21699367D01*
X3982655Y-21661271D01*
X3992179Y-21642224D01*
X4001703Y-21632700D01*
X4020750Y-21623176D01*
X4258846Y-21689843D02*
X4258846Y-21823176D01*
X4211227Y-21613652D02*
X4163608Y-21756510D01*
X4287417Y-21756510D01*
X4401703Y-21623176D02*
X4420750Y-21623176D01*
X4439798Y-21632700D01*
X4449322Y-21642224D01*
X4458846Y-21661271D01*
X4468370Y-21699367D01*
X4468370Y-21746986D01*
X4458846Y-21785081D01*
X4449322Y-21804129D01*
X4439798Y-21813652D01*
X4420750Y-21823176D01*
X4401703Y-21823176D01*
X4382655Y-21813652D01*
X4373131Y-21804129D01*
X4363608Y-21785081D01*
X4354084Y-21746986D01*
X4354084Y-21699367D01*
X4363608Y-21661271D01*
X4373131Y-21642224D01*
X4382655Y-21632700D01*
X4401703Y-21623176D01*
X4544560Y-21642224D02*
X4554084Y-21632700D01*
X4573131Y-21623176D01*
X4620750Y-21623176D01*
X4639798Y-21632700D01*
X4649322Y-21642224D01*
X4658846Y-21661271D01*
X4658846Y-21680319D01*
X4649322Y-21708890D01*
X4535036Y-21823176D01*
X4658846Y-21823176D01*
X4735036Y-21623176D02*
X4735036Y-21661271D01*
X4811227Y-21623176D02*
X4811227Y-21661271D01*
X5106465Y-21899367D02*
X5096941Y-21889843D01*
X5077893Y-21861271D01*
X5068370Y-21842224D01*
X5058846Y-21813652D01*
X5049322Y-21766033D01*
X5049322Y-21727938D01*
X5058846Y-21680319D01*
X5068370Y-21651748D01*
X5077893Y-21632700D01*
X5096941Y-21604129D01*
X5106465Y-21594605D01*
X5268370Y-21689843D02*
X5268370Y-21823176D01*
X5220750Y-21613652D02*
X5173131Y-21756510D01*
X5296941Y-21756510D01*
X5525512Y-21823176D02*
X5525512Y-21623176D01*
X5611227Y-21823176D02*
X5611227Y-21718414D01*
X5601703Y-21699367D01*
X5582655Y-21689843D01*
X5554084Y-21689843D01*
X5535036Y-21699367D01*
X5525512Y-21708890D01*
X5735036Y-21823176D02*
X5715988Y-21813652D01*
X5706465Y-21804129D01*
X5696941Y-21785081D01*
X5696941Y-21727938D01*
X5706465Y-21708890D01*
X5715988Y-21699367D01*
X5735036Y-21689843D01*
X5763608Y-21689843D01*
X5782655Y-21699367D01*
X5792179Y-21708890D01*
X5801703Y-21727938D01*
X5801703Y-21785081D01*
X5792179Y-21804129D01*
X5782655Y-21813652D01*
X5763608Y-21823176D01*
X5735036Y-21823176D01*
X5915988Y-21823176D02*
X5896941Y-21813652D01*
X5887417Y-21794605D01*
X5887417Y-21623176D01*
X6068369Y-21813652D02*
X6049322Y-21823176D01*
X6011227Y-21823176D01*
X5992179Y-21813652D01*
X5982655Y-21794605D01*
X5982655Y-21718414D01*
X5992179Y-21699367D01*
X6011227Y-21689843D01*
X6049322Y-21689843D01*
X6068369Y-21699367D01*
X6077893Y-21718414D01*
X6077893Y-21737462D01*
X5982655Y-21756510D01*
X6154084Y-21813652D02*
X6173131Y-21823176D01*
X6211227Y-21823176D01*
X6230274Y-21813652D01*
X6239798Y-21794605D01*
X6239798Y-21785081D01*
X6230274Y-21766033D01*
X6211227Y-21756510D01*
X6182655Y-21756510D01*
X6163608Y-21746986D01*
X6154084Y-21727938D01*
X6154084Y-21718414D01*
X6163608Y-21699367D01*
X6182655Y-21689843D01*
X6211227Y-21689843D01*
X6230274Y-21699367D01*
X6306465Y-21899367D02*
X6315988Y-21889843D01*
X6335036Y-21861271D01*
X6344560Y-21842224D01*
X6354084Y-21813652D01*
X6363608Y-21766033D01*
X6363608Y-21727938D01*
X6354084Y-21680319D01*
X6344560Y-21651748D01*
X6335036Y-21632700D01*
X6315988Y-21604129D01*
X6306465Y-21594605D01*
D18*
X1415560Y-21937200D02*
X1534560Y-22056200D01*
X1534560Y-21937200D02*
X1415560Y-22056200D01*
X1517133Y-22038773D02*
X1517133Y-21954627D01*
X1432987Y-21954627D01*
X1432987Y-22038773D01*
X1517133Y-22038773D01*
D11*
X1896941Y-22087176D02*
X1782655Y-22087176D01*
X1839798Y-22087176D02*
X1839798Y-21887176D01*
X1820750Y-21915748D01*
X1801703Y-21934795D01*
X1782655Y-21944319D01*
X1982655Y-22068129D02*
X1992179Y-22077652D01*
X1982655Y-22087176D01*
X1973131Y-22077652D01*
X1982655Y-22068129D01*
X1982655Y-22087176D01*
X2182655Y-22087176D02*
X2068369Y-22087176D01*
X2125512Y-22087176D02*
X2125512Y-21887176D01*
X2106465Y-21915748D01*
X2087417Y-21934795D01*
X2068369Y-21944319D01*
X2277893Y-22087176D02*
X2315989Y-22087176D01*
X2335036Y-22077652D01*
X2344560Y-22068129D01*
X2363608Y-22039557D01*
X2373131Y-22001462D01*
X2373131Y-21925271D01*
X2363608Y-21906224D01*
X2354084Y-21896700D01*
X2335036Y-21887176D01*
X2296941Y-21887176D01*
X2277893Y-21896700D01*
X2268370Y-21906224D01*
X2258846Y-21925271D01*
X2258846Y-21972890D01*
X2268370Y-21991938D01*
X2277893Y-22001462D01*
X2296941Y-22010986D01*
X2335036Y-22010986D01*
X2354084Y-22001462D01*
X2363608Y-21991938D01*
X2373131Y-21972890D01*
X2496941Y-21887176D02*
X2515989Y-21887176D01*
X2535036Y-21896700D01*
X2544560Y-21906224D01*
X2554084Y-21925271D01*
X2563608Y-21963367D01*
X2563608Y-22010986D01*
X2554084Y-22049081D01*
X2544560Y-22068129D01*
X2535036Y-22077652D01*
X2515989Y-22087176D01*
X2496941Y-22087176D01*
X2477893Y-22077652D01*
X2468370Y-22068129D01*
X2458846Y-22049081D01*
X2449322Y-22010986D01*
X2449322Y-21963367D01*
X2458846Y-21925271D01*
X2468370Y-21906224D01*
X2477893Y-21896700D01*
X2496941Y-21887176D01*
X2649322Y-22087176D02*
X2649322Y-21953843D01*
X2649322Y-21972890D02*
X2658846Y-21963367D01*
X2677893Y-21953843D01*
X2706465Y-21953843D01*
X2725512Y-21963367D01*
X2735036Y-21982414D01*
X2735036Y-22087176D01*
X2735036Y-21982414D02*
X2744560Y-21963367D01*
X2763608Y-21953843D01*
X2792179Y-21953843D01*
X2811227Y-21963367D01*
X2820750Y-21982414D01*
X2820750Y-22087176D01*
X2915988Y-22087176D02*
X2915988Y-21953843D01*
X2915988Y-21972890D02*
X2925512Y-21963367D01*
X2944560Y-21953843D01*
X2973131Y-21953843D01*
X2992179Y-21963367D01*
X3001703Y-21982414D01*
X3001703Y-22087176D01*
X3001703Y-21982414D02*
X3011227Y-21963367D01*
X3030274Y-21953843D01*
X3058846Y-21953843D01*
X3077893Y-21963367D01*
X3087417Y-21982414D01*
X3087417Y-22087176D01*
X3477893Y-21877652D02*
X3306465Y-22134795D01*
X3735036Y-21887176D02*
X3754084Y-21887176D01*
X3773131Y-21896700D01*
X3782655Y-21906224D01*
X3792179Y-21925271D01*
X3801703Y-21963367D01*
X3801703Y-22010986D01*
X3792179Y-22049081D01*
X3782655Y-22068129D01*
X3773131Y-22077652D01*
X3754084Y-22087176D01*
X3735036Y-22087176D01*
X3715988Y-22077652D01*
X3706465Y-22068129D01*
X3696941Y-22049081D01*
X3687417Y-22010986D01*
X3687417Y-21963367D01*
X3696941Y-21925271D01*
X3706465Y-21906224D01*
X3715988Y-21896700D01*
X3735036Y-21887176D01*
X3887417Y-22068129D02*
X3896941Y-22077652D01*
X3887417Y-22087176D01*
X3877893Y-22077652D01*
X3887417Y-22068129D01*
X3887417Y-22087176D01*
X4020750Y-21887176D02*
X4039798Y-21887176D01*
X4058846Y-21896700D01*
X4068369Y-21906224D01*
X4077893Y-21925271D01*
X4087417Y-21963367D01*
X4087417Y-22010986D01*
X4077893Y-22049081D01*
X4068369Y-22068129D01*
X4058846Y-22077652D01*
X4039798Y-22087176D01*
X4020750Y-22087176D01*
X4001703Y-22077652D01*
X3992179Y-22068129D01*
X3982655Y-22049081D01*
X3973131Y-22010986D01*
X3973131Y-21963367D01*
X3982655Y-21925271D01*
X3992179Y-21906224D01*
X4001703Y-21896700D01*
X4020750Y-21887176D01*
X4258846Y-21953843D02*
X4258846Y-22087176D01*
X4211227Y-21877652D02*
X4163608Y-22020510D01*
X4287417Y-22020510D01*
X4449322Y-21887176D02*
X4411227Y-21887176D01*
X4392179Y-21896700D01*
X4382655Y-21906224D01*
X4363608Y-21934795D01*
X4354084Y-21972890D01*
X4354084Y-22049081D01*
X4363608Y-22068129D01*
X4373131Y-22077652D01*
X4392179Y-22087176D01*
X4430274Y-22087176D01*
X4449322Y-22077652D01*
X4458846Y-22068129D01*
X4468370Y-22049081D01*
X4468370Y-22001462D01*
X4458846Y-21982414D01*
X4449322Y-21972890D01*
X4430274Y-21963367D01*
X4392179Y-21963367D01*
X4373131Y-21972890D01*
X4363608Y-21982414D01*
X4354084Y-22001462D01*
X4563608Y-22087176D02*
X4601703Y-22087176D01*
X4620750Y-22077652D01*
X4630274Y-22068129D01*
X4649322Y-22039557D01*
X4658846Y-22001462D01*
X4658846Y-21925271D01*
X4649322Y-21906224D01*
X4639798Y-21896700D01*
X4620750Y-21887176D01*
X4582655Y-21887176D01*
X4563608Y-21896700D01*
X4554084Y-21906224D01*
X4544560Y-21925271D01*
X4544560Y-21972890D01*
X4554084Y-21991938D01*
X4563608Y-22001462D01*
X4582655Y-22010986D01*
X4620750Y-22010986D01*
X4639798Y-22001462D01*
X4649322Y-21991938D01*
X4658846Y-21972890D01*
X4735036Y-21887176D02*
X4735036Y-21925271D01*
X4811227Y-21887176D02*
X4811227Y-21925271D01*
X5106465Y-22163367D02*
X5096941Y-22153843D01*
X5077893Y-22125271D01*
X5068370Y-22106224D01*
X5058846Y-22077652D01*
X5049322Y-22030033D01*
X5049322Y-21991938D01*
X5058846Y-21944319D01*
X5068370Y-21915748D01*
X5077893Y-21896700D01*
X5096941Y-21868129D01*
X5106465Y-21858605D01*
X5268370Y-21953843D02*
X5268370Y-22087176D01*
X5220750Y-21877652D02*
X5173131Y-22020510D01*
X5296941Y-22020510D01*
X5525512Y-22087176D02*
X5525512Y-21887176D01*
X5611227Y-22087176D02*
X5611227Y-21982414D01*
X5601703Y-21963367D01*
X5582655Y-21953843D01*
X5554084Y-21953843D01*
X5535036Y-21963367D01*
X5525512Y-21972890D01*
X5735036Y-22087176D02*
X5715988Y-22077652D01*
X5706465Y-22068129D01*
X5696941Y-22049081D01*
X5696941Y-21991938D01*
X5706465Y-21972890D01*
X5715988Y-21963367D01*
X5735036Y-21953843D01*
X5763608Y-21953843D01*
X5782655Y-21963367D01*
X5792179Y-21972890D01*
X5801703Y-21991938D01*
X5801703Y-22049081D01*
X5792179Y-22068129D01*
X5782655Y-22077652D01*
X5763608Y-22087176D01*
X5735036Y-22087176D01*
X5915988Y-22087176D02*
X5896941Y-22077652D01*
X5887417Y-22058605D01*
X5887417Y-21887176D01*
X6068369Y-22077652D02*
X6049322Y-22087176D01*
X6011227Y-22087176D01*
X5992179Y-22077652D01*
X5982655Y-22058605D01*
X5982655Y-21982414D01*
X5992179Y-21963367D01*
X6011227Y-21953843D01*
X6049322Y-21953843D01*
X6068369Y-21963367D01*
X6077893Y-21982414D01*
X6077893Y-22001462D01*
X5982655Y-22020510D01*
X6154084Y-22077652D02*
X6173131Y-22087176D01*
X6211227Y-22087176D01*
X6230274Y-22077652D01*
X6239798Y-22058605D01*
X6239798Y-22049081D01*
X6230274Y-22030033D01*
X6211227Y-22020510D01*
X6182655Y-22020510D01*
X6163608Y-22010986D01*
X6154084Y-21991938D01*
X6154084Y-21982414D01*
X6163608Y-21963367D01*
X6182655Y-21953843D01*
X6211227Y-21953843D01*
X6230274Y-21963367D01*
X6306465Y-22163367D02*
X6315988Y-22153843D01*
X6335036Y-22125271D01*
X6344560Y-22106224D01*
X6354084Y-22077652D01*
X6363608Y-22030033D01*
X6363608Y-21991938D01*
X6354084Y-21944319D01*
X6344560Y-21915748D01*
X6335036Y-21896700D01*
X6315988Y-21868129D01*
X6306465Y-21858605D01*
D19*
X1404560Y-22195700D02*
X1534560Y-22325700D01*
X1534560Y-22195700D02*
X1404560Y-22325700D01*
X1469560Y-22325700D02*
X1534560Y-22260700D01*
X1469560Y-22195700D01*
X1404560Y-22260700D01*
X1469560Y-22325700D01*
D11*
X1896941Y-22351176D02*
X1782655Y-22351176D01*
X1839798Y-22351176D02*
X1839798Y-22151176D01*
X1820750Y-22179748D01*
X1801703Y-22198795D01*
X1782655Y-22208319D01*
X1982655Y-22332129D02*
X1992179Y-22341652D01*
X1982655Y-22351176D01*
X1973131Y-22341652D01*
X1982655Y-22332129D01*
X1982655Y-22351176D01*
X2058846Y-22151176D02*
X2182655Y-22151176D01*
X2115989Y-22227367D01*
X2144560Y-22227367D01*
X2163608Y-22236890D01*
X2173131Y-22246414D01*
X2182655Y-22265462D01*
X2182655Y-22313081D01*
X2173131Y-22332129D01*
X2163608Y-22341652D01*
X2144560Y-22351176D01*
X2087417Y-22351176D01*
X2068369Y-22341652D01*
X2058846Y-22332129D01*
X2306465Y-22151176D02*
X2325512Y-22151176D01*
X2344560Y-22160700D01*
X2354084Y-22170224D01*
X2363608Y-22189271D01*
X2373131Y-22227367D01*
X2373131Y-22274986D01*
X2363608Y-22313081D01*
X2354084Y-22332129D01*
X2344560Y-22341652D01*
X2325512Y-22351176D01*
X2306465Y-22351176D01*
X2287417Y-22341652D01*
X2277893Y-22332129D01*
X2268370Y-22313081D01*
X2258846Y-22274986D01*
X2258846Y-22227367D01*
X2268370Y-22189271D01*
X2277893Y-22170224D01*
X2287417Y-22160700D01*
X2306465Y-22151176D01*
X2496941Y-22151176D02*
X2515989Y-22151176D01*
X2535036Y-22160700D01*
X2544560Y-22170224D01*
X2554084Y-22189271D01*
X2563608Y-22227367D01*
X2563608Y-22274986D01*
X2554084Y-22313081D01*
X2544560Y-22332129D01*
X2535036Y-22341652D01*
X2515989Y-22351176D01*
X2496941Y-22351176D01*
X2477893Y-22341652D01*
X2468370Y-22332129D01*
X2458846Y-22313081D01*
X2449322Y-22274986D01*
X2449322Y-22227367D01*
X2458846Y-22189271D01*
X2468370Y-22170224D01*
X2477893Y-22160700D01*
X2496941Y-22151176D01*
X2649322Y-22351176D02*
X2649322Y-22217843D01*
X2649322Y-22236890D02*
X2658846Y-22227367D01*
X2677893Y-22217843D01*
X2706465Y-22217843D01*
X2725512Y-22227367D01*
X2735036Y-22246414D01*
X2735036Y-22351176D01*
X2735036Y-22246414D02*
X2744560Y-22227367D01*
X2763608Y-22217843D01*
X2792179Y-22217843D01*
X2811227Y-22227367D01*
X2820750Y-22246414D01*
X2820750Y-22351176D01*
X2915988Y-22351176D02*
X2915988Y-22217843D01*
X2915988Y-22236890D02*
X2925512Y-22227367D01*
X2944560Y-22217843D01*
X2973131Y-22217843D01*
X2992179Y-22227367D01*
X3001703Y-22246414D01*
X3001703Y-22351176D01*
X3001703Y-22246414D02*
X3011227Y-22227367D01*
X3030274Y-22217843D01*
X3058846Y-22217843D01*
X3077893Y-22227367D01*
X3087417Y-22246414D01*
X3087417Y-22351176D01*
X3477893Y-22141652D02*
X3306465Y-22398795D01*
X3735036Y-22151176D02*
X3754084Y-22151176D01*
X3773131Y-22160700D01*
X3782655Y-22170224D01*
X3792179Y-22189271D01*
X3801703Y-22227367D01*
X3801703Y-22274986D01*
X3792179Y-22313081D01*
X3782655Y-22332129D01*
X3773131Y-22341652D01*
X3754084Y-22351176D01*
X3735036Y-22351176D01*
X3715988Y-22341652D01*
X3706465Y-22332129D01*
X3696941Y-22313081D01*
X3687417Y-22274986D01*
X3687417Y-22227367D01*
X3696941Y-22189271D01*
X3706465Y-22170224D01*
X3715988Y-22160700D01*
X3735036Y-22151176D01*
X3887417Y-22332129D02*
X3896941Y-22341652D01*
X3887417Y-22351176D01*
X3877893Y-22341652D01*
X3887417Y-22332129D01*
X3887417Y-22351176D01*
X4020750Y-22151176D02*
X4039798Y-22151176D01*
X4058846Y-22160700D01*
X4068369Y-22170224D01*
X4077893Y-22189271D01*
X4087417Y-22227367D01*
X4087417Y-22274986D01*
X4077893Y-22313081D01*
X4068369Y-22332129D01*
X4058846Y-22341652D01*
X4039798Y-22351176D01*
X4020750Y-22351176D01*
X4001703Y-22341652D01*
X3992179Y-22332129D01*
X3982655Y-22313081D01*
X3973131Y-22274986D01*
X3973131Y-22227367D01*
X3982655Y-22189271D01*
X3992179Y-22170224D01*
X4001703Y-22160700D01*
X4020750Y-22151176D01*
X4268370Y-22151176D02*
X4173131Y-22151176D01*
X4163608Y-22246414D01*
X4173131Y-22236890D01*
X4192179Y-22227367D01*
X4239798Y-22227367D01*
X4258846Y-22236890D01*
X4268370Y-22246414D01*
X4277893Y-22265462D01*
X4277893Y-22313081D01*
X4268370Y-22332129D01*
X4258846Y-22341652D01*
X4239798Y-22351176D01*
X4192179Y-22351176D01*
X4173131Y-22341652D01*
X4163608Y-22332129D01*
X4468370Y-22351176D02*
X4354084Y-22351176D01*
X4411227Y-22351176D02*
X4411227Y-22151176D01*
X4392179Y-22179748D01*
X4373131Y-22198795D01*
X4354084Y-22208319D01*
X4544560Y-22170224D02*
X4554084Y-22160700D01*
X4573131Y-22151176D01*
X4620750Y-22151176D01*
X4639798Y-22160700D01*
X4649322Y-22170224D01*
X4658846Y-22189271D01*
X4658846Y-22208319D01*
X4649322Y-22236890D01*
X4535036Y-22351176D01*
X4658846Y-22351176D01*
X4735036Y-22151176D02*
X4735036Y-22189271D01*
X4811227Y-22151176D02*
X4811227Y-22189271D01*
X5106465Y-22427367D02*
X5096941Y-22417843D01*
X5077893Y-22389271D01*
X5068370Y-22370224D01*
X5058846Y-22341652D01*
X5049322Y-22294033D01*
X5049322Y-22255938D01*
X5058846Y-22208319D01*
X5068370Y-22179748D01*
X5077893Y-22160700D01*
X5096941Y-22132129D01*
X5106465Y-22122605D01*
X5277893Y-22151176D02*
X5182655Y-22151176D01*
X5173131Y-22246414D01*
X5182655Y-22236890D01*
X5201703Y-22227367D01*
X5249322Y-22227367D01*
X5268370Y-22236890D01*
X5277893Y-22246414D01*
X5287417Y-22265462D01*
X5287417Y-22313081D01*
X5277893Y-22332129D01*
X5268370Y-22341652D01*
X5249322Y-22351176D01*
X5201703Y-22351176D01*
X5182655Y-22341652D01*
X5173131Y-22332129D01*
X5525512Y-22351176D02*
X5525512Y-22151176D01*
X5611227Y-22351176D02*
X5611227Y-22246414D01*
X5601703Y-22227367D01*
X5582655Y-22217843D01*
X5554084Y-22217843D01*
X5535036Y-22227367D01*
X5525512Y-22236890D01*
X5735036Y-22351176D02*
X5715988Y-22341652D01*
X5706465Y-22332129D01*
X5696941Y-22313081D01*
X5696941Y-22255938D01*
X5706465Y-22236890D01*
X5715988Y-22227367D01*
X5735036Y-22217843D01*
X5763608Y-22217843D01*
X5782655Y-22227367D01*
X5792179Y-22236890D01*
X5801703Y-22255938D01*
X5801703Y-22313081D01*
X5792179Y-22332129D01*
X5782655Y-22341652D01*
X5763608Y-22351176D01*
X5735036Y-22351176D01*
X5915988Y-22351176D02*
X5896941Y-22341652D01*
X5887417Y-22322605D01*
X5887417Y-22151176D01*
X6068369Y-22341652D02*
X6049322Y-22351176D01*
X6011227Y-22351176D01*
X5992179Y-22341652D01*
X5982655Y-22322605D01*
X5982655Y-22246414D01*
X5992179Y-22227367D01*
X6011227Y-22217843D01*
X6049322Y-22217843D01*
X6068369Y-22227367D01*
X6077893Y-22246414D01*
X6077893Y-22265462D01*
X5982655Y-22284510D01*
X6154084Y-22341652D02*
X6173131Y-22351176D01*
X6211227Y-22351176D01*
X6230274Y-22341652D01*
X6239798Y-22322605D01*
X6239798Y-22313081D01*
X6230274Y-22294033D01*
X6211227Y-22284510D01*
X6182655Y-22284510D01*
X6163608Y-22274986D01*
X6154084Y-22255938D01*
X6154084Y-22246414D01*
X6163608Y-22227367D01*
X6182655Y-22217843D01*
X6211227Y-22217843D01*
X6230274Y-22227367D01*
X6306465Y-22427367D02*
X6315988Y-22417843D01*
X6335036Y-22389271D01*
X6344560Y-22370224D01*
X6354084Y-22341652D01*
X6363608Y-22294033D01*
X6363608Y-22255938D01*
X6354084Y-22208319D01*
X6344560Y-22179748D01*
X6335036Y-22160700D01*
X6315988Y-22132129D01*
X6306465Y-22122605D01*
D20*
X1454560Y-22444700D02*
X1454560Y-22604700D01*
X1374560Y-22524700D02*
X1534560Y-22524700D01*
X1534560Y-22524700D02*
G75*
G03*
X1534560Y-22524700I-80000J0D01*
G01*
D11*
X1896941Y-22615176D02*
X1782655Y-22615176D01*
X1839798Y-22615176D02*
X1839798Y-22415176D01*
X1820750Y-22443748D01*
X1801703Y-22462795D01*
X1782655Y-22472319D01*
X1982655Y-22596128D02*
X1992179Y-22605652D01*
X1982655Y-22615176D01*
X1973131Y-22605652D01*
X1982655Y-22596128D01*
X1982655Y-22615176D01*
X2163608Y-22415176D02*
X2125512Y-22415176D01*
X2106465Y-22424700D01*
X2096941Y-22434224D01*
X2077893Y-22462795D01*
X2068369Y-22500890D01*
X2068369Y-22577081D01*
X2077893Y-22596128D01*
X2087417Y-22605652D01*
X2106465Y-22615176D01*
X2144560Y-22615176D01*
X2163608Y-22605652D01*
X2173131Y-22596128D01*
X2182655Y-22577081D01*
X2182655Y-22529462D01*
X2173131Y-22510414D01*
X2163608Y-22500890D01*
X2144560Y-22491367D01*
X2106465Y-22491367D01*
X2087417Y-22500890D01*
X2077893Y-22510414D01*
X2068369Y-22529462D01*
X2306465Y-22415176D02*
X2325512Y-22415176D01*
X2344560Y-22424700D01*
X2354084Y-22434224D01*
X2363608Y-22453271D01*
X2373131Y-22491367D01*
X2373131Y-22538986D01*
X2363608Y-22577081D01*
X2354084Y-22596128D01*
X2344560Y-22605652D01*
X2325512Y-22615176D01*
X2306465Y-22615176D01*
X2287417Y-22605652D01*
X2277893Y-22596128D01*
X2268370Y-22577081D01*
X2258846Y-22538986D01*
X2258846Y-22491367D01*
X2268370Y-22453271D01*
X2277893Y-22434224D01*
X2287417Y-22424700D01*
X2306465Y-22415176D01*
X2496941Y-22415176D02*
X2515989Y-22415176D01*
X2535036Y-22424700D01*
X2544560Y-22434224D01*
X2554084Y-22453271D01*
X2563608Y-22491367D01*
X2563608Y-22538986D01*
X2554084Y-22577081D01*
X2544560Y-22596128D01*
X2535036Y-22605652D01*
X2515989Y-22615176D01*
X2496941Y-22615176D01*
X2477893Y-22605652D01*
X2468370Y-22596128D01*
X2458846Y-22577081D01*
X2449322Y-22538986D01*
X2449322Y-22491367D01*
X2458846Y-22453271D01*
X2468370Y-22434224D01*
X2477893Y-22424700D01*
X2496941Y-22415176D01*
X2649322Y-22615176D02*
X2649322Y-22481843D01*
X2649322Y-22500890D02*
X2658846Y-22491367D01*
X2677893Y-22481843D01*
X2706465Y-22481843D01*
X2725512Y-22491367D01*
X2735036Y-22510414D01*
X2735036Y-22615176D01*
X2735036Y-22510414D02*
X2744560Y-22491367D01*
X2763608Y-22481843D01*
X2792179Y-22481843D01*
X2811227Y-22491367D01*
X2820750Y-22510414D01*
X2820750Y-22615176D01*
X2915988Y-22615176D02*
X2915988Y-22481843D01*
X2915988Y-22500890D02*
X2925512Y-22491367D01*
X2944560Y-22481843D01*
X2973131Y-22481843D01*
X2992179Y-22491367D01*
X3001703Y-22510414D01*
X3001703Y-22615176D01*
X3001703Y-22510414D02*
X3011227Y-22491367D01*
X3030274Y-22481843D01*
X3058846Y-22481843D01*
X3077893Y-22491367D01*
X3087417Y-22510414D01*
X3087417Y-22615176D01*
X3477893Y-22405652D02*
X3306465Y-22662795D01*
X3735036Y-22415176D02*
X3754084Y-22415176D01*
X3773131Y-22424700D01*
X3782655Y-22434224D01*
X3792179Y-22453271D01*
X3801703Y-22491367D01*
X3801703Y-22538986D01*
X3792179Y-22577081D01*
X3782655Y-22596128D01*
X3773131Y-22605652D01*
X3754084Y-22615176D01*
X3735036Y-22615176D01*
X3715988Y-22605652D01*
X3706465Y-22596128D01*
X3696941Y-22577081D01*
X3687417Y-22538986D01*
X3687417Y-22491367D01*
X3696941Y-22453271D01*
X3706465Y-22434224D01*
X3715988Y-22424700D01*
X3735036Y-22415176D01*
X3887417Y-22596128D02*
X3896941Y-22605652D01*
X3887417Y-22615176D01*
X3877893Y-22605652D01*
X3887417Y-22596128D01*
X3887417Y-22615176D01*
X4020750Y-22415176D02*
X4039798Y-22415176D01*
X4058846Y-22424700D01*
X4068369Y-22434224D01*
X4077893Y-22453271D01*
X4087417Y-22491367D01*
X4087417Y-22538986D01*
X4077893Y-22577081D01*
X4068369Y-22596128D01*
X4058846Y-22605652D01*
X4039798Y-22615176D01*
X4020750Y-22615176D01*
X4001703Y-22605652D01*
X3992179Y-22596128D01*
X3982655Y-22577081D01*
X3973131Y-22538986D01*
X3973131Y-22491367D01*
X3982655Y-22453271D01*
X3992179Y-22434224D01*
X4001703Y-22424700D01*
X4020750Y-22415176D01*
X4258846Y-22415176D02*
X4220750Y-22415176D01*
X4201703Y-22424700D01*
X4192179Y-22434224D01*
X4173131Y-22462795D01*
X4163608Y-22500890D01*
X4163608Y-22577081D01*
X4173131Y-22596128D01*
X4182655Y-22605652D01*
X4201703Y-22615176D01*
X4239798Y-22615176D01*
X4258846Y-22605652D01*
X4268370Y-22596128D01*
X4277893Y-22577081D01*
X4277893Y-22529462D01*
X4268370Y-22510414D01*
X4258846Y-22500890D01*
X4239798Y-22491367D01*
X4201703Y-22491367D01*
X4182655Y-22500890D01*
X4173131Y-22510414D01*
X4163608Y-22529462D01*
X4344560Y-22415176D02*
X4468370Y-22415176D01*
X4401703Y-22491367D01*
X4430274Y-22491367D01*
X4449322Y-22500890D01*
X4458846Y-22510414D01*
X4468370Y-22529462D01*
X4468370Y-22577081D01*
X4458846Y-22596128D01*
X4449322Y-22605652D01*
X4430274Y-22615176D01*
X4373131Y-22615176D01*
X4354084Y-22605652D01*
X4344560Y-22596128D01*
X4592179Y-22415176D02*
X4611227Y-22415176D01*
X4630274Y-22424700D01*
X4639798Y-22434224D01*
X4649322Y-22453271D01*
X4658846Y-22491367D01*
X4658846Y-22538986D01*
X4649322Y-22577081D01*
X4639798Y-22596128D01*
X4630274Y-22605652D01*
X4611227Y-22615176D01*
X4592179Y-22615176D01*
X4573131Y-22605652D01*
X4563608Y-22596128D01*
X4554084Y-22577081D01*
X4544560Y-22538986D01*
X4544560Y-22491367D01*
X4554084Y-22453271D01*
X4563608Y-22434224D01*
X4573131Y-22424700D01*
X4592179Y-22415176D01*
X4735036Y-22415176D02*
X4735036Y-22453271D01*
X4811227Y-22415176D02*
X4811227Y-22453271D01*
X5106465Y-22691367D02*
X5096941Y-22681843D01*
X5077893Y-22653271D01*
X5068370Y-22634224D01*
X5058846Y-22605652D01*
X5049322Y-22558033D01*
X5049322Y-22519938D01*
X5058846Y-22472319D01*
X5068370Y-22443748D01*
X5077893Y-22424700D01*
X5096941Y-22396128D01*
X5106465Y-22386605D01*
X5268370Y-22481843D02*
X5268370Y-22615176D01*
X5220750Y-22405652D02*
X5173131Y-22548509D01*
X5296941Y-22548509D01*
X5525512Y-22615176D02*
X5525512Y-22415176D01*
X5611227Y-22615176D02*
X5611227Y-22510414D01*
X5601703Y-22491367D01*
X5582655Y-22481843D01*
X5554084Y-22481843D01*
X5535036Y-22491367D01*
X5525512Y-22500890D01*
X5735036Y-22615176D02*
X5715988Y-22605652D01*
X5706465Y-22596128D01*
X5696941Y-22577081D01*
X5696941Y-22519938D01*
X5706465Y-22500890D01*
X5715988Y-22491367D01*
X5735036Y-22481843D01*
X5763608Y-22481843D01*
X5782655Y-22491367D01*
X5792179Y-22500890D01*
X5801703Y-22519938D01*
X5801703Y-22577081D01*
X5792179Y-22596128D01*
X5782655Y-22605652D01*
X5763608Y-22615176D01*
X5735036Y-22615176D01*
X5915988Y-22615176D02*
X5896941Y-22605652D01*
X5887417Y-22586605D01*
X5887417Y-22415176D01*
X6068369Y-22605652D02*
X6049322Y-22615176D01*
X6011227Y-22615176D01*
X5992179Y-22605652D01*
X5982655Y-22586605D01*
X5982655Y-22510414D01*
X5992179Y-22491367D01*
X6011227Y-22481843D01*
X6049322Y-22481843D01*
X6068369Y-22491367D01*
X6077893Y-22510414D01*
X6077893Y-22529462D01*
X5982655Y-22548509D01*
X6154084Y-22605652D02*
X6173131Y-22615176D01*
X6211227Y-22615176D01*
X6230274Y-22605652D01*
X6239798Y-22586605D01*
X6239798Y-22577081D01*
X6230274Y-22558033D01*
X6211227Y-22548509D01*
X6182655Y-22548509D01*
X6163608Y-22538986D01*
X6154084Y-22519938D01*
X6154084Y-22510414D01*
X6163608Y-22491367D01*
X6182655Y-22481843D01*
X6211227Y-22481843D01*
X6230274Y-22491367D01*
X6306465Y-22691367D02*
X6315988Y-22681843D01*
X6335036Y-22653271D01*
X6344560Y-22634224D01*
X6354084Y-22605652D01*
X6363608Y-22558033D01*
X6363608Y-22519938D01*
X6354084Y-22472319D01*
X6344560Y-22443748D01*
X6335036Y-22424700D01*
X6315988Y-22396128D01*
X6306465Y-22386605D01*
X1505271Y-22875411D02*
X1505271Y-22733989D01*
X1363849Y-22733989D01*
X1363849Y-22875411D01*
X1505271Y-22875411D01*
X1534560Y-22804700D02*
G75*
G03*
X1534560Y-22804700I-100000J0D01*
G01*
X1773131Y-22695176D02*
X1896941Y-22695176D01*
X1830274Y-22771367D01*
X1858846Y-22771367D01*
X1877893Y-22780890D01*
X1887417Y-22790414D01*
X1896941Y-22809462D01*
X1896941Y-22857081D01*
X1887417Y-22876128D01*
X1877893Y-22885652D01*
X1858846Y-22895176D01*
X1801703Y-22895176D01*
X1782655Y-22885652D01*
X1773131Y-22876128D01*
X1982655Y-22876128D02*
X1992179Y-22885652D01*
X1982655Y-22895176D01*
X1973131Y-22885652D01*
X1982655Y-22876128D01*
X1982655Y-22895176D01*
X2068369Y-22714224D02*
X2077893Y-22704700D01*
X2096941Y-22695176D01*
X2144560Y-22695176D01*
X2163608Y-22704700D01*
X2173131Y-22714224D01*
X2182655Y-22733271D01*
X2182655Y-22752319D01*
X2173131Y-22780890D01*
X2058846Y-22895176D01*
X2182655Y-22895176D01*
X2306465Y-22695176D02*
X2325512Y-22695176D01*
X2344560Y-22704700D01*
X2354084Y-22714224D01*
X2363608Y-22733271D01*
X2373131Y-22771367D01*
X2373131Y-22818986D01*
X2363608Y-22857081D01*
X2354084Y-22876128D01*
X2344560Y-22885652D01*
X2325512Y-22895176D01*
X2306465Y-22895176D01*
X2287417Y-22885652D01*
X2277893Y-22876128D01*
X2268370Y-22857081D01*
X2258846Y-22818986D01*
X2258846Y-22771367D01*
X2268370Y-22733271D01*
X2277893Y-22714224D01*
X2287417Y-22704700D01*
X2306465Y-22695176D01*
X2496941Y-22695176D02*
X2515989Y-22695176D01*
X2535036Y-22704700D01*
X2544560Y-22714224D01*
X2554084Y-22733271D01*
X2563608Y-22771367D01*
X2563608Y-22818986D01*
X2554084Y-22857081D01*
X2544560Y-22876128D01*
X2535036Y-22885652D01*
X2515989Y-22895176D01*
X2496941Y-22895176D01*
X2477893Y-22885652D01*
X2468370Y-22876128D01*
X2458846Y-22857081D01*
X2449322Y-22818986D01*
X2449322Y-22771367D01*
X2458846Y-22733271D01*
X2468370Y-22714224D01*
X2477893Y-22704700D01*
X2496941Y-22695176D01*
X2649322Y-22895176D02*
X2649322Y-22761843D01*
X2649322Y-22780890D02*
X2658846Y-22771367D01*
X2677893Y-22761843D01*
X2706465Y-22761843D01*
X2725512Y-22771367D01*
X2735036Y-22790414D01*
X2735036Y-22895176D01*
X2735036Y-22790414D02*
X2744560Y-22771367D01*
X2763608Y-22761843D01*
X2792179Y-22761843D01*
X2811227Y-22771367D01*
X2820750Y-22790414D01*
X2820750Y-22895176D01*
X2915988Y-22895176D02*
X2915988Y-22761843D01*
X2915988Y-22780890D02*
X2925512Y-22771367D01*
X2944560Y-22761843D01*
X2973131Y-22761843D01*
X2992179Y-22771367D01*
X3001703Y-22790414D01*
X3001703Y-22895176D01*
X3001703Y-22790414D02*
X3011227Y-22771367D01*
X3030274Y-22761843D01*
X3058846Y-22761843D01*
X3077893Y-22771367D01*
X3087417Y-22790414D01*
X3087417Y-22895176D01*
X3477893Y-22685652D02*
X3306465Y-22942795D01*
X3735036Y-22695176D02*
X3754084Y-22695176D01*
X3773131Y-22704700D01*
X3782655Y-22714224D01*
X3792179Y-22733271D01*
X3801703Y-22771367D01*
X3801703Y-22818986D01*
X3792179Y-22857081D01*
X3782655Y-22876128D01*
X3773131Y-22885652D01*
X3754084Y-22895176D01*
X3735036Y-22895176D01*
X3715988Y-22885652D01*
X3706465Y-22876128D01*
X3696941Y-22857081D01*
X3687417Y-22818986D01*
X3687417Y-22771367D01*
X3696941Y-22733271D01*
X3706465Y-22714224D01*
X3715988Y-22704700D01*
X3735036Y-22695176D01*
X3887417Y-22876128D02*
X3896941Y-22885652D01*
X3887417Y-22895176D01*
X3877893Y-22885652D01*
X3887417Y-22876128D01*
X3887417Y-22895176D01*
X4087417Y-22895176D02*
X3973131Y-22895176D01*
X4030274Y-22895176D02*
X4030274Y-22695176D01*
X4011227Y-22723748D01*
X3992179Y-22742795D01*
X3973131Y-22752319D01*
X4163608Y-22714224D02*
X4173131Y-22704700D01*
X4192179Y-22695176D01*
X4239798Y-22695176D01*
X4258846Y-22704700D01*
X4268370Y-22714224D01*
X4277893Y-22733271D01*
X4277893Y-22752319D01*
X4268370Y-22780890D01*
X4154084Y-22895176D01*
X4277893Y-22895176D01*
X4449322Y-22695176D02*
X4411227Y-22695176D01*
X4392179Y-22704700D01*
X4382655Y-22714224D01*
X4363608Y-22742795D01*
X4354084Y-22780890D01*
X4354084Y-22857081D01*
X4363608Y-22876128D01*
X4373131Y-22885652D01*
X4392179Y-22895176D01*
X4430274Y-22895176D01*
X4449322Y-22885652D01*
X4458846Y-22876128D01*
X4468370Y-22857081D01*
X4468370Y-22809462D01*
X4458846Y-22790414D01*
X4449322Y-22780890D01*
X4430274Y-22771367D01*
X4392179Y-22771367D01*
X4373131Y-22780890D01*
X4363608Y-22790414D01*
X4354084Y-22809462D01*
X4592179Y-22695176D02*
X4611227Y-22695176D01*
X4630274Y-22704700D01*
X4639798Y-22714224D01*
X4649322Y-22733271D01*
X4658846Y-22771367D01*
X4658846Y-22818986D01*
X4649322Y-22857081D01*
X4639798Y-22876128D01*
X4630274Y-22885652D01*
X4611227Y-22895176D01*
X4592179Y-22895176D01*
X4573131Y-22885652D01*
X4563608Y-22876128D01*
X4554084Y-22857081D01*
X4544560Y-22818986D01*
X4544560Y-22771367D01*
X4554084Y-22733271D01*
X4563608Y-22714224D01*
X4573131Y-22704700D01*
X4592179Y-22695176D01*
X4735036Y-22695176D02*
X4735036Y-22733271D01*
X4811227Y-22695176D02*
X4811227Y-22733271D01*
X5106465Y-22971367D02*
X5096941Y-22961843D01*
X5077893Y-22933271D01*
X5068370Y-22914224D01*
X5058846Y-22885652D01*
X5049322Y-22838033D01*
X5049322Y-22799938D01*
X5058846Y-22752319D01*
X5068370Y-22723748D01*
X5077893Y-22704700D01*
X5096941Y-22676128D01*
X5106465Y-22666605D01*
X5268370Y-22761843D02*
X5268370Y-22895176D01*
X5220750Y-22685652D02*
X5173131Y-22828509D01*
X5296941Y-22828509D01*
X5525512Y-22895176D02*
X5525512Y-22695176D01*
X5611227Y-22895176D02*
X5611227Y-22790414D01*
X5601703Y-22771367D01*
X5582655Y-22761843D01*
X5554084Y-22761843D01*
X5535036Y-22771367D01*
X5525512Y-22780890D01*
X5735036Y-22895176D02*
X5715988Y-22885652D01*
X5706465Y-22876128D01*
X5696941Y-22857081D01*
X5696941Y-22799938D01*
X5706465Y-22780890D01*
X5715988Y-22771367D01*
X5735036Y-22761843D01*
X5763608Y-22761843D01*
X5782655Y-22771367D01*
X5792179Y-22780890D01*
X5801703Y-22799938D01*
X5801703Y-22857081D01*
X5792179Y-22876128D01*
X5782655Y-22885652D01*
X5763608Y-22895176D01*
X5735036Y-22895176D01*
X5915988Y-22895176D02*
X5896941Y-22885652D01*
X5887417Y-22866605D01*
X5887417Y-22695176D01*
X6068369Y-22885652D02*
X6049322Y-22895176D01*
X6011227Y-22895176D01*
X5992179Y-22885652D01*
X5982655Y-22866605D01*
X5982655Y-22790414D01*
X5992179Y-22771367D01*
X6011227Y-22761843D01*
X6049322Y-22761843D01*
X6068369Y-22771367D01*
X6077893Y-22790414D01*
X6077893Y-22809462D01*
X5982655Y-22828509D01*
X6154084Y-22885652D02*
X6173131Y-22895176D01*
X6211227Y-22895176D01*
X6230274Y-22885652D01*
X6239798Y-22866605D01*
X6239798Y-22857081D01*
X6230274Y-22838033D01*
X6211227Y-22828509D01*
X6182655Y-22828509D01*
X6163608Y-22818986D01*
X6154084Y-22799938D01*
X6154084Y-22790414D01*
X6163608Y-22771367D01*
X6182655Y-22761843D01*
X6211227Y-22761843D01*
X6230274Y-22771367D01*
X6306465Y-22971367D02*
X6315988Y-22961843D01*
X6335036Y-22933271D01*
X6344560Y-22914224D01*
X6354084Y-22885652D01*
X6363608Y-22838033D01*
X6363608Y-22799938D01*
X6354084Y-22752319D01*
X6344560Y-22723748D01*
X6335036Y-22704700D01*
X6315988Y-22676128D01*
X6306465Y-22666605D01*
M02*
