%TF.GenerationSoftware,KiCad,Pcbnew,(6.0.11)*%
%TF.CreationDate,2024-04-30T16:24:35+07:00*%
%TF.ProjectId,Oxygen Monitoring,4f787967-656e-4204-9d6f-6e69746f7269,rev?*%
%TF.SameCoordinates,Original*%
%TF.FileFunction,Legend,Top*%
%TF.FilePolarity,Positive*%
%FSLAX46Y46*%
G04 Gerber Fmt 4.6, Leading zero omitted, Abs format (unit mm)*
G04 Created by KiCad (PCBNEW (6.0.11)) date 2024-04-30 16:24:35*
%MOMM*%
%LPD*%
G01*
G04 APERTURE LIST*
%ADD10C,0.150000*%
%ADD11C,0.120000*%
G04 APERTURE END LIST*
D10*
X82802380Y-161238095D02*
X82802380Y-160666666D01*
X83802380Y-160952380D02*
X82802380Y-160952380D01*
X82802380Y-160428571D02*
X83802380Y-159761904D01*
X82802380Y-159761904D02*
X83802380Y-160428571D01*
X83421428Y-159380952D02*
X83421428Y-158619047D01*
X83802380Y-157666666D02*
X83802380Y-158142857D01*
X82802380Y-158142857D01*
X83278571Y-157333333D02*
X83278571Y-157000000D01*
X83802380Y-156857142D02*
X83802380Y-157333333D01*
X82802380Y-157333333D01*
X82802380Y-156857142D01*
X83802380Y-156428571D02*
X82802380Y-156428571D01*
X82802380Y-156190476D01*
X82850000Y-156047619D01*
X82945238Y-155952380D01*
X83040476Y-155904761D01*
X83230952Y-155857142D01*
X83373809Y-155857142D01*
X83564285Y-155904761D01*
X83659523Y-155952380D01*
X83754761Y-156047619D01*
X83802380Y-156190476D01*
X83802380Y-156428571D01*
X83752380Y-143142857D02*
X83276190Y-143476190D01*
X83752380Y-143714285D02*
X82752380Y-143714285D01*
X82752380Y-143333333D01*
X82800000Y-143238095D01*
X82847619Y-143190476D01*
X82942857Y-143142857D01*
X83085714Y-143142857D01*
X83180952Y-143190476D01*
X83228571Y-143238095D01*
X83276190Y-143333333D01*
X83276190Y-143714285D01*
X82752380Y-142809523D02*
X83752380Y-142142857D01*
X82752380Y-142142857D02*
X83752380Y-142809523D01*
X83371428Y-141761904D02*
X83371428Y-141000000D01*
X83752380Y-140047619D02*
X83752380Y-140523809D01*
X82752380Y-140523809D01*
X83228571Y-139714285D02*
X83228571Y-139380952D01*
X83752380Y-139238095D02*
X83752380Y-139714285D01*
X82752380Y-139714285D01*
X82752380Y-139238095D01*
X83752380Y-138809523D02*
X82752380Y-138809523D01*
X82752380Y-138571428D01*
X82800000Y-138428571D01*
X82895238Y-138333333D01*
X82990476Y-138285714D01*
X83180952Y-138238095D01*
X83323809Y-138238095D01*
X83514285Y-138285714D01*
X83609523Y-138333333D01*
X83704761Y-138428571D01*
X83752380Y-138571428D01*
X83752380Y-138809523D01*
X83866666Y-193726190D02*
X83866666Y-193250000D01*
X84152380Y-193821428D02*
X83152380Y-193488095D01*
X84152380Y-193154761D01*
X84057142Y-192250000D02*
X84104761Y-192297619D01*
X84152380Y-192440476D01*
X84152380Y-192535714D01*
X84104761Y-192678571D01*
X84009523Y-192773809D01*
X83914285Y-192821428D01*
X83723809Y-192869047D01*
X83580952Y-192869047D01*
X83390476Y-192821428D01*
X83295238Y-192773809D01*
X83200000Y-192678571D01*
X83152380Y-192535714D01*
X83152380Y-192440476D01*
X83200000Y-192297619D01*
X83247619Y-192250000D01*
X83152380Y-191964285D02*
X83152380Y-191392857D01*
X84152380Y-191678571D02*
X83152380Y-191678571D01*
X84152380Y-190583333D02*
X84152380Y-191059523D01*
X83152380Y-191059523D01*
X83628571Y-190250000D02*
X83628571Y-189916666D01*
X84152380Y-189773809D02*
X84152380Y-190250000D01*
X83152380Y-190250000D01*
X83152380Y-189773809D01*
X84152380Y-189345238D02*
X83152380Y-189345238D01*
X83152380Y-189107142D01*
X83200000Y-188964285D01*
X83295238Y-188869047D01*
X83390476Y-188821428D01*
X83580952Y-188773809D01*
X83723809Y-188773809D01*
X83914285Y-188821428D01*
X84009523Y-188869047D01*
X84104761Y-188964285D01*
X84152380Y-189107142D01*
X84152380Y-189345238D01*
X75702380Y-193742857D02*
X74702380Y-193742857D01*
X74702380Y-193504761D01*
X74750000Y-193361904D01*
X74845238Y-193266666D01*
X74940476Y-193219047D01*
X75130952Y-193171428D01*
X75273809Y-193171428D01*
X75464285Y-193219047D01*
X75559523Y-193266666D01*
X75654761Y-193361904D01*
X75702380Y-193504761D01*
X75702380Y-193742857D01*
X74702380Y-192742857D02*
X75511904Y-192742857D01*
X75607142Y-192695238D01*
X75654761Y-192647619D01*
X75702380Y-192552380D01*
X75702380Y-192361904D01*
X75654761Y-192266666D01*
X75607142Y-192219047D01*
X75511904Y-192171428D01*
X74702380Y-192171428D01*
X75702380Y-191695238D02*
X74702380Y-191695238D01*
X74702380Y-191314285D01*
X74750000Y-191219047D01*
X74797619Y-191171428D01*
X74892857Y-191123809D01*
X75035714Y-191123809D01*
X75130952Y-191171428D01*
X75178571Y-191219047D01*
X75226190Y-191314285D01*
X75226190Y-191695238D01*
X75702380Y-190219047D02*
X75702380Y-190695238D01*
X74702380Y-190695238D01*
X75178571Y-189885714D02*
X75178571Y-189552380D01*
X75702380Y-189409523D02*
X75702380Y-189885714D01*
X74702380Y-189885714D01*
X74702380Y-189409523D01*
X75702380Y-188980952D02*
X74702380Y-188980952D01*
X74702380Y-188742857D01*
X74750000Y-188600000D01*
X74845238Y-188504761D01*
X74940476Y-188457142D01*
X75130952Y-188409523D01*
X75273809Y-188409523D01*
X75464285Y-188457142D01*
X75559523Y-188504761D01*
X75654761Y-188600000D01*
X75702380Y-188742857D01*
X75702380Y-188980952D01*
X67502380Y-193559523D02*
X67502380Y-194035714D01*
X66502380Y-194035714D01*
X67502380Y-193226190D02*
X66502380Y-193226190D01*
X67502380Y-192750000D02*
X66502380Y-192750000D01*
X67502380Y-192178571D01*
X66502380Y-192178571D01*
X67502380Y-191702380D02*
X66502380Y-191702380D01*
X67502380Y-191130952D02*
X66930952Y-191559523D01*
X66502380Y-191130952D02*
X67073809Y-191702380D01*
X67502380Y-190226190D02*
X67502380Y-190702380D01*
X66502380Y-190702380D01*
X66978571Y-189892857D02*
X66978571Y-189559523D01*
X67502380Y-189416666D02*
X67502380Y-189892857D01*
X66502380Y-189892857D01*
X66502380Y-189416666D01*
X67502380Y-188988095D02*
X66502380Y-188988095D01*
X66502380Y-188750000D01*
X66550000Y-188607142D01*
X66645238Y-188511904D01*
X66740476Y-188464285D01*
X66930952Y-188416666D01*
X67073809Y-188416666D01*
X67264285Y-188464285D01*
X67359523Y-188511904D01*
X67454761Y-188607142D01*
X67502380Y-188750000D01*
X67502380Y-188988095D01*
X59604761Y-193792857D02*
X59652380Y-193650000D01*
X59652380Y-193411904D01*
X59604761Y-193316666D01*
X59557142Y-193269047D01*
X59461904Y-193221428D01*
X59366666Y-193221428D01*
X59271428Y-193269047D01*
X59223809Y-193316666D01*
X59176190Y-193411904D01*
X59128571Y-193602380D01*
X59080952Y-193697619D01*
X59033333Y-193745238D01*
X58938095Y-193792857D01*
X58842857Y-193792857D01*
X58747619Y-193745238D01*
X58700000Y-193697619D01*
X58652380Y-193602380D01*
X58652380Y-193364285D01*
X58700000Y-193221428D01*
X59652380Y-192792857D02*
X58652380Y-192792857D01*
X58652380Y-192411904D01*
X58700000Y-192316666D01*
X58747619Y-192269047D01*
X58842857Y-192221428D01*
X58985714Y-192221428D01*
X59080952Y-192269047D01*
X59128571Y-192316666D01*
X59176190Y-192411904D01*
X59176190Y-192792857D01*
X59652380Y-191792857D02*
X58652380Y-191792857D01*
X58652380Y-191554761D01*
X58700000Y-191411904D01*
X58795238Y-191316666D01*
X58890476Y-191269047D01*
X59080952Y-191221428D01*
X59223809Y-191221428D01*
X59414285Y-191269047D01*
X59509523Y-191316666D01*
X59604761Y-191411904D01*
X59652380Y-191554761D01*
X59652380Y-191792857D01*
X59652380Y-190316666D02*
X59652380Y-190792857D01*
X58652380Y-190792857D01*
X59128571Y-189983333D02*
X59128571Y-189650000D01*
X59652380Y-189507142D02*
X59652380Y-189983333D01*
X58652380Y-189983333D01*
X58652380Y-189507142D01*
X59652380Y-189078571D02*
X58652380Y-189078571D01*
X58652380Y-188840476D01*
X58700000Y-188697619D01*
X58795238Y-188602380D01*
X58890476Y-188554761D01*
X59080952Y-188507142D01*
X59223809Y-188507142D01*
X59414285Y-188554761D01*
X59509523Y-188602380D01*
X59604761Y-188697619D01*
X59652380Y-188840476D01*
X59652380Y-189078571D01*
X45600000Y-139650000D02*
X45600000Y-135400000D01*
X44000000Y-139650000D02*
X45600000Y-139650000D01*
X36200000Y-135375000D02*
X34600000Y-135375000D01*
X45600000Y-135400000D02*
X44000000Y-135400000D01*
X45600000Y-137500000D02*
X46400000Y-137500000D01*
X33800000Y-137500000D02*
X34600000Y-137500000D01*
X34600000Y-135375000D02*
X34600000Y-139625000D01*
X34600000Y-139625000D02*
X36200000Y-139625000D01*
X69980952Y-136128571D02*
X69219047Y-136128571D01*
X74095238Y-138138095D02*
X74047619Y-138280952D01*
X74047619Y-138519047D01*
X74095238Y-138614285D01*
X74142857Y-138661904D01*
X74238095Y-138709523D01*
X74333333Y-138709523D01*
X74428571Y-138661904D01*
X74476190Y-138614285D01*
X74523809Y-138519047D01*
X74571428Y-138328571D01*
X74619047Y-138233333D01*
X74666666Y-138185714D01*
X74761904Y-138138095D01*
X74857142Y-138138095D01*
X74952380Y-138185714D01*
X75000000Y-138233333D01*
X75047619Y-138328571D01*
X75047619Y-138566666D01*
X75000000Y-138709523D01*
X75047619Y-139042857D02*
X74047619Y-139280952D01*
X74761904Y-139471428D01*
X74047619Y-139661904D01*
X75047619Y-139900000D01*
X74142857Y-140852380D02*
X74095238Y-140804761D01*
X74047619Y-140661904D01*
X74047619Y-140566666D01*
X74095238Y-140423809D01*
X74190476Y-140328571D01*
X74285714Y-140280952D01*
X74476190Y-140233333D01*
X74619047Y-140233333D01*
X74809523Y-140280952D01*
X74904761Y-140328571D01*
X75000000Y-140423809D01*
X75047619Y-140566666D01*
X75047619Y-140661904D01*
X75000000Y-140804761D01*
X74952380Y-140852380D01*
X74047619Y-141757142D02*
X74047619Y-141280952D01*
X75047619Y-141280952D01*
X74047619Y-142090476D02*
X75047619Y-142090476D01*
X74047619Y-142661904D02*
X74619047Y-142233333D01*
X75047619Y-142661904D02*
X74476190Y-142090476D01*
X28504761Y-155152380D02*
X28028571Y-155152380D01*
X28028571Y-154152380D01*
X28838095Y-154628571D02*
X29171428Y-154628571D01*
X29314285Y-155152380D02*
X28838095Y-155152380D01*
X28838095Y-154152380D01*
X29314285Y-154152380D01*
X29742857Y-155152380D02*
X29742857Y-154152380D01*
X29980952Y-154152380D01*
X30123809Y-154200000D01*
X30219047Y-154295238D01*
X30266666Y-154390476D01*
X30314285Y-154580952D01*
X30314285Y-154723809D01*
X30266666Y-154914285D01*
X30219047Y-155009523D01*
X30123809Y-155104761D01*
X29980952Y-155152380D01*
X29742857Y-155152380D01*
X31838095Y-154628571D02*
X31980952Y-154676190D01*
X32028571Y-154723809D01*
X32076190Y-154819047D01*
X32076190Y-154961904D01*
X32028571Y-155057142D01*
X31980952Y-155104761D01*
X31885714Y-155152380D01*
X31504761Y-155152380D01*
X31504761Y-154152380D01*
X31838095Y-154152380D01*
X31933333Y-154200000D01*
X31980952Y-154247619D01*
X32028571Y-154342857D01*
X32028571Y-154438095D01*
X31980952Y-154533333D01*
X31933333Y-154580952D01*
X31838095Y-154628571D01*
X31504761Y-154628571D01*
X32504761Y-154152380D02*
X32504761Y-154961904D01*
X32552380Y-155057142D01*
X32600000Y-155104761D01*
X32695238Y-155152380D01*
X32885714Y-155152380D01*
X32980952Y-155104761D01*
X33028571Y-155057142D01*
X33076190Y-154961904D01*
X33076190Y-154152380D01*
X34028571Y-155152380D02*
X33552380Y-155152380D01*
X33552380Y-154152380D01*
X34219047Y-154152380D02*
X34790476Y-154152380D01*
X34504761Y-155152380D02*
X34504761Y-154152380D01*
X35123809Y-155152380D02*
X35123809Y-154152380D01*
X35600000Y-155152380D02*
X35600000Y-154152380D01*
X36171428Y-155152380D01*
X36171428Y-154152380D01*
X76695238Y-138180952D02*
X76647619Y-138323809D01*
X76647619Y-138561904D01*
X76695238Y-138657142D01*
X76742857Y-138704761D01*
X76838095Y-138752380D01*
X76933333Y-138752380D01*
X77028571Y-138704761D01*
X77076190Y-138657142D01*
X77123809Y-138561904D01*
X77171428Y-138371428D01*
X77219047Y-138276190D01*
X77266666Y-138228571D01*
X77361904Y-138180952D01*
X77457142Y-138180952D01*
X77552380Y-138228571D01*
X77600000Y-138276190D01*
X77647619Y-138371428D01*
X77647619Y-138609523D01*
X77600000Y-138752380D01*
X77647619Y-139085714D02*
X76647619Y-139323809D01*
X77361904Y-139514285D01*
X76647619Y-139704761D01*
X77647619Y-139942857D01*
X76647619Y-140323809D02*
X77647619Y-140323809D01*
X77647619Y-140561904D01*
X77600000Y-140704761D01*
X77504761Y-140800000D01*
X77409523Y-140847619D01*
X77219047Y-140895238D01*
X77076190Y-140895238D01*
X76885714Y-140847619D01*
X76790476Y-140800000D01*
X76695238Y-140704761D01*
X76647619Y-140561904D01*
X76647619Y-140323809D01*
X76647619Y-141323809D02*
X77647619Y-141323809D01*
X77647619Y-141990476D02*
X77647619Y-142180952D01*
X77600000Y-142276190D01*
X77504761Y-142371428D01*
X77314285Y-142419047D01*
X76980952Y-142419047D01*
X76790476Y-142371428D01*
X76695238Y-142276190D01*
X76647619Y-142180952D01*
X76647619Y-141990476D01*
X76695238Y-141895238D01*
X76790476Y-141800000D01*
X76980952Y-141752380D01*
X77314285Y-141752380D01*
X77504761Y-141800000D01*
X77600000Y-141895238D01*
X77647619Y-141990476D01*
X113571428Y-141380952D02*
X113571428Y-140619047D01*
X55309523Y-134552380D02*
X55309523Y-133552380D01*
X55738095Y-133647619D02*
X55785714Y-133600000D01*
X55880952Y-133552380D01*
X56119047Y-133552380D01*
X56214285Y-133600000D01*
X56261904Y-133647619D01*
X56309523Y-133742857D01*
X56309523Y-133838095D01*
X56261904Y-133980952D01*
X55690476Y-134552380D01*
X56309523Y-134552380D01*
X57309523Y-134457142D02*
X57261904Y-134504761D01*
X57119047Y-134552380D01*
X57023809Y-134552380D01*
X56880952Y-134504761D01*
X56785714Y-134409523D01*
X56738095Y-134314285D01*
X56690476Y-134123809D01*
X56690476Y-133980952D01*
X56738095Y-133790476D01*
X56785714Y-133695238D01*
X56880952Y-133600000D01*
X57023809Y-133552380D01*
X57119047Y-133552380D01*
X57261904Y-133600000D01*
X57309523Y-133647619D01*
X58690476Y-133552380D02*
X58880952Y-133552380D01*
X58976190Y-133600000D01*
X59071428Y-133695238D01*
X59119047Y-133885714D01*
X59119047Y-134219047D01*
X59071428Y-134409523D01*
X58976190Y-134504761D01*
X58880952Y-134552380D01*
X58690476Y-134552380D01*
X58595238Y-134504761D01*
X58499999Y-134409523D01*
X58452380Y-134219047D01*
X58452380Y-133885714D01*
X58499999Y-133695238D01*
X58595238Y-133600000D01*
X58690476Y-133552380D01*
X59547619Y-133552380D02*
X59547619Y-134361904D01*
X59595238Y-134457142D01*
X59642857Y-134504761D01*
X59738095Y-134552380D01*
X59928571Y-134552380D01*
X60023809Y-134504761D01*
X60071428Y-134457142D01*
X60119047Y-134361904D01*
X60119047Y-133552380D01*
X60452380Y-133552380D02*
X61023809Y-133552380D01*
X60738095Y-134552380D02*
X60738095Y-133552380D01*
X61357142Y-134552380D02*
X61357142Y-133552380D01*
X61738095Y-133552380D01*
X61833333Y-133600000D01*
X61880952Y-133647619D01*
X61928571Y-133742857D01*
X61928571Y-133885714D01*
X61880952Y-133980952D01*
X61833333Y-134028571D01*
X61738095Y-134076190D01*
X61357142Y-134076190D01*
X62357142Y-133552380D02*
X62357142Y-134361904D01*
X62404761Y-134457142D01*
X62452380Y-134504761D01*
X62547619Y-134552380D01*
X62738095Y-134552380D01*
X62833333Y-134504761D01*
X62880952Y-134457142D01*
X62928571Y-134361904D01*
X62928571Y-133552380D01*
X63261904Y-133552380D02*
X63833333Y-133552380D01*
X63547619Y-134552380D02*
X63547619Y-133552380D01*
X28252380Y-182114285D02*
X27252380Y-182114285D01*
X27252380Y-181733333D01*
X27300000Y-181638095D01*
X27347619Y-181590476D01*
X27442857Y-181542857D01*
X27585714Y-181542857D01*
X27680952Y-181590476D01*
X27728571Y-181638095D01*
X27776190Y-181733333D01*
X27776190Y-182114285D01*
X27252380Y-181209523D02*
X28252380Y-180971428D01*
X27538095Y-180780952D01*
X28252380Y-180590476D01*
X27252380Y-180352380D01*
X28252380Y-179400000D02*
X27776190Y-179733333D01*
X28252380Y-179971428D02*
X27252380Y-179971428D01*
X27252380Y-179590476D01*
X27300000Y-179495238D01*
X27347619Y-179447619D01*
X27442857Y-179400000D01*
X27585714Y-179400000D01*
X27680952Y-179447619D01*
X27728571Y-179495238D01*
X27776190Y-179590476D01*
X27776190Y-179971428D01*
X27871428Y-178971428D02*
X27871428Y-178209523D01*
X28252380Y-177733333D02*
X27252380Y-177733333D01*
X28252380Y-177257142D02*
X27252380Y-177257142D01*
X28252380Y-176685714D01*
X27252380Y-176685714D01*
X21028571Y-172719047D02*
X21028571Y-173480952D01*
X29276190Y-144852380D02*
X29466666Y-144852380D01*
X29561904Y-144900000D01*
X29657142Y-144995238D01*
X29704761Y-145185714D01*
X29704761Y-145519047D01*
X29657142Y-145709523D01*
X29561904Y-145804761D01*
X29466666Y-145852380D01*
X29276190Y-145852380D01*
X29180952Y-145804761D01*
X29085714Y-145709523D01*
X29038095Y-145519047D01*
X29038095Y-145185714D01*
X29085714Y-144995238D01*
X29180952Y-144900000D01*
X29276190Y-144852380D01*
X30133333Y-145852380D02*
X30133333Y-144852380D01*
X30704761Y-145852380D01*
X30704761Y-144852380D01*
X31895238Y-144804761D02*
X31038095Y-146090476D01*
X32419047Y-144852380D02*
X32609523Y-144852380D01*
X32704761Y-144900000D01*
X32800000Y-144995238D01*
X32847619Y-145185714D01*
X32847619Y-145519047D01*
X32800000Y-145709523D01*
X32704761Y-145804761D01*
X32609523Y-145852380D01*
X32419047Y-145852380D01*
X32323809Y-145804761D01*
X32228571Y-145709523D01*
X32180952Y-145519047D01*
X32180952Y-145185714D01*
X32228571Y-144995238D01*
X32323809Y-144900000D01*
X32419047Y-144852380D01*
X33609523Y-145328571D02*
X33276190Y-145328571D01*
X33276190Y-145852380D02*
X33276190Y-144852380D01*
X33752380Y-144852380D01*
X34466666Y-145328571D02*
X34133333Y-145328571D01*
X34133333Y-145852380D02*
X34133333Y-144852380D01*
X34609523Y-144852380D01*
X41933333Y-133871428D02*
X41790476Y-133823809D01*
X41742857Y-133776190D01*
X41695238Y-133680952D01*
X41695238Y-133538095D01*
X41742857Y-133442857D01*
X41790476Y-133395238D01*
X41885714Y-133347619D01*
X42266666Y-133347619D01*
X42266666Y-134347619D01*
X41933333Y-134347619D01*
X41838095Y-134300000D01*
X41790476Y-134252380D01*
X41742857Y-134157142D01*
X41742857Y-134061904D01*
X41790476Y-133966666D01*
X41838095Y-133919047D01*
X41933333Y-133871428D01*
X42266666Y-133871428D01*
X41076190Y-134347619D02*
X40885714Y-134347619D01*
X40790476Y-134300000D01*
X40695238Y-134204761D01*
X40647619Y-134014285D01*
X40647619Y-133680952D01*
X40695238Y-133490476D01*
X40790476Y-133395238D01*
X40885714Y-133347619D01*
X41076190Y-133347619D01*
X41171428Y-133395238D01*
X41266666Y-133490476D01*
X41314285Y-133680952D01*
X41314285Y-134014285D01*
X41266666Y-134204761D01*
X41171428Y-134300000D01*
X41076190Y-134347619D01*
X40028571Y-134347619D02*
X39838095Y-134347619D01*
X39742857Y-134300000D01*
X39647619Y-134204761D01*
X39600000Y-134014285D01*
X39600000Y-133680952D01*
X39647619Y-133490476D01*
X39742857Y-133395238D01*
X39838095Y-133347619D01*
X40028571Y-133347619D01*
X40123809Y-133395238D01*
X40219047Y-133490476D01*
X40266666Y-133680952D01*
X40266666Y-134014285D01*
X40219047Y-134204761D01*
X40123809Y-134300000D01*
X40028571Y-134347619D01*
X39314285Y-134347619D02*
X38742857Y-134347619D01*
X39028571Y-133347619D02*
X39028571Y-134347619D01*
X37885714Y-133347619D02*
X38457142Y-133347619D01*
X38171428Y-133347619D02*
X38171428Y-134347619D01*
X38266666Y-134204761D01*
X38361904Y-134109523D01*
X38457142Y-134061904D01*
X53680952Y-138428571D02*
X52919047Y-138428571D01*
X33352380Y-139072619D02*
X32352380Y-139072619D01*
X32828571Y-139072619D02*
X32828571Y-138501190D01*
X33352380Y-138501190D02*
X32352380Y-138501190D01*
X33352380Y-138025000D02*
X32352380Y-138025000D01*
X32400000Y-137025000D02*
X32352380Y-137120238D01*
X32352380Y-137263095D01*
X32400000Y-137405952D01*
X32495238Y-137501190D01*
X32590476Y-137548809D01*
X32780952Y-137596428D01*
X32923809Y-137596428D01*
X33114285Y-137548809D01*
X33209523Y-137501190D01*
X33304761Y-137405952D01*
X33352380Y-137263095D01*
X33352380Y-137167857D01*
X33304761Y-137025000D01*
X33257142Y-136977380D01*
X32923809Y-136977380D01*
X32923809Y-137167857D01*
X33352380Y-136548809D02*
X32352380Y-136548809D01*
X32828571Y-136548809D02*
X32828571Y-135977380D01*
X33352380Y-135977380D02*
X32352380Y-135977380D01*
X66080952Y-138434571D02*
X65319047Y-138434571D01*
X65700000Y-138053619D02*
X65700000Y-138815523D01*
X82380952Y-136128571D02*
X81619047Y-136128571D01*
X82000000Y-135747619D02*
X82000000Y-136509523D01*
X21480952Y-185428571D02*
X20719047Y-185428571D01*
X21100000Y-185047619D02*
X21100000Y-185809523D01*
X119952380Y-156061904D02*
X118952380Y-156061904D01*
X119666666Y-155728571D01*
X118952380Y-155395238D01*
X119952380Y-155395238D01*
X118952380Y-154728571D02*
X118952380Y-154538095D01*
X119000000Y-154442857D01*
X119095238Y-154347619D01*
X119285714Y-154300000D01*
X119619047Y-154300000D01*
X119809523Y-154347619D01*
X119904761Y-154442857D01*
X119952380Y-154538095D01*
X119952380Y-154728571D01*
X119904761Y-154823809D01*
X119809523Y-154919047D01*
X119619047Y-154966666D01*
X119285714Y-154966666D01*
X119095238Y-154919047D01*
X119000000Y-154823809D01*
X118952380Y-154728571D01*
X119952380Y-153871428D02*
X118952380Y-153871428D01*
X118952380Y-153633333D01*
X119000000Y-153490476D01*
X119095238Y-153395238D01*
X119190476Y-153347619D01*
X119380952Y-153300000D01*
X119523809Y-153300000D01*
X119714285Y-153347619D01*
X119809523Y-153395238D01*
X119904761Y-153490476D01*
X119952380Y-153633333D01*
X119952380Y-153871428D01*
X119428571Y-152538095D02*
X119476190Y-152395238D01*
X119523809Y-152347619D01*
X119619047Y-152300000D01*
X119761904Y-152300000D01*
X119857142Y-152347619D01*
X119904761Y-152395238D01*
X119952380Y-152490476D01*
X119952380Y-152871428D01*
X118952380Y-152871428D01*
X118952380Y-152538095D01*
X119000000Y-152442857D01*
X119047619Y-152395238D01*
X119142857Y-152347619D01*
X119238095Y-152347619D01*
X119333333Y-152395238D01*
X119380952Y-152442857D01*
X119428571Y-152538095D01*
X119428571Y-152871428D01*
X118952380Y-151871428D02*
X119761904Y-151871428D01*
X119857142Y-151823809D01*
X119904761Y-151776190D01*
X119952380Y-151680952D01*
X119952380Y-151490476D01*
X119904761Y-151395238D01*
X119857142Y-151347619D01*
X119761904Y-151300000D01*
X118952380Y-151300000D01*
X119904761Y-150871428D02*
X119952380Y-150728571D01*
X119952380Y-150490476D01*
X119904761Y-150395238D01*
X119857142Y-150347619D01*
X119761904Y-150300000D01*
X119666666Y-150300000D01*
X119571428Y-150347619D01*
X119523809Y-150395238D01*
X119476190Y-150490476D01*
X119428571Y-150680952D01*
X119380952Y-150776190D01*
X119333333Y-150823809D01*
X119238095Y-150871428D01*
X119142857Y-150871428D01*
X119047619Y-150823809D01*
X119000000Y-150776190D01*
X118952380Y-150680952D01*
X118952380Y-150442857D01*
X119000000Y-150300000D01*
X119952380Y-148538095D02*
X119476190Y-148871428D01*
X119952380Y-149109523D02*
X118952380Y-149109523D01*
X118952380Y-148728571D01*
X119000000Y-148633333D01*
X119047619Y-148585714D01*
X119142857Y-148538095D01*
X119285714Y-148538095D01*
X119380952Y-148585714D01*
X119428571Y-148633333D01*
X119476190Y-148728571D01*
X119476190Y-149109523D01*
X119904761Y-148157142D02*
X119952380Y-148014285D01*
X119952380Y-147776190D01*
X119904761Y-147680952D01*
X119857142Y-147633333D01*
X119761904Y-147585714D01*
X119666666Y-147585714D01*
X119571428Y-147633333D01*
X119523809Y-147680952D01*
X119476190Y-147776190D01*
X119428571Y-147966666D01*
X119380952Y-148061904D01*
X119333333Y-148109523D01*
X119238095Y-148157142D01*
X119142857Y-148157142D01*
X119047619Y-148109523D01*
X119000000Y-148061904D01*
X118952380Y-147966666D01*
X118952380Y-147728571D01*
X119000000Y-147585714D01*
X119571428Y-147157142D02*
X119571428Y-146395238D01*
X119285714Y-145490476D02*
X119952380Y-145490476D01*
X118904761Y-145728571D02*
X119619047Y-145966666D01*
X119619047Y-145347619D01*
X119380952Y-144823809D02*
X119333333Y-144919047D01*
X119285714Y-144966666D01*
X119190476Y-145014285D01*
X119142857Y-145014285D01*
X119047619Y-144966666D01*
X119000000Y-144919047D01*
X118952380Y-144823809D01*
X118952380Y-144633333D01*
X119000000Y-144538095D01*
X119047619Y-144490476D01*
X119142857Y-144442857D01*
X119190476Y-144442857D01*
X119285714Y-144490476D01*
X119333333Y-144538095D01*
X119380952Y-144633333D01*
X119380952Y-144823809D01*
X119428571Y-144919047D01*
X119476190Y-144966666D01*
X119571428Y-145014285D01*
X119761904Y-145014285D01*
X119857142Y-144966666D01*
X119904761Y-144919047D01*
X119952380Y-144823809D01*
X119952380Y-144633333D01*
X119904761Y-144538095D01*
X119857142Y-144490476D01*
X119761904Y-144442857D01*
X119571428Y-144442857D01*
X119476190Y-144490476D01*
X119428571Y-144538095D01*
X119380952Y-144633333D01*
X118952380Y-143538095D02*
X118952380Y-144014285D01*
X119428571Y-144061904D01*
X119380952Y-144014285D01*
X119333333Y-143919047D01*
X119333333Y-143680952D01*
X119380952Y-143585714D01*
X119428571Y-143538095D01*
X119523809Y-143490476D01*
X119761904Y-143490476D01*
X119857142Y-143538095D01*
X119904761Y-143585714D01*
X119952380Y-143680952D01*
X119952380Y-143919047D01*
X119904761Y-144014285D01*
X119857142Y-144061904D01*
X38066666Y-141328571D02*
X38209523Y-141376190D01*
X38257142Y-141423809D01*
X38304761Y-141519047D01*
X38304761Y-141661904D01*
X38257142Y-141757142D01*
X38209523Y-141804761D01*
X38114285Y-141852380D01*
X37733333Y-141852380D01*
X37733333Y-140852380D01*
X38066666Y-140852380D01*
X38161904Y-140900000D01*
X38209523Y-140947619D01*
X38257142Y-141042857D01*
X38257142Y-141138095D01*
X38209523Y-141233333D01*
X38161904Y-141280952D01*
X38066666Y-141328571D01*
X37733333Y-141328571D01*
X38923809Y-140852380D02*
X39114285Y-140852380D01*
X39209523Y-140900000D01*
X39304761Y-140995238D01*
X39352380Y-141185714D01*
X39352380Y-141519047D01*
X39304761Y-141709523D01*
X39209523Y-141804761D01*
X39114285Y-141852380D01*
X38923809Y-141852380D01*
X38828571Y-141804761D01*
X38733333Y-141709523D01*
X38685714Y-141519047D01*
X38685714Y-141185714D01*
X38733333Y-140995238D01*
X38828571Y-140900000D01*
X38923809Y-140852380D01*
X39971428Y-140852380D02*
X40161904Y-140852380D01*
X40257142Y-140900000D01*
X40352380Y-140995238D01*
X40400000Y-141185714D01*
X40400000Y-141519047D01*
X40352380Y-141709523D01*
X40257142Y-141804761D01*
X40161904Y-141852380D01*
X39971428Y-141852380D01*
X39876190Y-141804761D01*
X39780952Y-141709523D01*
X39733333Y-141519047D01*
X39733333Y-141185714D01*
X39780952Y-140995238D01*
X39876190Y-140900000D01*
X39971428Y-140852380D01*
X40685714Y-140852380D02*
X41257142Y-140852380D01*
X40971428Y-141852380D02*
X40971428Y-140852380D01*
X41780952Y-140852380D02*
X41876190Y-140852380D01*
X41971428Y-140900000D01*
X42019047Y-140947619D01*
X42066666Y-141042857D01*
X42114285Y-141233333D01*
X42114285Y-141471428D01*
X42066666Y-141661904D01*
X42019047Y-141757142D01*
X41971428Y-141804761D01*
X41876190Y-141852380D01*
X41780952Y-141852380D01*
X41685714Y-141804761D01*
X41638095Y-141757142D01*
X41590476Y-141661904D01*
X41542857Y-141471428D01*
X41542857Y-141233333D01*
X41590476Y-141042857D01*
X41638095Y-140947619D01*
X41685714Y-140900000D01*
X41780952Y-140852380D01*
X67419047Y-134304761D02*
X67561904Y-134352380D01*
X67800000Y-134352380D01*
X67895238Y-134304761D01*
X67942857Y-134257142D01*
X67990476Y-134161904D01*
X67990476Y-134066666D01*
X67942857Y-133971428D01*
X67895238Y-133923809D01*
X67800000Y-133876190D01*
X67609523Y-133828571D01*
X67514285Y-133780952D01*
X67466666Y-133733333D01*
X67419047Y-133638095D01*
X67419047Y-133542857D01*
X67466666Y-133447619D01*
X67514285Y-133400000D01*
X67609523Y-133352380D01*
X67847619Y-133352380D01*
X67990476Y-133400000D01*
X68276190Y-133352380D02*
X68847619Y-133352380D01*
X68561904Y-134352380D02*
X68561904Y-133352380D01*
X69180952Y-133971428D02*
X69942857Y-133971428D01*
X70895238Y-134352380D02*
X70419047Y-134352380D01*
X70419047Y-133352380D01*
X71228571Y-134352380D02*
X71228571Y-133352380D01*
X71704761Y-134352380D02*
X71704761Y-133352380D01*
X72276190Y-134352380D01*
X72276190Y-133352380D01*
X72752380Y-134352380D02*
X72752380Y-133352380D01*
X73323809Y-134352380D02*
X72895238Y-133780952D01*
X73323809Y-133352380D02*
X72752380Y-133923809D01*
X74514285Y-134352380D02*
X74514285Y-133352380D01*
X74895238Y-133352380D01*
X74990476Y-133400000D01*
X75038095Y-133447619D01*
X75085714Y-133542857D01*
X75085714Y-133685714D01*
X75038095Y-133780952D01*
X74990476Y-133828571D01*
X74895238Y-133876190D01*
X74514285Y-133876190D01*
X76085714Y-134352380D02*
X75752380Y-133876190D01*
X75514285Y-134352380D02*
X75514285Y-133352380D01*
X75895238Y-133352380D01*
X75990476Y-133400000D01*
X76038095Y-133447619D01*
X76085714Y-133542857D01*
X76085714Y-133685714D01*
X76038095Y-133780952D01*
X75990476Y-133828571D01*
X75895238Y-133876190D01*
X75514285Y-133876190D01*
X76704761Y-133352380D02*
X76895238Y-133352380D01*
X76990476Y-133400000D01*
X77085714Y-133495238D01*
X77133333Y-133685714D01*
X77133333Y-134019047D01*
X77085714Y-134209523D01*
X76990476Y-134304761D01*
X76895238Y-134352380D01*
X76704761Y-134352380D01*
X76609523Y-134304761D01*
X76514285Y-134209523D01*
X76466666Y-134019047D01*
X76466666Y-133685714D01*
X76514285Y-133495238D01*
X76609523Y-133400000D01*
X76704761Y-133352380D01*
X78085714Y-133400000D02*
X77990476Y-133352380D01*
X77847619Y-133352380D01*
X77704761Y-133400000D01*
X77609523Y-133495238D01*
X77561904Y-133590476D01*
X77514285Y-133780952D01*
X77514285Y-133923809D01*
X77561904Y-134114285D01*
X77609523Y-134209523D01*
X77704761Y-134304761D01*
X77847619Y-134352380D01*
X77942857Y-134352380D01*
X78085714Y-134304761D01*
X78133333Y-134257142D01*
X78133333Y-133923809D01*
X77942857Y-133923809D01*
X79133333Y-134352380D02*
X78800000Y-133876190D01*
X78561904Y-134352380D02*
X78561904Y-133352380D01*
X78942857Y-133352380D01*
X79038095Y-133400000D01*
X79085714Y-133447619D01*
X79133333Y-133542857D01*
X79133333Y-133685714D01*
X79085714Y-133780952D01*
X79038095Y-133828571D01*
X78942857Y-133876190D01*
X78561904Y-133876190D01*
X79514285Y-134066666D02*
X79990476Y-134066666D01*
X79419047Y-134352380D02*
X79752380Y-133352380D01*
X80085714Y-134352380D01*
X80419047Y-134352380D02*
X80419047Y-133352380D01*
X80752380Y-134066666D01*
X81085714Y-133352380D01*
X81085714Y-134352380D01*
X81561904Y-134352380D02*
X81561904Y-133352380D01*
X81895238Y-134066666D01*
X82228571Y-133352380D01*
X82228571Y-134352380D01*
X82704761Y-133828571D02*
X83038095Y-133828571D01*
X83180952Y-134352380D02*
X82704761Y-134352380D01*
X82704761Y-133352380D01*
X83180952Y-133352380D01*
X84180952Y-134352380D02*
X83847619Y-133876190D01*
X83609523Y-134352380D02*
X83609523Y-133352380D01*
X83990476Y-133352380D01*
X84085714Y-133400000D01*
X84133333Y-133447619D01*
X84180952Y-133542857D01*
X84180952Y-133685714D01*
X84133333Y-133780952D01*
X84085714Y-133828571D01*
X83990476Y-133876190D01*
X83609523Y-133876190D01*
X46847619Y-136714285D02*
X46847619Y-136238095D01*
X47847619Y-136238095D01*
X47847619Y-137238095D02*
X47847619Y-137428571D01*
X47800000Y-137523809D01*
X47704761Y-137619047D01*
X47514285Y-137666666D01*
X47180952Y-137666666D01*
X46990476Y-137619047D01*
X46895238Y-137523809D01*
X46847619Y-137428571D01*
X46847619Y-137238095D01*
X46895238Y-137142857D01*
X46990476Y-137047619D01*
X47180952Y-137000000D01*
X47514285Y-137000000D01*
X47704761Y-137047619D01*
X47800000Y-137142857D01*
X47847619Y-137238095D01*
X47847619Y-138000000D02*
X46847619Y-138238095D01*
X47561904Y-138428571D01*
X46847619Y-138619047D01*
X47847619Y-138857142D01*
%TO.C,FB2*%
X59853666Y-181355171D02*
X59520333Y-181355171D01*
X59520333Y-181878980D02*
X59520333Y-180878980D01*
X59996523Y-180878980D01*
X60710809Y-181355171D02*
X60853666Y-181402790D01*
X60901285Y-181450409D01*
X60948904Y-181545647D01*
X60948904Y-181688504D01*
X60901285Y-181783742D01*
X60853666Y-181831361D01*
X60758428Y-181878980D01*
X60377476Y-181878980D01*
X60377476Y-180878980D01*
X60710809Y-180878980D01*
X60806047Y-180926600D01*
X60853666Y-180974219D01*
X60901285Y-181069457D01*
X60901285Y-181164695D01*
X60853666Y-181259933D01*
X60806047Y-181307552D01*
X60710809Y-181355171D01*
X60377476Y-181355171D01*
X61329857Y-180974219D02*
X61377476Y-180926600D01*
X61472714Y-180878980D01*
X61710809Y-180878980D01*
X61806047Y-180926600D01*
X61853666Y-180974219D01*
X61901285Y-181069457D01*
X61901285Y-181164695D01*
X61853666Y-181307552D01*
X61282238Y-181878980D01*
X61901285Y-181878980D01*
%TO.C,SW1*%
X18047961Y-151467133D02*
X18095580Y-151324276D01*
X18095580Y-151086180D01*
X18047961Y-150990942D01*
X18000342Y-150943323D01*
X17905104Y-150895704D01*
X17809866Y-150895704D01*
X17714628Y-150943323D01*
X17667009Y-150990942D01*
X17619390Y-151086180D01*
X17571771Y-151276657D01*
X17524152Y-151371895D01*
X17476533Y-151419514D01*
X17381295Y-151467133D01*
X17286057Y-151467133D01*
X17190819Y-151419514D01*
X17143200Y-151371895D01*
X17095580Y-151276657D01*
X17095580Y-151038561D01*
X17143200Y-150895704D01*
X17095580Y-150562371D02*
X18095580Y-150324276D01*
X17381295Y-150133800D01*
X18095580Y-149943323D01*
X17095580Y-149705228D01*
X18095580Y-148800466D02*
X18095580Y-149371895D01*
X18095580Y-149086180D02*
X17095580Y-149086180D01*
X17238438Y-149181419D01*
X17333676Y-149276657D01*
X17381295Y-149371895D01*
%TO.C,C35*%
X55603342Y-169363142D02*
X55555723Y-169410761D01*
X55412866Y-169458380D01*
X55317628Y-169458380D01*
X55174771Y-169410761D01*
X55079533Y-169315523D01*
X55031914Y-169220285D01*
X54984295Y-169029809D01*
X54984295Y-168886952D01*
X55031914Y-168696476D01*
X55079533Y-168601238D01*
X55174771Y-168506000D01*
X55317628Y-168458380D01*
X55412866Y-168458380D01*
X55555723Y-168506000D01*
X55603342Y-168553619D01*
X55936676Y-168458380D02*
X56555723Y-168458380D01*
X56222390Y-168839333D01*
X56365247Y-168839333D01*
X56460485Y-168886952D01*
X56508104Y-168934571D01*
X56555723Y-169029809D01*
X56555723Y-169267904D01*
X56508104Y-169363142D01*
X56460485Y-169410761D01*
X56365247Y-169458380D01*
X56079533Y-169458380D01*
X55984295Y-169410761D01*
X55936676Y-169363142D01*
X57460485Y-168458380D02*
X56984295Y-168458380D01*
X56936676Y-168934571D01*
X56984295Y-168886952D01*
X57079533Y-168839333D01*
X57317628Y-168839333D01*
X57412866Y-168886952D01*
X57460485Y-168934571D01*
X57508104Y-169029809D01*
X57508104Y-169267904D01*
X57460485Y-169363142D01*
X57412866Y-169410761D01*
X57317628Y-169458380D01*
X57079533Y-169458380D01*
X56984295Y-169410761D01*
X56936676Y-169363142D01*
%TO.C,D6*%
X94696104Y-169024980D02*
X94696104Y-168024980D01*
X94934200Y-168024980D01*
X95077057Y-168072600D01*
X95172295Y-168167838D01*
X95219914Y-168263076D01*
X95267533Y-168453552D01*
X95267533Y-168596409D01*
X95219914Y-168786885D01*
X95172295Y-168882123D01*
X95077057Y-168977361D01*
X94934200Y-169024980D01*
X94696104Y-169024980D01*
X96124676Y-168024980D02*
X95934200Y-168024980D01*
X95838961Y-168072600D01*
X95791342Y-168120219D01*
X95696104Y-168263076D01*
X95648485Y-168453552D01*
X95648485Y-168834504D01*
X95696104Y-168929742D01*
X95743723Y-168977361D01*
X95838961Y-169024980D01*
X96029438Y-169024980D01*
X96124676Y-168977361D01*
X96172295Y-168929742D01*
X96219914Y-168834504D01*
X96219914Y-168596409D01*
X96172295Y-168501171D01*
X96124676Y-168453552D01*
X96029438Y-168405933D01*
X95838961Y-168405933D01*
X95743723Y-168453552D01*
X95696104Y-168501171D01*
X95648485Y-168596409D01*
%TO.C,R29*%
X55225380Y-174881257D02*
X54749190Y-175214590D01*
X55225380Y-175452685D02*
X54225380Y-175452685D01*
X54225380Y-175071733D01*
X54273000Y-174976495D01*
X54320619Y-174928876D01*
X54415857Y-174881257D01*
X54558714Y-174881257D01*
X54653952Y-174928876D01*
X54701571Y-174976495D01*
X54749190Y-175071733D01*
X54749190Y-175452685D01*
X54320619Y-174500304D02*
X54273000Y-174452685D01*
X54225380Y-174357447D01*
X54225380Y-174119352D01*
X54273000Y-174024114D01*
X54320619Y-173976495D01*
X54415857Y-173928876D01*
X54511095Y-173928876D01*
X54653952Y-173976495D01*
X55225380Y-174547923D01*
X55225380Y-173928876D01*
X55225380Y-173452685D02*
X55225380Y-173262209D01*
X55177761Y-173166971D01*
X55130142Y-173119352D01*
X54987285Y-173024114D01*
X54796809Y-172976495D01*
X54415857Y-172976495D01*
X54320619Y-173024114D01*
X54273000Y-173071733D01*
X54225380Y-173166971D01*
X54225380Y-173357447D01*
X54273000Y-173452685D01*
X54320619Y-173500304D01*
X54415857Y-173547923D01*
X54653952Y-173547923D01*
X54749190Y-173500304D01*
X54796809Y-173452685D01*
X54844428Y-173357447D01*
X54844428Y-173166971D01*
X54796809Y-173071733D01*
X54749190Y-173024114D01*
X54653952Y-172976495D01*
%TO.C,D9*%
X63357504Y-188289380D02*
X63357504Y-187289380D01*
X63595600Y-187289380D01*
X63738457Y-187337000D01*
X63833695Y-187432238D01*
X63881314Y-187527476D01*
X63928933Y-187717952D01*
X63928933Y-187860809D01*
X63881314Y-188051285D01*
X63833695Y-188146523D01*
X63738457Y-188241761D01*
X63595600Y-188289380D01*
X63357504Y-188289380D01*
X64405123Y-188289380D02*
X64595600Y-188289380D01*
X64690838Y-188241761D01*
X64738457Y-188194142D01*
X64833695Y-188051285D01*
X64881314Y-187860809D01*
X64881314Y-187479857D01*
X64833695Y-187384619D01*
X64786076Y-187337000D01*
X64690838Y-187289380D01*
X64500361Y-187289380D01*
X64405123Y-187337000D01*
X64357504Y-187384619D01*
X64309885Y-187479857D01*
X64309885Y-187717952D01*
X64357504Y-187813190D01*
X64405123Y-187860809D01*
X64500361Y-187908428D01*
X64690838Y-187908428D01*
X64786076Y-187860809D01*
X64833695Y-187813190D01*
X64881314Y-187717952D01*
%TO.C,Y3*%
X58152790Y-174689190D02*
X58628980Y-174689190D01*
X57628980Y-175022523D02*
X58152790Y-174689190D01*
X57628980Y-174355857D01*
X57628980Y-174117761D02*
X57628980Y-173498714D01*
X58009933Y-173832047D01*
X58009933Y-173689190D01*
X58057552Y-173593952D01*
X58105171Y-173546333D01*
X58200409Y-173498714D01*
X58438504Y-173498714D01*
X58533742Y-173546333D01*
X58581361Y-173593952D01*
X58628980Y-173689190D01*
X58628980Y-173974904D01*
X58581361Y-174070142D01*
X58533742Y-174117761D01*
%TO.C,R26*%
X62752742Y-191889380D02*
X62419409Y-191413190D01*
X62181314Y-191889380D02*
X62181314Y-190889380D01*
X62562266Y-190889380D01*
X62657504Y-190937000D01*
X62705123Y-190984619D01*
X62752742Y-191079857D01*
X62752742Y-191222714D01*
X62705123Y-191317952D01*
X62657504Y-191365571D01*
X62562266Y-191413190D01*
X62181314Y-191413190D01*
X63133695Y-190984619D02*
X63181314Y-190937000D01*
X63276552Y-190889380D01*
X63514647Y-190889380D01*
X63609885Y-190937000D01*
X63657504Y-190984619D01*
X63705123Y-191079857D01*
X63705123Y-191175095D01*
X63657504Y-191317952D01*
X63086076Y-191889380D01*
X63705123Y-191889380D01*
X64562266Y-190889380D02*
X64371790Y-190889380D01*
X64276552Y-190937000D01*
X64228933Y-190984619D01*
X64133695Y-191127476D01*
X64086076Y-191317952D01*
X64086076Y-191698904D01*
X64133695Y-191794142D01*
X64181314Y-191841761D01*
X64276552Y-191889380D01*
X64467028Y-191889380D01*
X64562266Y-191841761D01*
X64609885Y-191794142D01*
X64657504Y-191698904D01*
X64657504Y-191460809D01*
X64609885Y-191365571D01*
X64562266Y-191317952D01*
X64467028Y-191270333D01*
X64276552Y-191270333D01*
X64181314Y-191317952D01*
X64133695Y-191365571D01*
X64086076Y-191460809D01*
%TO.C,C29*%
X98004742Y-178644357D02*
X98052361Y-178691976D01*
X98099980Y-178834833D01*
X98099980Y-178930071D01*
X98052361Y-179072928D01*
X97957123Y-179168166D01*
X97861885Y-179215785D01*
X97671409Y-179263404D01*
X97528552Y-179263404D01*
X97338076Y-179215785D01*
X97242838Y-179168166D01*
X97147600Y-179072928D01*
X97099980Y-178930071D01*
X97099980Y-178834833D01*
X97147600Y-178691976D01*
X97195219Y-178644357D01*
X97195219Y-178263404D02*
X97147600Y-178215785D01*
X97099980Y-178120547D01*
X97099980Y-177882452D01*
X97147600Y-177787214D01*
X97195219Y-177739595D01*
X97290457Y-177691976D01*
X97385695Y-177691976D01*
X97528552Y-177739595D01*
X98099980Y-178311023D01*
X98099980Y-177691976D01*
X98099980Y-177215785D02*
X98099980Y-177025309D01*
X98052361Y-176930071D01*
X98004742Y-176882452D01*
X97861885Y-176787214D01*
X97671409Y-176739595D01*
X97290457Y-176739595D01*
X97195219Y-176787214D01*
X97147600Y-176834833D01*
X97099980Y-176930071D01*
X97099980Y-177120547D01*
X97147600Y-177215785D01*
X97195219Y-177263404D01*
X97290457Y-177311023D01*
X97528552Y-177311023D01*
X97623790Y-177263404D01*
X97671409Y-177215785D01*
X97719028Y-177120547D01*
X97719028Y-176930071D01*
X97671409Y-176834833D01*
X97623790Y-176787214D01*
X97528552Y-176739595D01*
%TO.C,R17*%
X84329580Y-185879457D02*
X83853390Y-186212790D01*
X84329580Y-186450885D02*
X83329580Y-186450885D01*
X83329580Y-186069933D01*
X83377200Y-185974695D01*
X83424819Y-185927076D01*
X83520057Y-185879457D01*
X83662914Y-185879457D01*
X83758152Y-185927076D01*
X83805771Y-185974695D01*
X83853390Y-186069933D01*
X83853390Y-186450885D01*
X84329580Y-184927076D02*
X84329580Y-185498504D01*
X84329580Y-185212790D02*
X83329580Y-185212790D01*
X83472438Y-185308028D01*
X83567676Y-185403266D01*
X83615295Y-185498504D01*
X83329580Y-184593742D02*
X83329580Y-183927076D01*
X84329580Y-184355647D01*
%TO.C,C24*%
X104352742Y-164979857D02*
X104400361Y-165027476D01*
X104447980Y-165170333D01*
X104447980Y-165265571D01*
X104400361Y-165408428D01*
X104305123Y-165503666D01*
X104209885Y-165551285D01*
X104019409Y-165598904D01*
X103876552Y-165598904D01*
X103686076Y-165551285D01*
X103590838Y-165503666D01*
X103495600Y-165408428D01*
X103447980Y-165265571D01*
X103447980Y-165170333D01*
X103495600Y-165027476D01*
X103543219Y-164979857D01*
X103543219Y-164598904D02*
X103495600Y-164551285D01*
X103447980Y-164456047D01*
X103447980Y-164217952D01*
X103495600Y-164122714D01*
X103543219Y-164075095D01*
X103638457Y-164027476D01*
X103733695Y-164027476D01*
X103876552Y-164075095D01*
X104447980Y-164646523D01*
X104447980Y-164027476D01*
X103781314Y-163170333D02*
X104447980Y-163170333D01*
X103400361Y-163408428D02*
X104114647Y-163646523D01*
X104114647Y-163027476D01*
%TO.C,F2*%
X107267466Y-133857171D02*
X106934133Y-133857171D01*
X106934133Y-134380980D02*
X106934133Y-133380980D01*
X107410323Y-133380980D01*
X107743657Y-133476219D02*
X107791276Y-133428600D01*
X107886514Y-133380980D01*
X108124609Y-133380980D01*
X108219847Y-133428600D01*
X108267466Y-133476219D01*
X108315085Y-133571457D01*
X108315085Y-133666695D01*
X108267466Y-133809552D01*
X107696038Y-134380980D01*
X108315085Y-134380980D01*
%TO.C,C25*%
X104401942Y-137771857D02*
X104449561Y-137819476D01*
X104497180Y-137962333D01*
X104497180Y-138057571D01*
X104449561Y-138200428D01*
X104354323Y-138295666D01*
X104259085Y-138343285D01*
X104068609Y-138390904D01*
X103925752Y-138390904D01*
X103735276Y-138343285D01*
X103640038Y-138295666D01*
X103544800Y-138200428D01*
X103497180Y-138057571D01*
X103497180Y-137962333D01*
X103544800Y-137819476D01*
X103592419Y-137771857D01*
X103592419Y-137390904D02*
X103544800Y-137343285D01*
X103497180Y-137248047D01*
X103497180Y-137009952D01*
X103544800Y-136914714D01*
X103592419Y-136867095D01*
X103687657Y-136819476D01*
X103782895Y-136819476D01*
X103925752Y-136867095D01*
X104497180Y-137438523D01*
X104497180Y-136819476D01*
X103497180Y-135914714D02*
X103497180Y-136390904D01*
X103973371Y-136438523D01*
X103925752Y-136390904D01*
X103878133Y-136295666D01*
X103878133Y-136057571D01*
X103925752Y-135962333D01*
X103973371Y-135914714D01*
X104068609Y-135867095D01*
X104306704Y-135867095D01*
X104401942Y-135914714D01*
X104449561Y-135962333D01*
X104497180Y-136057571D01*
X104497180Y-136295666D01*
X104449561Y-136390904D01*
X104401942Y-136438523D01*
%TO.C,R19*%
X87987180Y-178806157D02*
X87510990Y-179139490D01*
X87987180Y-179377585D02*
X86987180Y-179377585D01*
X86987180Y-178996633D01*
X87034800Y-178901395D01*
X87082419Y-178853776D01*
X87177657Y-178806157D01*
X87320514Y-178806157D01*
X87415752Y-178853776D01*
X87463371Y-178901395D01*
X87510990Y-178996633D01*
X87510990Y-179377585D01*
X87987180Y-177853776D02*
X87987180Y-178425204D01*
X87987180Y-178139490D02*
X86987180Y-178139490D01*
X87130038Y-178234728D01*
X87225276Y-178329966D01*
X87272895Y-178425204D01*
X87987180Y-177377585D02*
X87987180Y-177187109D01*
X87939561Y-177091871D01*
X87891942Y-177044252D01*
X87749085Y-176949014D01*
X87558609Y-176901395D01*
X87177657Y-176901395D01*
X87082419Y-176949014D01*
X87034800Y-176996633D01*
X86987180Y-177091871D01*
X86987180Y-177282347D01*
X87034800Y-177377585D01*
X87082419Y-177425204D01*
X87177657Y-177472823D01*
X87415752Y-177472823D01*
X87510990Y-177425204D01*
X87558609Y-177377585D01*
X87606228Y-177282347D01*
X87606228Y-177091871D01*
X87558609Y-176996633D01*
X87510990Y-176949014D01*
X87415752Y-176901395D01*
%TO.C,R14*%
X107823580Y-160022257D02*
X107347390Y-160355590D01*
X107823580Y-160593685D02*
X106823580Y-160593685D01*
X106823580Y-160212733D01*
X106871200Y-160117495D01*
X106918819Y-160069876D01*
X107014057Y-160022257D01*
X107156914Y-160022257D01*
X107252152Y-160069876D01*
X107299771Y-160117495D01*
X107347390Y-160212733D01*
X107347390Y-160593685D01*
X107823580Y-159069876D02*
X107823580Y-159641304D01*
X107823580Y-159355590D02*
X106823580Y-159355590D01*
X106966438Y-159450828D01*
X107061676Y-159546066D01*
X107109295Y-159641304D01*
X107156914Y-158212733D02*
X107823580Y-158212733D01*
X106775961Y-158450828D02*
X107490247Y-158688923D01*
X107490247Y-158069876D01*
%TO.C,F1*%
X106911866Y-165607171D02*
X106578533Y-165607171D01*
X106578533Y-166130980D02*
X106578533Y-165130980D01*
X107054723Y-165130980D01*
X107959485Y-166130980D02*
X107388057Y-166130980D01*
X107673771Y-166130980D02*
X107673771Y-165130980D01*
X107578533Y-165273838D01*
X107483295Y-165369076D01*
X107388057Y-165416695D01*
%TO.C,D8*%
X55199104Y-188389380D02*
X55199104Y-187389380D01*
X55437200Y-187389380D01*
X55580057Y-187437000D01*
X55675295Y-187532238D01*
X55722914Y-187627476D01*
X55770533Y-187817952D01*
X55770533Y-187960809D01*
X55722914Y-188151285D01*
X55675295Y-188246523D01*
X55580057Y-188341761D01*
X55437200Y-188389380D01*
X55199104Y-188389380D01*
X56341961Y-187817952D02*
X56246723Y-187770333D01*
X56199104Y-187722714D01*
X56151485Y-187627476D01*
X56151485Y-187579857D01*
X56199104Y-187484619D01*
X56246723Y-187437000D01*
X56341961Y-187389380D01*
X56532438Y-187389380D01*
X56627676Y-187437000D01*
X56675295Y-187484619D01*
X56722914Y-187579857D01*
X56722914Y-187627476D01*
X56675295Y-187722714D01*
X56627676Y-187770333D01*
X56532438Y-187817952D01*
X56341961Y-187817952D01*
X56246723Y-187865571D01*
X56199104Y-187913190D01*
X56151485Y-188008428D01*
X56151485Y-188198904D01*
X56199104Y-188294142D01*
X56246723Y-188341761D01*
X56341961Y-188389380D01*
X56532438Y-188389380D01*
X56627676Y-188341761D01*
X56675295Y-188294142D01*
X56722914Y-188198904D01*
X56722914Y-188008428D01*
X56675295Y-187913190D01*
X56627676Y-187865571D01*
X56532438Y-187817952D01*
%TO.C,R20*%
X89612780Y-168556657D02*
X89136590Y-168889990D01*
X89612780Y-169128085D02*
X88612780Y-169128085D01*
X88612780Y-168747133D01*
X88660400Y-168651895D01*
X88708019Y-168604276D01*
X88803257Y-168556657D01*
X88946114Y-168556657D01*
X89041352Y-168604276D01*
X89088971Y-168651895D01*
X89136590Y-168747133D01*
X89136590Y-169128085D01*
X88708019Y-168175704D02*
X88660400Y-168128085D01*
X88612780Y-168032847D01*
X88612780Y-167794752D01*
X88660400Y-167699514D01*
X88708019Y-167651895D01*
X88803257Y-167604276D01*
X88898495Y-167604276D01*
X89041352Y-167651895D01*
X89612780Y-168223323D01*
X89612780Y-167604276D01*
X88612780Y-166985228D02*
X88612780Y-166889990D01*
X88660400Y-166794752D01*
X88708019Y-166747133D01*
X88803257Y-166699514D01*
X88993733Y-166651895D01*
X89231828Y-166651895D01*
X89422304Y-166699514D01*
X89517542Y-166747133D01*
X89565161Y-166794752D01*
X89612780Y-166889990D01*
X89612780Y-166985228D01*
X89565161Y-167080466D01*
X89517542Y-167128085D01*
X89422304Y-167175704D01*
X89231828Y-167223323D01*
X88993733Y-167223323D01*
X88803257Y-167175704D01*
X88708019Y-167128085D01*
X88660400Y-167080466D01*
X88612780Y-166985228D01*
%TO.C,R30*%
X69797742Y-185333380D02*
X69464409Y-184857190D01*
X69226314Y-185333380D02*
X69226314Y-184333380D01*
X69607266Y-184333380D01*
X69702504Y-184381000D01*
X69750123Y-184428619D01*
X69797742Y-184523857D01*
X69797742Y-184666714D01*
X69750123Y-184761952D01*
X69702504Y-184809571D01*
X69607266Y-184857190D01*
X69226314Y-184857190D01*
X70131076Y-184333380D02*
X70750123Y-184333380D01*
X70416790Y-184714333D01*
X70559647Y-184714333D01*
X70654885Y-184761952D01*
X70702504Y-184809571D01*
X70750123Y-184904809D01*
X70750123Y-185142904D01*
X70702504Y-185238142D01*
X70654885Y-185285761D01*
X70559647Y-185333380D01*
X70273933Y-185333380D01*
X70178695Y-185285761D01*
X70131076Y-185238142D01*
X71369171Y-184333380D02*
X71464409Y-184333380D01*
X71559647Y-184381000D01*
X71607266Y-184428619D01*
X71654885Y-184523857D01*
X71702504Y-184714333D01*
X71702504Y-184952428D01*
X71654885Y-185142904D01*
X71607266Y-185238142D01*
X71559647Y-185285761D01*
X71464409Y-185333380D01*
X71369171Y-185333380D01*
X71273933Y-185285761D01*
X71226314Y-185238142D01*
X71178695Y-185142904D01*
X71131076Y-184952428D01*
X71131076Y-184714333D01*
X71178695Y-184523857D01*
X71226314Y-184428619D01*
X71273933Y-184381000D01*
X71369171Y-184333380D01*
%TO.C,R15*%
X108179180Y-140854657D02*
X107702990Y-141187990D01*
X108179180Y-141426085D02*
X107179180Y-141426085D01*
X107179180Y-141045133D01*
X107226800Y-140949895D01*
X107274419Y-140902276D01*
X107369657Y-140854657D01*
X107512514Y-140854657D01*
X107607752Y-140902276D01*
X107655371Y-140949895D01*
X107702990Y-141045133D01*
X107702990Y-141426085D01*
X108179180Y-139902276D02*
X108179180Y-140473704D01*
X108179180Y-140187990D02*
X107179180Y-140187990D01*
X107322038Y-140283228D01*
X107417276Y-140378466D01*
X107464895Y-140473704D01*
X107179180Y-138997514D02*
X107179180Y-139473704D01*
X107655371Y-139521323D01*
X107607752Y-139473704D01*
X107560133Y-139378466D01*
X107560133Y-139140371D01*
X107607752Y-139045133D01*
X107655371Y-138997514D01*
X107750609Y-138949895D01*
X107988704Y-138949895D01*
X108083942Y-138997514D01*
X108131561Y-139045133D01*
X108179180Y-139140371D01*
X108179180Y-139378466D01*
X108131561Y-139473704D01*
X108083942Y-139521323D01*
%TO.C,D5*%
X85448180Y-159253895D02*
X84448180Y-159253895D01*
X84448180Y-159015800D01*
X84495800Y-158872942D01*
X84591038Y-158777704D01*
X84686276Y-158730085D01*
X84876752Y-158682466D01*
X85019609Y-158682466D01*
X85210085Y-158730085D01*
X85305323Y-158777704D01*
X85400561Y-158872942D01*
X85448180Y-159015800D01*
X85448180Y-159253895D01*
X84448180Y-157777704D02*
X84448180Y-158253895D01*
X84924371Y-158301514D01*
X84876752Y-158253895D01*
X84829133Y-158158657D01*
X84829133Y-157920561D01*
X84876752Y-157825323D01*
X84924371Y-157777704D01*
X85019609Y-157730085D01*
X85257704Y-157730085D01*
X85352942Y-157777704D01*
X85400561Y-157825323D01*
X85448180Y-157920561D01*
X85448180Y-158158657D01*
X85400561Y-158253895D01*
X85352942Y-158301514D01*
%TO.C,C40*%
X78307142Y-165557142D02*
X78259523Y-165604761D01*
X78116666Y-165652380D01*
X78021428Y-165652380D01*
X77878571Y-165604761D01*
X77783333Y-165509523D01*
X77735714Y-165414285D01*
X77688095Y-165223809D01*
X77688095Y-165080952D01*
X77735714Y-164890476D01*
X77783333Y-164795238D01*
X77878571Y-164700000D01*
X78021428Y-164652380D01*
X78116666Y-164652380D01*
X78259523Y-164700000D01*
X78307142Y-164747619D01*
X79164285Y-164985714D02*
X79164285Y-165652380D01*
X78926190Y-164604761D02*
X78688095Y-165319047D01*
X79307142Y-165319047D01*
X79878571Y-164652380D02*
X79973809Y-164652380D01*
X80069047Y-164700000D01*
X80116666Y-164747619D01*
X80164285Y-164842857D01*
X80211904Y-165033333D01*
X80211904Y-165271428D01*
X80164285Y-165461904D01*
X80116666Y-165557142D01*
X80069047Y-165604761D01*
X79973809Y-165652380D01*
X79878571Y-165652380D01*
X79783333Y-165604761D01*
X79735714Y-165557142D01*
X79688095Y-165461904D01*
X79640476Y-165271428D01*
X79640476Y-165033333D01*
X79688095Y-164842857D01*
X79735714Y-164747619D01*
X79783333Y-164700000D01*
X79878571Y-164652380D01*
%TO.C,C11*%
X48750542Y-151360857D02*
X48798161Y-151408476D01*
X48845780Y-151551333D01*
X48845780Y-151646571D01*
X48798161Y-151789428D01*
X48702923Y-151884666D01*
X48607685Y-151932285D01*
X48417209Y-151979904D01*
X48274352Y-151979904D01*
X48083876Y-151932285D01*
X47988638Y-151884666D01*
X47893400Y-151789428D01*
X47845780Y-151646571D01*
X47845780Y-151551333D01*
X47893400Y-151408476D01*
X47941019Y-151360857D01*
X48845780Y-150408476D02*
X48845780Y-150979904D01*
X48845780Y-150694190D02*
X47845780Y-150694190D01*
X47988638Y-150789428D01*
X48083876Y-150884666D01*
X48131495Y-150979904D01*
X48845780Y-149456095D02*
X48845780Y-150027523D01*
X48845780Y-149741809D02*
X47845780Y-149741809D01*
X47988638Y-149837047D01*
X48083876Y-149932285D01*
X48131495Y-150027523D01*
%TO.C,C32*%
X91244742Y-181307457D02*
X91292361Y-181355076D01*
X91339980Y-181497933D01*
X91339980Y-181593171D01*
X91292361Y-181736028D01*
X91197123Y-181831266D01*
X91101885Y-181878885D01*
X90911409Y-181926504D01*
X90768552Y-181926504D01*
X90578076Y-181878885D01*
X90482838Y-181831266D01*
X90387600Y-181736028D01*
X90339980Y-181593171D01*
X90339980Y-181497933D01*
X90387600Y-181355076D01*
X90435219Y-181307457D01*
X90339980Y-180974123D02*
X90339980Y-180355076D01*
X90720933Y-180688409D01*
X90720933Y-180545552D01*
X90768552Y-180450314D01*
X90816171Y-180402695D01*
X90911409Y-180355076D01*
X91149504Y-180355076D01*
X91244742Y-180402695D01*
X91292361Y-180450314D01*
X91339980Y-180545552D01*
X91339980Y-180831266D01*
X91292361Y-180926504D01*
X91244742Y-180974123D01*
X90435219Y-179974123D02*
X90387600Y-179926504D01*
X90339980Y-179831266D01*
X90339980Y-179593171D01*
X90387600Y-179497933D01*
X90435219Y-179450314D01*
X90530457Y-179402695D01*
X90625695Y-179402695D01*
X90768552Y-179450314D01*
X91339980Y-180021742D01*
X91339980Y-179402695D01*
%TO.C,C38*%
X83650142Y-174474857D02*
X83697761Y-174522476D01*
X83745380Y-174665333D01*
X83745380Y-174760571D01*
X83697761Y-174903428D01*
X83602523Y-174998666D01*
X83507285Y-175046285D01*
X83316809Y-175093904D01*
X83173952Y-175093904D01*
X82983476Y-175046285D01*
X82888238Y-174998666D01*
X82793000Y-174903428D01*
X82745380Y-174760571D01*
X82745380Y-174665333D01*
X82793000Y-174522476D01*
X82840619Y-174474857D01*
X82745380Y-174141523D02*
X82745380Y-173522476D01*
X83126333Y-173855809D01*
X83126333Y-173712952D01*
X83173952Y-173617714D01*
X83221571Y-173570095D01*
X83316809Y-173522476D01*
X83554904Y-173522476D01*
X83650142Y-173570095D01*
X83697761Y-173617714D01*
X83745380Y-173712952D01*
X83745380Y-173998666D01*
X83697761Y-174093904D01*
X83650142Y-174141523D01*
X83173952Y-172951047D02*
X83126333Y-173046285D01*
X83078714Y-173093904D01*
X82983476Y-173141523D01*
X82935857Y-173141523D01*
X82840619Y-173093904D01*
X82793000Y-173046285D01*
X82745380Y-172951047D01*
X82745380Y-172760571D01*
X82793000Y-172665333D01*
X82840619Y-172617714D01*
X82935857Y-172570095D01*
X82983476Y-172570095D01*
X83078714Y-172617714D01*
X83126333Y-172665333D01*
X83173952Y-172760571D01*
X83173952Y-172951047D01*
X83221571Y-173046285D01*
X83269190Y-173093904D01*
X83364428Y-173141523D01*
X83554904Y-173141523D01*
X83650142Y-173093904D01*
X83697761Y-173046285D01*
X83745380Y-172951047D01*
X83745380Y-172760571D01*
X83697761Y-172665333D01*
X83650142Y-172617714D01*
X83554904Y-172570095D01*
X83364428Y-172570095D01*
X83269190Y-172617714D01*
X83221571Y-172665333D01*
X83173952Y-172760571D01*
%TO.C,C43*%
X55292342Y-182049342D02*
X55244723Y-182096961D01*
X55101866Y-182144580D01*
X55006628Y-182144580D01*
X54863771Y-182096961D01*
X54768533Y-182001723D01*
X54720914Y-181906485D01*
X54673295Y-181716009D01*
X54673295Y-181573152D01*
X54720914Y-181382676D01*
X54768533Y-181287438D01*
X54863771Y-181192200D01*
X55006628Y-181144580D01*
X55101866Y-181144580D01*
X55244723Y-181192200D01*
X55292342Y-181239819D01*
X56149485Y-181477914D02*
X56149485Y-182144580D01*
X55911390Y-181096961D02*
X55673295Y-181811247D01*
X56292342Y-181811247D01*
X56578057Y-181144580D02*
X57197104Y-181144580D01*
X56863771Y-181525533D01*
X57006628Y-181525533D01*
X57101866Y-181573152D01*
X57149485Y-181620771D01*
X57197104Y-181716009D01*
X57197104Y-181954104D01*
X57149485Y-182049342D01*
X57101866Y-182096961D01*
X57006628Y-182144580D01*
X56720914Y-182144580D01*
X56625676Y-182096961D01*
X56578057Y-182049342D01*
%TO.C,R2*%
X36433333Y-151752380D02*
X36100000Y-151276190D01*
X35861904Y-151752380D02*
X35861904Y-150752380D01*
X36242857Y-150752380D01*
X36338095Y-150800000D01*
X36385714Y-150847619D01*
X36433333Y-150942857D01*
X36433333Y-151085714D01*
X36385714Y-151180952D01*
X36338095Y-151228571D01*
X36242857Y-151276190D01*
X35861904Y-151276190D01*
X36814285Y-150847619D02*
X36861904Y-150800000D01*
X36957142Y-150752380D01*
X37195238Y-150752380D01*
X37290476Y-150800000D01*
X37338095Y-150847619D01*
X37385714Y-150942857D01*
X37385714Y-151038095D01*
X37338095Y-151180952D01*
X36766666Y-151752380D01*
X37385714Y-151752380D01*
%TO.C,C6*%
X47328933Y-158594142D02*
X47281314Y-158641761D01*
X47138457Y-158689380D01*
X47043219Y-158689380D01*
X46900361Y-158641761D01*
X46805123Y-158546523D01*
X46757504Y-158451285D01*
X46709885Y-158260809D01*
X46709885Y-158117952D01*
X46757504Y-157927476D01*
X46805123Y-157832238D01*
X46900361Y-157737000D01*
X47043219Y-157689380D01*
X47138457Y-157689380D01*
X47281314Y-157737000D01*
X47328933Y-157784619D01*
X48186076Y-157689380D02*
X47995600Y-157689380D01*
X47900361Y-157737000D01*
X47852742Y-157784619D01*
X47757504Y-157927476D01*
X47709885Y-158117952D01*
X47709885Y-158498904D01*
X47757504Y-158594142D01*
X47805123Y-158641761D01*
X47900361Y-158689380D01*
X48090838Y-158689380D01*
X48186076Y-158641761D01*
X48233695Y-158594142D01*
X48281314Y-158498904D01*
X48281314Y-158260809D01*
X48233695Y-158165571D01*
X48186076Y-158117952D01*
X48090838Y-158070333D01*
X47900361Y-158070333D01*
X47805123Y-158117952D01*
X47757504Y-158165571D01*
X47709885Y-158260809D01*
%TO.C,C36*%
X56407142Y-179857142D02*
X56359523Y-179904761D01*
X56216666Y-179952380D01*
X56121428Y-179952380D01*
X55978571Y-179904761D01*
X55883333Y-179809523D01*
X55835714Y-179714285D01*
X55788095Y-179523809D01*
X55788095Y-179380952D01*
X55835714Y-179190476D01*
X55883333Y-179095238D01*
X55978571Y-179000000D01*
X56121428Y-178952380D01*
X56216666Y-178952380D01*
X56359523Y-179000000D01*
X56407142Y-179047619D01*
X56740476Y-178952380D02*
X57359523Y-178952380D01*
X57026190Y-179333333D01*
X57169047Y-179333333D01*
X57264285Y-179380952D01*
X57311904Y-179428571D01*
X57359523Y-179523809D01*
X57359523Y-179761904D01*
X57311904Y-179857142D01*
X57264285Y-179904761D01*
X57169047Y-179952380D01*
X56883333Y-179952380D01*
X56788095Y-179904761D01*
X56740476Y-179857142D01*
X58216666Y-178952380D02*
X58026190Y-178952380D01*
X57930952Y-179000000D01*
X57883333Y-179047619D01*
X57788095Y-179190476D01*
X57740476Y-179380952D01*
X57740476Y-179761904D01*
X57788095Y-179857142D01*
X57835714Y-179904761D01*
X57930952Y-179952380D01*
X58121428Y-179952380D01*
X58216666Y-179904761D01*
X58264285Y-179857142D01*
X58311904Y-179761904D01*
X58311904Y-179523809D01*
X58264285Y-179428571D01*
X58216666Y-179380952D01*
X58121428Y-179333333D01*
X57930952Y-179333333D01*
X57835714Y-179380952D01*
X57788095Y-179428571D01*
X57740476Y-179523809D01*
%TO.C,R27*%
X79252742Y-191962780D02*
X78919409Y-191486590D01*
X78681314Y-191962780D02*
X78681314Y-190962780D01*
X79062266Y-190962780D01*
X79157504Y-191010400D01*
X79205123Y-191058019D01*
X79252742Y-191153257D01*
X79252742Y-191296114D01*
X79205123Y-191391352D01*
X79157504Y-191438971D01*
X79062266Y-191486590D01*
X78681314Y-191486590D01*
X79633695Y-191058019D02*
X79681314Y-191010400D01*
X79776552Y-190962780D01*
X80014647Y-190962780D01*
X80109885Y-191010400D01*
X80157504Y-191058019D01*
X80205123Y-191153257D01*
X80205123Y-191248495D01*
X80157504Y-191391352D01*
X79586076Y-191962780D01*
X80205123Y-191962780D01*
X80538457Y-190962780D02*
X81205123Y-190962780D01*
X80776552Y-191962780D01*
%TO.C,C17*%
X81457142Y-149692857D02*
X81504761Y-149740476D01*
X81552380Y-149883333D01*
X81552380Y-149978571D01*
X81504761Y-150121428D01*
X81409523Y-150216666D01*
X81314285Y-150264285D01*
X81123809Y-150311904D01*
X80980952Y-150311904D01*
X80790476Y-150264285D01*
X80695238Y-150216666D01*
X80600000Y-150121428D01*
X80552380Y-149978571D01*
X80552380Y-149883333D01*
X80600000Y-149740476D01*
X80647619Y-149692857D01*
X81552380Y-148740476D02*
X81552380Y-149311904D01*
X81552380Y-149026190D02*
X80552380Y-149026190D01*
X80695238Y-149121428D01*
X80790476Y-149216666D01*
X80838095Y-149311904D01*
X80552380Y-148407142D02*
X80552380Y-147740476D01*
X81552380Y-148169047D01*
%TO.C,R12*%
X86437780Y-163984657D02*
X85961590Y-164317990D01*
X86437780Y-164556085D02*
X85437780Y-164556085D01*
X85437780Y-164175133D01*
X85485400Y-164079895D01*
X85533019Y-164032276D01*
X85628257Y-163984657D01*
X85771114Y-163984657D01*
X85866352Y-164032276D01*
X85913971Y-164079895D01*
X85961590Y-164175133D01*
X85961590Y-164556085D01*
X86437780Y-163032276D02*
X86437780Y-163603704D01*
X86437780Y-163317990D02*
X85437780Y-163317990D01*
X85580638Y-163413228D01*
X85675876Y-163508466D01*
X85723495Y-163603704D01*
X85533019Y-162651323D02*
X85485400Y-162603704D01*
X85437780Y-162508466D01*
X85437780Y-162270371D01*
X85485400Y-162175133D01*
X85533019Y-162127514D01*
X85628257Y-162079895D01*
X85723495Y-162079895D01*
X85866352Y-162127514D01*
X86437780Y-162698942D01*
X86437780Y-162079895D01*
%TO.C,R13*%
X101807142Y-141352380D02*
X101473809Y-140876190D01*
X101235714Y-141352380D02*
X101235714Y-140352380D01*
X101616666Y-140352380D01*
X101711904Y-140400000D01*
X101759523Y-140447619D01*
X101807142Y-140542857D01*
X101807142Y-140685714D01*
X101759523Y-140780952D01*
X101711904Y-140828571D01*
X101616666Y-140876190D01*
X101235714Y-140876190D01*
X102759523Y-141352380D02*
X102188095Y-141352380D01*
X102473809Y-141352380D02*
X102473809Y-140352380D01*
X102378571Y-140495238D01*
X102283333Y-140590476D01*
X102188095Y-140638095D01*
X103092857Y-140352380D02*
X103711904Y-140352380D01*
X103378571Y-140733333D01*
X103521428Y-140733333D01*
X103616666Y-140780952D01*
X103664285Y-140828571D01*
X103711904Y-140923809D01*
X103711904Y-141161904D01*
X103664285Y-141257142D01*
X103616666Y-141304761D01*
X103521428Y-141352380D01*
X103235714Y-141352380D01*
X103140476Y-141304761D01*
X103092857Y-141257142D01*
%TO.C,C22*%
X75280242Y-148437142D02*
X75232623Y-148484761D01*
X75089766Y-148532380D01*
X74994528Y-148532380D01*
X74851671Y-148484761D01*
X74756433Y-148389523D01*
X74708814Y-148294285D01*
X74661195Y-148103809D01*
X74661195Y-147960952D01*
X74708814Y-147770476D01*
X74756433Y-147675238D01*
X74851671Y-147580000D01*
X74994528Y-147532380D01*
X75089766Y-147532380D01*
X75232623Y-147580000D01*
X75280242Y-147627619D01*
X75661195Y-147627619D02*
X75708814Y-147580000D01*
X75804052Y-147532380D01*
X76042147Y-147532380D01*
X76137385Y-147580000D01*
X76185004Y-147627619D01*
X76232623Y-147722857D01*
X76232623Y-147818095D01*
X76185004Y-147960952D01*
X75613576Y-148532380D01*
X76232623Y-148532380D01*
X76613576Y-147627619D02*
X76661195Y-147580000D01*
X76756433Y-147532380D01*
X76994528Y-147532380D01*
X77089766Y-147580000D01*
X77137385Y-147627619D01*
X77185004Y-147722857D01*
X77185004Y-147818095D01*
X77137385Y-147960952D01*
X76565957Y-148532380D01*
X77185004Y-148532380D01*
%TO.C,R23*%
X99035180Y-188555857D02*
X98558990Y-188889190D01*
X99035180Y-189127285D02*
X98035180Y-189127285D01*
X98035180Y-188746333D01*
X98082800Y-188651095D01*
X98130419Y-188603476D01*
X98225657Y-188555857D01*
X98368514Y-188555857D01*
X98463752Y-188603476D01*
X98511371Y-188651095D01*
X98558990Y-188746333D01*
X98558990Y-189127285D01*
X98130419Y-188174904D02*
X98082800Y-188127285D01*
X98035180Y-188032047D01*
X98035180Y-187793952D01*
X98082800Y-187698714D01*
X98130419Y-187651095D01*
X98225657Y-187603476D01*
X98320895Y-187603476D01*
X98463752Y-187651095D01*
X99035180Y-188222523D01*
X99035180Y-187603476D01*
X98035180Y-187270142D02*
X98035180Y-186651095D01*
X98416133Y-186984428D01*
X98416133Y-186841571D01*
X98463752Y-186746333D01*
X98511371Y-186698714D01*
X98606609Y-186651095D01*
X98844704Y-186651095D01*
X98939942Y-186698714D01*
X98987561Y-186746333D01*
X99035180Y-186841571D01*
X99035180Y-187127285D01*
X98987561Y-187222523D01*
X98939942Y-187270142D01*
%TO.C,C20*%
X62818242Y-159642857D02*
X62865861Y-159690476D01*
X62913480Y-159833333D01*
X62913480Y-159928571D01*
X62865861Y-160071428D01*
X62770623Y-160166666D01*
X62675385Y-160214285D01*
X62484909Y-160261904D01*
X62342052Y-160261904D01*
X62151576Y-160214285D01*
X62056338Y-160166666D01*
X61961100Y-160071428D01*
X61913480Y-159928571D01*
X61913480Y-159833333D01*
X61961100Y-159690476D01*
X62008719Y-159642857D01*
X62008719Y-159261904D02*
X61961100Y-159214285D01*
X61913480Y-159119047D01*
X61913480Y-158880952D01*
X61961100Y-158785714D01*
X62008719Y-158738095D01*
X62103957Y-158690476D01*
X62199195Y-158690476D01*
X62342052Y-158738095D01*
X62913480Y-159309523D01*
X62913480Y-158690476D01*
X61913480Y-158071428D02*
X61913480Y-157976190D01*
X61961100Y-157880952D01*
X62008719Y-157833333D01*
X62103957Y-157785714D01*
X62294433Y-157738095D01*
X62532528Y-157738095D01*
X62723004Y-157785714D01*
X62818242Y-157833333D01*
X62865861Y-157880952D01*
X62913480Y-157976190D01*
X62913480Y-158071428D01*
X62865861Y-158166666D01*
X62818242Y-158214285D01*
X62723004Y-158261904D01*
X62532528Y-158309523D01*
X62294433Y-158309523D01*
X62103957Y-158261904D01*
X62008719Y-158214285D01*
X61961100Y-158166666D01*
X61913480Y-158071428D01*
%TO.C,C8*%
X41128933Y-158594142D02*
X41081314Y-158641761D01*
X40938457Y-158689380D01*
X40843219Y-158689380D01*
X40700361Y-158641761D01*
X40605123Y-158546523D01*
X40557504Y-158451285D01*
X40509885Y-158260809D01*
X40509885Y-158117952D01*
X40557504Y-157927476D01*
X40605123Y-157832238D01*
X40700361Y-157737000D01*
X40843219Y-157689380D01*
X40938457Y-157689380D01*
X41081314Y-157737000D01*
X41128933Y-157784619D01*
X41700361Y-158117952D02*
X41605123Y-158070333D01*
X41557504Y-158022714D01*
X41509885Y-157927476D01*
X41509885Y-157879857D01*
X41557504Y-157784619D01*
X41605123Y-157737000D01*
X41700361Y-157689380D01*
X41890838Y-157689380D01*
X41986076Y-157737000D01*
X42033695Y-157784619D01*
X42081314Y-157879857D01*
X42081314Y-157927476D01*
X42033695Y-158022714D01*
X41986076Y-158070333D01*
X41890838Y-158117952D01*
X41700361Y-158117952D01*
X41605123Y-158165571D01*
X41557504Y-158213190D01*
X41509885Y-158308428D01*
X41509885Y-158498904D01*
X41557504Y-158594142D01*
X41605123Y-158641761D01*
X41700361Y-158689380D01*
X41890838Y-158689380D01*
X41986076Y-158641761D01*
X42033695Y-158594142D01*
X42081314Y-158498904D01*
X42081314Y-158308428D01*
X42033695Y-158213190D01*
X41986076Y-158165571D01*
X41890838Y-158117952D01*
%TO.C,R32*%
X76401742Y-186222380D02*
X76068409Y-185746190D01*
X75830314Y-186222380D02*
X75830314Y-185222380D01*
X76211266Y-185222380D01*
X76306504Y-185270000D01*
X76354123Y-185317619D01*
X76401742Y-185412857D01*
X76401742Y-185555714D01*
X76354123Y-185650952D01*
X76306504Y-185698571D01*
X76211266Y-185746190D01*
X75830314Y-185746190D01*
X76735076Y-185222380D02*
X77354123Y-185222380D01*
X77020790Y-185603333D01*
X77163647Y-185603333D01*
X77258885Y-185650952D01*
X77306504Y-185698571D01*
X77354123Y-185793809D01*
X77354123Y-186031904D01*
X77306504Y-186127142D01*
X77258885Y-186174761D01*
X77163647Y-186222380D01*
X76877933Y-186222380D01*
X76782695Y-186174761D01*
X76735076Y-186127142D01*
X77735076Y-185317619D02*
X77782695Y-185270000D01*
X77877933Y-185222380D01*
X78116028Y-185222380D01*
X78211266Y-185270000D01*
X78258885Y-185317619D01*
X78306504Y-185412857D01*
X78306504Y-185508095D01*
X78258885Y-185650952D01*
X77687457Y-186222380D01*
X78306504Y-186222380D01*
%TO.C,C45*%
X64580144Y-181894142D02*
X64532525Y-181941761D01*
X64389668Y-181989380D01*
X64294430Y-181989380D01*
X64151573Y-181941761D01*
X64056335Y-181846523D01*
X64008716Y-181751285D01*
X63961097Y-181560809D01*
X63961097Y-181417952D01*
X64008716Y-181227476D01*
X64056335Y-181132238D01*
X64151573Y-181037000D01*
X64294430Y-180989380D01*
X64389668Y-180989380D01*
X64532525Y-181037000D01*
X64580144Y-181084619D01*
X65437287Y-181322714D02*
X65437287Y-181989380D01*
X65199192Y-180941761D02*
X64961097Y-181656047D01*
X65580144Y-181656047D01*
X66437287Y-180989380D02*
X65961097Y-180989380D01*
X65913478Y-181465571D01*
X65961097Y-181417952D01*
X66056335Y-181370333D01*
X66294430Y-181370333D01*
X66389668Y-181417952D01*
X66437287Y-181465571D01*
X66484906Y-181560809D01*
X66484906Y-181798904D01*
X66437287Y-181894142D01*
X66389668Y-181941761D01*
X66294430Y-181989380D01*
X66056335Y-181989380D01*
X65961097Y-181941761D01*
X65913478Y-181894142D01*
%TO.C,C14*%
X28074942Y-148795457D02*
X28122561Y-148843076D01*
X28170180Y-148985933D01*
X28170180Y-149081171D01*
X28122561Y-149224028D01*
X28027323Y-149319266D01*
X27932085Y-149366885D01*
X27741609Y-149414504D01*
X27598752Y-149414504D01*
X27408276Y-149366885D01*
X27313038Y-149319266D01*
X27217800Y-149224028D01*
X27170180Y-149081171D01*
X27170180Y-148985933D01*
X27217800Y-148843076D01*
X27265419Y-148795457D01*
X28170180Y-147843076D02*
X28170180Y-148414504D01*
X28170180Y-148128790D02*
X27170180Y-148128790D01*
X27313038Y-148224028D01*
X27408276Y-148319266D01*
X27455895Y-148414504D01*
X27503514Y-146985933D02*
X28170180Y-146985933D01*
X27122561Y-147224028D02*
X27836847Y-147462123D01*
X27836847Y-146843076D01*
%TO.C,D3*%
X30961904Y-151552380D02*
X30961904Y-150552380D01*
X31200000Y-150552380D01*
X31342857Y-150600000D01*
X31438095Y-150695238D01*
X31485714Y-150790476D01*
X31533333Y-150980952D01*
X31533333Y-151123809D01*
X31485714Y-151314285D01*
X31438095Y-151409523D01*
X31342857Y-151504761D01*
X31200000Y-151552380D01*
X30961904Y-151552380D01*
X31866666Y-150552380D02*
X32485714Y-150552380D01*
X32152380Y-150933333D01*
X32295238Y-150933333D01*
X32390476Y-150980952D01*
X32438095Y-151028571D01*
X32485714Y-151123809D01*
X32485714Y-151361904D01*
X32438095Y-151457142D01*
X32390476Y-151504761D01*
X32295238Y-151552380D01*
X32009523Y-151552380D01*
X31914285Y-151504761D01*
X31866666Y-151457142D01*
%TO.C,D11*%
X79487914Y-188289380D02*
X79487914Y-187289380D01*
X79726009Y-187289380D01*
X79868866Y-187337000D01*
X79964104Y-187432238D01*
X80011723Y-187527476D01*
X80059342Y-187717952D01*
X80059342Y-187860809D01*
X80011723Y-188051285D01*
X79964104Y-188146523D01*
X79868866Y-188241761D01*
X79726009Y-188289380D01*
X79487914Y-188289380D01*
X81011723Y-188289380D02*
X80440295Y-188289380D01*
X80726009Y-188289380D02*
X80726009Y-187289380D01*
X80630771Y-187432238D01*
X80535533Y-187527476D01*
X80440295Y-187575095D01*
X81964104Y-188289380D02*
X81392676Y-188289380D01*
X81678390Y-188289380D02*
X81678390Y-187289380D01*
X81583152Y-187432238D01*
X81487914Y-187527476D01*
X81392676Y-187575095D01*
%TO.C,Y1*%
X59951990Y-147993790D02*
X60428180Y-147993790D01*
X59428180Y-148327123D02*
X59951990Y-147993790D01*
X59428180Y-147660457D01*
X60428180Y-146803314D02*
X60428180Y-147374742D01*
X60428180Y-147089028D02*
X59428180Y-147089028D01*
X59571038Y-147184266D01*
X59666276Y-147279504D01*
X59713895Y-147374742D01*
%TO.C,FB1*%
X80930671Y-159044333D02*
X80930671Y-159377666D01*
X81454480Y-159377666D02*
X80454480Y-159377666D01*
X80454480Y-158901476D01*
X80930671Y-158187190D02*
X80978290Y-158044333D01*
X81025909Y-157996714D01*
X81121147Y-157949095D01*
X81264004Y-157949095D01*
X81359242Y-157996714D01*
X81406861Y-158044333D01*
X81454480Y-158139571D01*
X81454480Y-158520523D01*
X80454480Y-158520523D01*
X80454480Y-158187190D01*
X80502100Y-158091952D01*
X80549719Y-158044333D01*
X80644957Y-157996714D01*
X80740195Y-157996714D01*
X80835433Y-158044333D01*
X80883052Y-158091952D01*
X80930671Y-158187190D01*
X80930671Y-158520523D01*
X81454480Y-156996714D02*
X81454480Y-157568142D01*
X81454480Y-157282428D02*
X80454480Y-157282428D01*
X80597338Y-157377666D01*
X80692576Y-157472904D01*
X80740195Y-157568142D01*
%TO.C,C39*%
X83218342Y-169420257D02*
X83265961Y-169467876D01*
X83313580Y-169610733D01*
X83313580Y-169705971D01*
X83265961Y-169848828D01*
X83170723Y-169944066D01*
X83075485Y-169991685D01*
X82885009Y-170039304D01*
X82742152Y-170039304D01*
X82551676Y-169991685D01*
X82456438Y-169944066D01*
X82361200Y-169848828D01*
X82313580Y-169705971D01*
X82313580Y-169610733D01*
X82361200Y-169467876D01*
X82408819Y-169420257D01*
X82313580Y-169086923D02*
X82313580Y-168467876D01*
X82694533Y-168801209D01*
X82694533Y-168658352D01*
X82742152Y-168563114D01*
X82789771Y-168515495D01*
X82885009Y-168467876D01*
X83123104Y-168467876D01*
X83218342Y-168515495D01*
X83265961Y-168563114D01*
X83313580Y-168658352D01*
X83313580Y-168944066D01*
X83265961Y-169039304D01*
X83218342Y-169086923D01*
X83313580Y-167991685D02*
X83313580Y-167801209D01*
X83265961Y-167705971D01*
X83218342Y-167658352D01*
X83075485Y-167563114D01*
X82885009Y-167515495D01*
X82504057Y-167515495D01*
X82408819Y-167563114D01*
X82361200Y-167610733D01*
X82313580Y-167705971D01*
X82313580Y-167896447D01*
X82361200Y-167991685D01*
X82408819Y-168039304D01*
X82504057Y-168086923D01*
X82742152Y-168086923D01*
X82837390Y-168039304D01*
X82885009Y-167991685D01*
X82932628Y-167896447D01*
X82932628Y-167705971D01*
X82885009Y-167610733D01*
X82837390Y-167563114D01*
X82742152Y-167515495D01*
%TO.C,C42*%
X69407142Y-165607142D02*
X69359523Y-165654761D01*
X69216666Y-165702380D01*
X69121428Y-165702380D01*
X68978571Y-165654761D01*
X68883333Y-165559523D01*
X68835714Y-165464285D01*
X68788095Y-165273809D01*
X68788095Y-165130952D01*
X68835714Y-164940476D01*
X68883333Y-164845238D01*
X68978571Y-164750000D01*
X69121428Y-164702380D01*
X69216666Y-164702380D01*
X69359523Y-164750000D01*
X69407142Y-164797619D01*
X70264285Y-165035714D02*
X70264285Y-165702380D01*
X70026190Y-164654761D02*
X69788095Y-165369047D01*
X70407142Y-165369047D01*
X70740476Y-164797619D02*
X70788095Y-164750000D01*
X70883333Y-164702380D01*
X71121428Y-164702380D01*
X71216666Y-164750000D01*
X71264285Y-164797619D01*
X71311904Y-164892857D01*
X71311904Y-164988095D01*
X71264285Y-165130952D01*
X70692857Y-165702380D01*
X71311904Y-165702380D01*
%TO.C,C3*%
X32164342Y-165083266D02*
X32211961Y-165130885D01*
X32259580Y-165273742D01*
X32259580Y-165368980D01*
X32211961Y-165511838D01*
X32116723Y-165607076D01*
X32021485Y-165654695D01*
X31831009Y-165702314D01*
X31688152Y-165702314D01*
X31497676Y-165654695D01*
X31402438Y-165607076D01*
X31307200Y-165511838D01*
X31259580Y-165368980D01*
X31259580Y-165273742D01*
X31307200Y-165130885D01*
X31354819Y-165083266D01*
X31259580Y-164749933D02*
X31259580Y-164130885D01*
X31640533Y-164464219D01*
X31640533Y-164321361D01*
X31688152Y-164226123D01*
X31735771Y-164178504D01*
X31831009Y-164130885D01*
X32069104Y-164130885D01*
X32164342Y-164178504D01*
X32211961Y-164226123D01*
X32259580Y-164321361D01*
X32259580Y-164607076D01*
X32211961Y-164702314D01*
X32164342Y-164749933D01*
%TO.C,R21*%
X90397142Y-191940380D02*
X90063809Y-191464190D01*
X89825714Y-191940380D02*
X89825714Y-190940380D01*
X90206666Y-190940380D01*
X90301904Y-190988000D01*
X90349523Y-191035619D01*
X90397142Y-191130857D01*
X90397142Y-191273714D01*
X90349523Y-191368952D01*
X90301904Y-191416571D01*
X90206666Y-191464190D01*
X89825714Y-191464190D01*
X90778095Y-191035619D02*
X90825714Y-190988000D01*
X90920952Y-190940380D01*
X91159047Y-190940380D01*
X91254285Y-190988000D01*
X91301904Y-191035619D01*
X91349523Y-191130857D01*
X91349523Y-191226095D01*
X91301904Y-191368952D01*
X90730476Y-191940380D01*
X91349523Y-191940380D01*
X92301904Y-191940380D02*
X91730476Y-191940380D01*
X92016190Y-191940380D02*
X92016190Y-190940380D01*
X91920952Y-191083238D01*
X91825714Y-191178476D01*
X91730476Y-191226095D01*
%TO.C,D10*%
X71182114Y-188331580D02*
X71182114Y-187331580D01*
X71420209Y-187331580D01*
X71563066Y-187379200D01*
X71658304Y-187474438D01*
X71705923Y-187569676D01*
X71753542Y-187760152D01*
X71753542Y-187903009D01*
X71705923Y-188093485D01*
X71658304Y-188188723D01*
X71563066Y-188283961D01*
X71420209Y-188331580D01*
X71182114Y-188331580D01*
X72705923Y-188331580D02*
X72134495Y-188331580D01*
X72420209Y-188331580D02*
X72420209Y-187331580D01*
X72324971Y-187474438D01*
X72229733Y-187569676D01*
X72134495Y-187617295D01*
X73324971Y-187331580D02*
X73420209Y-187331580D01*
X73515447Y-187379200D01*
X73563066Y-187426819D01*
X73610685Y-187522057D01*
X73658304Y-187712533D01*
X73658304Y-187950628D01*
X73610685Y-188141104D01*
X73563066Y-188236342D01*
X73515447Y-188283961D01*
X73420209Y-188331580D01*
X73324971Y-188331580D01*
X73229733Y-188283961D01*
X73182114Y-188236342D01*
X73134495Y-188141104D01*
X73086876Y-187950628D01*
X73086876Y-187712533D01*
X73134495Y-187522057D01*
X73182114Y-187426819D01*
X73229733Y-187379200D01*
X73324971Y-187331580D01*
%TO.C,D4*%
X85502380Y-141888095D02*
X84502380Y-141888095D01*
X84502380Y-141650000D01*
X84550000Y-141507142D01*
X84645238Y-141411904D01*
X84740476Y-141364285D01*
X84930952Y-141316666D01*
X85073809Y-141316666D01*
X85264285Y-141364285D01*
X85359523Y-141411904D01*
X85454761Y-141507142D01*
X85502380Y-141650000D01*
X85502380Y-141888095D01*
X84835714Y-140459523D02*
X85502380Y-140459523D01*
X84454761Y-140697619D02*
X85169047Y-140935714D01*
X85169047Y-140316666D01*
%TO.C,R16*%
X101776342Y-152973780D02*
X101443009Y-152497590D01*
X101204914Y-152973780D02*
X101204914Y-151973780D01*
X101585866Y-151973780D01*
X101681104Y-152021400D01*
X101728723Y-152069019D01*
X101776342Y-152164257D01*
X101776342Y-152307114D01*
X101728723Y-152402352D01*
X101681104Y-152449971D01*
X101585866Y-152497590D01*
X101204914Y-152497590D01*
X102728723Y-152973780D02*
X102157295Y-152973780D01*
X102443009Y-152973780D02*
X102443009Y-151973780D01*
X102347771Y-152116638D01*
X102252533Y-152211876D01*
X102157295Y-152259495D01*
X103585866Y-151973780D02*
X103395390Y-151973780D01*
X103300152Y-152021400D01*
X103252533Y-152069019D01*
X103157295Y-152211876D01*
X103109676Y-152402352D01*
X103109676Y-152783304D01*
X103157295Y-152878542D01*
X103204914Y-152926161D01*
X103300152Y-152973780D01*
X103490628Y-152973780D01*
X103585866Y-152926161D01*
X103633485Y-152878542D01*
X103681104Y-152783304D01*
X103681104Y-152545209D01*
X103633485Y-152449971D01*
X103585866Y-152402352D01*
X103490628Y-152354733D01*
X103300152Y-152354733D01*
X103204914Y-152402352D01*
X103157295Y-152449971D01*
X103109676Y-152545209D01*
%TO.C,R10*%
X86452380Y-155192857D02*
X85976190Y-155526190D01*
X86452380Y-155764285D02*
X85452380Y-155764285D01*
X85452380Y-155383333D01*
X85500000Y-155288095D01*
X85547619Y-155240476D01*
X85642857Y-155192857D01*
X85785714Y-155192857D01*
X85880952Y-155240476D01*
X85928571Y-155288095D01*
X85976190Y-155383333D01*
X85976190Y-155764285D01*
X86452380Y-154240476D02*
X86452380Y-154811904D01*
X86452380Y-154526190D02*
X85452380Y-154526190D01*
X85595238Y-154621428D01*
X85690476Y-154716666D01*
X85738095Y-154811904D01*
X85452380Y-153621428D02*
X85452380Y-153526190D01*
X85500000Y-153430952D01*
X85547619Y-153383333D01*
X85642857Y-153335714D01*
X85833333Y-153288095D01*
X86071428Y-153288095D01*
X86261904Y-153335714D01*
X86357142Y-153383333D01*
X86404761Y-153430952D01*
X86452380Y-153526190D01*
X86452380Y-153621428D01*
X86404761Y-153716666D01*
X86357142Y-153764285D01*
X86261904Y-153811904D01*
X86071428Y-153859523D01*
X85833333Y-153859523D01*
X85642857Y-153811904D01*
X85547619Y-153764285D01*
X85500000Y-153716666D01*
X85452380Y-153621428D01*
%TO.C,U4*%
X94672295Y-133055980D02*
X94672295Y-133865504D01*
X94719914Y-133960742D01*
X94767533Y-134008361D01*
X94862771Y-134055980D01*
X95053247Y-134055980D01*
X95148485Y-134008361D01*
X95196104Y-133960742D01*
X95243723Y-133865504D01*
X95243723Y-133055980D01*
X96148485Y-133389314D02*
X96148485Y-134055980D01*
X95910390Y-133008361D02*
X95672295Y-133722647D01*
X96291342Y-133722647D01*
%TO.C,C19*%
X62818242Y-149642857D02*
X62865861Y-149690476D01*
X62913480Y-149833333D01*
X62913480Y-149928571D01*
X62865861Y-150071428D01*
X62770623Y-150166666D01*
X62675385Y-150214285D01*
X62484909Y-150261904D01*
X62342052Y-150261904D01*
X62151576Y-150214285D01*
X62056338Y-150166666D01*
X61961100Y-150071428D01*
X61913480Y-149928571D01*
X61913480Y-149833333D01*
X61961100Y-149690476D01*
X62008719Y-149642857D01*
X62913480Y-148690476D02*
X62913480Y-149261904D01*
X62913480Y-148976190D02*
X61913480Y-148976190D01*
X62056338Y-149071428D01*
X62151576Y-149166666D01*
X62199195Y-149261904D01*
X62913480Y-148214285D02*
X62913480Y-148023809D01*
X62865861Y-147928571D01*
X62818242Y-147880952D01*
X62675385Y-147785714D01*
X62484909Y-147738095D01*
X62103957Y-147738095D01*
X62008719Y-147785714D01*
X61961100Y-147833333D01*
X61913480Y-147928571D01*
X61913480Y-148119047D01*
X61961100Y-148214285D01*
X62008719Y-148261904D01*
X62103957Y-148309523D01*
X62342052Y-148309523D01*
X62437290Y-148261904D01*
X62484909Y-148214285D01*
X62532528Y-148119047D01*
X62532528Y-147928571D01*
X62484909Y-147833333D01*
X62437290Y-147785714D01*
X62342052Y-147738095D01*
%TO.C,R31*%
X79703742Y-185333380D02*
X79370409Y-184857190D01*
X79132314Y-185333380D02*
X79132314Y-184333380D01*
X79513266Y-184333380D01*
X79608504Y-184381000D01*
X79656123Y-184428619D01*
X79703742Y-184523857D01*
X79703742Y-184666714D01*
X79656123Y-184761952D01*
X79608504Y-184809571D01*
X79513266Y-184857190D01*
X79132314Y-184857190D01*
X80037076Y-184333380D02*
X80656123Y-184333380D01*
X80322790Y-184714333D01*
X80465647Y-184714333D01*
X80560885Y-184761952D01*
X80608504Y-184809571D01*
X80656123Y-184904809D01*
X80656123Y-185142904D01*
X80608504Y-185238142D01*
X80560885Y-185285761D01*
X80465647Y-185333380D01*
X80179933Y-185333380D01*
X80084695Y-185285761D01*
X80037076Y-185238142D01*
X81608504Y-185333380D02*
X81037076Y-185333380D01*
X81322790Y-185333380D02*
X81322790Y-184333380D01*
X81227552Y-184476238D01*
X81132314Y-184571476D01*
X81037076Y-184619095D01*
%TO.C,C21*%
X66521142Y-160346142D02*
X66473523Y-160393761D01*
X66330666Y-160441380D01*
X66235428Y-160441380D01*
X66092571Y-160393761D01*
X65997333Y-160298523D01*
X65949714Y-160203285D01*
X65902095Y-160012809D01*
X65902095Y-159869952D01*
X65949714Y-159679476D01*
X65997333Y-159584238D01*
X66092571Y-159489000D01*
X66235428Y-159441380D01*
X66330666Y-159441380D01*
X66473523Y-159489000D01*
X66521142Y-159536619D01*
X66902095Y-159536619D02*
X66949714Y-159489000D01*
X67044952Y-159441380D01*
X67283047Y-159441380D01*
X67378285Y-159489000D01*
X67425904Y-159536619D01*
X67473523Y-159631857D01*
X67473523Y-159727095D01*
X67425904Y-159869952D01*
X66854476Y-160441380D01*
X67473523Y-160441380D01*
X68425904Y-160441380D02*
X67854476Y-160441380D01*
X68140190Y-160441380D02*
X68140190Y-159441380D01*
X68044952Y-159584238D01*
X67949714Y-159679476D01*
X67854476Y-159727095D01*
%TO.C,U1*%
X33686895Y-172344580D02*
X33686895Y-173154104D01*
X33734514Y-173249342D01*
X33782133Y-173296961D01*
X33877371Y-173344580D01*
X34067847Y-173344580D01*
X34163085Y-173296961D01*
X34210704Y-173249342D01*
X34258323Y-173154104D01*
X34258323Y-172344580D01*
X35258323Y-173344580D02*
X34686895Y-173344580D01*
X34972609Y-173344580D02*
X34972609Y-172344580D01*
X34877371Y-172487438D01*
X34782133Y-172582676D01*
X34686895Y-172630295D01*
%TO.C,C44*%
X65452742Y-167394142D02*
X65405123Y-167441761D01*
X65262266Y-167489380D01*
X65167028Y-167489380D01*
X65024171Y-167441761D01*
X64928933Y-167346523D01*
X64881314Y-167251285D01*
X64833695Y-167060809D01*
X64833695Y-166917952D01*
X64881314Y-166727476D01*
X64928933Y-166632238D01*
X65024171Y-166537000D01*
X65167028Y-166489380D01*
X65262266Y-166489380D01*
X65405123Y-166537000D01*
X65452742Y-166584619D01*
X66309885Y-166822714D02*
X66309885Y-167489380D01*
X66071790Y-166441761D02*
X65833695Y-167156047D01*
X66452742Y-167156047D01*
X67262266Y-166822714D02*
X67262266Y-167489380D01*
X67024171Y-166441761D02*
X66786076Y-167156047D01*
X67405123Y-167156047D01*
%TO.C,R33*%
X72972742Y-186222380D02*
X72639409Y-185746190D01*
X72401314Y-186222380D02*
X72401314Y-185222380D01*
X72782266Y-185222380D01*
X72877504Y-185270000D01*
X72925123Y-185317619D01*
X72972742Y-185412857D01*
X72972742Y-185555714D01*
X72925123Y-185650952D01*
X72877504Y-185698571D01*
X72782266Y-185746190D01*
X72401314Y-185746190D01*
X73306076Y-185222380D02*
X73925123Y-185222380D01*
X73591790Y-185603333D01*
X73734647Y-185603333D01*
X73829885Y-185650952D01*
X73877504Y-185698571D01*
X73925123Y-185793809D01*
X73925123Y-186031904D01*
X73877504Y-186127142D01*
X73829885Y-186174761D01*
X73734647Y-186222380D01*
X73448933Y-186222380D01*
X73353695Y-186174761D01*
X73306076Y-186127142D01*
X74258457Y-185222380D02*
X74877504Y-185222380D01*
X74544171Y-185603333D01*
X74687028Y-185603333D01*
X74782266Y-185650952D01*
X74829885Y-185698571D01*
X74877504Y-185793809D01*
X74877504Y-186031904D01*
X74829885Y-186127142D01*
X74782266Y-186174761D01*
X74687028Y-186222380D01*
X74401314Y-186222380D01*
X74306076Y-186174761D01*
X74258457Y-186127142D01*
%TO.C,D2*%
X31085504Y-149392380D02*
X31085504Y-148392380D01*
X31323600Y-148392380D01*
X31466457Y-148440000D01*
X31561695Y-148535238D01*
X31609314Y-148630476D01*
X31656933Y-148820952D01*
X31656933Y-148963809D01*
X31609314Y-149154285D01*
X31561695Y-149249523D01*
X31466457Y-149344761D01*
X31323600Y-149392380D01*
X31085504Y-149392380D01*
X32037885Y-148487619D02*
X32085504Y-148440000D01*
X32180742Y-148392380D01*
X32418838Y-148392380D01*
X32514076Y-148440000D01*
X32561695Y-148487619D01*
X32609314Y-148582857D01*
X32609314Y-148678095D01*
X32561695Y-148820952D01*
X31990266Y-149392380D01*
X32609314Y-149392380D01*
%TO.C,C4*%
X47757142Y-174666666D02*
X47804761Y-174714285D01*
X47852380Y-174857142D01*
X47852380Y-174952380D01*
X47804761Y-175095238D01*
X47709523Y-175190476D01*
X47614285Y-175238095D01*
X47423809Y-175285714D01*
X47280952Y-175285714D01*
X47090476Y-175238095D01*
X46995238Y-175190476D01*
X46900000Y-175095238D01*
X46852380Y-174952380D01*
X46852380Y-174857142D01*
X46900000Y-174714285D01*
X46947619Y-174666666D01*
X47185714Y-173809523D02*
X47852380Y-173809523D01*
X46804761Y-174047619D02*
X47519047Y-174285714D01*
X47519047Y-173666666D01*
%TO.C,C13*%
X53152742Y-165494142D02*
X53105123Y-165541761D01*
X52962266Y-165589380D01*
X52867028Y-165589380D01*
X52724171Y-165541761D01*
X52628933Y-165446523D01*
X52581314Y-165351285D01*
X52533695Y-165160809D01*
X52533695Y-165017952D01*
X52581314Y-164827476D01*
X52628933Y-164732238D01*
X52724171Y-164637000D01*
X52867028Y-164589380D01*
X52962266Y-164589380D01*
X53105123Y-164637000D01*
X53152742Y-164684619D01*
X54105123Y-165589380D02*
X53533695Y-165589380D01*
X53819409Y-165589380D02*
X53819409Y-164589380D01*
X53724171Y-164732238D01*
X53628933Y-164827476D01*
X53533695Y-164875095D01*
X54438457Y-164589380D02*
X55057504Y-164589380D01*
X54724171Y-164970333D01*
X54867028Y-164970333D01*
X54962266Y-165017952D01*
X55009885Y-165065571D01*
X55057504Y-165160809D01*
X55057504Y-165398904D01*
X55009885Y-165494142D01*
X54962266Y-165541761D01*
X54867028Y-165589380D01*
X54581314Y-165589380D01*
X54486076Y-165541761D01*
X54438457Y-165494142D01*
%TO.C,C5*%
X46677333Y-168194742D02*
X46629714Y-168242361D01*
X46486857Y-168289980D01*
X46391619Y-168289980D01*
X46248761Y-168242361D01*
X46153523Y-168147123D01*
X46105904Y-168051885D01*
X46058285Y-167861409D01*
X46058285Y-167718552D01*
X46105904Y-167528076D01*
X46153523Y-167432838D01*
X46248761Y-167337600D01*
X46391619Y-167289980D01*
X46486857Y-167289980D01*
X46629714Y-167337600D01*
X46677333Y-167385219D01*
X47582095Y-167289980D02*
X47105904Y-167289980D01*
X47058285Y-167766171D01*
X47105904Y-167718552D01*
X47201142Y-167670933D01*
X47439238Y-167670933D01*
X47534476Y-167718552D01*
X47582095Y-167766171D01*
X47629714Y-167861409D01*
X47629714Y-168099504D01*
X47582095Y-168194742D01*
X47534476Y-168242361D01*
X47439238Y-168289980D01*
X47201142Y-168289980D01*
X47105904Y-168242361D01*
X47058285Y-168194742D01*
%TO.C,C12*%
X52318642Y-153894542D02*
X52271023Y-153942161D01*
X52128166Y-153989780D01*
X52032928Y-153989780D01*
X51890071Y-153942161D01*
X51794833Y-153846923D01*
X51747214Y-153751685D01*
X51699595Y-153561209D01*
X51699595Y-153418352D01*
X51747214Y-153227876D01*
X51794833Y-153132638D01*
X51890071Y-153037400D01*
X52032928Y-152989780D01*
X52128166Y-152989780D01*
X52271023Y-153037400D01*
X52318642Y-153085019D01*
X53271023Y-153989780D02*
X52699595Y-153989780D01*
X52985309Y-153989780D02*
X52985309Y-152989780D01*
X52890071Y-153132638D01*
X52794833Y-153227876D01*
X52699595Y-153275495D01*
X53651976Y-153085019D02*
X53699595Y-153037400D01*
X53794833Y-152989780D01*
X54032928Y-152989780D01*
X54128166Y-153037400D01*
X54175785Y-153085019D01*
X54223404Y-153180257D01*
X54223404Y-153275495D01*
X54175785Y-153418352D01*
X53604357Y-153989780D01*
X54223404Y-153989780D01*
%TO.C,R24*%
X90452742Y-173089380D02*
X90119409Y-172613190D01*
X89881314Y-173089380D02*
X89881314Y-172089380D01*
X90262266Y-172089380D01*
X90357504Y-172137000D01*
X90405123Y-172184619D01*
X90452742Y-172279857D01*
X90452742Y-172422714D01*
X90405123Y-172517952D01*
X90357504Y-172565571D01*
X90262266Y-172613190D01*
X89881314Y-172613190D01*
X90833695Y-172184619D02*
X90881314Y-172137000D01*
X90976552Y-172089380D01*
X91214647Y-172089380D01*
X91309885Y-172137000D01*
X91357504Y-172184619D01*
X91405123Y-172279857D01*
X91405123Y-172375095D01*
X91357504Y-172517952D01*
X90786076Y-173089380D01*
X91405123Y-173089380D01*
X92262266Y-172422714D02*
X92262266Y-173089380D01*
X92024171Y-172041761D02*
X91786076Y-172756047D01*
X92405123Y-172756047D01*
%TO.C,C7*%
X39530342Y-164727666D02*
X39577961Y-164775285D01*
X39625580Y-164918142D01*
X39625580Y-165013380D01*
X39577961Y-165156238D01*
X39482723Y-165251476D01*
X39387485Y-165299095D01*
X39197009Y-165346714D01*
X39054152Y-165346714D01*
X38863676Y-165299095D01*
X38768438Y-165251476D01*
X38673200Y-165156238D01*
X38625580Y-165013380D01*
X38625580Y-164918142D01*
X38673200Y-164775285D01*
X38720819Y-164727666D01*
X38625580Y-164394333D02*
X38625580Y-163727666D01*
X39625580Y-164156238D01*
%TO.C,R22*%
X91252742Y-185789380D02*
X90919409Y-185313190D01*
X90681314Y-185789380D02*
X90681314Y-184789380D01*
X91062266Y-184789380D01*
X91157504Y-184837000D01*
X91205123Y-184884619D01*
X91252742Y-184979857D01*
X91252742Y-185122714D01*
X91205123Y-185217952D01*
X91157504Y-185265571D01*
X91062266Y-185313190D01*
X90681314Y-185313190D01*
X91633695Y-184884619D02*
X91681314Y-184837000D01*
X91776552Y-184789380D01*
X92014647Y-184789380D01*
X92109885Y-184837000D01*
X92157504Y-184884619D01*
X92205123Y-184979857D01*
X92205123Y-185075095D01*
X92157504Y-185217952D01*
X91586076Y-185789380D01*
X92205123Y-185789380D01*
X92586076Y-184884619D02*
X92633695Y-184837000D01*
X92728933Y-184789380D01*
X92967028Y-184789380D01*
X93062266Y-184837000D01*
X93109885Y-184884619D01*
X93157504Y-184979857D01*
X93157504Y-185075095D01*
X93109885Y-185217952D01*
X92538457Y-185789380D01*
X93157504Y-185789380D01*
%TO.C,C1*%
X26890733Y-194152531D02*
X26843114Y-194200150D01*
X26700257Y-194247769D01*
X26605019Y-194247769D01*
X26462161Y-194200150D01*
X26366923Y-194104912D01*
X26319304Y-194009674D01*
X26271685Y-193819198D01*
X26271685Y-193676341D01*
X26319304Y-193485865D01*
X26366923Y-193390627D01*
X26462161Y-193295389D01*
X26605019Y-193247769D01*
X26700257Y-193247769D01*
X26843114Y-193295389D01*
X26890733Y-193343008D01*
X27843114Y-194247769D02*
X27271685Y-194247769D01*
X27557400Y-194247769D02*
X27557400Y-193247769D01*
X27462161Y-193390627D01*
X27366923Y-193485865D01*
X27271685Y-193533484D01*
%TO.C,R11*%
X86387980Y-136806657D02*
X85911790Y-137139990D01*
X86387980Y-137378085D02*
X85387980Y-137378085D01*
X85387980Y-136997133D01*
X85435600Y-136901895D01*
X85483219Y-136854276D01*
X85578457Y-136806657D01*
X85721314Y-136806657D01*
X85816552Y-136854276D01*
X85864171Y-136901895D01*
X85911790Y-136997133D01*
X85911790Y-137378085D01*
X86387980Y-135854276D02*
X86387980Y-136425704D01*
X86387980Y-136139990D02*
X85387980Y-136139990D01*
X85530838Y-136235228D01*
X85626076Y-136330466D01*
X85673695Y-136425704D01*
X86387980Y-134901895D02*
X86387980Y-135473323D01*
X86387980Y-135187609D02*
X85387980Y-135187609D01*
X85530838Y-135282847D01*
X85626076Y-135378085D01*
X85673695Y-135473323D01*
%TO.C,Y2*%
X54744990Y-159743990D02*
X55221180Y-159743990D01*
X54221180Y-160077323D02*
X54744990Y-159743990D01*
X54221180Y-159410657D01*
X54316419Y-159124942D02*
X54268800Y-159077323D01*
X54221180Y-158982085D01*
X54221180Y-158743990D01*
X54268800Y-158648752D01*
X54316419Y-158601133D01*
X54411657Y-158553514D01*
X54506895Y-158553514D01*
X54649752Y-158601133D01*
X55221180Y-159172561D01*
X55221180Y-158553514D01*
%TO.C,C41*%
X73807142Y-164609442D02*
X73759523Y-164657061D01*
X73616666Y-164704680D01*
X73521428Y-164704680D01*
X73378571Y-164657061D01*
X73283333Y-164561823D01*
X73235714Y-164466585D01*
X73188095Y-164276109D01*
X73188095Y-164133252D01*
X73235714Y-163942776D01*
X73283333Y-163847538D01*
X73378571Y-163752300D01*
X73521428Y-163704680D01*
X73616666Y-163704680D01*
X73759523Y-163752300D01*
X73807142Y-163799919D01*
X74664285Y-164038014D02*
X74664285Y-164704680D01*
X74426190Y-163657061D02*
X74188095Y-164371347D01*
X74807142Y-164371347D01*
X75711904Y-164704680D02*
X75140476Y-164704680D01*
X75426190Y-164704680D02*
X75426190Y-163704680D01*
X75330952Y-163847538D01*
X75235714Y-163942776D01*
X75140476Y-163990395D01*
%TO.C,R18*%
X88002180Y-183806157D02*
X87525990Y-184139490D01*
X88002180Y-184377585D02*
X87002180Y-184377585D01*
X87002180Y-183996633D01*
X87049800Y-183901395D01*
X87097419Y-183853776D01*
X87192657Y-183806157D01*
X87335514Y-183806157D01*
X87430752Y-183853776D01*
X87478371Y-183901395D01*
X87525990Y-183996633D01*
X87525990Y-184377585D01*
X88002180Y-182853776D02*
X88002180Y-183425204D01*
X88002180Y-183139490D02*
X87002180Y-183139490D01*
X87145038Y-183234728D01*
X87240276Y-183329966D01*
X87287895Y-183425204D01*
X87430752Y-182282347D02*
X87383133Y-182377585D01*
X87335514Y-182425204D01*
X87240276Y-182472823D01*
X87192657Y-182472823D01*
X87097419Y-182425204D01*
X87049800Y-182377585D01*
X87002180Y-182282347D01*
X87002180Y-182091871D01*
X87049800Y-181996633D01*
X87097419Y-181949014D01*
X87192657Y-181901395D01*
X87240276Y-181901395D01*
X87335514Y-181949014D01*
X87383133Y-181996633D01*
X87430752Y-182091871D01*
X87430752Y-182282347D01*
X87478371Y-182377585D01*
X87525990Y-182425204D01*
X87621228Y-182472823D01*
X87811704Y-182472823D01*
X87906942Y-182425204D01*
X87954561Y-182377585D01*
X88002180Y-182282347D01*
X88002180Y-182091871D01*
X87954561Y-181996633D01*
X87906942Y-181949014D01*
X87811704Y-181901395D01*
X87621228Y-181901395D01*
X87525990Y-181949014D01*
X87478371Y-181996633D01*
X87430752Y-182091871D01*
%TO.C,D1*%
X40670304Y-193803180D02*
X40670304Y-192803180D01*
X40908400Y-192803180D01*
X41051257Y-192850800D01*
X41146495Y-192946038D01*
X41194114Y-193041276D01*
X41241733Y-193231752D01*
X41241733Y-193374609D01*
X41194114Y-193565085D01*
X41146495Y-193660323D01*
X41051257Y-193755561D01*
X40908400Y-193803180D01*
X40670304Y-193803180D01*
X42194114Y-193803180D02*
X41622685Y-193803180D01*
X41908400Y-193803180D02*
X41908400Y-192803180D01*
X41813161Y-192946038D01*
X41717923Y-193041276D01*
X41622685Y-193088895D01*
X48766495Y-192683180D02*
X48766495Y-191683180D01*
X49337923Y-192683180D02*
X48909352Y-192111752D01*
X49337923Y-191683180D02*
X48766495Y-192254609D01*
%TO.C,C16*%
X75770642Y-160346142D02*
X75723023Y-160393761D01*
X75580166Y-160441380D01*
X75484928Y-160441380D01*
X75342071Y-160393761D01*
X75246833Y-160298523D01*
X75199214Y-160203285D01*
X75151595Y-160012809D01*
X75151595Y-159869952D01*
X75199214Y-159679476D01*
X75246833Y-159584238D01*
X75342071Y-159489000D01*
X75484928Y-159441380D01*
X75580166Y-159441380D01*
X75723023Y-159489000D01*
X75770642Y-159536619D01*
X76723023Y-160441380D02*
X76151595Y-160441380D01*
X76437309Y-160441380D02*
X76437309Y-159441380D01*
X76342071Y-159584238D01*
X76246833Y-159679476D01*
X76151595Y-159727095D01*
X77580166Y-159441380D02*
X77389690Y-159441380D01*
X77294452Y-159489000D01*
X77246833Y-159536619D01*
X77151595Y-159679476D01*
X77103976Y-159869952D01*
X77103976Y-160250904D01*
X77151595Y-160346142D01*
X77199214Y-160393761D01*
X77294452Y-160441380D01*
X77484928Y-160441380D01*
X77580166Y-160393761D01*
X77627785Y-160346142D01*
X77675404Y-160250904D01*
X77675404Y-160012809D01*
X77627785Y-159917571D01*
X77580166Y-159869952D01*
X77484928Y-159822333D01*
X77294452Y-159822333D01*
X77199214Y-159869952D01*
X77151595Y-159917571D01*
X77103976Y-160012809D01*
%TO.C,U5*%
X94672295Y-153165980D02*
X94672295Y-153975504D01*
X94719914Y-154070742D01*
X94767533Y-154118361D01*
X94862771Y-154165980D01*
X95053247Y-154165980D01*
X95148485Y-154118361D01*
X95196104Y-154070742D01*
X95243723Y-153975504D01*
X95243723Y-153165980D01*
X96196104Y-153165980D02*
X95719914Y-153165980D01*
X95672295Y-153642171D01*
X95719914Y-153594552D01*
X95815152Y-153546933D01*
X96053247Y-153546933D01*
X96148485Y-153594552D01*
X96196104Y-153642171D01*
X96243723Y-153737409D01*
X96243723Y-153975504D01*
X96196104Y-154070742D01*
X96148485Y-154118361D01*
X96053247Y-154165980D01*
X95815152Y-154165980D01*
X95719914Y-154118361D01*
X95672295Y-154070742D01*
%TO.C,C30*%
X98940942Y-174072357D02*
X98988561Y-174119976D01*
X99036180Y-174262833D01*
X99036180Y-174358071D01*
X98988561Y-174500928D01*
X98893323Y-174596166D01*
X98798085Y-174643785D01*
X98607609Y-174691404D01*
X98464752Y-174691404D01*
X98274276Y-174643785D01*
X98179038Y-174596166D01*
X98083800Y-174500928D01*
X98036180Y-174358071D01*
X98036180Y-174262833D01*
X98083800Y-174119976D01*
X98131419Y-174072357D01*
X98036180Y-173739023D02*
X98036180Y-173119976D01*
X98417133Y-173453309D01*
X98417133Y-173310452D01*
X98464752Y-173215214D01*
X98512371Y-173167595D01*
X98607609Y-173119976D01*
X98845704Y-173119976D01*
X98940942Y-173167595D01*
X98988561Y-173215214D01*
X99036180Y-173310452D01*
X99036180Y-173596166D01*
X98988561Y-173691404D01*
X98940942Y-173739023D01*
X98036180Y-172500928D02*
X98036180Y-172405690D01*
X98083800Y-172310452D01*
X98131419Y-172262833D01*
X98226657Y-172215214D01*
X98417133Y-172167595D01*
X98655228Y-172167595D01*
X98845704Y-172215214D01*
X98940942Y-172262833D01*
X98988561Y-172310452D01*
X99036180Y-172405690D01*
X99036180Y-172500928D01*
X98988561Y-172596166D01*
X98940942Y-172643785D01*
X98845704Y-172691404D01*
X98655228Y-172739023D01*
X98417133Y-172739023D01*
X98226657Y-172691404D01*
X98131419Y-172643785D01*
X98083800Y-172596166D01*
X98036180Y-172500928D01*
%TO.C,R3*%
X51747980Y-160803666D02*
X51271790Y-161137000D01*
X51747980Y-161375095D02*
X50747980Y-161375095D01*
X50747980Y-160994142D01*
X50795600Y-160898904D01*
X50843219Y-160851285D01*
X50938457Y-160803666D01*
X51081314Y-160803666D01*
X51176552Y-160851285D01*
X51224171Y-160898904D01*
X51271790Y-160994142D01*
X51271790Y-161375095D01*
X50747980Y-160470333D02*
X50747980Y-159851285D01*
X51128933Y-160184619D01*
X51128933Y-160041761D01*
X51176552Y-159946523D01*
X51224171Y-159898904D01*
X51319409Y-159851285D01*
X51557504Y-159851285D01*
X51652742Y-159898904D01*
X51700361Y-159946523D01*
X51747980Y-160041761D01*
X51747980Y-160327476D01*
X51700361Y-160422714D01*
X51652742Y-160470333D01*
%TO.C,C37*%
X83243742Y-180393057D02*
X83291361Y-180440676D01*
X83338980Y-180583533D01*
X83338980Y-180678771D01*
X83291361Y-180821628D01*
X83196123Y-180916866D01*
X83100885Y-180964485D01*
X82910409Y-181012104D01*
X82767552Y-181012104D01*
X82577076Y-180964485D01*
X82481838Y-180916866D01*
X82386600Y-180821628D01*
X82338980Y-180678771D01*
X82338980Y-180583533D01*
X82386600Y-180440676D01*
X82434219Y-180393057D01*
X82338980Y-180059723D02*
X82338980Y-179440676D01*
X82719933Y-179774009D01*
X82719933Y-179631152D01*
X82767552Y-179535914D01*
X82815171Y-179488295D01*
X82910409Y-179440676D01*
X83148504Y-179440676D01*
X83243742Y-179488295D01*
X83291361Y-179535914D01*
X83338980Y-179631152D01*
X83338980Y-179916866D01*
X83291361Y-180012104D01*
X83243742Y-180059723D01*
X82338980Y-179107342D02*
X82338980Y-178440676D01*
X83338980Y-178869247D01*
%TO.C,R35*%
X70852742Y-191889380D02*
X70519409Y-191413190D01*
X70281314Y-191889380D02*
X70281314Y-190889380D01*
X70662266Y-190889380D01*
X70757504Y-190937000D01*
X70805123Y-190984619D01*
X70852742Y-191079857D01*
X70852742Y-191222714D01*
X70805123Y-191317952D01*
X70757504Y-191365571D01*
X70662266Y-191413190D01*
X70281314Y-191413190D01*
X71186076Y-190889380D02*
X71805123Y-190889380D01*
X71471790Y-191270333D01*
X71614647Y-191270333D01*
X71709885Y-191317952D01*
X71757504Y-191365571D01*
X71805123Y-191460809D01*
X71805123Y-191698904D01*
X71757504Y-191794142D01*
X71709885Y-191841761D01*
X71614647Y-191889380D01*
X71328933Y-191889380D01*
X71233695Y-191841761D01*
X71186076Y-191794142D01*
X72709885Y-190889380D02*
X72233695Y-190889380D01*
X72186076Y-191365571D01*
X72233695Y-191317952D01*
X72328933Y-191270333D01*
X72567028Y-191270333D01*
X72662266Y-191317952D01*
X72709885Y-191365571D01*
X72757504Y-191460809D01*
X72757504Y-191698904D01*
X72709885Y-191794142D01*
X72662266Y-191841761D01*
X72567028Y-191889380D01*
X72328933Y-191889380D01*
X72233695Y-191841761D01*
X72186076Y-191794142D01*
%TO.C,R1*%
X36433333Y-149352380D02*
X36100000Y-148876190D01*
X35861904Y-149352380D02*
X35861904Y-148352380D01*
X36242857Y-148352380D01*
X36338095Y-148400000D01*
X36385714Y-148447619D01*
X36433333Y-148542857D01*
X36433333Y-148685714D01*
X36385714Y-148780952D01*
X36338095Y-148828571D01*
X36242857Y-148876190D01*
X35861904Y-148876190D01*
X37385714Y-149352380D02*
X36814285Y-149352380D01*
X37100000Y-149352380D02*
X37100000Y-148352380D01*
X37004761Y-148495238D01*
X36909523Y-148590476D01*
X36814285Y-148638095D01*
%TO.C,C18*%
X66898242Y-145077142D02*
X66850623Y-145124761D01*
X66707766Y-145172380D01*
X66612528Y-145172380D01*
X66469671Y-145124761D01*
X66374433Y-145029523D01*
X66326814Y-144934285D01*
X66279195Y-144743809D01*
X66279195Y-144600952D01*
X66326814Y-144410476D01*
X66374433Y-144315238D01*
X66469671Y-144220000D01*
X66612528Y-144172380D01*
X66707766Y-144172380D01*
X66850623Y-144220000D01*
X66898242Y-144267619D01*
X67850623Y-145172380D02*
X67279195Y-145172380D01*
X67564909Y-145172380D02*
X67564909Y-144172380D01*
X67469671Y-144315238D01*
X67374433Y-144410476D01*
X67279195Y-144458095D01*
X68422052Y-144600952D02*
X68326814Y-144553333D01*
X68279195Y-144505714D01*
X68231576Y-144410476D01*
X68231576Y-144362857D01*
X68279195Y-144267619D01*
X68326814Y-144220000D01*
X68422052Y-144172380D01*
X68612528Y-144172380D01*
X68707766Y-144220000D01*
X68755385Y-144267619D01*
X68803004Y-144362857D01*
X68803004Y-144410476D01*
X68755385Y-144505714D01*
X68707766Y-144553333D01*
X68612528Y-144600952D01*
X68422052Y-144600952D01*
X68326814Y-144648571D01*
X68279195Y-144696190D01*
X68231576Y-144791428D01*
X68231576Y-144981904D01*
X68279195Y-145077142D01*
X68326814Y-145124761D01*
X68422052Y-145172380D01*
X68612528Y-145172380D01*
X68707766Y-145124761D01*
X68755385Y-145077142D01*
X68803004Y-144981904D01*
X68803004Y-144791428D01*
X68755385Y-144696190D01*
X68707766Y-144648571D01*
X68612528Y-144600952D01*
%TO.C,L1*%
X23664933Y-158104580D02*
X23188742Y-158104580D01*
X23188742Y-157104580D01*
X24522076Y-158104580D02*
X23950647Y-158104580D01*
X24236361Y-158104580D02*
X24236361Y-157104580D01*
X24141123Y-157247438D01*
X24045885Y-157342676D01*
X23950647Y-157390295D01*
%TO.C,C23*%
X104352742Y-157779857D02*
X104400361Y-157827476D01*
X104447980Y-157970333D01*
X104447980Y-158065571D01*
X104400361Y-158208428D01*
X104305123Y-158303666D01*
X104209885Y-158351285D01*
X104019409Y-158398904D01*
X103876552Y-158398904D01*
X103686076Y-158351285D01*
X103590838Y-158303666D01*
X103495600Y-158208428D01*
X103447980Y-158065571D01*
X103447980Y-157970333D01*
X103495600Y-157827476D01*
X103543219Y-157779857D01*
X103543219Y-157398904D02*
X103495600Y-157351285D01*
X103447980Y-157256047D01*
X103447980Y-157017952D01*
X103495600Y-156922714D01*
X103543219Y-156875095D01*
X103638457Y-156827476D01*
X103733695Y-156827476D01*
X103876552Y-156875095D01*
X104447980Y-157446523D01*
X104447980Y-156827476D01*
X103447980Y-156494142D02*
X103447980Y-155875095D01*
X103828933Y-156208428D01*
X103828933Y-156065571D01*
X103876552Y-155970333D01*
X103924171Y-155922714D01*
X104019409Y-155875095D01*
X104257504Y-155875095D01*
X104352742Y-155922714D01*
X104400361Y-155970333D01*
X104447980Y-156065571D01*
X104447980Y-156351285D01*
X104400361Y-156446523D01*
X104352742Y-156494142D01*
%TO.C,C10*%
X48750542Y-144960057D02*
X48798161Y-145007676D01*
X48845780Y-145150533D01*
X48845780Y-145245771D01*
X48798161Y-145388628D01*
X48702923Y-145483866D01*
X48607685Y-145531485D01*
X48417209Y-145579104D01*
X48274352Y-145579104D01*
X48083876Y-145531485D01*
X47988638Y-145483866D01*
X47893400Y-145388628D01*
X47845780Y-145245771D01*
X47845780Y-145150533D01*
X47893400Y-145007676D01*
X47941019Y-144960057D01*
X48845780Y-144007676D02*
X48845780Y-144579104D01*
X48845780Y-144293390D02*
X47845780Y-144293390D01*
X47988638Y-144388628D01*
X48083876Y-144483866D01*
X48131495Y-144579104D01*
X47845780Y-143388628D02*
X47845780Y-143293390D01*
X47893400Y-143198152D01*
X47941019Y-143150533D01*
X48036257Y-143102914D01*
X48226733Y-143055295D01*
X48464828Y-143055295D01*
X48655304Y-143102914D01*
X48750542Y-143150533D01*
X48798161Y-143198152D01*
X48845780Y-143293390D01*
X48845780Y-143388628D01*
X48798161Y-143483866D01*
X48750542Y-143531485D01*
X48655304Y-143579104D01*
X48464828Y-143626723D01*
X48226733Y-143626723D01*
X48036257Y-143579104D01*
X47941019Y-143531485D01*
X47893400Y-143483866D01*
X47845780Y-143388628D01*
%TO.C,U2*%
X42537180Y-165297504D02*
X43346704Y-165297504D01*
X43441942Y-165249885D01*
X43489561Y-165202266D01*
X43537180Y-165107028D01*
X43537180Y-164916552D01*
X43489561Y-164821314D01*
X43441942Y-164773695D01*
X43346704Y-164726076D01*
X42537180Y-164726076D01*
X42632419Y-164297504D02*
X42584800Y-164249885D01*
X42537180Y-164154647D01*
X42537180Y-163916552D01*
X42584800Y-163821314D01*
X42632419Y-163773695D01*
X42727657Y-163726076D01*
X42822895Y-163726076D01*
X42965752Y-163773695D01*
X43537180Y-164345123D01*
X43537180Y-163726076D01*
%TO.C,C2*%
X51257142Y-184516666D02*
X51304761Y-184564285D01*
X51352380Y-184707142D01*
X51352380Y-184802380D01*
X51304761Y-184945238D01*
X51209523Y-185040476D01*
X51114285Y-185088095D01*
X50923809Y-185135714D01*
X50780952Y-185135714D01*
X50590476Y-185088095D01*
X50495238Y-185040476D01*
X50400000Y-184945238D01*
X50352380Y-184802380D01*
X50352380Y-184707142D01*
X50400000Y-184564285D01*
X50447619Y-184516666D01*
X50447619Y-184135714D02*
X50400000Y-184088095D01*
X50352380Y-183992857D01*
X50352380Y-183754761D01*
X50400000Y-183659523D01*
X50447619Y-183611904D01*
X50542857Y-183564285D01*
X50638095Y-183564285D01*
X50780952Y-183611904D01*
X51352380Y-184183333D01*
X51352380Y-183564285D01*
%TO.C,R25*%
X91052742Y-176589380D02*
X90719409Y-176113190D01*
X90481314Y-176589380D02*
X90481314Y-175589380D01*
X90862266Y-175589380D01*
X90957504Y-175637000D01*
X91005123Y-175684619D01*
X91052742Y-175779857D01*
X91052742Y-175922714D01*
X91005123Y-176017952D01*
X90957504Y-176065571D01*
X90862266Y-176113190D01*
X90481314Y-176113190D01*
X91433695Y-175684619D02*
X91481314Y-175637000D01*
X91576552Y-175589380D01*
X91814647Y-175589380D01*
X91909885Y-175637000D01*
X91957504Y-175684619D01*
X92005123Y-175779857D01*
X92005123Y-175875095D01*
X91957504Y-176017952D01*
X91386076Y-176589380D01*
X92005123Y-176589380D01*
X92909885Y-175589380D02*
X92433695Y-175589380D01*
X92386076Y-176065571D01*
X92433695Y-176017952D01*
X92528933Y-175970333D01*
X92767028Y-175970333D01*
X92862266Y-176017952D01*
X92909885Y-176065571D01*
X92957504Y-176160809D01*
X92957504Y-176398904D01*
X92909885Y-176494142D01*
X92862266Y-176541761D01*
X92767028Y-176589380D01*
X92528933Y-176589380D01*
X92433695Y-176541761D01*
X92386076Y-176494142D01*
%TO.C,C31*%
X98102742Y-183970557D02*
X98150361Y-184018176D01*
X98197980Y-184161033D01*
X98197980Y-184256271D01*
X98150361Y-184399128D01*
X98055123Y-184494366D01*
X97959885Y-184541985D01*
X97769409Y-184589604D01*
X97626552Y-184589604D01*
X97436076Y-184541985D01*
X97340838Y-184494366D01*
X97245600Y-184399128D01*
X97197980Y-184256271D01*
X97197980Y-184161033D01*
X97245600Y-184018176D01*
X97293219Y-183970557D01*
X97197980Y-183637223D02*
X97197980Y-183018176D01*
X97578933Y-183351509D01*
X97578933Y-183208652D01*
X97626552Y-183113414D01*
X97674171Y-183065795D01*
X97769409Y-183018176D01*
X98007504Y-183018176D01*
X98102742Y-183065795D01*
X98150361Y-183113414D01*
X98197980Y-183208652D01*
X98197980Y-183494366D01*
X98150361Y-183589604D01*
X98102742Y-183637223D01*
X98197980Y-182065795D02*
X98197980Y-182637223D01*
X98197980Y-182351509D02*
X97197980Y-182351509D01*
X97340838Y-182446747D01*
X97436076Y-182541985D01*
X97483695Y-182637223D01*
%TO.C,U6*%
X74631695Y-179515380D02*
X74631695Y-180324904D01*
X74679314Y-180420142D01*
X74726933Y-180467761D01*
X74822171Y-180515380D01*
X75012647Y-180515380D01*
X75107885Y-180467761D01*
X75155504Y-180420142D01*
X75203123Y-180324904D01*
X75203123Y-179515380D01*
X76107885Y-179515380D02*
X75917409Y-179515380D01*
X75822171Y-179563000D01*
X75774552Y-179610619D01*
X75679314Y-179753476D01*
X75631695Y-179943952D01*
X75631695Y-180324904D01*
X75679314Y-180420142D01*
X75726933Y-180467761D01*
X75822171Y-180515380D01*
X76012647Y-180515380D01*
X76107885Y-180467761D01*
X76155504Y-180420142D01*
X76203123Y-180324904D01*
X76203123Y-180086809D01*
X76155504Y-179991571D01*
X76107885Y-179943952D01*
X76012647Y-179896333D01*
X75822171Y-179896333D01*
X75726933Y-179943952D01*
X75679314Y-179991571D01*
X75631695Y-180086809D01*
%TO.C,R4*%
X28152380Y-152566666D02*
X27676190Y-152900000D01*
X28152380Y-153138095D02*
X27152380Y-153138095D01*
X27152380Y-152757142D01*
X27200000Y-152661904D01*
X27247619Y-152614285D01*
X27342857Y-152566666D01*
X27485714Y-152566666D01*
X27580952Y-152614285D01*
X27628571Y-152661904D01*
X27676190Y-152757142D01*
X27676190Y-153138095D01*
X27485714Y-151709523D02*
X28152380Y-151709523D01*
X27104761Y-151947619D02*
X27819047Y-152185714D01*
X27819047Y-151566666D01*
%TO.C,R34*%
X56152742Y-191889380D02*
X55819409Y-191413190D01*
X55581314Y-191889380D02*
X55581314Y-190889380D01*
X55962266Y-190889380D01*
X56057504Y-190937000D01*
X56105123Y-190984619D01*
X56152742Y-191079857D01*
X56152742Y-191222714D01*
X56105123Y-191317952D01*
X56057504Y-191365571D01*
X55962266Y-191413190D01*
X55581314Y-191413190D01*
X56486076Y-190889380D02*
X57105123Y-190889380D01*
X56771790Y-191270333D01*
X56914647Y-191270333D01*
X57009885Y-191317952D01*
X57057504Y-191365571D01*
X57105123Y-191460809D01*
X57105123Y-191698904D01*
X57057504Y-191794142D01*
X57009885Y-191841761D01*
X56914647Y-191889380D01*
X56628933Y-191889380D01*
X56533695Y-191841761D01*
X56486076Y-191794142D01*
X57962266Y-191222714D02*
X57962266Y-191889380D01*
X57724171Y-190841761D02*
X57486076Y-191556047D01*
X58105123Y-191556047D01*
%TO.C,D7*%
X104856104Y-147893780D02*
X104856104Y-146893780D01*
X105094200Y-146893780D01*
X105237057Y-146941400D01*
X105332295Y-147036638D01*
X105379914Y-147131876D01*
X105427533Y-147322352D01*
X105427533Y-147465209D01*
X105379914Y-147655685D01*
X105332295Y-147750923D01*
X105237057Y-147846161D01*
X105094200Y-147893780D01*
X104856104Y-147893780D01*
X105760866Y-146893780D02*
X106427533Y-146893780D01*
X105998961Y-147893780D01*
%TO.C,C9*%
X41038533Y-168270942D02*
X40990914Y-168318561D01*
X40848057Y-168366180D01*
X40752819Y-168366180D01*
X40609961Y-168318561D01*
X40514723Y-168223323D01*
X40467104Y-168128085D01*
X40419485Y-167937609D01*
X40419485Y-167794752D01*
X40467104Y-167604276D01*
X40514723Y-167509038D01*
X40609961Y-167413800D01*
X40752819Y-167366180D01*
X40848057Y-167366180D01*
X40990914Y-167413800D01*
X41038533Y-167461419D01*
X41514723Y-168366180D02*
X41705200Y-168366180D01*
X41800438Y-168318561D01*
X41848057Y-168270942D01*
X41943295Y-168128085D01*
X41990914Y-167937609D01*
X41990914Y-167556657D01*
X41943295Y-167461419D01*
X41895676Y-167413800D01*
X41800438Y-167366180D01*
X41609961Y-167366180D01*
X41514723Y-167413800D01*
X41467104Y-167461419D01*
X41419485Y-167556657D01*
X41419485Y-167794752D01*
X41467104Y-167889990D01*
X41514723Y-167937609D01*
X41609961Y-167985228D01*
X41800438Y-167985228D01*
X41895676Y-167937609D01*
X41943295Y-167889990D01*
X41990914Y-167794752D01*
%TO.C,U3*%
X70928695Y-147598380D02*
X70928695Y-148407904D01*
X70976314Y-148503142D01*
X71023933Y-148550761D01*
X71119171Y-148598380D01*
X71309647Y-148598380D01*
X71404885Y-148550761D01*
X71452504Y-148503142D01*
X71500123Y-148407904D01*
X71500123Y-147598380D01*
X71881076Y-147598380D02*
X72500123Y-147598380D01*
X72166790Y-147979333D01*
X72309647Y-147979333D01*
X72404885Y-148026952D01*
X72452504Y-148074571D01*
X72500123Y-148169809D01*
X72500123Y-148407904D01*
X72452504Y-148503142D01*
X72404885Y-148550761D01*
X72309647Y-148598380D01*
X72023933Y-148598380D01*
X71928695Y-148550761D01*
X71881076Y-148503142D01*
%TO.C,R9*%
X86352380Y-146466666D02*
X85876190Y-146800000D01*
X86352380Y-147038095D02*
X85352380Y-147038095D01*
X85352380Y-146657142D01*
X85400000Y-146561904D01*
X85447619Y-146514285D01*
X85542857Y-146466666D01*
X85685714Y-146466666D01*
X85780952Y-146514285D01*
X85828571Y-146561904D01*
X85876190Y-146657142D01*
X85876190Y-147038095D01*
X86352380Y-145990476D02*
X86352380Y-145800000D01*
X86304761Y-145704761D01*
X86257142Y-145657142D01*
X86114285Y-145561904D01*
X85923809Y-145514285D01*
X85542857Y-145514285D01*
X85447619Y-145561904D01*
X85400000Y-145609523D01*
X85352380Y-145704761D01*
X85352380Y-145895238D01*
X85400000Y-145990476D01*
X85447619Y-146038095D01*
X85542857Y-146085714D01*
X85780952Y-146085714D01*
X85876190Y-146038095D01*
X85923809Y-145990476D01*
X85971428Y-145895238D01*
X85971428Y-145704761D01*
X85923809Y-145609523D01*
X85876190Y-145561904D01*
X85780952Y-145514285D01*
D11*
%TO.C,FB2*%
X60922852Y-182291400D02*
X60400348Y-182291400D01*
X60922852Y-183711400D02*
X60400348Y-183711400D01*
%TO.C,SW1*%
X19093200Y-148433800D02*
X18643200Y-148883800D01*
X24143200Y-151383800D02*
X24143200Y-148883800D01*
X20393200Y-152883800D02*
X22393200Y-152883800D01*
X23693200Y-148433800D02*
X24143200Y-148883800D01*
X20393200Y-147383800D02*
X22393200Y-147383800D01*
X19093200Y-151833800D02*
X18643200Y-151383800D01*
X23693200Y-151833800D02*
X24143200Y-151383800D01*
X18643200Y-151383800D02*
X18643200Y-148883800D01*
%TO.C,J2*%
X71990000Y-137493800D02*
X70660000Y-137493800D01*
X73260000Y-134833800D02*
X80940000Y-134833800D01*
X80940000Y-137493800D02*
X80940000Y-134833800D01*
X73260000Y-137493800D02*
X80940000Y-137493800D01*
X73260000Y-137493800D02*
X73260000Y-134833800D01*
X70660000Y-137493800D02*
X70660000Y-136163800D01*
%TO.C,C35*%
X56507452Y-171392000D02*
X55984948Y-171392000D01*
X56507452Y-169922000D02*
X55984948Y-169922000D01*
%TO.C,D6*%
X93184200Y-165667600D02*
X93184200Y-167667600D01*
X93184200Y-165667600D02*
X97084200Y-165667600D01*
X93184200Y-167667600D02*
X97084200Y-167667600D01*
%TO.C,R29*%
X57286000Y-174011336D02*
X57286000Y-174465464D01*
X55816000Y-174011336D02*
X55816000Y-174465464D01*
%TO.C,D9*%
X63116000Y-190463800D02*
X65976000Y-190463800D01*
X65976000Y-188543800D02*
X63116000Y-188543800D01*
X65976000Y-190463800D02*
X65976000Y-188543800D01*
%TO.C,Y3*%
X59055200Y-171003000D02*
X59055200Y-177403000D01*
X64105200Y-171003000D02*
X64105200Y-177403000D01*
X64105200Y-171003000D02*
G75*
G03*
X59055200Y-171003000I-2525000J0D01*
G01*
X59055200Y-177403000D02*
G75*
G03*
X64105200Y-177403000I2525000J0D01*
G01*
%TO.C,R26*%
X64327064Y-193744000D02*
X63872936Y-193744000D01*
X64327064Y-192274000D02*
X63872936Y-192274000D01*
%TO.C,C29*%
X95232600Y-177740248D02*
X95232600Y-178262752D01*
X96702600Y-177740248D02*
X96702600Y-178262752D01*
%TO.C,R17*%
X84767800Y-185009536D02*
X84767800Y-185463664D01*
X86237800Y-185009536D02*
X86237800Y-185463664D01*
%TO.C,C24*%
X102951000Y-163653852D02*
X102951000Y-163131348D01*
X101481000Y-163653852D02*
X101481000Y-163131348D01*
%TO.C,F2*%
X108202864Y-137574600D02*
X106998736Y-137574600D01*
X108202864Y-134854600D02*
X106998736Y-134854600D01*
%TO.C,C25*%
X101481000Y-136475852D02*
X101481000Y-135953348D01*
X102951000Y-136475852D02*
X102951000Y-135953348D01*
%TO.C,R19*%
X88460200Y-178368864D02*
X88460200Y-177914736D01*
X89930200Y-178368864D02*
X89930200Y-177914736D01*
%TO.C,R14*%
X104986200Y-158695136D02*
X104986200Y-159149264D01*
X106456200Y-158695136D02*
X106456200Y-159149264D01*
%TO.C,F1*%
X107847264Y-162032600D02*
X106643136Y-162032600D01*
X107847264Y-164752600D02*
X106643136Y-164752600D01*
%TO.C,D8*%
X57797200Y-188543800D02*
X54937200Y-188543800D01*
X54937200Y-190463800D02*
X57797200Y-190463800D01*
X57797200Y-190463800D02*
X57797200Y-188543800D01*
%TO.C,R20*%
X86698200Y-168293264D02*
X86698200Y-167839136D01*
X88168200Y-168293264D02*
X88168200Y-167839136D01*
%TO.C,R30*%
X69705600Y-182113936D02*
X69705600Y-182568064D01*
X71175600Y-182113936D02*
X71175600Y-182568064D01*
%TO.C,R15*%
X106811800Y-140407136D02*
X106811800Y-140861264D01*
X105341800Y-140407136D02*
X105341800Y-140861264D01*
%TO.C,D5*%
X85685800Y-160375800D02*
X87605800Y-160375800D01*
X85685800Y-157515800D02*
X85685800Y-160375800D01*
X87605800Y-160375800D02*
X87605800Y-157515800D01*
%TO.C,J5*%
X114465800Y-151005200D02*
X114511800Y-151052200D01*
X112167800Y-143628200D02*
X112203800Y-143663200D01*
X112373800Y-143423200D02*
X112419800Y-143470200D01*
X108181800Y-142098200D02*
X118102800Y-142098200D01*
X111141800Y-157458200D02*
X111141800Y-142098200D01*
X108181800Y-157458200D02*
X108181800Y-142098200D01*
X117602800Y-157698200D02*
X118342800Y-157698200D01*
X118342800Y-157698200D02*
X118342800Y-157198200D01*
X118102800Y-157458200D02*
X118102800Y-142098200D01*
X114681800Y-150812200D02*
X114716800Y-150847200D01*
X108181800Y-157458200D02*
X118102800Y-157458200D01*
X112167800Y-148708200D02*
X112203800Y-148743200D01*
X116042800Y-157458200D02*
X116042800Y-142098200D01*
X117542800Y-157458200D02*
X117542800Y-142098200D01*
X112373800Y-148503200D02*
X112419800Y-148550200D01*
X114681800Y-145732200D02*
X114716800Y-145767200D01*
X114465800Y-145925200D02*
X114511800Y-145972200D01*
X114977800Y-155542200D02*
G75*
G03*
X115123053Y-154829395I-1535001J683999D01*
G01*
X114126800Y-153323199D02*
G75*
G03*
X112759758Y-153322773I-684000J-1535001D01*
G01*
X111907800Y-154174200D02*
G75*
G03*
X111907373Y-155541242I1534993J-684001D01*
G01*
X112758800Y-156393200D02*
G75*
G03*
X114125842Y-156393627I684001J1534993D01*
G01*
X115122800Y-154858200D02*
G75*
G03*
X114977556Y-154174882I-1680000J0D01*
G01*
X115122800Y-144698200D02*
G75*
G03*
X115122800Y-144698200I-1680000J0D01*
G01*
X115122800Y-149778200D02*
G75*
G03*
X115122800Y-149778200I-1680000J0D01*
G01*
%TO.C,C40*%
X79682848Y-167560500D02*
X80205352Y-167560500D01*
X79682848Y-166090500D02*
X80205352Y-166090500D01*
%TO.C,C11*%
X49309400Y-150191852D02*
X49309400Y-149669348D01*
X50779400Y-150191852D02*
X50779400Y-149669348D01*
%TO.C,C32*%
X91727400Y-180403348D02*
X91727400Y-180925852D01*
X93197400Y-180403348D02*
X93197400Y-180925852D01*
%TO.C,C38*%
X85679000Y-174067852D02*
X85679000Y-173545348D01*
X84209000Y-174067852D02*
X84209000Y-173545348D01*
%TO.C,C43*%
X55325600Y-183697000D02*
X55325600Y-182521000D01*
X55205600Y-186519000D02*
X55205600Y-185377000D01*
X55285600Y-186542000D02*
X55285600Y-185377000D01*
X54724600Y-183697000D02*
X54724600Y-182777000D01*
X55485600Y-183697000D02*
X55485600Y-182487000D01*
X53884600Y-185305000D02*
X53884600Y-183769000D01*
X54404600Y-183697000D02*
X54404600Y-183021000D01*
X54324600Y-183697000D02*
X54324600Y-183099000D01*
X54964600Y-183697000D02*
X54964600Y-182648000D01*
X55445600Y-186579000D02*
X55445600Y-185377000D01*
X54324600Y-185975000D02*
X54324600Y-185377000D01*
X54844600Y-183697000D02*
X54844600Y-182707000D01*
X54404600Y-186053000D02*
X54404600Y-185377000D01*
X54884600Y-186388000D02*
X54884600Y-185377000D01*
X55845600Y-186617000D02*
X55845600Y-185377000D01*
X53964600Y-185477000D02*
X53964600Y-183597000D01*
X55445600Y-183697000D02*
X55445600Y-182495000D01*
X55124600Y-183697000D02*
X55124600Y-182583000D01*
X54284600Y-183697000D02*
X54284600Y-183141000D01*
X55725600Y-186614000D02*
X55725600Y-185377000D01*
X55525600Y-183697000D02*
X55525600Y-182481000D01*
X55725600Y-183697000D02*
X55725600Y-182460000D01*
X55645600Y-183697000D02*
X55645600Y-182466000D01*
X55325600Y-186553000D02*
X55325600Y-185377000D01*
X55004600Y-183697000D02*
X55004600Y-182630000D01*
X55765600Y-186616000D02*
X55765600Y-185377000D01*
X54724600Y-186297000D02*
X54724600Y-185377000D01*
X54764600Y-186322000D02*
X54764600Y-185377000D01*
X54604600Y-186217000D02*
X54604600Y-185377000D01*
X54484600Y-186124000D02*
X54484600Y-185377000D01*
X55405600Y-183697000D02*
X55405600Y-182503000D01*
X55084600Y-186477000D02*
X55084600Y-185377000D01*
X54204600Y-185841000D02*
X54204600Y-183233000D01*
X54964600Y-186426000D02*
X54964600Y-185377000D01*
X55365600Y-186562000D02*
X55365600Y-185377000D01*
X54644600Y-186245000D02*
X54644600Y-185377000D01*
X55805600Y-183697000D02*
X55805600Y-182457000D01*
X53924600Y-185396000D02*
X53924600Y-183678000D01*
X55485600Y-186587000D02*
X55485600Y-185377000D01*
X58115401Y-185732000D02*
X57715401Y-185732000D01*
X55044600Y-183697000D02*
X55044600Y-182613000D01*
X55245600Y-186531000D02*
X55245600Y-185377000D01*
X54684600Y-186272000D02*
X54684600Y-185377000D01*
X54084600Y-185679000D02*
X54084600Y-183395000D01*
X55765600Y-183697000D02*
X55765600Y-182458000D01*
X54004600Y-185550000D02*
X54004600Y-183524000D01*
X55525600Y-186593000D02*
X55525600Y-185377000D01*
X55845600Y-183697000D02*
X55845600Y-182457000D01*
X53804600Y-185074000D02*
X53804600Y-184000000D01*
X54604600Y-183697000D02*
X54604600Y-182857000D01*
X55044600Y-186461000D02*
X55044600Y-185377000D01*
X55124600Y-186491000D02*
X55124600Y-185377000D01*
X55205600Y-183697000D02*
X55205600Y-182555000D01*
X55565600Y-186599000D02*
X55565600Y-185377000D01*
X55685600Y-186611000D02*
X55685600Y-185377000D01*
X54524600Y-183697000D02*
X54524600Y-182918000D01*
X54644600Y-183697000D02*
X54644600Y-182829000D01*
X54924600Y-186407000D02*
X54924600Y-185377000D01*
X54044600Y-185617000D02*
X54044600Y-183457000D01*
X54804600Y-186345000D02*
X54804600Y-185377000D01*
X54524600Y-186156000D02*
X54524600Y-185377000D01*
X54484600Y-183697000D02*
X54484600Y-182950000D01*
X54284600Y-185933000D02*
X54284600Y-185377000D01*
X54564600Y-186187000D02*
X54564600Y-185377000D01*
X54444600Y-186089000D02*
X54444600Y-185377000D01*
X54244600Y-185888000D02*
X54244600Y-183186000D01*
X55805600Y-186617000D02*
X55805600Y-185377000D01*
X57915401Y-185932000D02*
X57915401Y-185532000D01*
X54844600Y-186367000D02*
X54844600Y-185377000D01*
X55565600Y-183697000D02*
X55565600Y-182475000D01*
X55365600Y-183697000D02*
X55365600Y-182512000D01*
X55084600Y-183697000D02*
X55084600Y-182597000D01*
X54764600Y-183697000D02*
X54764600Y-182752000D01*
X55165600Y-186505000D02*
X55165600Y-185377000D01*
X54364600Y-186015000D02*
X54364600Y-185377000D01*
X55165600Y-183697000D02*
X55165600Y-182569000D01*
X53844600Y-185201000D02*
X53844600Y-183873000D01*
X54924600Y-183697000D02*
X54924600Y-182667000D01*
X55685600Y-183697000D02*
X55685600Y-182463000D01*
X55645600Y-186608000D02*
X55645600Y-185377000D01*
X55245600Y-183697000D02*
X55245600Y-182543000D01*
X55285600Y-183697000D02*
X55285600Y-182532000D01*
X53764600Y-184907000D02*
X53764600Y-184167000D01*
X55605600Y-186604000D02*
X55605600Y-185377000D01*
X54124600Y-185737000D02*
X54124600Y-183337000D01*
X55405600Y-186571000D02*
X55405600Y-185377000D01*
X54884600Y-183697000D02*
X54884600Y-182686000D01*
X54804600Y-183697000D02*
X54804600Y-182729000D01*
X55605600Y-183697000D02*
X55605600Y-182470000D01*
X55004600Y-186444000D02*
X55004600Y-185377000D01*
X54444600Y-183697000D02*
X54444600Y-182985000D01*
X54164600Y-185791000D02*
X54164600Y-183283000D01*
X54684600Y-183697000D02*
X54684600Y-182802000D01*
X54564600Y-183697000D02*
X54564600Y-182887000D01*
X54364600Y-183697000D02*
X54364600Y-183059000D01*
X57965600Y-184537000D02*
G75*
G03*
X57965600Y-184537000I-2120000J0D01*
G01*
%TO.C,R2*%
X36860264Y-152091200D02*
X36406136Y-152091200D01*
X36860264Y-153561200D02*
X36406136Y-153561200D01*
%TO.C,C6*%
X47105252Y-160571600D02*
X46582748Y-160571600D01*
X47105252Y-159101600D02*
X46582748Y-159101600D01*
%TO.C,C36*%
X56507452Y-177034000D02*
X55984948Y-177034000D01*
X56507452Y-178504000D02*
X55984948Y-178504000D01*
%TO.C,J6*%
X110624400Y-184258400D02*
X123034400Y-184258400D01*
X110614400Y-168028400D02*
X123034400Y-168028400D01*
X101514400Y-168028400D02*
X107634400Y-168028400D01*
X105824400Y-184258400D02*
X107634400Y-184258400D01*
X123034400Y-168028400D02*
X123034400Y-184258400D01*
X101514400Y-180588400D02*
X101514400Y-168028400D01*
%TO.C,R27*%
X80903864Y-193794800D02*
X80449736Y-193794800D01*
X80903864Y-192324800D02*
X80449736Y-192324800D01*
%TO.C,C17*%
X80087100Y-149567748D02*
X80087100Y-150090252D01*
X78617100Y-149567748D02*
X78617100Y-150090252D01*
%TO.C,R12*%
X86901400Y-163114736D02*
X86901400Y-163568864D01*
X88371400Y-163114736D02*
X88371400Y-163568864D01*
%TO.C,R13*%
X101455600Y-143604464D02*
X101455600Y-143150336D01*
X102925600Y-143604464D02*
X102925600Y-143150336D01*
%TO.C,C22*%
X76184352Y-147135000D02*
X75661848Y-147135000D01*
X76184352Y-145665000D02*
X75661848Y-145665000D01*
%TO.C,R23*%
X97667800Y-187685936D02*
X97667800Y-188140064D01*
X96197800Y-187685936D02*
X96197800Y-188140064D01*
%TO.C,C20*%
X64847100Y-158472252D02*
X64847100Y-157949748D01*
X63377100Y-158472252D02*
X63377100Y-157949748D01*
%TO.C,C8*%
X41009252Y-160571600D02*
X40486748Y-160571600D01*
X41009252Y-159101600D02*
X40486748Y-159101600D01*
%TO.C,R32*%
X76309600Y-183002936D02*
X76309600Y-183457064D01*
X77779600Y-183002936D02*
X77779600Y-183457064D01*
%TO.C,C45*%
X66811402Y-185377000D02*
X66811402Y-185933000D01*
X66411402Y-182802000D02*
X66411402Y-183697000D01*
X66331402Y-182752000D02*
X66331402Y-183697000D01*
X66491402Y-185377000D02*
X66491402Y-186217000D01*
X66651402Y-185377000D02*
X66651402Y-186089000D01*
X66731402Y-185377000D02*
X66731402Y-186015000D01*
X66091402Y-182630000D02*
X66091402Y-183697000D01*
X65450402Y-182466000D02*
X65450402Y-183697000D01*
X65650402Y-185377000D02*
X65650402Y-186579000D01*
X67171402Y-183678000D02*
X67171402Y-185396000D01*
X65530402Y-182475000D02*
X65530402Y-183697000D01*
X65890402Y-185377000D02*
X65890402Y-186519000D01*
X66211402Y-185377000D02*
X66211402Y-186388000D01*
X67331402Y-184167000D02*
X67331402Y-184907000D01*
X66531402Y-182887000D02*
X66531402Y-183697000D01*
X66451402Y-185377000D02*
X66451402Y-186245000D01*
X65250402Y-185377000D02*
X65250402Y-186617000D01*
X66051402Y-182613000D02*
X66051402Y-183697000D01*
X67011402Y-183395000D02*
X67011402Y-185679000D01*
X66171402Y-182667000D02*
X66171402Y-183697000D01*
X66091402Y-185377000D02*
X66091402Y-186444000D01*
X66531402Y-185377000D02*
X66531402Y-186187000D01*
X65730402Y-182512000D02*
X65730402Y-183697000D01*
X65770402Y-182521000D02*
X65770402Y-183697000D01*
X65810402Y-182532000D02*
X65810402Y-183697000D01*
X66371402Y-185377000D02*
X66371402Y-186297000D01*
X65290402Y-182457000D02*
X65290402Y-183697000D01*
X66691402Y-185377000D02*
X66691402Y-186053000D01*
X66931402Y-183283000D02*
X66931402Y-185791000D01*
X66011402Y-185377000D02*
X66011402Y-186477000D01*
X65450402Y-185377000D02*
X65450402Y-186608000D01*
X66011402Y-182597000D02*
X66011402Y-183697000D01*
X67251402Y-183873000D02*
X67251402Y-185201000D01*
X67091402Y-183524000D02*
X67091402Y-185550000D01*
X63180601Y-183142000D02*
X63180601Y-183542000D01*
X66611402Y-185377000D02*
X66611402Y-186124000D01*
X66251402Y-182707000D02*
X66251402Y-183697000D01*
X67211402Y-183769000D02*
X67211402Y-185305000D01*
X65570402Y-182481000D02*
X65570402Y-183697000D01*
X66291402Y-185377000D02*
X66291402Y-186345000D01*
X65370402Y-185377000D02*
X65370402Y-186614000D01*
X66331402Y-185377000D02*
X66331402Y-186322000D01*
X65930402Y-185377000D02*
X65930402Y-186505000D01*
X65490402Y-185377000D02*
X65490402Y-186604000D01*
X66171402Y-185377000D02*
X66171402Y-186407000D01*
X66211402Y-182686000D02*
X66211402Y-183697000D01*
X66971402Y-183337000D02*
X66971402Y-185737000D01*
X66571402Y-182918000D02*
X66571402Y-183697000D01*
X65930402Y-182569000D02*
X65930402Y-183697000D01*
X66771402Y-185377000D02*
X66771402Y-185975000D01*
X65890402Y-182555000D02*
X65890402Y-183697000D01*
X65730402Y-185377000D02*
X65730402Y-186562000D01*
X66251402Y-185377000D02*
X66251402Y-186367000D01*
X65410402Y-182463000D02*
X65410402Y-183697000D01*
X66131402Y-182648000D02*
X66131402Y-183697000D01*
X65490402Y-182470000D02*
X65490402Y-183697000D01*
X65850402Y-182543000D02*
X65850402Y-183697000D01*
X66571402Y-185377000D02*
X66571402Y-186156000D01*
X65610402Y-185377000D02*
X65610402Y-186587000D01*
X66811402Y-183141000D02*
X66811402Y-183697000D01*
X67051402Y-183457000D02*
X67051402Y-185617000D01*
X62980601Y-183342000D02*
X63380601Y-183342000D01*
X67291402Y-184000000D02*
X67291402Y-185074000D01*
X65610402Y-182487000D02*
X65610402Y-183697000D01*
X65690402Y-185377000D02*
X65690402Y-186571000D01*
X65330402Y-182458000D02*
X65330402Y-183697000D01*
X66051402Y-185377000D02*
X66051402Y-186461000D01*
X66611402Y-182950000D02*
X66611402Y-183697000D01*
X65330402Y-185377000D02*
X65330402Y-186616000D01*
X65570402Y-185377000D02*
X65570402Y-186593000D01*
X66411402Y-185377000D02*
X66411402Y-186272000D01*
X65810402Y-185377000D02*
X65810402Y-186542000D01*
X65250402Y-182457000D02*
X65250402Y-183697000D01*
X66891402Y-183233000D02*
X66891402Y-185841000D01*
X66491402Y-182857000D02*
X66491402Y-183697000D01*
X66731402Y-183059000D02*
X66731402Y-183697000D01*
X66691402Y-183021000D02*
X66691402Y-183697000D01*
X66291402Y-182729000D02*
X66291402Y-183697000D01*
X66771402Y-183099000D02*
X66771402Y-183697000D01*
X65971402Y-182583000D02*
X65971402Y-183697000D01*
X65770402Y-185377000D02*
X65770402Y-186553000D01*
X65370402Y-182460000D02*
X65370402Y-183697000D01*
X65290402Y-185377000D02*
X65290402Y-186617000D01*
X65650402Y-182495000D02*
X65650402Y-183697000D01*
X65530402Y-185377000D02*
X65530402Y-186599000D01*
X66451402Y-182829000D02*
X66451402Y-183697000D01*
X66651402Y-182985000D02*
X66651402Y-183697000D01*
X66851402Y-183186000D02*
X66851402Y-185888000D01*
X65971402Y-185377000D02*
X65971402Y-186491000D01*
X65690402Y-182503000D02*
X65690402Y-183697000D01*
X65410402Y-185377000D02*
X65410402Y-186611000D01*
X66131402Y-185377000D02*
X66131402Y-186426000D01*
X67131402Y-183597000D02*
X67131402Y-185477000D01*
X66371402Y-182777000D02*
X66371402Y-183697000D01*
X65850402Y-185377000D02*
X65850402Y-186531000D01*
X67370402Y-184537000D02*
G75*
G03*
X67370402Y-184537000I-2120000J0D01*
G01*
%TO.C,C14*%
X26700200Y-147057048D02*
X26700200Y-147579552D01*
X25230200Y-147057048D02*
X25230200Y-147579552D01*
%TO.C,D3*%
X33667200Y-153837000D02*
X33667200Y-151917000D01*
X33667200Y-151917000D02*
X30807200Y-151917000D01*
X30807200Y-153837000D02*
X33667200Y-153837000D01*
%TO.C,D11*%
X79702200Y-190489200D02*
X82562200Y-190489200D01*
X82562200Y-188569200D02*
X79702200Y-188569200D01*
X82562200Y-190489200D02*
X82562200Y-188569200D01*
%TO.C,Y1*%
X57220000Y-148993000D02*
X53740000Y-148993000D01*
X59230000Y-146093000D02*
X58940000Y-146093000D01*
X59230000Y-148043000D02*
X59230000Y-148993000D01*
X52020000Y-148993000D02*
X51730000Y-148993000D01*
X51730000Y-148993000D02*
X51730000Y-146093000D01*
X59230000Y-146093000D02*
X59230000Y-147043000D01*
X51730000Y-146093000D02*
X52020000Y-146093000D01*
X59230000Y-148993000D02*
X58940000Y-148993000D01*
X53740000Y-146093000D02*
X57220000Y-146093000D01*
X59230000Y-147043000D02*
G75*
G03*
X59230000Y-148043000I0J-500000D01*
G01*
%TO.C,FB1*%
X78642100Y-157949748D02*
X78642100Y-158472252D01*
X80062100Y-157949748D02*
X80062100Y-158472252D01*
%TO.C,C39*%
X85272600Y-169379748D02*
X85272600Y-169902252D01*
X83802600Y-169379748D02*
X83802600Y-169902252D01*
%TO.C,C42*%
X70538848Y-167560500D02*
X71061352Y-167560500D01*
X70538848Y-166090500D02*
X71061352Y-166090500D01*
%TO.C,C3*%
X36301600Y-163790713D02*
X37609600Y-163790713D01*
X36301600Y-163070713D02*
X37125600Y-163070713D01*
X33226600Y-163270713D02*
X34221600Y-163270713D01*
X32681600Y-164831713D02*
X37841600Y-164831713D01*
X36301600Y-164631713D02*
X37830600Y-164631713D01*
X33608600Y-162870713D02*
X34221600Y-162870713D01*
X34584600Y-162350713D02*
X35938600Y-162350713D01*
X33166600Y-163350713D02*
X34221600Y-163350713D01*
X36301600Y-163190713D02*
X37232600Y-163190713D01*
X36301600Y-163550713D02*
X37485600Y-163550713D01*
X36301600Y-163870713D02*
X37643600Y-163870713D01*
X32705600Y-164511713D02*
X34221600Y-164511713D01*
X36301600Y-163670713D02*
X37551600Y-163670713D01*
X32681600Y-164871713D02*
X37841600Y-164871713D01*
X33139600Y-163390713D02*
X34221600Y-163390713D01*
X36301600Y-164030713D02*
X37703600Y-164030713D01*
X36301600Y-162790713D02*
X36815600Y-162790713D01*
X36301600Y-162990713D02*
X37046600Y-162990713D01*
X33324600Y-163150713D02*
X34221600Y-163150713D01*
X33786600Y-167676488D02*
X33786600Y-167176488D01*
X33878600Y-162670713D02*
X34221600Y-162670713D01*
X32847600Y-163950713D02*
X34221600Y-163950713D01*
X36301600Y-162870713D02*
X36914600Y-162870713D01*
X36301600Y-162910713D02*
X36960600Y-162910713D01*
X32806600Y-164070713D02*
X34221600Y-164070713D01*
X32682600Y-164791713D02*
X37840600Y-164791713D01*
X36301600Y-162670713D02*
X36644600Y-162670713D01*
X33435600Y-163030713D02*
X34221600Y-163030713D01*
X32688600Y-164671713D02*
X37834600Y-164671713D01*
X32760600Y-164231713D02*
X34221600Y-164231713D01*
X36301600Y-163750713D02*
X37590600Y-163750713D01*
X32711600Y-164471713D02*
X34221600Y-164471713D01*
X36301600Y-163830713D02*
X37626600Y-163830713D01*
X34743600Y-162310713D02*
X35779600Y-162310713D01*
X33290600Y-163190713D02*
X34221600Y-163190713D01*
X36301600Y-163990713D02*
X37689600Y-163990713D01*
X32696600Y-164591713D02*
X34221600Y-164591713D01*
X33014600Y-163590713D02*
X34221600Y-163590713D01*
X34250600Y-162470713D02*
X36272600Y-162470713D01*
X32833600Y-163990713D02*
X34221600Y-163990713D01*
X33562600Y-162910713D02*
X34221600Y-162910713D01*
X33360600Y-163110713D02*
X34221600Y-163110713D01*
X34456600Y-162390713D02*
X36066600Y-162390713D01*
X36301600Y-163310713D02*
X37326600Y-163310713D01*
X36301600Y-164391713D02*
X37797600Y-164391713D01*
X33257600Y-163230713D02*
X34221600Y-163230713D01*
X36301600Y-164511713D02*
X37817600Y-164511713D01*
X36301600Y-162950713D02*
X37004600Y-162950713D01*
X36301600Y-163150713D02*
X37198600Y-163150713D01*
X33707600Y-162790713D02*
X34221600Y-162790713D01*
X36301600Y-163510713D02*
X37461600Y-163510713D01*
X32896600Y-163830713D02*
X34221600Y-163830713D01*
X32683600Y-164751713D02*
X37839600Y-164751713D01*
X36301600Y-163350713D02*
X37356600Y-163350713D01*
X36301600Y-164551713D02*
X37822600Y-164551713D01*
X36301600Y-164471713D02*
X37811600Y-164471713D01*
X33397600Y-163070713D02*
X34221600Y-163070713D01*
X34083600Y-162550713D02*
X36439600Y-162550713D01*
X36301600Y-163590713D02*
X37508600Y-163590713D01*
X36301600Y-164150713D02*
X37741600Y-164150713D01*
X36301600Y-162710713D02*
X36704600Y-162710713D01*
X32971600Y-163670713D02*
X34221600Y-163670713D01*
X36301600Y-162590713D02*
X36512600Y-162590713D01*
X33196600Y-163310713D02*
X34221600Y-163310713D01*
X36301600Y-163950713D02*
X37675600Y-163950713D01*
X36301600Y-162630713D02*
X36580600Y-162630713D01*
X32863600Y-163910713D02*
X34221600Y-163910713D01*
X33656600Y-162830713D02*
X34221600Y-162830713D01*
X36301600Y-163030713D02*
X37087600Y-163030713D01*
X36301600Y-163470713D02*
X37436600Y-163470713D01*
X36301600Y-164231713D02*
X37762600Y-164231713D01*
X32951600Y-163710713D02*
X34221600Y-163710713D01*
X32692600Y-164631713D02*
X34221600Y-164631713D01*
X33818600Y-162710713D02*
X34221600Y-162710713D01*
X33112600Y-163430713D02*
X34221600Y-163430713D01*
X33061600Y-163510713D02*
X34221600Y-163510713D01*
X32993600Y-163630713D02*
X34221600Y-163630713D01*
X32913600Y-163790713D02*
X34221600Y-163790713D01*
X33037600Y-163550713D02*
X34221600Y-163550713D01*
X36301600Y-164351713D02*
X37789600Y-164351713D01*
X34163600Y-162510713D02*
X36359600Y-162510713D01*
X32685600Y-164711713D02*
X37837600Y-164711713D01*
X36301600Y-163630713D02*
X37529600Y-163630713D01*
X33476600Y-162990713D02*
X34221600Y-162990713D01*
X34346600Y-162430713D02*
X36176600Y-162430713D01*
X32700600Y-164551713D02*
X34221600Y-164551713D01*
X32725600Y-164391713D02*
X34221600Y-164391713D01*
X36301600Y-164311713D02*
X37781600Y-164311713D01*
X34010600Y-162590713D02*
X34221600Y-162590713D01*
X32770600Y-164191713D02*
X34221600Y-164191713D01*
X32741600Y-164311713D02*
X34221600Y-164311713D01*
X36301600Y-163910713D02*
X37659600Y-163910713D01*
X36301600Y-163230713D02*
X37265600Y-163230713D01*
X36301600Y-163110713D02*
X37162600Y-163110713D01*
X36301600Y-163270713D02*
X37296600Y-163270713D01*
X36301600Y-163430713D02*
X37410600Y-163430713D01*
X36301600Y-163710713D02*
X37571600Y-163710713D01*
X32750600Y-164271713D02*
X34221600Y-164271713D01*
X36301600Y-164070713D02*
X37716600Y-164070713D01*
X32781600Y-164150713D02*
X34221600Y-164150713D01*
X33518600Y-162950713D02*
X34221600Y-162950713D01*
X32932600Y-163750713D02*
X34221600Y-163750713D01*
X33761600Y-162750713D02*
X34221600Y-162750713D01*
X36301600Y-162830713D02*
X36866600Y-162830713D01*
X36301600Y-164191713D02*
X37752600Y-164191713D01*
X36301600Y-164271713D02*
X37772600Y-164271713D01*
X36301600Y-164110713D02*
X37729600Y-164110713D01*
X33086600Y-163470713D02*
X34221600Y-163470713D01*
X33942600Y-162630713D02*
X34221600Y-162630713D01*
X36301600Y-164431713D02*
X37804600Y-164431713D01*
X36301600Y-164591713D02*
X37826600Y-164591713D01*
X32879600Y-163870713D02*
X34221600Y-163870713D01*
X36301600Y-163390713D02*
X37383600Y-163390713D01*
X34977600Y-162270713D02*
X35545600Y-162270713D01*
X32819600Y-164030713D02*
X34221600Y-164030713D01*
X32718600Y-164431713D02*
X34221600Y-164431713D01*
X32793600Y-164110713D02*
X34221600Y-164110713D01*
X33536600Y-167426488D02*
X34036600Y-167426488D01*
X32733600Y-164351713D02*
X34221600Y-164351713D01*
X36301600Y-162750713D02*
X36761600Y-162750713D01*
X37881600Y-164871713D02*
G75*
G03*
X37881600Y-164871713I-2620000J0D01*
G01*
%TO.C,R21*%
X91267064Y-189102000D02*
X90812936Y-189102000D01*
X91267064Y-190572000D02*
X90812936Y-190572000D01*
%TO.C,D10*%
X70536400Y-190489200D02*
X73396400Y-190489200D01*
X70536400Y-188569200D02*
X70536400Y-190489200D01*
X73396400Y-188569200D02*
X70536400Y-188569200D01*
%TO.C,D4*%
X87605800Y-142849800D02*
X87605800Y-139989800D01*
X85685800Y-139989800D02*
X85685800Y-142849800D01*
X85685800Y-142849800D02*
X87605800Y-142849800D01*
%TO.C,R16*%
X102951000Y-149556136D02*
X102951000Y-150010264D01*
X101481000Y-149556136D02*
X101481000Y-150010264D01*
%TO.C,R10*%
X86850600Y-153486536D02*
X86850600Y-153940664D01*
X88320600Y-153486536D02*
X88320600Y-153940664D01*
%TO.C,U4*%
X100574200Y-134543600D02*
X90294200Y-134543600D01*
X98084200Y-152503600D02*
X98084200Y-134603600D01*
X90294200Y-152563600D02*
X100574200Y-152563600D01*
X92784200Y-134603600D02*
X92784200Y-152503600D01*
X98084200Y-134603600D02*
X96434200Y-134603600D01*
X90294200Y-134543600D02*
X90294200Y-152563600D01*
X92784200Y-152503600D02*
X98084200Y-152503600D01*
X100574200Y-152563600D02*
X100574200Y-134543600D01*
X94434200Y-134603600D02*
X92784200Y-134603600D01*
X94434200Y-134603600D02*
G75*
G03*
X96434200Y-134603600I1000000J0D01*
G01*
%TO.C,C19*%
X64847100Y-149567748D02*
X64847100Y-150090252D01*
X63377100Y-149567748D02*
X63377100Y-150090252D01*
%TO.C,R31*%
X81081600Y-182113936D02*
X81081600Y-182568064D01*
X79611600Y-182113936D02*
X79611600Y-182568064D01*
%TO.C,C21*%
X66902748Y-160905000D02*
X67425252Y-160905000D01*
X66902748Y-162375000D02*
X67425252Y-162375000D01*
%TO.C,J1*%
X26383400Y-174116200D02*
X16462400Y-174116200D01*
X20099400Y-180569200D02*
X20053400Y-180522200D01*
X22397400Y-182866200D02*
X22361400Y-182831200D01*
X26383400Y-174116200D02*
X26383400Y-184396200D01*
X23423400Y-174116200D02*
X23423400Y-184396200D01*
X18522400Y-174116200D02*
X18522400Y-184396200D01*
X16462400Y-174116200D02*
X16462400Y-184396200D01*
X16962400Y-173876200D02*
X16222400Y-173876200D01*
X16222400Y-173876200D02*
X16222400Y-174376200D01*
X17022400Y-174116200D02*
X17022400Y-184396200D01*
X19883400Y-180762200D02*
X19848400Y-180727200D01*
X26383400Y-184396200D02*
X16462400Y-184396200D01*
X22191400Y-183071200D02*
X22145400Y-183024200D01*
X19442400Y-176716200D02*
G75*
G03*
X19587644Y-177399518I1680000J0D01*
G01*
X20438400Y-178251201D02*
G75*
G03*
X21805442Y-178251627I684000J1535001D01*
G01*
X22657400Y-177400200D02*
G75*
G03*
X22657827Y-176033158I-1534993J684001D01*
G01*
X19587400Y-176032200D02*
G75*
G03*
X19442147Y-176745005I1535001J-683999D01*
G01*
X21806400Y-175181200D02*
G75*
G03*
X20439358Y-175180773I-684001J-1534993D01*
G01*
X22802400Y-181796200D02*
G75*
G03*
X22802400Y-181796200I-1680000J0D01*
G01*
%TO.C,U1*%
X40802400Y-183441400D02*
X45927400Y-183441400D01*
X40802400Y-173991400D02*
X40802400Y-174941400D01*
X40802400Y-184391400D02*
X40802400Y-183441400D01*
X39302400Y-173991400D02*
X40802400Y-173991400D01*
X39302400Y-184391400D02*
X40802400Y-184391400D01*
X40802400Y-174941400D02*
X41902400Y-174941400D01*
%TO.C,C44*%
X65387600Y-169354348D02*
X65387600Y-169876852D01*
X66857600Y-169354348D02*
X66857600Y-169876852D01*
%TO.C,R33*%
X72880600Y-183002936D02*
X72880600Y-183457064D01*
X74350600Y-183002936D02*
X74350600Y-183457064D01*
%TO.C,D2*%
X33667200Y-146329000D02*
X30807200Y-146329000D01*
X33667200Y-148249000D02*
X33667200Y-146329000D01*
X30807200Y-148249000D02*
X33667200Y-148249000D01*
%TO.C,C4*%
X48395000Y-174459748D02*
X48395000Y-174982252D01*
X49865000Y-174459748D02*
X49865000Y-174982252D01*
%TO.C,C13*%
X53252052Y-162606800D02*
X52729548Y-162606800D01*
X53252052Y-164076800D02*
X52729548Y-164076800D01*
%TO.C,C5*%
X47105252Y-170223600D02*
X46582748Y-170223600D01*
X47105252Y-168753600D02*
X46582748Y-168753600D01*
%TO.C,C12*%
X53252052Y-154478800D02*
X52729548Y-154478800D01*
X53252052Y-155948800D02*
X52729548Y-155948800D01*
%TO.C,R24*%
X90812936Y-170163900D02*
X91267064Y-170163900D01*
X90812936Y-171633900D02*
X91267064Y-171633900D01*
%TO.C,C7*%
X40216200Y-164299748D02*
X40216200Y-164822252D01*
X41686200Y-164299748D02*
X41686200Y-164822252D01*
%TO.C,R22*%
X90812936Y-187636000D02*
X91267064Y-187636000D01*
X90812936Y-186166000D02*
X91267064Y-186166000D01*
%TO.C,C1*%
X30408400Y-189820873D02*
X23960400Y-189820873D01*
X30351400Y-190260873D02*
X28224400Y-190260873D01*
X30390400Y-190020873D02*
X28224400Y-190020873D01*
X26144400Y-191901873D02*
X24879400Y-191901873D01*
X29848400Y-191461873D02*
X28224400Y-191461873D01*
X26144400Y-191621873D02*
X24636400Y-191621873D01*
X30359400Y-190220873D02*
X28224400Y-190220873D01*
X30258400Y-190621873D02*
X28224400Y-190621873D01*
X29926400Y-191341873D02*
X28224400Y-191341873D01*
X26144400Y-191461873D02*
X24520400Y-191461873D01*
X30170400Y-190861873D02*
X28224400Y-190861873D01*
X28616400Y-192541873D02*
X25752400Y-192541873D01*
X29228400Y-192141873D02*
X25140400Y-192141873D01*
X26144400Y-191021873D02*
X24268400Y-191021873D01*
X29762400Y-191581873D02*
X28224400Y-191581873D01*
X28349400Y-192661873D02*
X26019400Y-192661873D01*
X29321400Y-192061873D02*
X25047400Y-192061873D01*
X26144400Y-191341873D02*
X24442400Y-191341873D01*
X29449400Y-191941873D02*
X24919400Y-191941873D01*
X28243400Y-192701873D02*
X26125400Y-192701873D01*
X29276400Y-192101873D02*
X25092400Y-192101873D01*
X30379400Y-190100873D02*
X28224400Y-190100873D01*
X26144400Y-190821873D02*
X24182400Y-190821873D01*
X29023400Y-186120632D02*
X29023400Y-186750632D01*
X29600400Y-191781873D02*
X28224400Y-191781873D01*
X30414400Y-189700873D02*
X23954400Y-189700873D01*
X30231400Y-190701873D02*
X28224400Y-190701873D01*
X30343400Y-190300873D02*
X28224400Y-190300873D01*
X26144400Y-190981873D02*
X24250400Y-190981873D01*
X29634400Y-191741873D02*
X28224400Y-191741873D01*
X26144400Y-190300873D02*
X24025400Y-190300873D01*
X27586400Y-192861873D02*
X26782400Y-192861873D01*
X26144400Y-190381873D02*
X24043400Y-190381873D01*
X30395400Y-189980873D02*
X28224400Y-189980873D01*
X29018400Y-192301873D02*
X25350400Y-192301873D01*
X30100400Y-191021873D02*
X28224400Y-191021873D01*
X28834400Y-192421873D02*
X25534400Y-192421873D01*
X29974400Y-191261873D02*
X28224400Y-191261873D01*
X30154400Y-190901873D02*
X28224400Y-190901873D01*
X30018400Y-191181873D02*
X28224400Y-191181873D01*
X26144400Y-190341873D02*
X24034400Y-190341873D01*
X29874400Y-191421873D02*
X28224400Y-191421873D01*
X29179400Y-192181873D02*
X25189400Y-192181873D01*
X30373400Y-190140873D02*
X28224400Y-190140873D01*
X26144400Y-191221873D02*
X24372400Y-191221873D01*
X29668400Y-191701873D02*
X28224400Y-191701873D01*
X28534400Y-192581873D02*
X25834400Y-192581873D01*
X30136400Y-190941873D02*
X28224400Y-190941873D01*
X26144400Y-191501873D02*
X24548400Y-191501873D01*
X26144400Y-191741873D02*
X24734400Y-191741873D01*
X26144400Y-189980873D02*
X23973400Y-189980873D01*
X26144400Y-190140873D02*
X23995400Y-190140873D01*
X30412400Y-189740873D02*
X23956400Y-189740873D01*
X26144400Y-191381873D02*
X24468400Y-191381873D01*
X30414400Y-189660873D02*
X23954400Y-189660873D01*
X26144400Y-191781873D02*
X24768400Y-191781873D01*
X26144400Y-190741873D02*
X24151400Y-190741873D01*
X26144400Y-191661873D02*
X24668400Y-191661873D01*
X29820400Y-191501873D02*
X28224400Y-191501873D01*
X27986400Y-192781873D02*
X26382400Y-192781873D01*
X30040400Y-191141873D02*
X28224400Y-191141873D01*
X29489400Y-191901873D02*
X28224400Y-191901873D01*
X26144400Y-190461873D02*
X24063400Y-190461873D01*
X27817400Y-192821873D02*
X26551400Y-192821873D01*
X30282400Y-190541873D02*
X28224400Y-190541873D01*
X30118400Y-190981873D02*
X28224400Y-190981873D01*
X30411400Y-189780873D02*
X23957400Y-189780873D01*
X29366400Y-192021873D02*
X25002400Y-192021873D01*
X30399400Y-189940873D02*
X28224400Y-189940873D01*
X26144400Y-189940873D02*
X23969400Y-189940873D01*
X29338400Y-186435632D02*
X28708400Y-186435632D01*
X26144400Y-191821873D02*
X24804400Y-191821873D01*
X30315400Y-190421873D02*
X28224400Y-190421873D01*
X30325400Y-190381873D02*
X28224400Y-190381873D01*
X30406400Y-189860873D02*
X28224400Y-189860873D01*
X28446400Y-192621873D02*
X25922400Y-192621873D01*
X26144400Y-191581873D02*
X24606400Y-191581873D01*
X30080400Y-191061873D02*
X28224400Y-191061873D01*
X29900400Y-191381873D02*
X28224400Y-191381873D01*
X30366400Y-190180873D02*
X28224400Y-190180873D01*
X29564400Y-191821873D02*
X28224400Y-191821873D01*
X26144400Y-190661873D02*
X24123400Y-190661873D01*
X30334400Y-190341873D02*
X28224400Y-190341873D01*
X28124400Y-192741873D02*
X26244400Y-192741873D01*
X28765400Y-192461873D02*
X25603400Y-192461873D01*
X29408400Y-191981873D02*
X24960400Y-191981873D01*
X29074400Y-192261873D02*
X25294400Y-192261873D01*
X26144400Y-190581873D02*
X24098400Y-190581873D01*
X29996400Y-191221873D02*
X28224400Y-191221873D01*
X26144400Y-191701873D02*
X24700400Y-191701873D01*
X26144400Y-190781873D02*
X24166400Y-190781873D01*
X26144400Y-190100873D02*
X23989400Y-190100873D01*
X26144400Y-190901873D02*
X24214400Y-190901873D01*
X26144400Y-190220873D02*
X24009400Y-190220873D01*
X30402400Y-189900873D02*
X28224400Y-189900873D01*
X29128400Y-192221873D02*
X25240400Y-192221873D01*
X26144400Y-191421873D02*
X24494400Y-191421873D01*
X26144400Y-190861873D02*
X24198400Y-190861873D01*
X26144400Y-190501873D02*
X24074400Y-190501873D01*
X29950400Y-191301873D02*
X28224400Y-191301873D01*
X26144400Y-190020873D02*
X23978400Y-190020873D01*
X28693400Y-192501873D02*
X25675400Y-192501873D01*
X30305400Y-190461873D02*
X28224400Y-190461873D01*
X30217400Y-190741873D02*
X28224400Y-190741873D01*
X29791400Y-191541873D02*
X28224400Y-191541873D01*
X28898400Y-192381873D02*
X25470400Y-192381873D01*
X30186400Y-190821873D02*
X28224400Y-190821873D01*
X26144400Y-191301873D02*
X24418400Y-191301873D01*
X26144400Y-190701873D02*
X24137400Y-190701873D01*
X30060400Y-191101873D02*
X28224400Y-191101873D01*
X26144400Y-190180873D02*
X24002400Y-190180873D01*
X28960400Y-192341873D02*
X25408400Y-192341873D01*
X29732400Y-191621873D02*
X28224400Y-191621873D01*
X26144400Y-190541873D02*
X24086400Y-190541873D01*
X26144400Y-191861873D02*
X24841400Y-191861873D01*
X30385400Y-190060873D02*
X28224400Y-190060873D01*
X29700400Y-191661873D02*
X28224400Y-191661873D01*
X26144400Y-191141873D02*
X24328400Y-191141873D01*
X26144400Y-190421873D02*
X24053400Y-190421873D01*
X26144400Y-190941873D02*
X24232400Y-190941873D01*
X26144400Y-191101873D02*
X24308400Y-191101873D01*
X26144400Y-191181873D02*
X24350400Y-191181873D01*
X30270400Y-190581873D02*
X28224400Y-190581873D01*
X30245400Y-190661873D02*
X28224400Y-190661873D01*
X26144400Y-191061873D02*
X24288400Y-191061873D01*
X26144400Y-190060873D02*
X23983400Y-190060873D01*
X29527400Y-191861873D02*
X28224400Y-191861873D01*
X30202400Y-190781873D02*
X28224400Y-190781873D01*
X26144400Y-191541873D02*
X24577400Y-191541873D01*
X26144400Y-190260873D02*
X24017400Y-190260873D01*
X30294400Y-190501873D02*
X28224400Y-190501873D01*
X26144400Y-191261873D02*
X24394400Y-191261873D01*
X26144400Y-189900873D02*
X23966400Y-189900873D01*
X30414400Y-189620873D02*
X23954400Y-189620873D01*
X26144400Y-190621873D02*
X24110400Y-190621873D01*
X26144400Y-189860873D02*
X23962400Y-189860873D01*
X30454400Y-189620873D02*
G75*
G03*
X30454400Y-189620873I-3270000J0D01*
G01*
%TO.C,J3*%
X38817600Y-140135400D02*
X38817600Y-137535400D01*
X36217600Y-134935400D02*
X43957600Y-134935400D01*
X36217600Y-137535400D02*
X36217600Y-134935400D01*
X36217600Y-140135400D02*
X36217600Y-138805400D01*
X43957600Y-140135400D02*
X43957600Y-134935400D01*
X38817600Y-140135400D02*
X43957600Y-140135400D01*
X37547600Y-140135400D02*
X36217600Y-140135400D01*
X38817600Y-137535400D02*
X36217600Y-137535400D01*
%TO.C,R11*%
X88320600Y-136390864D02*
X88320600Y-135936736D01*
X86850600Y-136390864D02*
X86850600Y-135936736D01*
%TO.C,Y2*%
X55799800Y-156067800D02*
X55799800Y-162467800D01*
X60849800Y-156067800D02*
X60849800Y-162467800D01*
X55799800Y-162467800D02*
G75*
G03*
X60849800Y-162467800I2525000J0D01*
G01*
X60849800Y-156067800D02*
G75*
G03*
X55799800Y-156067800I-2525000J0D01*
G01*
%TO.C,C41*%
X75110848Y-165096000D02*
X75633352Y-165096000D01*
X75110848Y-166566000D02*
X75633352Y-166566000D01*
%TO.C,R18*%
X89946200Y-182914736D02*
X89946200Y-183368864D01*
X88476200Y-182914736D02*
X88476200Y-183368864D01*
%TO.C,D1*%
X36538400Y-192350800D02*
X46278400Y-192350800D01*
X44613400Y-192350800D02*
X44613400Y-186910800D01*
X46278400Y-192350800D02*
X46278400Y-186910800D01*
X44853400Y-192350800D02*
X44853400Y-186910800D01*
X36538400Y-186910800D02*
X36538400Y-192350800D01*
X35628400Y-189630800D02*
X36538400Y-189630800D01*
X46278400Y-186910800D02*
X36538400Y-186910800D01*
X47188400Y-189630800D02*
X46278400Y-189630800D01*
X44733400Y-192350800D02*
X44733400Y-186910800D01*
%TO.C,C16*%
X76569252Y-160905000D02*
X76046748Y-160905000D01*
X76569252Y-162375000D02*
X76046748Y-162375000D01*
%TO.C,U5*%
X92784200Y-164949600D02*
X98084200Y-164949600D01*
X92784200Y-154669600D02*
X92784200Y-164949600D01*
X90294200Y-165009600D02*
X100574200Y-165009600D01*
X100574200Y-154609600D02*
X90294200Y-154609600D01*
X90294200Y-154609600D02*
X90294200Y-165009600D01*
X98084200Y-154669600D02*
X96434200Y-154669600D01*
X94434200Y-154669600D02*
X92784200Y-154669600D01*
X100574200Y-165009600D02*
X100574200Y-154609600D01*
X98084200Y-164949600D02*
X98084200Y-154669600D01*
X94434200Y-154669600D02*
G75*
G03*
X96434200Y-154669600I1000000J0D01*
G01*
%TO.C,C30*%
X96197800Y-173690752D02*
X96197800Y-173168248D01*
X97667800Y-173690752D02*
X97667800Y-173168248D01*
%TO.C,R3*%
X53598800Y-159050736D02*
X53598800Y-159504864D01*
X52128800Y-159050736D02*
X52128800Y-159504864D01*
%TO.C,C37*%
X85272600Y-179488948D02*
X85272600Y-180011452D01*
X83802600Y-179488948D02*
X83802600Y-180011452D01*
%TO.C,R35*%
X72623464Y-192324800D02*
X72169336Y-192324800D01*
X72623464Y-193794800D02*
X72169336Y-193794800D01*
%TO.C,R1*%
X36406136Y-146554000D02*
X36860264Y-146554000D01*
X36406136Y-148024000D02*
X36860264Y-148024000D01*
%TO.C,C18*%
X67279848Y-145665000D02*
X67802352Y-145665000D01*
X67279848Y-147135000D02*
X67802352Y-147135000D01*
%TO.C,L1*%
X30140400Y-159118200D02*
X30140400Y-171718200D01*
X17540400Y-171718200D02*
X17540400Y-159118200D01*
X27140400Y-159118200D02*
X30140400Y-159118200D01*
X17540400Y-159118200D02*
X20540400Y-159118200D01*
X30140400Y-171718200D02*
X27140400Y-171718200D01*
X20540400Y-171718200D02*
X17540400Y-171718200D01*
%TO.C,J4*%
X62528600Y-140936000D02*
X62528600Y-141536000D01*
X56508600Y-141536000D02*
X56508600Y-140936000D01*
X55958600Y-137046000D02*
X55708600Y-136516000D01*
X63328600Y-136516000D02*
X55708600Y-136516000D01*
X64998600Y-140506000D02*
X64998600Y-136506000D01*
X63328600Y-135516000D02*
X63328600Y-136516000D01*
X59988600Y-140936000D02*
X59988600Y-141536000D01*
X54908600Y-140936000D02*
X54908600Y-141536000D01*
X64128600Y-140936000D02*
X62528600Y-140936000D01*
X56508600Y-140936000D02*
X54908600Y-140936000D01*
X55708600Y-136516000D02*
X55708600Y-135516000D01*
X64708600Y-135516000D02*
X54328600Y-135516000D01*
X54328600Y-135516000D02*
X54328600Y-141536000D01*
X59048600Y-141536000D02*
X59048600Y-140936000D01*
X59048600Y-140936000D02*
X57448600Y-140936000D01*
X64128600Y-141536000D02*
X64128600Y-140936000D01*
X64708600Y-141536000D02*
X64708600Y-135516000D01*
X63078600Y-135516000D02*
X63078600Y-136516000D01*
X57448600Y-140936000D02*
X57448600Y-141536000D01*
X63328600Y-136516000D02*
X63078600Y-137046000D01*
X54328600Y-141536000D02*
X64708600Y-141536000D01*
X61588600Y-141536000D02*
X61588600Y-140936000D01*
X61588600Y-140936000D02*
X59988600Y-140936000D01*
X55958600Y-135516000D02*
X55958600Y-136516000D01*
X63078600Y-137046000D02*
X55958600Y-137046000D01*
%TO.C,C23*%
X102951000Y-156440252D02*
X102951000Y-155917748D01*
X101481000Y-156440252D02*
X101481000Y-155917748D01*
%TO.C,C10*%
X49309400Y-144944948D02*
X49309400Y-145467452D01*
X50779400Y-144944948D02*
X50779400Y-145467452D01*
%TO.C,U2*%
X47109000Y-162925600D02*
X45309000Y-162925600D01*
X45309000Y-166145600D02*
X47759000Y-166145600D01*
%TO.C,C2*%
X48378800Y-184126252D02*
X48378800Y-183603748D01*
X49848800Y-184126252D02*
X49848800Y-183603748D01*
%TO.C,R25*%
X91251064Y-173719900D02*
X90796936Y-173719900D01*
X91251064Y-175189900D02*
X90796936Y-175189900D01*
%TO.C,C31*%
X96702600Y-183588952D02*
X96702600Y-183066448D01*
X95232600Y-183588952D02*
X95232600Y-183066448D01*
%TO.C,U6*%
X71783600Y-177823000D02*
X71783600Y-177373000D01*
X79003600Y-177823000D02*
X79003600Y-177373000D01*
X79003600Y-177373000D02*
X80293600Y-177373000D01*
X78553600Y-177823000D02*
X79003600Y-177823000D01*
X72233600Y-177823000D02*
X71783600Y-177823000D01*
X78553600Y-170603000D02*
X79003600Y-170603000D01*
X72233600Y-170603000D02*
X71783600Y-170603000D01*
X71783600Y-170603000D02*
X71783600Y-171053000D01*
X79003600Y-170603000D02*
X79003600Y-171053000D01*
%TO.C,R4*%
X25230200Y-153138864D02*
X25230200Y-152684736D01*
X26700200Y-153138864D02*
X26700200Y-152684736D01*
%TO.C,R34*%
X55710136Y-192274000D02*
X56164264Y-192274000D01*
X55710136Y-193744000D02*
X56164264Y-193744000D01*
%TO.C,D7*%
X105467200Y-151338200D02*
X106117200Y-151338200D01*
X105467200Y-148218200D02*
X106117200Y-148218200D01*
X105467200Y-151338200D02*
X104817200Y-151338200D01*
X105467200Y-148218200D02*
X103792200Y-148218200D01*
%TO.C,C9*%
X41009252Y-168753600D02*
X40486748Y-168753600D01*
X41009252Y-170223600D02*
X40486748Y-170223600D01*
%TO.C,U3*%
X68080600Y-150386000D02*
X68080600Y-150836000D01*
X68080600Y-157606000D02*
X68080600Y-157156000D01*
X74850600Y-157606000D02*
X75300600Y-157606000D01*
X74850600Y-150386000D02*
X75300600Y-150386000D01*
X75300600Y-150386000D02*
X75300600Y-150836000D01*
X68530600Y-150386000D02*
X68080600Y-150386000D01*
X68530600Y-157606000D02*
X68080600Y-157606000D01*
X75300600Y-157606000D02*
X75300600Y-157156000D01*
X68080600Y-150836000D02*
X66790600Y-150836000D01*
%TO.C,R9*%
X88320600Y-145588736D02*
X88320600Y-146042864D01*
X86850600Y-145588736D02*
X86850600Y-146042864D01*
%TD*%
M02*
