%TF.GenerationSoftware,KiCad,Pcbnew,(6.0.11)*%
%TF.CreationDate,2024-04-30T16:24:35+07:00*%
%TF.ProjectId,Oxygen Monitoring,4f787967-656e-4204-9d6f-6e69746f7269,rev?*%
%TF.SameCoordinates,Original*%
%TF.FileFunction,Legend,Bot*%
%TF.FilePolarity,Positive*%
%FSLAX46Y46*%
G04 Gerber Fmt 4.6, Leading zero omitted, Abs format (unit mm)*
G04 Created by KiCad (PCBNEW (6.0.11)) date 2024-04-30 16:24:35*
%MOMM*%
%LPD*%
G01*
G04 APERTURE LIST*
%ADD10C,0.150000*%
%ADD11C,0.120000*%
G04 APERTURE END LIST*
D10*
%TO.C,C15*%
X76411357Y-139285942D02*
X76458976Y-139333561D01*
X76601833Y-139381180D01*
X76697071Y-139381180D01*
X76839928Y-139333561D01*
X76935166Y-139238323D01*
X76982785Y-139143085D01*
X77030404Y-138952609D01*
X77030404Y-138809752D01*
X76982785Y-138619276D01*
X76935166Y-138524038D01*
X76839928Y-138428800D01*
X76697071Y-138381180D01*
X76601833Y-138381180D01*
X76458976Y-138428800D01*
X76411357Y-138476419D01*
X75458976Y-139381180D02*
X76030404Y-139381180D01*
X75744690Y-139381180D02*
X75744690Y-138381180D01*
X75839928Y-138524038D01*
X75935166Y-138619276D01*
X76030404Y-138666895D01*
X74554214Y-138381180D02*
X75030404Y-138381180D01*
X75078023Y-138857371D01*
X75030404Y-138809752D01*
X74935166Y-138762133D01*
X74697071Y-138762133D01*
X74601833Y-138809752D01*
X74554214Y-138857371D01*
X74506595Y-138952609D01*
X74506595Y-139190704D01*
X74554214Y-139285942D01*
X74601833Y-139333561D01*
X74697071Y-139381180D01*
X74935166Y-139381180D01*
X75030404Y-139333561D01*
X75078023Y-139285942D01*
%TO.C,C27*%
X96102457Y-149852342D02*
X96150076Y-149899961D01*
X96292933Y-149947580D01*
X96388171Y-149947580D01*
X96531028Y-149899961D01*
X96626266Y-149804723D01*
X96673885Y-149709485D01*
X96721504Y-149519009D01*
X96721504Y-149376152D01*
X96673885Y-149185676D01*
X96626266Y-149090438D01*
X96531028Y-148995200D01*
X96388171Y-148947580D01*
X96292933Y-148947580D01*
X96150076Y-148995200D01*
X96102457Y-149042819D01*
X95721504Y-149042819D02*
X95673885Y-148995200D01*
X95578647Y-148947580D01*
X95340552Y-148947580D01*
X95245314Y-148995200D01*
X95197695Y-149042819D01*
X95150076Y-149138057D01*
X95150076Y-149233295D01*
X95197695Y-149376152D01*
X95769123Y-149947580D01*
X95150076Y-149947580D01*
X94816742Y-148947580D02*
X94150076Y-148947580D01*
X94578647Y-149947580D01*
%TO.C,R7*%
X32970780Y-137368733D02*
X32494590Y-137035400D01*
X32970780Y-136797304D02*
X31970780Y-136797304D01*
X31970780Y-137178257D01*
X32018400Y-137273495D01*
X32066019Y-137321114D01*
X32161257Y-137368733D01*
X32304114Y-137368733D01*
X32399352Y-137321114D01*
X32446971Y-137273495D01*
X32494590Y-137178257D01*
X32494590Y-136797304D01*
X31970780Y-137702066D02*
X31970780Y-138368733D01*
X32970780Y-137940161D01*
%TO.C,R8*%
X48271980Y-137363733D02*
X47795790Y-137030400D01*
X48271980Y-136792304D02*
X47271980Y-136792304D01*
X47271980Y-137173257D01*
X47319600Y-137268495D01*
X47367219Y-137316114D01*
X47462457Y-137363733D01*
X47605314Y-137363733D01*
X47700552Y-137316114D01*
X47748171Y-137268495D01*
X47795790Y-137173257D01*
X47795790Y-136792304D01*
X47700552Y-137935161D02*
X47652933Y-137839923D01*
X47605314Y-137792304D01*
X47510076Y-137744685D01*
X47462457Y-137744685D01*
X47367219Y-137792304D01*
X47319600Y-137839923D01*
X47271980Y-137935161D01*
X47271980Y-138125638D01*
X47319600Y-138220876D01*
X47367219Y-138268495D01*
X47462457Y-138316114D01*
X47510076Y-138316114D01*
X47605314Y-138268495D01*
X47652933Y-138220876D01*
X47700552Y-138125638D01*
X47700552Y-137935161D01*
X47748171Y-137839923D01*
X47795790Y-137792304D01*
X47891028Y-137744685D01*
X48081504Y-137744685D01*
X48176742Y-137792304D01*
X48224361Y-137839923D01*
X48271980Y-137935161D01*
X48271980Y-138125638D01*
X48224361Y-138220876D01*
X48176742Y-138268495D01*
X48081504Y-138316114D01*
X47891028Y-138316114D01*
X47795790Y-138268495D01*
X47748171Y-138220876D01*
X47700552Y-138125638D01*
%TO.C,C28*%
X97496742Y-142937742D02*
X97544361Y-142890123D01*
X97591980Y-142747266D01*
X97591980Y-142652028D01*
X97544361Y-142509171D01*
X97449123Y-142413933D01*
X97353885Y-142366314D01*
X97163409Y-142318695D01*
X97020552Y-142318695D01*
X96830076Y-142366314D01*
X96734838Y-142413933D01*
X96639600Y-142509171D01*
X96591980Y-142652028D01*
X96591980Y-142747266D01*
X96639600Y-142890123D01*
X96687219Y-142937742D01*
X96687219Y-143318695D02*
X96639600Y-143366314D01*
X96591980Y-143461552D01*
X96591980Y-143699647D01*
X96639600Y-143794885D01*
X96687219Y-143842504D01*
X96782457Y-143890123D01*
X96877695Y-143890123D01*
X97020552Y-143842504D01*
X97591980Y-143271076D01*
X97591980Y-143890123D01*
X97020552Y-144461552D02*
X96972933Y-144366314D01*
X96925314Y-144318695D01*
X96830076Y-144271076D01*
X96782457Y-144271076D01*
X96687219Y-144318695D01*
X96639600Y-144366314D01*
X96591980Y-144461552D01*
X96591980Y-144652028D01*
X96639600Y-144747266D01*
X96687219Y-144794885D01*
X96782457Y-144842504D01*
X96830076Y-144842504D01*
X96925314Y-144794885D01*
X96972933Y-144747266D01*
X97020552Y-144652028D01*
X97020552Y-144461552D01*
X97068171Y-144366314D01*
X97115790Y-144318695D01*
X97211028Y-144271076D01*
X97401504Y-144271076D01*
X97496742Y-144318695D01*
X97544361Y-144366314D01*
X97591980Y-144461552D01*
X97591980Y-144652028D01*
X97544361Y-144747266D01*
X97496742Y-144794885D01*
X97401504Y-144842504D01*
X97211028Y-144842504D01*
X97115790Y-144794885D01*
X97068171Y-144747266D01*
X97020552Y-144652028D01*
%TO.C,C34*%
X68130742Y-173570142D02*
X68178361Y-173522523D01*
X68225980Y-173379666D01*
X68225980Y-173284428D01*
X68178361Y-173141571D01*
X68083123Y-173046333D01*
X67987885Y-172998714D01*
X67797409Y-172951095D01*
X67654552Y-172951095D01*
X67464076Y-172998714D01*
X67368838Y-173046333D01*
X67273600Y-173141571D01*
X67225980Y-173284428D01*
X67225980Y-173379666D01*
X67273600Y-173522523D01*
X67321219Y-173570142D01*
X67225980Y-173903476D02*
X67225980Y-174522523D01*
X67606933Y-174189190D01*
X67606933Y-174332047D01*
X67654552Y-174427285D01*
X67702171Y-174474904D01*
X67797409Y-174522523D01*
X68035504Y-174522523D01*
X68130742Y-174474904D01*
X68178361Y-174427285D01*
X68225980Y-174332047D01*
X68225980Y-174046333D01*
X68178361Y-173951095D01*
X68130742Y-173903476D01*
X67559314Y-175379666D02*
X68225980Y-175379666D01*
X67178361Y-175141571D02*
X67892647Y-174903476D01*
X67892647Y-175522523D01*
%TO.C,R5*%
X63419066Y-145278580D02*
X63752400Y-144802390D01*
X63990495Y-145278580D02*
X63990495Y-144278580D01*
X63609542Y-144278580D01*
X63514304Y-144326200D01*
X63466685Y-144373819D01*
X63419066Y-144469057D01*
X63419066Y-144611914D01*
X63466685Y-144707152D01*
X63514304Y-144754771D01*
X63609542Y-144802390D01*
X63990495Y-144802390D01*
X62514304Y-144278580D02*
X62990495Y-144278580D01*
X63038114Y-144754771D01*
X62990495Y-144707152D01*
X62895257Y-144659533D01*
X62657161Y-144659533D01*
X62561923Y-144707152D01*
X62514304Y-144754771D01*
X62466685Y-144850009D01*
X62466685Y-145088104D01*
X62514304Y-145183342D01*
X62561923Y-145230961D01*
X62657161Y-145278580D01*
X62895257Y-145278580D01*
X62990495Y-145230961D01*
X63038114Y-145183342D01*
%TO.C,R6*%
X55976866Y-145252180D02*
X56310200Y-144775990D01*
X56548295Y-145252180D02*
X56548295Y-144252180D01*
X56167342Y-144252180D01*
X56072104Y-144299800D01*
X56024485Y-144347419D01*
X55976866Y-144442657D01*
X55976866Y-144585514D01*
X56024485Y-144680752D01*
X56072104Y-144728371D01*
X56167342Y-144775990D01*
X56548295Y-144775990D01*
X55119723Y-144252180D02*
X55310200Y-144252180D01*
X55405438Y-144299800D01*
X55453057Y-144347419D01*
X55548295Y-144490276D01*
X55595914Y-144680752D01*
X55595914Y-145061704D01*
X55548295Y-145156942D01*
X55500676Y-145204561D01*
X55405438Y-145252180D01*
X55214961Y-145252180D01*
X55119723Y-145204561D01*
X55072104Y-145156942D01*
X55024485Y-145061704D01*
X55024485Y-144823609D01*
X55072104Y-144728371D01*
X55119723Y-144680752D01*
X55214961Y-144633133D01*
X55405438Y-144633133D01*
X55500676Y-144680752D01*
X55548295Y-144728371D01*
X55595914Y-144823609D01*
%TO.C,C26*%
X96102457Y-135856942D02*
X96150076Y-135904561D01*
X96292933Y-135952180D01*
X96388171Y-135952180D01*
X96531028Y-135904561D01*
X96626266Y-135809323D01*
X96673885Y-135714085D01*
X96721504Y-135523609D01*
X96721504Y-135380752D01*
X96673885Y-135190276D01*
X96626266Y-135095038D01*
X96531028Y-134999800D01*
X96388171Y-134952180D01*
X96292933Y-134952180D01*
X96150076Y-134999800D01*
X96102457Y-135047419D01*
X95721504Y-135047419D02*
X95673885Y-134999800D01*
X95578647Y-134952180D01*
X95340552Y-134952180D01*
X95245314Y-134999800D01*
X95197695Y-135047419D01*
X95150076Y-135142657D01*
X95150076Y-135237895D01*
X95197695Y-135380752D01*
X95769123Y-135952180D01*
X95150076Y-135952180D01*
X94292933Y-134952180D02*
X94483409Y-134952180D01*
X94578647Y-134999800D01*
X94626266Y-135047419D01*
X94721504Y-135190276D01*
X94769123Y-135380752D01*
X94769123Y-135761704D01*
X94721504Y-135856942D01*
X94673885Y-135904561D01*
X94578647Y-135952180D01*
X94388171Y-135952180D01*
X94292933Y-135904561D01*
X94245314Y-135856942D01*
X94197695Y-135761704D01*
X94197695Y-135523609D01*
X94245314Y-135428371D01*
X94292933Y-135380752D01*
X94388171Y-135333133D01*
X94578647Y-135333133D01*
X94673885Y-135380752D01*
X94721504Y-135428371D01*
X94769123Y-135523609D01*
%TO.C,C33*%
X69222942Y-178040542D02*
X69270561Y-177992923D01*
X69318180Y-177850066D01*
X69318180Y-177754828D01*
X69270561Y-177611971D01*
X69175323Y-177516733D01*
X69080085Y-177469114D01*
X68889609Y-177421495D01*
X68746752Y-177421495D01*
X68556276Y-177469114D01*
X68461038Y-177516733D01*
X68365800Y-177611971D01*
X68318180Y-177754828D01*
X68318180Y-177850066D01*
X68365800Y-177992923D01*
X68413419Y-178040542D01*
X68318180Y-178373876D02*
X68318180Y-178992923D01*
X68699133Y-178659590D01*
X68699133Y-178802447D01*
X68746752Y-178897685D01*
X68794371Y-178945304D01*
X68889609Y-178992923D01*
X69127704Y-178992923D01*
X69222942Y-178945304D01*
X69270561Y-178897685D01*
X69318180Y-178802447D01*
X69318180Y-178516733D01*
X69270561Y-178421495D01*
X69222942Y-178373876D01*
X68318180Y-179326257D02*
X68318180Y-179945304D01*
X68699133Y-179611971D01*
X68699133Y-179754828D01*
X68746752Y-179850066D01*
X68794371Y-179897685D01*
X68889609Y-179945304D01*
X69127704Y-179945304D01*
X69222942Y-179897685D01*
X69270561Y-179850066D01*
X69318180Y-179754828D01*
X69318180Y-179469114D01*
X69270561Y-179373876D01*
X69222942Y-179326257D01*
%TO.C,R28*%
X84658780Y-173163742D02*
X84182590Y-172830409D01*
X84658780Y-172592314D02*
X83658780Y-172592314D01*
X83658780Y-172973266D01*
X83706400Y-173068504D01*
X83754019Y-173116123D01*
X83849257Y-173163742D01*
X83992114Y-173163742D01*
X84087352Y-173116123D01*
X84134971Y-173068504D01*
X84182590Y-172973266D01*
X84182590Y-172592314D01*
X83754019Y-173544695D02*
X83706400Y-173592314D01*
X83658780Y-173687552D01*
X83658780Y-173925647D01*
X83706400Y-174020885D01*
X83754019Y-174068504D01*
X83849257Y-174116123D01*
X83944495Y-174116123D01*
X84087352Y-174068504D01*
X84658780Y-173497076D01*
X84658780Y-174116123D01*
X84087352Y-174687552D02*
X84039733Y-174592314D01*
X83992114Y-174544695D01*
X83896876Y-174497076D01*
X83849257Y-174497076D01*
X83754019Y-174544695D01*
X83706400Y-174592314D01*
X83658780Y-174687552D01*
X83658780Y-174878028D01*
X83706400Y-174973266D01*
X83754019Y-175020885D01*
X83849257Y-175068504D01*
X83896876Y-175068504D01*
X83992114Y-175020885D01*
X84039733Y-174973266D01*
X84087352Y-174878028D01*
X84087352Y-174687552D01*
X84134971Y-174592314D01*
X84182590Y-174544695D01*
X84277828Y-174497076D01*
X84468304Y-174497076D01*
X84563542Y-174544695D01*
X84611161Y-174592314D01*
X84658780Y-174687552D01*
X84658780Y-174878028D01*
X84611161Y-174973266D01*
X84563542Y-175020885D01*
X84468304Y-175068504D01*
X84277828Y-175068504D01*
X84182590Y-175020885D01*
X84134971Y-174973266D01*
X84087352Y-174878028D01*
D11*
%TO.C,C15*%
X76029752Y-141343800D02*
X75507248Y-141343800D01*
X76029752Y-139873800D02*
X75507248Y-139873800D01*
%TO.C,C27*%
X95720852Y-150440200D02*
X95198348Y-150440200D01*
X95720852Y-151910200D02*
X95198348Y-151910200D01*
%TO.C,R7*%
X33368600Y-137757464D02*
X33368600Y-137303336D01*
X34838600Y-137757464D02*
X34838600Y-137303336D01*
%TO.C,R8*%
X45433600Y-137757464D02*
X45433600Y-137303336D01*
X46903600Y-137757464D02*
X46903600Y-137303336D01*
%TO.C,C28*%
X94724600Y-143841852D02*
X94724600Y-143319348D01*
X96194600Y-143841852D02*
X96194600Y-143319348D01*
%TO.C,C34*%
X66857600Y-173951748D02*
X66857600Y-174474252D01*
X65387600Y-173951748D02*
X65387600Y-174474252D01*
%TO.C,R5*%
X63479464Y-143934600D02*
X63025336Y-143934600D01*
X63479464Y-142464600D02*
X63025336Y-142464600D01*
%TO.C,R6*%
X55583136Y-143909200D02*
X56037264Y-143909200D01*
X55583136Y-142439200D02*
X56037264Y-142439200D01*
%TO.C,C26*%
X95720852Y-136444800D02*
X95198348Y-136444800D01*
X95720852Y-137914800D02*
X95198348Y-137914800D01*
%TO.C,C33*%
X66479800Y-178422148D02*
X66479800Y-178944652D01*
X67949800Y-178422148D02*
X67949800Y-178944652D01*
%TO.C,R28*%
X81389600Y-174418564D02*
X81389600Y-173964436D01*
X82859600Y-174418564D02*
X82859600Y-173964436D01*
%TD*%
M02*
