M48
; DRILL file {KiCad (6.0.11)} date Tue Apr 30 16:24:47 2024
; FORMAT={-:-/ absolute / metric / decimal}
; #@! TF.CreationDate,2024-04-30T16:24:47+07:00
; #@! TF.GenerationSoftware,Kicad,Pcbnew,(6.0.11)
; #@! TF.FileFunction,Plated,1,2,PTH
FMAT,2
METRIC
; #@! TA.AperFunction,Plated,PTH,ViaDrill
T1C0.400
; #@! TA.AperFunction,Plated,PTH,ComponentDrill
T2C0.500
; #@! TA.AperFunction,Plated,PTH,ComponentDrill
T3C0.600
; #@! TA.AperFunction,Plated,PTH,ComponentDrill
T4C0.800
; #@! TA.AperFunction,Plated,PTH,ComponentDrill
T5C0.900
; #@! TA.AperFunction,Plated,PTH,ComponentDrill
T6C1.000
; #@! TA.AperFunction,Plated,PTH,ComponentDrill
T7C1.020
; #@! TA.AperFunction,Plated,PTH,ComponentDrill
T8C1.190
; #@! TA.AperFunction,Plated,PTH,ComponentDrill
T9C1.300
; #@! TA.AperFunction,Plated,PTH,ComponentDrill
T10C1.600
; #@! TA.AperFunction,Plated,PTH,ComponentDrill
T11C3.200
%
G90
G05
T1
X27.438Y-146.273
X27.464Y-153.944
X28.581Y-150.159
X37.649Y-145.816
X37.649Y-154.299
X39.453Y-165.602
X39.681Y-170.962
X39.732Y-158.363
X45.828Y-158.363
X45.828Y-170.962
X46.692Y-179.191
X46.717Y-175.813
X48.546Y-146.273
X48.546Y-148.889
X49.105Y-154.249
X49.13Y-135.808
X49.13Y-164.51
X50.552Y-182.849
X50.619Y-175.708
X51.01Y-159.1
X51.596Y-171.737
X51.945Y-164.866
X51.975Y-153.69
X54.896Y-191.537
X55.23Y-169.184
X55.23Y-179.242
X56.775Y-166.618
X58.528Y-154.68
X58.706Y-184.906
X60.128Y-184.906
X61.297Y-149.905
X61.5Y-184.932
X62.694Y-150.845
X62.694Y-157.195
X63.049Y-155.595
X63.887Y-177.145
X63.95Y-172.55
X64.624Y-170.682
X65.096Y-191.037
X65.767Y-150.159
X68.053Y-135.376
X68.18Y-162.986
X68.586Y-144.952
X68.637Y-171.724
X68.688Y-139.44
X68.688Y-170.174
X69.696Y-193.037
X69.806Y-163.799
X70.296Y-155.937
X70.39Y-170.454
X70.701Y-139.51
X71.025Y-162.681
X71.888Y-152.953
X71.888Y-165.374
X72.092Y-161.97
X72.879Y-160.98
X73.006Y-172.232
X73.396Y-191.537
X73.768Y-174.797
X74.263Y-172.905
X74.886Y-144.952
X75.241Y-163.088
X75.419Y-174.264
X76.41Y-164.409
X76.765Y-173.324
X76.796Y-158.037
X76.968Y-144.952
X77.73Y-171.978
X80.829Y-150.845
X80.982Y-165.374
X81.796Y-191.137
X82.099Y-171.571
X83.064Y-170.657
X84.55Y-139.682
X86.062Y-180.715
X86.112Y-144.851
X86.163Y-152.674
X86.392Y-172.71
X86.443Y-175.381
X86.443Y-178.302
X88.246Y-160.827
X89.135Y-137.154
X89.16Y-135.376
X89.567Y-140.253
X90.684Y-177.159
X90.684Y-184.17
X93.402Y-149.55
X93.496Y-146.037
X93.504Y-159.633
X93.936Y-179.598
X93.936Y-181.681
X95.256Y-174.467
X95.968Y-180.665
X97.06Y-134.03
X97.365Y-147.594
X98.368Y-166.668
X99.371Y-154.477
X102.191Y-145.714
X102.191Y-158.567
X103.689Y-135.228
X103.689Y-155.192
X103.689Y-160.7
X103.689Y-162.33
X103.791Y-146.781
X103.969Y-143.149
X105.645Y-153.283
X107.194Y-157.957
X108.49Y-160.7
X108.82Y-149.778
T2
X16.809Y-136.519
X16.809Y-191.282
X17.512Y-134.822
X17.512Y-138.216
X17.512Y-189.585
X17.512Y-192.979
X19.209Y-134.119
X19.209Y-138.919
X19.209Y-188.882
X19.209Y-193.682
X20.906Y-134.822
X20.906Y-138.216
X20.906Y-189.585
X20.906Y-192.979
X21.609Y-136.519
X21.609Y-191.282
X114.548Y-136.519
X114.548Y-191.282
X115.251Y-134.822
X115.251Y-138.216
X115.251Y-189.585
X115.251Y-192.979
X116.948Y-134.119
X116.948Y-138.919
X116.948Y-188.882
X116.948Y-193.682
X118.645Y-134.822
X118.645Y-138.216
X118.645Y-189.585
X118.645Y-192.979
X119.348Y-136.519
X119.348Y-191.282
T3
X55.096Y-184.537
X56.596Y-184.537
X64.5Y-184.537
X66.0Y-184.537
T4
X27.184Y-188.371
X27.184Y-190.871
X35.262Y-163.622
X35.262Y-166.122
X58.325Y-156.828
X58.325Y-161.708
X61.58Y-171.763
X61.58Y-176.643
T5
X103.284Y-171.698
X103.284Y-174.238
X103.284Y-176.778
X103.284Y-179.318
X105.824Y-172.968
X105.824Y-175.508
X105.824Y-178.048
X105.824Y-180.588
T6
X37.548Y-136.265
X37.548Y-138.805
X40.088Y-136.265
X40.088Y-138.805
X42.628Y-136.265
X42.628Y-138.805
X71.99Y-136.164
X74.53Y-136.164
X77.07Y-136.164
X79.61Y-136.164
T7
X115.554Y-169.818
X115.554Y-179.928
X117.254Y-172.358
X117.254Y-182.468
T8
X55.709Y-138.506
X58.249Y-138.506
X60.789Y-138.506
X63.329Y-138.506
T9
X21.122Y-176.716
X21.122Y-181.796
X113.443Y-144.698
X113.443Y-149.778
X113.443Y-154.858
T10
X33.788Y-189.631
X49.028Y-189.631
X109.124Y-168.268
X109.124Y-184.018
T11
X19.209Y-136.519
X19.209Y-191.282
X116.948Y-136.519
X116.948Y-191.282
T0
M30
