%TF.GenerationSoftware,KiCad,Pcbnew,(6.0.11)*%
%TF.CreationDate,2024-04-30T16:24:35+07:00*%
%TF.ProjectId,Oxygen Monitoring,4f787967-656e-4204-9d6f-6e69746f7269,rev?*%
%TF.SameCoordinates,Original*%
%TF.FileFunction,Soldermask,Top*%
%TF.FilePolarity,Negative*%
%FSLAX46Y46*%
G04 Gerber Fmt 4.6, Leading zero omitted, Abs format (unit mm)*
G04 Created by KiCad (PCBNEW (6.0.11)) date 2024-04-30 16:24:35*
%MOMM*%
%LPD*%
G01*
G04 APERTURE LIST*
G04 Aperture macros list*
%AMRoundRect*
0 Rectangle with rounded corners*
0 $1 Rounding radius*
0 $2 $3 $4 $5 $6 $7 $8 $9 X,Y pos of 4 corners*
0 Add a 4 corners polygon primitive as box body*
4,1,4,$2,$3,$4,$5,$6,$7,$8,$9,$2,$3,0*
0 Add four circle primitives for the rounded corners*
1,1,$1+$1,$2,$3*
1,1,$1+$1,$4,$5*
1,1,$1+$1,$6,$7*
1,1,$1+$1,$8,$9*
0 Add four rect primitives between the rounded corners*
20,1,$1+$1,$2,$3,$4,$5,0*
20,1,$1+$1,$4,$5,$6,$7,0*
20,1,$1+$1,$6,$7,$8,$9,0*
20,1,$1+$1,$8,$9,$2,$3,0*%
G04 Aperture macros list end*
%ADD10RoundRect,0.250000X0.325000X0.450000X-0.325000X0.450000X-0.325000X-0.450000X0.325000X-0.450000X0*%
%ADD11R,1.000000X1.700000*%
%ADD12R,1.700000X1.700000*%
%ADD13O,1.700000X1.700000*%
%ADD14RoundRect,0.250000X0.337500X0.475000X-0.337500X0.475000X-0.337500X-0.475000X0.337500X-0.475000X0*%
%ADD15R,0.900000X1.200000*%
%ADD16RoundRect,0.250000X-0.450000X0.350000X-0.450000X-0.350000X0.450000X-0.350000X0.450000X0.350000X0*%
%ADD17C,1.500000*%
%ADD18RoundRect,0.250000X0.350000X0.450000X-0.350000X0.450000X-0.350000X-0.450000X0.350000X-0.450000X0*%
%ADD19RoundRect,0.250000X-0.475000X0.337500X-0.475000X-0.337500X0.475000X-0.337500X0.475000X0.337500X0*%
%ADD20RoundRect,0.250000X0.475000X-0.337500X0.475000X0.337500X-0.475000X0.337500X-0.475000X-0.337500X0*%
%ADD21RoundRect,0.250001X0.462499X1.074999X-0.462499X1.074999X-0.462499X-1.074999X0.462499X-1.074999X0*%
%ADD22RoundRect,0.250000X0.450000X-0.350000X0.450000X0.350000X-0.450000X0.350000X-0.450000X-0.350000X0*%
%ADD23C,0.800000*%
%ADD24C,6.400000*%
%ADD25RoundRect,0.250000X0.450000X-0.325000X0.450000X0.325000X-0.450000X0.325000X-0.450000X-0.325000X0*%
%ADD26R,2.600000X2.600000*%
%ADD27C,2.600000*%
%ADD28RoundRect,0.250000X-0.337500X-0.475000X0.337500X-0.475000X0.337500X0.475000X-0.337500X0.475000X0*%
%ADD29R,1.200000X1.200000*%
%ADD30C,1.200000*%
%ADD31C,3.250000*%
%ADD32RoundRect,0.250500X0.499500X-0.499500X0.499500X0.499500X-0.499500X0.499500X-0.499500X-0.499500X0*%
%ADD33C,2.500000*%
%ADD34R,1.320000X2.250000*%
%ADD35RoundRect,0.250000X-0.450000X0.325000X-0.450000X-0.325000X0.450000X-0.325000X0.450000X0.325000X0*%
%ADD36R,1.600000X1.600000*%
%ADD37C,1.600000*%
%ADD38RoundRect,0.250000X-0.325000X-0.450000X0.325000X-0.450000X0.325000X0.450000X-0.325000X0.450000X0*%
%ADD39R,4.600000X1.100000*%
%ADD40R,9.400000X10.800000*%
%ADD41RoundRect,0.250000X-0.350000X-0.450000X0.350000X-0.450000X0.350000X0.450000X-0.350000X0.450000X0*%
%ADD42R,3.200000X3.200000*%
%ADD43O,3.200000X3.200000*%
%ADD44R,5.400000X2.900000*%
%ADD45RoundRect,0.250000X0.620000X0.845000X-0.620000X0.845000X-0.620000X-0.845000X0.620000X-0.845000X0*%
%ADD46O,1.740000X2.190000*%
%ADD47R,1.560000X0.650000*%
%ADD48RoundRect,0.075000X0.662500X0.075000X-0.662500X0.075000X-0.662500X-0.075000X0.662500X-0.075000X0*%
%ADD49RoundRect,0.075000X0.075000X0.662500X-0.075000X0.662500X-0.075000X-0.662500X0.075000X-0.662500X0*%
%ADD50RoundRect,0.150000X-0.587500X-0.150000X0.587500X-0.150000X0.587500X0.150000X-0.587500X0.150000X0*%
%ADD51RoundRect,0.075000X-0.662500X-0.075000X0.662500X-0.075000X0.662500X0.075000X-0.662500X0.075000X0*%
%ADD52RoundRect,0.075000X-0.075000X-0.662500X0.075000X-0.662500X0.075000X0.662500X-0.075000X0.662500X0*%
G04 APERTURE END LIST*
D10*
%TO.C,FB2*%
X61686600Y-183001400D03*
X59636600Y-183001400D03*
%TD*%
D11*
%TO.C,SW1*%
X19493200Y-146983800D03*
X19493200Y-153283800D03*
X23293200Y-146983800D03*
X23293200Y-153283800D03*
%TD*%
D12*
%TO.C,J2*%
X71990000Y-136163800D03*
D13*
X74530000Y-136163800D03*
X77070000Y-136163800D03*
X79610000Y-136163800D03*
%TD*%
D14*
%TO.C,C35*%
X57283700Y-170657000D03*
X55208700Y-170657000D03*
%TD*%
D15*
%TO.C,D6*%
X93784200Y-166667600D03*
X97084200Y-166667600D03*
%TD*%
D16*
%TO.C,R29*%
X56551000Y-173238400D03*
X56551000Y-175238400D03*
%TD*%
D10*
%TO.C,D9*%
X65141000Y-189503800D03*
X63091000Y-189503800D03*
%TD*%
D17*
%TO.C,Y3*%
X61580200Y-171763000D03*
X61580200Y-176643000D03*
%TD*%
D18*
%TO.C,R26*%
X65100000Y-193009000D03*
X63100000Y-193009000D03*
%TD*%
D19*
%TO.C,C29*%
X95967600Y-176964000D03*
X95967600Y-179039000D03*
%TD*%
D16*
%TO.C,R17*%
X85502800Y-184236600D03*
X85502800Y-186236600D03*
%TD*%
D20*
%TO.C,C24*%
X102216000Y-164430100D03*
X102216000Y-162355100D03*
%TD*%
D21*
%TO.C,F2*%
X109088300Y-136214600D03*
X106113300Y-136214600D03*
%TD*%
D20*
%TO.C,C25*%
X102216000Y-137252100D03*
X102216000Y-135177100D03*
%TD*%
D22*
%TO.C,R19*%
X89195200Y-179141800D03*
X89195200Y-177141800D03*
%TD*%
D16*
%TO.C,R14*%
X105721200Y-157922200D03*
X105721200Y-159922200D03*
%TD*%
D21*
%TO.C,F1*%
X108732700Y-163392600D03*
X105757700Y-163392600D03*
%TD*%
D10*
%TO.C,D8*%
X56962200Y-189503800D03*
X54912200Y-189503800D03*
%TD*%
D23*
%TO.C,H2*%
X115250944Y-138216456D03*
X116948000Y-134119400D03*
X119348000Y-136519400D03*
X114548000Y-136519400D03*
X118645056Y-138216456D03*
X118645056Y-134822344D03*
D24*
X116948000Y-136519400D03*
D23*
X116948000Y-138919400D03*
X115250944Y-134822344D03*
%TD*%
D22*
%TO.C,R20*%
X87433200Y-169066200D03*
X87433200Y-167066200D03*
%TD*%
D16*
%TO.C,R30*%
X70440600Y-181341000D03*
X70440600Y-183341000D03*
%TD*%
%TO.C,R15*%
X106076800Y-139634200D03*
X106076800Y-141634200D03*
%TD*%
D23*
%TO.C,H3*%
X19208800Y-193681800D03*
X17511744Y-189584744D03*
X21608800Y-191281800D03*
X17511744Y-192978856D03*
X16808800Y-191281800D03*
D24*
X19208800Y-191281800D03*
D23*
X20905856Y-192978856D03*
X19208800Y-188881800D03*
X20905856Y-189584744D03*
%TD*%
D25*
%TO.C,D5*%
X86645800Y-159540800D03*
X86645800Y-157490800D03*
%TD*%
D26*
%TO.C,J5*%
X113442800Y-154858200D03*
D27*
X113442800Y-149778200D03*
X113442800Y-144698200D03*
%TD*%
D28*
%TO.C,C40*%
X78906600Y-166825500D03*
X80981600Y-166825500D03*
%TD*%
D20*
%TO.C,C11*%
X50044400Y-150968100D03*
X50044400Y-148893100D03*
%TD*%
D19*
%TO.C,C32*%
X92462400Y-179627100D03*
X92462400Y-181702100D03*
%TD*%
D20*
%TO.C,C38*%
X84944000Y-174844100D03*
X84944000Y-172769100D03*
%TD*%
D29*
%TO.C,C43*%
X56595600Y-184537000D03*
D30*
X55095600Y-184537000D03*
%TD*%
D18*
%TO.C,R2*%
X37633200Y-152826200D03*
X35633200Y-152826200D03*
%TD*%
D14*
%TO.C,C6*%
X47881500Y-159836600D03*
X45806500Y-159836600D03*
%TD*%
%TO.C,C36*%
X57283700Y-177769000D03*
X55208700Y-177769000D03*
%TD*%
D31*
%TO.C,J6*%
X112174400Y-181858400D03*
X112174400Y-170428400D03*
D32*
X105824400Y-180588400D03*
D17*
X103284400Y-179318400D03*
X105824400Y-178048400D03*
X103284400Y-176778400D03*
X105824400Y-175508400D03*
X103284400Y-174238400D03*
X105824400Y-172968400D03*
X103284400Y-171698400D03*
X117254400Y-182468400D03*
X115554400Y-179928400D03*
X117254400Y-172358400D03*
X115554400Y-169818400D03*
D33*
X109124400Y-184018400D03*
X109124400Y-168268400D03*
%TD*%
D18*
%TO.C,R27*%
X81676800Y-193059800D03*
X79676800Y-193059800D03*
%TD*%
D19*
%TO.C,C17*%
X79352100Y-148791500D03*
X79352100Y-150866500D03*
%TD*%
D16*
%TO.C,R12*%
X87636400Y-162341800D03*
X87636400Y-164341800D03*
%TD*%
D22*
%TO.C,R13*%
X102190600Y-144377400D03*
X102190600Y-142377400D03*
%TD*%
D14*
%TO.C,C22*%
X76960600Y-146400000D03*
X74885600Y-146400000D03*
%TD*%
D16*
%TO.C,R23*%
X96932800Y-186913000D03*
X96932800Y-188913000D03*
%TD*%
D20*
%TO.C,C20*%
X64112100Y-159248500D03*
X64112100Y-157173500D03*
%TD*%
D14*
%TO.C,C8*%
X41785500Y-159836600D03*
X39710500Y-159836600D03*
%TD*%
D16*
%TO.C,R32*%
X77044600Y-182230000D03*
X77044600Y-184230000D03*
%TD*%
D29*
%TO.C,C45*%
X64500402Y-184537000D03*
D30*
X66000402Y-184537000D03*
%TD*%
D19*
%TO.C,C14*%
X25965200Y-146280800D03*
X25965200Y-148355800D03*
%TD*%
D10*
%TO.C,D3*%
X32832200Y-152877000D03*
X30782200Y-152877000D03*
%TD*%
%TO.C,D11*%
X81727200Y-189529200D03*
X79677200Y-189529200D03*
%TD*%
D34*
%TO.C,Y1*%
X58080000Y-145918000D03*
X52880000Y-145918000D03*
X52880000Y-149168000D03*
X58080000Y-149168000D03*
%TD*%
D35*
%TO.C,FB1*%
X79352100Y-157186000D03*
X79352100Y-159236000D03*
%TD*%
D19*
%TO.C,C39*%
X84537600Y-168603500D03*
X84537600Y-170678500D03*
%TD*%
D28*
%TO.C,C42*%
X69762600Y-166825500D03*
X71837600Y-166825500D03*
%TD*%
D36*
%TO.C,C3*%
X35261600Y-166121713D03*
D37*
X35261600Y-163621713D03*
%TD*%
D18*
%TO.C,R21*%
X92040000Y-189837000D03*
X90040000Y-189837000D03*
%TD*%
D38*
%TO.C,D10*%
X71371400Y-189529200D03*
X73421400Y-189529200D03*
%TD*%
D25*
%TO.C,D4*%
X86645800Y-142014800D03*
X86645800Y-139964800D03*
%TD*%
D16*
%TO.C,R16*%
X102216000Y-148783200D03*
X102216000Y-150783200D03*
%TD*%
%TO.C,R10*%
X87585600Y-152713600D03*
X87585600Y-154713600D03*
%TD*%
D36*
%TO.C,U4*%
X91624200Y-135933600D03*
X91624200Y-138473600D03*
X91624200Y-141013600D03*
X91624200Y-143553600D03*
X91624200Y-146093600D03*
X91624200Y-148633600D03*
X91624200Y-151173600D03*
X99244200Y-151173600D03*
X99244200Y-148633600D03*
X99244200Y-146093600D03*
X99244200Y-143553600D03*
X99244200Y-141013600D03*
X99244200Y-138473600D03*
X99244200Y-135933600D03*
%TD*%
D19*
%TO.C,C19*%
X64112100Y-148791500D03*
X64112100Y-150866500D03*
%TD*%
D16*
%TO.C,R31*%
X80346600Y-181341000D03*
X80346600Y-183341000D03*
%TD*%
D28*
%TO.C,C21*%
X66126500Y-161640000D03*
X68201500Y-161640000D03*
%TD*%
D26*
%TO.C,J1*%
X21122400Y-176716200D03*
D27*
X21122400Y-181796200D03*
%TD*%
D39*
%TO.C,U1*%
X43627400Y-182591400D03*
X43627400Y-180891400D03*
X43627400Y-179191400D03*
D40*
X34477400Y-179191400D03*
D39*
X43627400Y-177491400D03*
X43627400Y-175791400D03*
%TD*%
D19*
%TO.C,C44*%
X66122600Y-168578100D03*
X66122600Y-170653100D03*
%TD*%
D16*
%TO.C,R33*%
X73615600Y-182230000D03*
X73615600Y-184230000D03*
%TD*%
D10*
%TO.C,D2*%
X32832200Y-147289000D03*
X30782200Y-147289000D03*
%TD*%
D19*
%TO.C,C4*%
X49130000Y-173683500D03*
X49130000Y-175758500D03*
%TD*%
D14*
%TO.C,C13*%
X54028300Y-163341800D03*
X51953300Y-163341800D03*
%TD*%
%TO.C,C5*%
X47881500Y-169488600D03*
X45806500Y-169488600D03*
%TD*%
%TO.C,C12*%
X54028300Y-155213800D03*
X51953300Y-155213800D03*
%TD*%
D41*
%TO.C,R24*%
X90040000Y-170898900D03*
X92040000Y-170898900D03*
%TD*%
D19*
%TO.C,C7*%
X40951200Y-163523500D03*
X40951200Y-165598500D03*
%TD*%
D41*
%TO.C,R22*%
X90040000Y-186901000D03*
X92040000Y-186901000D03*
%TD*%
D23*
%TO.C,H1*%
X21608800Y-136519400D03*
X20905856Y-134822344D03*
X20905856Y-138216456D03*
X19208800Y-138919400D03*
D24*
X19208800Y-136519400D03*
D23*
X19208800Y-134119400D03*
X16808800Y-136519400D03*
X17511744Y-138216456D03*
X17511744Y-134822344D03*
%TD*%
D36*
%TO.C,C1*%
X27184400Y-188370873D03*
D37*
X27184400Y-190870873D03*
%TD*%
D12*
%TO.C,J3*%
X37547600Y-138805400D03*
D13*
X37547600Y-136265400D03*
X40087600Y-138805400D03*
X40087600Y-136265400D03*
X42627600Y-138805400D03*
X42627600Y-136265400D03*
%TD*%
D22*
%TO.C,R11*%
X87585600Y-137163800D03*
X87585600Y-135163800D03*
%TD*%
D17*
%TO.C,Y2*%
X58324800Y-156827800D03*
X58324800Y-161707800D03*
%TD*%
D28*
%TO.C,C41*%
X74334600Y-165831000D03*
X76409600Y-165831000D03*
%TD*%
D16*
%TO.C,R18*%
X89211200Y-182141800D03*
X89211200Y-184141800D03*
%TD*%
D42*
%TO.C,D1*%
X49028400Y-189630800D03*
D43*
X33788400Y-189630800D03*
%TD*%
D14*
%TO.C,C16*%
X77345500Y-161640000D03*
X75270500Y-161640000D03*
%TD*%
D36*
%TO.C,U5*%
X91624200Y-155999600D03*
X91624200Y-158539600D03*
X91624200Y-161079600D03*
X91624200Y-163619600D03*
X99244200Y-163619600D03*
X99244200Y-161079600D03*
X99244200Y-158539600D03*
X99244200Y-155999600D03*
%TD*%
D20*
%TO.C,C30*%
X96932800Y-174467000D03*
X96932800Y-172392000D03*
%TD*%
D16*
%TO.C,R3*%
X52863800Y-158277800D03*
X52863800Y-160277800D03*
%TD*%
D19*
%TO.C,C37*%
X84537600Y-178712700D03*
X84537600Y-180787700D03*
%TD*%
D18*
%TO.C,R35*%
X73396400Y-193059800D03*
X71396400Y-193059800D03*
%TD*%
D41*
%TO.C,R1*%
X35633200Y-147289000D03*
X37633200Y-147289000D03*
%TD*%
D23*
%TO.C,H4*%
X116948000Y-193681800D03*
X119348000Y-191281800D03*
X118645056Y-189584744D03*
X116948000Y-188881800D03*
X115250944Y-192978856D03*
X115250944Y-189584744D03*
X118645056Y-192978856D03*
D24*
X116948000Y-191281800D03*
D23*
X114548000Y-191281800D03*
%TD*%
D28*
%TO.C,C18*%
X66503600Y-146400000D03*
X68578600Y-146400000D03*
%TD*%
D44*
%TO.C,L1*%
X23840400Y-170368200D03*
X23840400Y-160468200D03*
%TD*%
D45*
%TO.C,J4*%
X63328600Y-138506000D03*
D46*
X60788600Y-138506000D03*
X58248600Y-138506000D03*
X55708600Y-138506000D03*
%TD*%
D20*
%TO.C,C23*%
X102216000Y-157216500D03*
X102216000Y-155141500D03*
%TD*%
D19*
%TO.C,C10*%
X50044400Y-144168700D03*
X50044400Y-146243700D03*
%TD*%
D47*
%TO.C,U2*%
X47559000Y-165485600D03*
X47559000Y-164535600D03*
X47559000Y-163585600D03*
X44859000Y-163585600D03*
X44859000Y-165485600D03*
%TD*%
D20*
%TO.C,C2*%
X49113800Y-184902500D03*
X49113800Y-182827500D03*
%TD*%
D18*
%TO.C,R25*%
X92024000Y-174454900D03*
X90024000Y-174454900D03*
%TD*%
D20*
%TO.C,C31*%
X95967600Y-184365200D03*
X95967600Y-182290200D03*
%TD*%
D48*
%TO.C,U6*%
X79556100Y-176963000D03*
X79556100Y-176463000D03*
X79556100Y-175963000D03*
X79556100Y-175463000D03*
X79556100Y-174963000D03*
X79556100Y-174463000D03*
X79556100Y-173963000D03*
X79556100Y-173463000D03*
X79556100Y-172963000D03*
X79556100Y-172463000D03*
X79556100Y-171963000D03*
X79556100Y-171463000D03*
D49*
X78143600Y-170050500D03*
X77643600Y-170050500D03*
X77143600Y-170050500D03*
X76643600Y-170050500D03*
X76143600Y-170050500D03*
X75643600Y-170050500D03*
X75143600Y-170050500D03*
X74643600Y-170050500D03*
X74143600Y-170050500D03*
X73643600Y-170050500D03*
X73143600Y-170050500D03*
X72643600Y-170050500D03*
D48*
X71231100Y-171463000D03*
X71231100Y-171963000D03*
X71231100Y-172463000D03*
X71231100Y-172963000D03*
X71231100Y-173463000D03*
X71231100Y-173963000D03*
X71231100Y-174463000D03*
X71231100Y-174963000D03*
X71231100Y-175463000D03*
X71231100Y-175963000D03*
X71231100Y-176463000D03*
X71231100Y-176963000D03*
D49*
X72643600Y-178375500D03*
X73143600Y-178375500D03*
X73643600Y-178375500D03*
X74143600Y-178375500D03*
X74643600Y-178375500D03*
X75143600Y-178375500D03*
X75643600Y-178375500D03*
X76143600Y-178375500D03*
X76643600Y-178375500D03*
X77143600Y-178375500D03*
X77643600Y-178375500D03*
X78143600Y-178375500D03*
%TD*%
D22*
%TO.C,R4*%
X25965200Y-153911800D03*
X25965200Y-151911800D03*
%TD*%
D41*
%TO.C,R34*%
X54937200Y-193009000D03*
X56937200Y-193009000D03*
%TD*%
D50*
%TO.C,D7*%
X104529700Y-148828200D03*
X104529700Y-150728200D03*
X106404700Y-149778200D03*
%TD*%
D14*
%TO.C,C9*%
X41785500Y-169488600D03*
X39710500Y-169488600D03*
%TD*%
D51*
%TO.C,U3*%
X67528100Y-151246000D03*
X67528100Y-151746000D03*
X67528100Y-152246000D03*
X67528100Y-152746000D03*
X67528100Y-153246000D03*
X67528100Y-153746000D03*
X67528100Y-154246000D03*
X67528100Y-154746000D03*
X67528100Y-155246000D03*
X67528100Y-155746000D03*
X67528100Y-156246000D03*
X67528100Y-156746000D03*
D52*
X68940600Y-158158500D03*
X69440600Y-158158500D03*
X69940600Y-158158500D03*
X70440600Y-158158500D03*
X70940600Y-158158500D03*
X71440600Y-158158500D03*
X71940600Y-158158500D03*
X72440600Y-158158500D03*
X72940600Y-158158500D03*
X73440600Y-158158500D03*
X73940600Y-158158500D03*
X74440600Y-158158500D03*
D51*
X75853100Y-156746000D03*
X75853100Y-156246000D03*
X75853100Y-155746000D03*
X75853100Y-155246000D03*
X75853100Y-154746000D03*
X75853100Y-154246000D03*
X75853100Y-153746000D03*
X75853100Y-153246000D03*
X75853100Y-152746000D03*
X75853100Y-152246000D03*
X75853100Y-151746000D03*
X75853100Y-151246000D03*
D52*
X74440600Y-149833500D03*
X73940600Y-149833500D03*
X73440600Y-149833500D03*
X72940600Y-149833500D03*
X72440600Y-149833500D03*
X71940600Y-149833500D03*
X71440600Y-149833500D03*
X70940600Y-149833500D03*
X70440600Y-149833500D03*
X69940600Y-149833500D03*
X69440600Y-149833500D03*
X68940600Y-149833500D03*
%TD*%
D16*
%TO.C,R9*%
X87585600Y-144815800D03*
X87585600Y-146815800D03*
%TD*%
M02*
