%TF.GenerationSoftware,KiCad,Pcbnew,(6.0.11)*%
%TF.CreationDate,2024-04-30T16:24:52+07:00*%
%TF.ProjectId,Oxygen Monitoring,4f787967-656e-4204-9d6f-6e69746f7269,rev?*%
%TF.SameCoordinates,Original*%
%TF.FileFunction,Drillmap*%
%TF.FilePolarity,Positive*%
%FSLAX45Y45*%
G04 Gerber Fmt 4.5, Leading zero omitted, Abs format (unit mm)*
G04 Created by KiCad (PCBNEW (6.0.11)) date 2024-04-30 16:24:52*
%MOMM*%
%LPD*%
G01*
G04 APERTURE LIST*
%ADD10C,0.100000*%
%ADD11C,0.200000*%
%ADD12C,0.325000*%
G04 APERTURE END LIST*
D10*
X11694800Y-19503700D02*
X1915800Y-19503700D01*
X12069560Y-19128180D02*
X12069560Y-13651940D01*
X11694800Y-13273700D02*
X1915800Y-13273700D01*
X1539560Y-19128180D02*
X1539560Y-13651940D01*
X11694800Y-19503699D02*
G75*
G03*
X12069560Y-19128180I-15750J390479D01*
G01*
X1915800Y-13273700D02*
G75*
G03*
X1539560Y-13651940I18783J-394929D01*
G01*
X1539559Y-19128180D02*
G75*
G03*
X1915800Y-19503700I392053J16564D01*
G01*
X12069566Y-13651940D02*
G75*
G03*
X11694800Y-13273700I-393466J-15070D01*
G01*
D11*
D12*
X11054940Y-16880340D02*
X11379940Y-17205340D01*
X11379940Y-16880340D02*
X11054940Y-17205340D01*
X11054940Y-18023340D02*
X11379940Y-18348340D01*
X11379940Y-18023340D02*
X11054940Y-18348340D01*
D11*
X1792179Y-19819176D02*
X1792179Y-19619176D01*
X1839798Y-19619176D01*
X1868369Y-19628700D01*
X1887417Y-19647748D01*
X1896941Y-19666795D01*
X1906465Y-19704890D01*
X1906465Y-19733462D01*
X1896941Y-19771557D01*
X1887417Y-19790605D01*
X1868369Y-19809652D01*
X1839798Y-19819176D01*
X1792179Y-19819176D01*
X1992179Y-19819176D02*
X1992179Y-19685843D01*
X1992179Y-19723938D02*
X2001703Y-19704890D01*
X2011227Y-19695367D01*
X2030274Y-19685843D01*
X2049322Y-19685843D01*
X2115989Y-19819176D02*
X2115989Y-19685843D01*
X2115989Y-19619176D02*
X2106465Y-19628700D01*
X2115989Y-19638224D01*
X2125512Y-19628700D01*
X2115989Y-19619176D01*
X2115989Y-19638224D01*
X2239798Y-19819176D02*
X2220750Y-19809652D01*
X2211227Y-19790605D01*
X2211227Y-19619176D01*
X2344560Y-19819176D02*
X2325512Y-19809652D01*
X2315989Y-19790605D01*
X2315989Y-19619176D01*
X2573131Y-19819176D02*
X2573131Y-19619176D01*
X2639798Y-19762033D01*
X2706465Y-19619176D01*
X2706465Y-19819176D01*
X2887417Y-19819176D02*
X2887417Y-19714414D01*
X2877893Y-19695367D01*
X2858846Y-19685843D01*
X2820750Y-19685843D01*
X2801703Y-19695367D01*
X2887417Y-19809652D02*
X2868369Y-19819176D01*
X2820750Y-19819176D01*
X2801703Y-19809652D01*
X2792179Y-19790605D01*
X2792179Y-19771557D01*
X2801703Y-19752510D01*
X2820750Y-19742986D01*
X2868369Y-19742986D01*
X2887417Y-19733462D01*
X2982655Y-19685843D02*
X2982655Y-19885843D01*
X2982655Y-19695367D02*
X3001703Y-19685843D01*
X3039798Y-19685843D01*
X3058846Y-19695367D01*
X3068369Y-19704890D01*
X3077893Y-19723938D01*
X3077893Y-19781081D01*
X3068369Y-19800129D01*
X3058846Y-19809652D01*
X3039798Y-19819176D01*
X3001703Y-19819176D01*
X2982655Y-19809652D01*
X3163608Y-19800129D02*
X3173131Y-19809652D01*
X3163608Y-19819176D01*
X3154084Y-19809652D01*
X3163608Y-19800129D01*
X3163608Y-19819176D01*
X3163608Y-19695367D02*
X3173131Y-19704890D01*
X3163608Y-19714414D01*
X3154084Y-19704890D01*
X3163608Y-19695367D01*
X3163608Y-19714414D01*
X1334560Y-20048700D02*
X1534560Y-20248700D01*
X1534560Y-20048700D02*
X1334560Y-20248700D01*
X1773131Y-20039176D02*
X1896941Y-20039176D01*
X1830274Y-20115367D01*
X1858846Y-20115367D01*
X1877893Y-20124890D01*
X1887417Y-20134414D01*
X1896941Y-20153462D01*
X1896941Y-20201081D01*
X1887417Y-20220129D01*
X1877893Y-20229652D01*
X1858846Y-20239176D01*
X1801703Y-20239176D01*
X1782655Y-20229652D01*
X1773131Y-20220129D01*
X1982655Y-20220129D02*
X1992179Y-20229652D01*
X1982655Y-20239176D01*
X1973131Y-20229652D01*
X1982655Y-20220129D01*
X1982655Y-20239176D01*
X2068369Y-20058224D02*
X2077893Y-20048700D01*
X2096941Y-20039176D01*
X2144560Y-20039176D01*
X2163608Y-20048700D01*
X2173131Y-20058224D01*
X2182655Y-20077271D01*
X2182655Y-20096319D01*
X2173131Y-20124890D01*
X2058846Y-20239176D01*
X2182655Y-20239176D01*
X2363608Y-20039176D02*
X2268370Y-20039176D01*
X2258846Y-20134414D01*
X2268370Y-20124890D01*
X2287417Y-20115367D01*
X2335036Y-20115367D01*
X2354084Y-20124890D01*
X2363608Y-20134414D01*
X2373131Y-20153462D01*
X2373131Y-20201081D01*
X2363608Y-20220129D01*
X2354084Y-20229652D01*
X2335036Y-20239176D01*
X2287417Y-20239176D01*
X2268370Y-20229652D01*
X2258846Y-20220129D01*
X2496941Y-20039176D02*
X2515989Y-20039176D01*
X2535036Y-20048700D01*
X2544560Y-20058224D01*
X2554084Y-20077271D01*
X2563608Y-20115367D01*
X2563608Y-20162986D01*
X2554084Y-20201081D01*
X2544560Y-20220129D01*
X2535036Y-20229652D01*
X2515989Y-20239176D01*
X2496941Y-20239176D01*
X2477893Y-20229652D01*
X2468370Y-20220129D01*
X2458846Y-20201081D01*
X2449322Y-20162986D01*
X2449322Y-20115367D01*
X2458846Y-20077271D01*
X2468370Y-20058224D01*
X2477893Y-20048700D01*
X2496941Y-20039176D01*
X2649322Y-20239176D02*
X2649322Y-20105843D01*
X2649322Y-20124890D02*
X2658846Y-20115367D01*
X2677893Y-20105843D01*
X2706465Y-20105843D01*
X2725512Y-20115367D01*
X2735036Y-20134414D01*
X2735036Y-20239176D01*
X2735036Y-20134414D02*
X2744560Y-20115367D01*
X2763608Y-20105843D01*
X2792179Y-20105843D01*
X2811227Y-20115367D01*
X2820750Y-20134414D01*
X2820750Y-20239176D01*
X2915988Y-20239176D02*
X2915988Y-20105843D01*
X2915988Y-20124890D02*
X2925512Y-20115367D01*
X2944560Y-20105843D01*
X2973131Y-20105843D01*
X2992179Y-20115367D01*
X3001703Y-20134414D01*
X3001703Y-20239176D01*
X3001703Y-20134414D02*
X3011227Y-20115367D01*
X3030274Y-20105843D01*
X3058846Y-20105843D01*
X3077893Y-20115367D01*
X3087417Y-20134414D01*
X3087417Y-20239176D01*
X3477893Y-20029652D02*
X3306465Y-20286795D01*
X3735036Y-20039176D02*
X3754084Y-20039176D01*
X3773131Y-20048700D01*
X3782655Y-20058224D01*
X3792179Y-20077271D01*
X3801703Y-20115367D01*
X3801703Y-20162986D01*
X3792179Y-20201081D01*
X3782655Y-20220129D01*
X3773131Y-20229652D01*
X3754084Y-20239176D01*
X3735036Y-20239176D01*
X3715988Y-20229652D01*
X3706465Y-20220129D01*
X3696941Y-20201081D01*
X3687417Y-20162986D01*
X3687417Y-20115367D01*
X3696941Y-20077271D01*
X3706465Y-20058224D01*
X3715988Y-20048700D01*
X3735036Y-20039176D01*
X3887417Y-20220129D02*
X3896941Y-20229652D01*
X3887417Y-20239176D01*
X3877893Y-20229652D01*
X3887417Y-20220129D01*
X3887417Y-20239176D01*
X4087417Y-20239176D02*
X3973131Y-20239176D01*
X4030274Y-20239176D02*
X4030274Y-20039176D01*
X4011227Y-20067748D01*
X3992179Y-20086795D01*
X3973131Y-20096319D01*
X4163608Y-20058224D02*
X4173131Y-20048700D01*
X4192179Y-20039176D01*
X4239798Y-20039176D01*
X4258846Y-20048700D01*
X4268370Y-20058224D01*
X4277893Y-20077271D01*
X4277893Y-20096319D01*
X4268370Y-20124890D01*
X4154084Y-20239176D01*
X4277893Y-20239176D01*
X4392179Y-20124890D02*
X4373131Y-20115367D01*
X4363608Y-20105843D01*
X4354084Y-20086795D01*
X4354084Y-20077271D01*
X4363608Y-20058224D01*
X4373131Y-20048700D01*
X4392179Y-20039176D01*
X4430274Y-20039176D01*
X4449322Y-20048700D01*
X4458846Y-20058224D01*
X4468370Y-20077271D01*
X4468370Y-20086795D01*
X4458846Y-20105843D01*
X4449322Y-20115367D01*
X4430274Y-20124890D01*
X4392179Y-20124890D01*
X4373131Y-20134414D01*
X4363608Y-20143938D01*
X4354084Y-20162986D01*
X4354084Y-20201081D01*
X4363608Y-20220129D01*
X4373131Y-20229652D01*
X4392179Y-20239176D01*
X4430274Y-20239176D01*
X4449322Y-20229652D01*
X4458846Y-20220129D01*
X4468370Y-20201081D01*
X4468370Y-20162986D01*
X4458846Y-20143938D01*
X4449322Y-20134414D01*
X4430274Y-20124890D01*
X4592179Y-20039176D02*
X4611227Y-20039176D01*
X4630274Y-20048700D01*
X4639798Y-20058224D01*
X4649322Y-20077271D01*
X4658846Y-20115367D01*
X4658846Y-20162986D01*
X4649322Y-20201081D01*
X4639798Y-20220129D01*
X4630274Y-20229652D01*
X4611227Y-20239176D01*
X4592179Y-20239176D01*
X4573131Y-20229652D01*
X4563608Y-20220129D01*
X4554084Y-20201081D01*
X4544560Y-20162986D01*
X4544560Y-20115367D01*
X4554084Y-20077271D01*
X4563608Y-20058224D01*
X4573131Y-20048700D01*
X4592179Y-20039176D01*
X4735036Y-20039176D02*
X4735036Y-20077271D01*
X4811227Y-20039176D02*
X4811227Y-20077271D01*
X5106465Y-20315367D02*
X5096941Y-20305843D01*
X5077893Y-20277271D01*
X5068370Y-20258224D01*
X5058846Y-20229652D01*
X5049322Y-20182033D01*
X5049322Y-20143938D01*
X5058846Y-20096319D01*
X5068370Y-20067748D01*
X5077893Y-20048700D01*
X5096941Y-20020129D01*
X5106465Y-20010605D01*
X5173131Y-20058224D02*
X5182655Y-20048700D01*
X5201703Y-20039176D01*
X5249322Y-20039176D01*
X5268370Y-20048700D01*
X5277893Y-20058224D01*
X5287417Y-20077271D01*
X5287417Y-20096319D01*
X5277893Y-20124890D01*
X5163608Y-20239176D01*
X5287417Y-20239176D01*
X5525512Y-20239176D02*
X5525512Y-20039176D01*
X5611227Y-20239176D02*
X5611227Y-20134414D01*
X5601703Y-20115367D01*
X5582655Y-20105843D01*
X5554084Y-20105843D01*
X5535036Y-20115367D01*
X5525512Y-20124890D01*
X5735036Y-20239176D02*
X5715988Y-20229652D01*
X5706465Y-20220129D01*
X5696941Y-20201081D01*
X5696941Y-20143938D01*
X5706465Y-20124890D01*
X5715988Y-20115367D01*
X5735036Y-20105843D01*
X5763608Y-20105843D01*
X5782655Y-20115367D01*
X5792179Y-20124890D01*
X5801703Y-20143938D01*
X5801703Y-20201081D01*
X5792179Y-20220129D01*
X5782655Y-20229652D01*
X5763608Y-20239176D01*
X5735036Y-20239176D01*
X5915988Y-20239176D02*
X5896941Y-20229652D01*
X5887417Y-20210605D01*
X5887417Y-20039176D01*
X6068369Y-20229652D02*
X6049322Y-20239176D01*
X6011227Y-20239176D01*
X5992179Y-20229652D01*
X5982655Y-20210605D01*
X5982655Y-20134414D01*
X5992179Y-20115367D01*
X6011227Y-20105843D01*
X6049322Y-20105843D01*
X6068369Y-20115367D01*
X6077893Y-20134414D01*
X6077893Y-20153462D01*
X5982655Y-20172510D01*
X6154084Y-20229652D02*
X6173131Y-20239176D01*
X6211227Y-20239176D01*
X6230274Y-20229652D01*
X6239798Y-20210605D01*
X6239798Y-20201081D01*
X6230274Y-20182033D01*
X6211227Y-20172510D01*
X6182655Y-20172510D01*
X6163608Y-20162986D01*
X6154084Y-20143938D01*
X6154084Y-20134414D01*
X6163608Y-20115367D01*
X6182655Y-20105843D01*
X6211227Y-20105843D01*
X6230274Y-20115367D01*
X6306465Y-20315367D02*
X6315988Y-20305843D01*
X6335036Y-20277271D01*
X6344560Y-20258224D01*
X6354084Y-20229652D01*
X6363608Y-20182033D01*
X6363608Y-20143938D01*
X6354084Y-20096319D01*
X6344560Y-20067748D01*
X6335036Y-20048700D01*
X6315988Y-20020129D01*
X6306465Y-20010605D01*
X6668369Y-20315367D02*
X6658846Y-20305843D01*
X6639798Y-20277271D01*
X6630274Y-20258224D01*
X6620750Y-20229652D01*
X6611227Y-20182033D01*
X6611227Y-20143938D01*
X6620750Y-20096319D01*
X6630274Y-20067748D01*
X6639798Y-20048700D01*
X6658846Y-20020129D01*
X6668369Y-20010605D01*
X6744560Y-20105843D02*
X6744560Y-20239176D01*
X6744560Y-20124890D02*
X6754084Y-20115367D01*
X6773131Y-20105843D01*
X6801703Y-20105843D01*
X6820750Y-20115367D01*
X6830274Y-20134414D01*
X6830274Y-20239176D01*
X6954084Y-20239176D02*
X6935036Y-20229652D01*
X6925512Y-20220129D01*
X6915988Y-20201081D01*
X6915988Y-20143938D01*
X6925512Y-20124890D01*
X6935036Y-20115367D01*
X6954084Y-20105843D01*
X6982655Y-20105843D01*
X7001703Y-20115367D01*
X7011227Y-20124890D01*
X7020750Y-20143938D01*
X7020750Y-20201081D01*
X7011227Y-20220129D01*
X7001703Y-20229652D01*
X6982655Y-20239176D01*
X6954084Y-20239176D01*
X7077893Y-20105843D02*
X7154084Y-20105843D01*
X7106465Y-20039176D02*
X7106465Y-20210605D01*
X7115988Y-20229652D01*
X7135036Y-20239176D01*
X7154084Y-20239176D01*
X7373131Y-20105843D02*
X7373131Y-20305843D01*
X7373131Y-20115367D02*
X7392179Y-20105843D01*
X7430274Y-20105843D01*
X7449322Y-20115367D01*
X7458846Y-20124890D01*
X7468369Y-20143938D01*
X7468369Y-20201081D01*
X7458846Y-20220129D01*
X7449322Y-20229652D01*
X7430274Y-20239176D01*
X7392179Y-20239176D01*
X7373131Y-20229652D01*
X7582655Y-20239176D02*
X7563608Y-20229652D01*
X7554084Y-20210605D01*
X7554084Y-20039176D01*
X7744560Y-20239176D02*
X7744560Y-20134414D01*
X7735036Y-20115367D01*
X7715988Y-20105843D01*
X7677893Y-20105843D01*
X7658846Y-20115367D01*
X7744560Y-20229652D02*
X7725512Y-20239176D01*
X7677893Y-20239176D01*
X7658846Y-20229652D01*
X7649322Y-20210605D01*
X7649322Y-20191557D01*
X7658846Y-20172510D01*
X7677893Y-20162986D01*
X7725512Y-20162986D01*
X7744560Y-20153462D01*
X7811227Y-20105843D02*
X7887417Y-20105843D01*
X7839798Y-20039176D02*
X7839798Y-20210605D01*
X7849322Y-20229652D01*
X7868369Y-20239176D01*
X7887417Y-20239176D01*
X8030274Y-20229652D02*
X8011227Y-20239176D01*
X7973131Y-20239176D01*
X7954084Y-20229652D01*
X7944560Y-20210605D01*
X7944560Y-20134414D01*
X7954084Y-20115367D01*
X7973131Y-20105843D01*
X8011227Y-20105843D01*
X8030274Y-20115367D01*
X8039798Y-20134414D01*
X8039798Y-20153462D01*
X7944560Y-20172510D01*
X8211227Y-20239176D02*
X8211227Y-20039176D01*
X8211227Y-20229652D02*
X8192179Y-20239176D01*
X8154084Y-20239176D01*
X8135036Y-20229652D01*
X8125512Y-20220129D01*
X8115988Y-20201081D01*
X8115988Y-20143938D01*
X8125512Y-20124890D01*
X8135036Y-20115367D01*
X8154084Y-20105843D01*
X8192179Y-20105843D01*
X8211227Y-20115367D01*
X8287417Y-20315367D02*
X8296941Y-20305843D01*
X8315988Y-20277271D01*
X8325512Y-20258224D01*
X8335036Y-20229652D01*
X8344560Y-20182033D01*
X8344560Y-20143938D01*
X8335036Y-20096319D01*
X8325512Y-20067748D01*
X8315988Y-20048700D01*
X8296941Y-20020129D01*
X8287417Y-20010605D01*
M02*
