M48
; DRILL file {KiCad 7.0.10} date Fri Mar 22 11:49:05 2024
; FORMAT={-:-/ absolute / metric / decimal}
; #@! TF.CreationDate,2024-03-22T11:49:05+07:00
; #@! TF.GenerationSoftware,Kicad,Pcbnew,7.0.10
; #@! TF.FileFunction,Plated,1,2,PTH
FMAT,2
METRIC
; #@! TA.AperFunction,Plated,PTH,ViaDrill
T1C0.300
; #@! TA.AperFunction,Plated,PTH,ViaDrill
T2C0.350
; #@! TA.AperFunction,Plated,PTH,ViaDrill
T3C0.400
; #@! TA.AperFunction,Plated,PTH,ViaDrill
T4C0.500
; #@! TA.AperFunction,Plated,PTH,ComponentDrill
T5C0.500
; #@! TA.AperFunction,Plated,PTH,ComponentDrill
T6C0.600
; #@! TA.AperFunction,Plated,PTH,ComponentDrill
T7C0.800
; #@! TA.AperFunction,Plated,PTH,ComponentDrill
T8C0.900
; #@! TA.AperFunction,Plated,PTH,ComponentDrill
T9C1.000
; #@! TA.AperFunction,Plated,PTH,ComponentDrill
T10C1.020
; #@! TA.AperFunction,Plated,PTH,ComponentDrill
T11C1.300
; #@! TA.AperFunction,Plated,PTH,ComponentDrill
T12C1.600
; #@! TA.AperFunction,Plated,PTH,ComponentDrill
T13C3.000
%
G90
G05
T1
X59.45Y-42.0
X80.112Y-51.968
X80.264Y-56.642
X80.65Y-36.05
X81.0Y-33.95
X83.3Y-80.85
X84.15Y-31.3
X87.25Y-75.9
X92.65Y-82.804
X94.8Y-71.75
X95.3Y-72.75
X95.4Y-60.75
X96.317Y-59.08
X96.7Y-71.5
X97.35Y-60.45
X98.25Y-62.1
X103.25Y-69.825
X103.362Y-65.925
X104.45Y-84.95
X107.25Y-76.375
X108.7Y-69.15
X110.275Y-72.175
X110.6Y-43.25
X110.6Y-44.997
X110.65Y-69.15
X110.8Y-37.8
X111.862Y-71.323
X113.45Y-49.95
X114.529Y-71.343
X115.265Y-39.762
X117.551Y-45.466
X117.805Y-35.255
X118.85Y-84.95
X122.843Y-79.604
X123.85Y-71.628
X123.901Y-66.294
T2
X83.1Y-38.15
X83.1Y-41.75
X83.4Y-46.85
X110.75Y-49.85
X111.55Y-55.05
T3
X56.473Y-75.2
X60.401Y-80.315
X60.452Y-69.545
X60.757Y-38.354
X62.535Y-78.232
X64.516Y-71.628
X65.126Y-77.419
X68.072Y-39.573
X69.9Y-26.5
X74.95Y-38.25
X75.3Y-42.95
X75.357Y-45.496
X76.7Y-34.85
X76.75Y-53.75
X76.8Y-55.0
X78.25Y-69.1
X78.294Y-77.106
X79.4Y-36.15
X84.25Y-64.95
X84.85Y-77.65
X85.852Y-71.05
X87.5Y-29.25
X87.65Y-69.175
X89.25Y-61.8
X90.7Y-79.45
X91.0Y-45.65
X91.084Y-55.22
X91.75Y-58.776
X91.923Y-73.609
X94.132Y-58.852
X94.996Y-47.701
X94.996Y-49.632
X95.15Y-42.1
X95.15Y-43.75
X96.375Y-50.706
X97.765Y-70.7
X98.7Y-69.95
X99.38Y-58.892
X99.383Y-79.417
X99.55Y-57.15
X99.619Y-48.75
X99.65Y-50.25
X101.3Y-61.8
X102.374Y-60.389
X103.083Y-70.933
X105.207Y-57.201
X105.5Y-62.6
X105.7Y-74.852
X105.7Y-77.85
X105.725Y-76.525
X106.531Y-47.444
X106.553Y-51.562
X106.65Y-64.875
X106.9Y-58.55
X108.204Y-80.772
X108.35Y-67.75
X108.35Y-70.5
X111.288Y-63.82
X111.354Y-75.184
X113.4Y-29.3
X117.17Y-72.746
X117.653Y-58.166
X121.45Y-42.6
X121.6Y-28.9
X121.666Y-36.627
X123.875Y-78.025
X124.5Y-69.95
X128.75Y-45.75
X129.9Y-35.025
X131.5Y-40.5
X134.0Y-58.45
T4
X62.23Y-34.595
X67.716Y-35.814
T5
X44.85Y-28.6
X44.85Y-83.4
X45.509Y-27.009
X45.509Y-30.191
X45.509Y-81.809
X45.509Y-84.991
X47.1Y-26.35
X47.1Y-30.85
X47.1Y-81.15
X47.1Y-85.65
X48.691Y-27.009
X48.691Y-30.191
X48.691Y-81.809
X48.691Y-84.991
X49.35Y-28.6
X49.35Y-83.4
X140.15Y-28.6
X140.15Y-83.363
X140.809Y-27.009
X140.809Y-30.191
X140.809Y-81.772
X140.809Y-84.954
X142.4Y-26.35
X142.4Y-30.85
X142.4Y-81.113
X142.4Y-85.613
X143.991Y-27.009
X143.991Y-30.191
X143.991Y-81.772
X143.991Y-84.954
X144.65Y-28.6
X144.65Y-83.363
T6
X71.1Y-68.2
X71.1Y-70.2
X71.55Y-80.9
X71.55Y-82.9
T7
X56.388Y-29.093
X56.388Y-34.093
X70.714Y-74.295
X70.714Y-76.295
X81.28Y-70.612
X81.28Y-75.492
X84.23Y-51.906
X84.23Y-56.786
T8
X128.17Y-64.77
X128.17Y-67.31
X128.17Y-69.85
X128.17Y-72.39
X130.71Y-66.04
X130.71Y-68.58
X130.71Y-71.12
X130.71Y-73.66
T9
X51.308Y-67.502
X51.308Y-75.002
X76.345Y-27.875
X76.345Y-30.415
X78.885Y-27.875
X78.885Y-30.415
X81.425Y-27.875
X81.425Y-30.415
X98.83Y-29.25
X101.37Y-29.25
X103.91Y-29.25
X106.45Y-29.25
X127.715Y-53.34
X127.762Y-29.972
X132.795Y-53.35
X132.842Y-29.982
T10
X140.44Y-62.89
X140.44Y-73.0
X142.14Y-65.43
X142.14Y-75.54
T11
X51.3Y-41.519
X51.3Y-46.519
X138.3Y-36.707
X138.3Y-41.707
X138.3Y-46.707
T12
X62.052Y-61.341
X74.752Y-61.341
X134.01Y-61.34
X134.01Y-77.09
T13
X47.1Y-28.6
X47.1Y-83.4
X142.4Y-28.6
X142.4Y-83.363
M30
