%TF.GenerationSoftware,KiCad,Pcbnew,7.0.10*%
%TF.CreationDate,2024-03-22T11:49:35+07:00*%
%TF.ProjectId,Oxygen Monitoring,4f787967-656e-4204-9d6f-6e69746f7269,rev?*%
%TF.SameCoordinates,Original*%
%TF.FileFunction,Drillmap*%
%TF.FilePolarity,Positive*%
%FSLAX45Y45*%
G04 Gerber Fmt 4.5, Leading zero omitted, Abs format (unit mm)*
G04 Created by KiCad (PCBNEW 7.0.10) date 2024-03-22 11:49:35*
%MOMM*%
%LPD*%
G01*
G04 APERTURE LIST*
%ADD10C,0.300000*%
%ADD11C,0.200000*%
%ADD12C,0.325000*%
G04 APERTURE END LIST*
D10*
X14600000Y-2860000D02*
G75*
G03*
X14240000Y-2500000I-360000J0D01*
G01*
X4710000Y-8700000D02*
X14240000Y-8700000D01*
X4350000Y-8340000D02*
G75*
G03*
X4710000Y-8700000I360000J0D01*
G01*
X14240000Y-8700000D02*
G75*
G03*
X14600000Y-8340000I0J360000D01*
G01*
X4710000Y-2500000D02*
G75*
G03*
X4350000Y-2860000I0J-360000D01*
G01*
X4350000Y-8340000D02*
X4350000Y-2860000D01*
X14600000Y-2860000D02*
X14600000Y-8340000D01*
X14240000Y-2500000D02*
X4710000Y-2500000D01*
D11*
D12*
X13543500Y-6187500D02*
X13868500Y-6512500D01*
X13868500Y-6187500D02*
X13543500Y-6512500D01*
X13543500Y-7330500D02*
X13868500Y-7655500D01*
X13868500Y-7330500D02*
X13543500Y-7655500D01*
D11*
X4595777Y-9026484D02*
X4595777Y-8826484D01*
X4595777Y-8826484D02*
X4643396Y-8826484D01*
X4643396Y-8826484D02*
X4671967Y-8836008D01*
X4671967Y-8836008D02*
X4691015Y-8855055D01*
X4691015Y-8855055D02*
X4700539Y-8874103D01*
X4700539Y-8874103D02*
X4710063Y-8912198D01*
X4710063Y-8912198D02*
X4710063Y-8940770D01*
X4710063Y-8940770D02*
X4700539Y-8978865D01*
X4700539Y-8978865D02*
X4691015Y-8997912D01*
X4691015Y-8997912D02*
X4671967Y-9016960D01*
X4671967Y-9016960D02*
X4643396Y-9026484D01*
X4643396Y-9026484D02*
X4595777Y-9026484D01*
X4795777Y-9026484D02*
X4795777Y-8893150D01*
X4795777Y-8931246D02*
X4805301Y-8912198D01*
X4805301Y-8912198D02*
X4814824Y-8902674D01*
X4814824Y-8902674D02*
X4833872Y-8893150D01*
X4833872Y-8893150D02*
X4852920Y-8893150D01*
X4919586Y-9026484D02*
X4919586Y-8893150D01*
X4919586Y-8826484D02*
X4910063Y-8836008D01*
X4910063Y-8836008D02*
X4919586Y-8845531D01*
X4919586Y-8845531D02*
X4929110Y-8836008D01*
X4929110Y-8836008D02*
X4919586Y-8826484D01*
X4919586Y-8826484D02*
X4919586Y-8845531D01*
X5043396Y-9026484D02*
X5024348Y-9016960D01*
X5024348Y-9016960D02*
X5014824Y-8997912D01*
X5014824Y-8997912D02*
X5014824Y-8826484D01*
X5148158Y-9026484D02*
X5129110Y-9016960D01*
X5129110Y-9016960D02*
X5119586Y-8997912D01*
X5119586Y-8997912D02*
X5119586Y-8826484D01*
X5376729Y-9026484D02*
X5376729Y-8826484D01*
X5376729Y-8826484D02*
X5443396Y-8969341D01*
X5443396Y-8969341D02*
X5510063Y-8826484D01*
X5510063Y-8826484D02*
X5510063Y-9026484D01*
X5691015Y-9026484D02*
X5691015Y-8921722D01*
X5691015Y-8921722D02*
X5681491Y-8902674D01*
X5681491Y-8902674D02*
X5662443Y-8893150D01*
X5662443Y-8893150D02*
X5624348Y-8893150D01*
X5624348Y-8893150D02*
X5605301Y-8902674D01*
X5691015Y-9016960D02*
X5671967Y-9026484D01*
X5671967Y-9026484D02*
X5624348Y-9026484D01*
X5624348Y-9026484D02*
X5605301Y-9016960D01*
X5605301Y-9016960D02*
X5595777Y-8997912D01*
X5595777Y-8997912D02*
X5595777Y-8978865D01*
X5595777Y-8978865D02*
X5605301Y-8959817D01*
X5605301Y-8959817D02*
X5624348Y-8950293D01*
X5624348Y-8950293D02*
X5671967Y-8950293D01*
X5671967Y-8950293D02*
X5691015Y-8940770D01*
X5786253Y-8893150D02*
X5786253Y-9093150D01*
X5786253Y-8902674D02*
X5805301Y-8893150D01*
X5805301Y-8893150D02*
X5843396Y-8893150D01*
X5843396Y-8893150D02*
X5862443Y-8902674D01*
X5862443Y-8902674D02*
X5871967Y-8912198D01*
X5871967Y-8912198D02*
X5881491Y-8931246D01*
X5881491Y-8931246D02*
X5881491Y-8988389D01*
X5881491Y-8988389D02*
X5871967Y-9007436D01*
X5871967Y-9007436D02*
X5862443Y-9016960D01*
X5862443Y-9016960D02*
X5843396Y-9026484D01*
X5843396Y-9026484D02*
X5805301Y-9026484D01*
X5805301Y-9026484D02*
X5786253Y-9016960D01*
X5967205Y-9007436D02*
X5976729Y-9016960D01*
X5976729Y-9016960D02*
X5967205Y-9026484D01*
X5967205Y-9026484D02*
X5957682Y-9016960D01*
X5957682Y-9016960D02*
X5967205Y-9007436D01*
X5967205Y-9007436D02*
X5967205Y-9026484D01*
X5967205Y-8902674D02*
X5976729Y-8912198D01*
X5976729Y-8912198D02*
X5967205Y-8921722D01*
X5967205Y-8921722D02*
X5957682Y-8912198D01*
X5957682Y-8912198D02*
X5967205Y-8902674D01*
X5967205Y-8902674D02*
X5967205Y-8921722D01*
X4135000Y-9255000D02*
X4335000Y-9455000D01*
X4335000Y-9255000D02*
X4135000Y-9455000D01*
X4576729Y-9246484D02*
X4700539Y-9246484D01*
X4700539Y-9246484D02*
X4633872Y-9322674D01*
X4633872Y-9322674D02*
X4662444Y-9322674D01*
X4662444Y-9322674D02*
X4681491Y-9332198D01*
X4681491Y-9332198D02*
X4691015Y-9341722D01*
X4691015Y-9341722D02*
X4700539Y-9360770D01*
X4700539Y-9360770D02*
X4700539Y-9408389D01*
X4700539Y-9408389D02*
X4691015Y-9427436D01*
X4691015Y-9427436D02*
X4681491Y-9436960D01*
X4681491Y-9436960D02*
X4662444Y-9446484D01*
X4662444Y-9446484D02*
X4605301Y-9446484D01*
X4605301Y-9446484D02*
X4586253Y-9436960D01*
X4586253Y-9436960D02*
X4576729Y-9427436D01*
X4786253Y-9427436D02*
X4795777Y-9436960D01*
X4795777Y-9436960D02*
X4786253Y-9446484D01*
X4786253Y-9446484D02*
X4776729Y-9436960D01*
X4776729Y-9436960D02*
X4786253Y-9427436D01*
X4786253Y-9427436D02*
X4786253Y-9446484D01*
X4871967Y-9265531D02*
X4881491Y-9256008D01*
X4881491Y-9256008D02*
X4900539Y-9246484D01*
X4900539Y-9246484D02*
X4948158Y-9246484D01*
X4948158Y-9246484D02*
X4967205Y-9256008D01*
X4967205Y-9256008D02*
X4976729Y-9265531D01*
X4976729Y-9265531D02*
X4986253Y-9284579D01*
X4986253Y-9284579D02*
X4986253Y-9303627D01*
X4986253Y-9303627D02*
X4976729Y-9332198D01*
X4976729Y-9332198D02*
X4862444Y-9446484D01*
X4862444Y-9446484D02*
X4986253Y-9446484D01*
X5167205Y-9246484D02*
X5071967Y-9246484D01*
X5071967Y-9246484D02*
X5062444Y-9341722D01*
X5062444Y-9341722D02*
X5071967Y-9332198D01*
X5071967Y-9332198D02*
X5091015Y-9322674D01*
X5091015Y-9322674D02*
X5138634Y-9322674D01*
X5138634Y-9322674D02*
X5157682Y-9332198D01*
X5157682Y-9332198D02*
X5167205Y-9341722D01*
X5167205Y-9341722D02*
X5176729Y-9360770D01*
X5176729Y-9360770D02*
X5176729Y-9408389D01*
X5176729Y-9408389D02*
X5167205Y-9427436D01*
X5167205Y-9427436D02*
X5157682Y-9436960D01*
X5157682Y-9436960D02*
X5138634Y-9446484D01*
X5138634Y-9446484D02*
X5091015Y-9446484D01*
X5091015Y-9446484D02*
X5071967Y-9436960D01*
X5071967Y-9436960D02*
X5062444Y-9427436D01*
X5300539Y-9246484D02*
X5319586Y-9246484D01*
X5319586Y-9246484D02*
X5338634Y-9256008D01*
X5338634Y-9256008D02*
X5348158Y-9265531D01*
X5348158Y-9265531D02*
X5357682Y-9284579D01*
X5357682Y-9284579D02*
X5367205Y-9322674D01*
X5367205Y-9322674D02*
X5367205Y-9370293D01*
X5367205Y-9370293D02*
X5357682Y-9408389D01*
X5357682Y-9408389D02*
X5348158Y-9427436D01*
X5348158Y-9427436D02*
X5338634Y-9436960D01*
X5338634Y-9436960D02*
X5319586Y-9446484D01*
X5319586Y-9446484D02*
X5300539Y-9446484D01*
X5300539Y-9446484D02*
X5281491Y-9436960D01*
X5281491Y-9436960D02*
X5271967Y-9427436D01*
X5271967Y-9427436D02*
X5262444Y-9408389D01*
X5262444Y-9408389D02*
X5252920Y-9370293D01*
X5252920Y-9370293D02*
X5252920Y-9322674D01*
X5252920Y-9322674D02*
X5262444Y-9284579D01*
X5262444Y-9284579D02*
X5271967Y-9265531D01*
X5271967Y-9265531D02*
X5281491Y-9256008D01*
X5281491Y-9256008D02*
X5300539Y-9246484D01*
X5452920Y-9446484D02*
X5452920Y-9313150D01*
X5452920Y-9332198D02*
X5462444Y-9322674D01*
X5462444Y-9322674D02*
X5481491Y-9313150D01*
X5481491Y-9313150D02*
X5510063Y-9313150D01*
X5510063Y-9313150D02*
X5529110Y-9322674D01*
X5529110Y-9322674D02*
X5538634Y-9341722D01*
X5538634Y-9341722D02*
X5538634Y-9446484D01*
X5538634Y-9341722D02*
X5548158Y-9322674D01*
X5548158Y-9322674D02*
X5567205Y-9313150D01*
X5567205Y-9313150D02*
X5595777Y-9313150D01*
X5595777Y-9313150D02*
X5614824Y-9322674D01*
X5614824Y-9322674D02*
X5624348Y-9341722D01*
X5624348Y-9341722D02*
X5624348Y-9446484D01*
X5719586Y-9446484D02*
X5719586Y-9313150D01*
X5719586Y-9332198D02*
X5729110Y-9322674D01*
X5729110Y-9322674D02*
X5748158Y-9313150D01*
X5748158Y-9313150D02*
X5776729Y-9313150D01*
X5776729Y-9313150D02*
X5795777Y-9322674D01*
X5795777Y-9322674D02*
X5805301Y-9341722D01*
X5805301Y-9341722D02*
X5805301Y-9446484D01*
X5805301Y-9341722D02*
X5814824Y-9322674D01*
X5814824Y-9322674D02*
X5833872Y-9313150D01*
X5833872Y-9313150D02*
X5862443Y-9313150D01*
X5862443Y-9313150D02*
X5881491Y-9322674D01*
X5881491Y-9322674D02*
X5891015Y-9341722D01*
X5891015Y-9341722D02*
X5891015Y-9446484D01*
X6281491Y-9236960D02*
X6110063Y-9494103D01*
X6538634Y-9246484D02*
X6557682Y-9246484D01*
X6557682Y-9246484D02*
X6576729Y-9256008D01*
X6576729Y-9256008D02*
X6586253Y-9265531D01*
X6586253Y-9265531D02*
X6595777Y-9284579D01*
X6595777Y-9284579D02*
X6605301Y-9322674D01*
X6605301Y-9322674D02*
X6605301Y-9370293D01*
X6605301Y-9370293D02*
X6595777Y-9408389D01*
X6595777Y-9408389D02*
X6586253Y-9427436D01*
X6586253Y-9427436D02*
X6576729Y-9436960D01*
X6576729Y-9436960D02*
X6557682Y-9446484D01*
X6557682Y-9446484D02*
X6538634Y-9446484D01*
X6538634Y-9446484D02*
X6519586Y-9436960D01*
X6519586Y-9436960D02*
X6510063Y-9427436D01*
X6510063Y-9427436D02*
X6500539Y-9408389D01*
X6500539Y-9408389D02*
X6491015Y-9370293D01*
X6491015Y-9370293D02*
X6491015Y-9322674D01*
X6491015Y-9322674D02*
X6500539Y-9284579D01*
X6500539Y-9284579D02*
X6510063Y-9265531D01*
X6510063Y-9265531D02*
X6519586Y-9256008D01*
X6519586Y-9256008D02*
X6538634Y-9246484D01*
X6691015Y-9427436D02*
X6700539Y-9436960D01*
X6700539Y-9436960D02*
X6691015Y-9446484D01*
X6691015Y-9446484D02*
X6681491Y-9436960D01*
X6681491Y-9436960D02*
X6691015Y-9427436D01*
X6691015Y-9427436D02*
X6691015Y-9446484D01*
X6891015Y-9446484D02*
X6776729Y-9446484D01*
X6833872Y-9446484D02*
X6833872Y-9246484D01*
X6833872Y-9246484D02*
X6814825Y-9275055D01*
X6814825Y-9275055D02*
X6795777Y-9294103D01*
X6795777Y-9294103D02*
X6776729Y-9303627D01*
X6967206Y-9265531D02*
X6976729Y-9256008D01*
X6976729Y-9256008D02*
X6995777Y-9246484D01*
X6995777Y-9246484D02*
X7043396Y-9246484D01*
X7043396Y-9246484D02*
X7062444Y-9256008D01*
X7062444Y-9256008D02*
X7071967Y-9265531D01*
X7071967Y-9265531D02*
X7081491Y-9284579D01*
X7081491Y-9284579D02*
X7081491Y-9303627D01*
X7081491Y-9303627D02*
X7071967Y-9332198D01*
X7071967Y-9332198D02*
X6957682Y-9446484D01*
X6957682Y-9446484D02*
X7081491Y-9446484D01*
X7195777Y-9332198D02*
X7176729Y-9322674D01*
X7176729Y-9322674D02*
X7167206Y-9313150D01*
X7167206Y-9313150D02*
X7157682Y-9294103D01*
X7157682Y-9294103D02*
X7157682Y-9284579D01*
X7157682Y-9284579D02*
X7167206Y-9265531D01*
X7167206Y-9265531D02*
X7176729Y-9256008D01*
X7176729Y-9256008D02*
X7195777Y-9246484D01*
X7195777Y-9246484D02*
X7233872Y-9246484D01*
X7233872Y-9246484D02*
X7252920Y-9256008D01*
X7252920Y-9256008D02*
X7262444Y-9265531D01*
X7262444Y-9265531D02*
X7271967Y-9284579D01*
X7271967Y-9284579D02*
X7271967Y-9294103D01*
X7271967Y-9294103D02*
X7262444Y-9313150D01*
X7262444Y-9313150D02*
X7252920Y-9322674D01*
X7252920Y-9322674D02*
X7233872Y-9332198D01*
X7233872Y-9332198D02*
X7195777Y-9332198D01*
X7195777Y-9332198D02*
X7176729Y-9341722D01*
X7176729Y-9341722D02*
X7167206Y-9351246D01*
X7167206Y-9351246D02*
X7157682Y-9370293D01*
X7157682Y-9370293D02*
X7157682Y-9408389D01*
X7157682Y-9408389D02*
X7167206Y-9427436D01*
X7167206Y-9427436D02*
X7176729Y-9436960D01*
X7176729Y-9436960D02*
X7195777Y-9446484D01*
X7195777Y-9446484D02*
X7233872Y-9446484D01*
X7233872Y-9446484D02*
X7252920Y-9436960D01*
X7252920Y-9436960D02*
X7262444Y-9427436D01*
X7262444Y-9427436D02*
X7271967Y-9408389D01*
X7271967Y-9408389D02*
X7271967Y-9370293D01*
X7271967Y-9370293D02*
X7262444Y-9351246D01*
X7262444Y-9351246D02*
X7252920Y-9341722D01*
X7252920Y-9341722D02*
X7233872Y-9332198D01*
X7395777Y-9246484D02*
X7414825Y-9246484D01*
X7414825Y-9246484D02*
X7433872Y-9256008D01*
X7433872Y-9256008D02*
X7443396Y-9265531D01*
X7443396Y-9265531D02*
X7452920Y-9284579D01*
X7452920Y-9284579D02*
X7462444Y-9322674D01*
X7462444Y-9322674D02*
X7462444Y-9370293D01*
X7462444Y-9370293D02*
X7452920Y-9408389D01*
X7452920Y-9408389D02*
X7443396Y-9427436D01*
X7443396Y-9427436D02*
X7433872Y-9436960D01*
X7433872Y-9436960D02*
X7414825Y-9446484D01*
X7414825Y-9446484D02*
X7395777Y-9446484D01*
X7395777Y-9446484D02*
X7376729Y-9436960D01*
X7376729Y-9436960D02*
X7367206Y-9427436D01*
X7367206Y-9427436D02*
X7357682Y-9408389D01*
X7357682Y-9408389D02*
X7348158Y-9370293D01*
X7348158Y-9370293D02*
X7348158Y-9322674D01*
X7348158Y-9322674D02*
X7357682Y-9284579D01*
X7357682Y-9284579D02*
X7367206Y-9265531D01*
X7367206Y-9265531D02*
X7376729Y-9256008D01*
X7376729Y-9256008D02*
X7395777Y-9246484D01*
X7538634Y-9246484D02*
X7538634Y-9284579D01*
X7614825Y-9246484D02*
X7614825Y-9284579D01*
X7910063Y-9522674D02*
X7900539Y-9513150D01*
X7900539Y-9513150D02*
X7881491Y-9484579D01*
X7881491Y-9484579D02*
X7871968Y-9465531D01*
X7871968Y-9465531D02*
X7862444Y-9436960D01*
X7862444Y-9436960D02*
X7852920Y-9389341D01*
X7852920Y-9389341D02*
X7852920Y-9351246D01*
X7852920Y-9351246D02*
X7862444Y-9303627D01*
X7862444Y-9303627D02*
X7871968Y-9275055D01*
X7871968Y-9275055D02*
X7881491Y-9256008D01*
X7881491Y-9256008D02*
X7900539Y-9227436D01*
X7900539Y-9227436D02*
X7910063Y-9217912D01*
X7976729Y-9265531D02*
X7986253Y-9256008D01*
X7986253Y-9256008D02*
X8005301Y-9246484D01*
X8005301Y-9246484D02*
X8052920Y-9246484D01*
X8052920Y-9246484D02*
X8071968Y-9256008D01*
X8071968Y-9256008D02*
X8081491Y-9265531D01*
X8081491Y-9265531D02*
X8091015Y-9284579D01*
X8091015Y-9284579D02*
X8091015Y-9303627D01*
X8091015Y-9303627D02*
X8081491Y-9332198D01*
X8081491Y-9332198D02*
X7967206Y-9446484D01*
X7967206Y-9446484D02*
X8091015Y-9446484D01*
X8329110Y-9446484D02*
X8329110Y-9246484D01*
X8414825Y-9446484D02*
X8414825Y-9341722D01*
X8414825Y-9341722D02*
X8405301Y-9322674D01*
X8405301Y-9322674D02*
X8386253Y-9313150D01*
X8386253Y-9313150D02*
X8357682Y-9313150D01*
X8357682Y-9313150D02*
X8338634Y-9322674D01*
X8338634Y-9322674D02*
X8329110Y-9332198D01*
X8538634Y-9446484D02*
X8519587Y-9436960D01*
X8519587Y-9436960D02*
X8510063Y-9427436D01*
X8510063Y-9427436D02*
X8500539Y-9408389D01*
X8500539Y-9408389D02*
X8500539Y-9351246D01*
X8500539Y-9351246D02*
X8510063Y-9332198D01*
X8510063Y-9332198D02*
X8519587Y-9322674D01*
X8519587Y-9322674D02*
X8538634Y-9313150D01*
X8538634Y-9313150D02*
X8567206Y-9313150D01*
X8567206Y-9313150D02*
X8586253Y-9322674D01*
X8586253Y-9322674D02*
X8595777Y-9332198D01*
X8595777Y-9332198D02*
X8605301Y-9351246D01*
X8605301Y-9351246D02*
X8605301Y-9408389D01*
X8605301Y-9408389D02*
X8595777Y-9427436D01*
X8595777Y-9427436D02*
X8586253Y-9436960D01*
X8586253Y-9436960D02*
X8567206Y-9446484D01*
X8567206Y-9446484D02*
X8538634Y-9446484D01*
X8719587Y-9446484D02*
X8700539Y-9436960D01*
X8700539Y-9436960D02*
X8691015Y-9417912D01*
X8691015Y-9417912D02*
X8691015Y-9246484D01*
X8871968Y-9436960D02*
X8852920Y-9446484D01*
X8852920Y-9446484D02*
X8814825Y-9446484D01*
X8814825Y-9446484D02*
X8795777Y-9436960D01*
X8795777Y-9436960D02*
X8786253Y-9417912D01*
X8786253Y-9417912D02*
X8786253Y-9341722D01*
X8786253Y-9341722D02*
X8795777Y-9322674D01*
X8795777Y-9322674D02*
X8814825Y-9313150D01*
X8814825Y-9313150D02*
X8852920Y-9313150D01*
X8852920Y-9313150D02*
X8871968Y-9322674D01*
X8871968Y-9322674D02*
X8881492Y-9341722D01*
X8881492Y-9341722D02*
X8881492Y-9360770D01*
X8881492Y-9360770D02*
X8786253Y-9379817D01*
X8957682Y-9436960D02*
X8976730Y-9446484D01*
X8976730Y-9446484D02*
X9014825Y-9446484D01*
X9014825Y-9446484D02*
X9033873Y-9436960D01*
X9033873Y-9436960D02*
X9043396Y-9417912D01*
X9043396Y-9417912D02*
X9043396Y-9408389D01*
X9043396Y-9408389D02*
X9033873Y-9389341D01*
X9033873Y-9389341D02*
X9014825Y-9379817D01*
X9014825Y-9379817D02*
X8986253Y-9379817D01*
X8986253Y-9379817D02*
X8967206Y-9370293D01*
X8967206Y-9370293D02*
X8957682Y-9351246D01*
X8957682Y-9351246D02*
X8957682Y-9341722D01*
X8957682Y-9341722D02*
X8967206Y-9322674D01*
X8967206Y-9322674D02*
X8986253Y-9313150D01*
X8986253Y-9313150D02*
X9014825Y-9313150D01*
X9014825Y-9313150D02*
X9033873Y-9322674D01*
X9110063Y-9522674D02*
X9119587Y-9513150D01*
X9119587Y-9513150D02*
X9138634Y-9484579D01*
X9138634Y-9484579D02*
X9148158Y-9465531D01*
X9148158Y-9465531D02*
X9157682Y-9436960D01*
X9157682Y-9436960D02*
X9167206Y-9389341D01*
X9167206Y-9389341D02*
X9167206Y-9351246D01*
X9167206Y-9351246D02*
X9157682Y-9303627D01*
X9157682Y-9303627D02*
X9148158Y-9275055D01*
X9148158Y-9275055D02*
X9138634Y-9256008D01*
X9138634Y-9256008D02*
X9119587Y-9227436D01*
X9119587Y-9227436D02*
X9110063Y-9217912D01*
X9471968Y-9522674D02*
X9462444Y-9513150D01*
X9462444Y-9513150D02*
X9443396Y-9484579D01*
X9443396Y-9484579D02*
X9433873Y-9465531D01*
X9433873Y-9465531D02*
X9424349Y-9436960D01*
X9424349Y-9436960D02*
X9414825Y-9389341D01*
X9414825Y-9389341D02*
X9414825Y-9351246D01*
X9414825Y-9351246D02*
X9424349Y-9303627D01*
X9424349Y-9303627D02*
X9433873Y-9275055D01*
X9433873Y-9275055D02*
X9443396Y-9256008D01*
X9443396Y-9256008D02*
X9462444Y-9227436D01*
X9462444Y-9227436D02*
X9471968Y-9217912D01*
X9548158Y-9313150D02*
X9548158Y-9446484D01*
X9548158Y-9332198D02*
X9557682Y-9322674D01*
X9557682Y-9322674D02*
X9576730Y-9313150D01*
X9576730Y-9313150D02*
X9605301Y-9313150D01*
X9605301Y-9313150D02*
X9624349Y-9322674D01*
X9624349Y-9322674D02*
X9633873Y-9341722D01*
X9633873Y-9341722D02*
X9633873Y-9446484D01*
X9757682Y-9446484D02*
X9738634Y-9436960D01*
X9738634Y-9436960D02*
X9729111Y-9427436D01*
X9729111Y-9427436D02*
X9719587Y-9408389D01*
X9719587Y-9408389D02*
X9719587Y-9351246D01*
X9719587Y-9351246D02*
X9729111Y-9332198D01*
X9729111Y-9332198D02*
X9738634Y-9322674D01*
X9738634Y-9322674D02*
X9757682Y-9313150D01*
X9757682Y-9313150D02*
X9786254Y-9313150D01*
X9786254Y-9313150D02*
X9805301Y-9322674D01*
X9805301Y-9322674D02*
X9814825Y-9332198D01*
X9814825Y-9332198D02*
X9824349Y-9351246D01*
X9824349Y-9351246D02*
X9824349Y-9408389D01*
X9824349Y-9408389D02*
X9814825Y-9427436D01*
X9814825Y-9427436D02*
X9805301Y-9436960D01*
X9805301Y-9436960D02*
X9786254Y-9446484D01*
X9786254Y-9446484D02*
X9757682Y-9446484D01*
X9881492Y-9313150D02*
X9957682Y-9313150D01*
X9910063Y-9246484D02*
X9910063Y-9417912D01*
X9910063Y-9417912D02*
X9919587Y-9436960D01*
X9919587Y-9436960D02*
X9938634Y-9446484D01*
X9938634Y-9446484D02*
X9957682Y-9446484D01*
X10176730Y-9313150D02*
X10176730Y-9513150D01*
X10176730Y-9322674D02*
X10195777Y-9313150D01*
X10195777Y-9313150D02*
X10233873Y-9313150D01*
X10233873Y-9313150D02*
X10252920Y-9322674D01*
X10252920Y-9322674D02*
X10262444Y-9332198D01*
X10262444Y-9332198D02*
X10271968Y-9351246D01*
X10271968Y-9351246D02*
X10271968Y-9408389D01*
X10271968Y-9408389D02*
X10262444Y-9427436D01*
X10262444Y-9427436D02*
X10252920Y-9436960D01*
X10252920Y-9436960D02*
X10233873Y-9446484D01*
X10233873Y-9446484D02*
X10195777Y-9446484D01*
X10195777Y-9446484D02*
X10176730Y-9436960D01*
X10386254Y-9446484D02*
X10367206Y-9436960D01*
X10367206Y-9436960D02*
X10357682Y-9417912D01*
X10357682Y-9417912D02*
X10357682Y-9246484D01*
X10548158Y-9446484D02*
X10548158Y-9341722D01*
X10548158Y-9341722D02*
X10538635Y-9322674D01*
X10538635Y-9322674D02*
X10519587Y-9313150D01*
X10519587Y-9313150D02*
X10481492Y-9313150D01*
X10481492Y-9313150D02*
X10462444Y-9322674D01*
X10548158Y-9436960D02*
X10529111Y-9446484D01*
X10529111Y-9446484D02*
X10481492Y-9446484D01*
X10481492Y-9446484D02*
X10462444Y-9436960D01*
X10462444Y-9436960D02*
X10452920Y-9417912D01*
X10452920Y-9417912D02*
X10452920Y-9398865D01*
X10452920Y-9398865D02*
X10462444Y-9379817D01*
X10462444Y-9379817D02*
X10481492Y-9370293D01*
X10481492Y-9370293D02*
X10529111Y-9370293D01*
X10529111Y-9370293D02*
X10548158Y-9360770D01*
X10614825Y-9313150D02*
X10691015Y-9313150D01*
X10643396Y-9246484D02*
X10643396Y-9417912D01*
X10643396Y-9417912D02*
X10652920Y-9436960D01*
X10652920Y-9436960D02*
X10671968Y-9446484D01*
X10671968Y-9446484D02*
X10691015Y-9446484D01*
X10833873Y-9436960D02*
X10814825Y-9446484D01*
X10814825Y-9446484D02*
X10776730Y-9446484D01*
X10776730Y-9446484D02*
X10757682Y-9436960D01*
X10757682Y-9436960D02*
X10748158Y-9417912D01*
X10748158Y-9417912D02*
X10748158Y-9341722D01*
X10748158Y-9341722D02*
X10757682Y-9322674D01*
X10757682Y-9322674D02*
X10776730Y-9313150D01*
X10776730Y-9313150D02*
X10814825Y-9313150D01*
X10814825Y-9313150D02*
X10833873Y-9322674D01*
X10833873Y-9322674D02*
X10843396Y-9341722D01*
X10843396Y-9341722D02*
X10843396Y-9360770D01*
X10843396Y-9360770D02*
X10748158Y-9379817D01*
X11014825Y-9446484D02*
X11014825Y-9246484D01*
X11014825Y-9436960D02*
X10995777Y-9446484D01*
X10995777Y-9446484D02*
X10957682Y-9446484D01*
X10957682Y-9446484D02*
X10938635Y-9436960D01*
X10938635Y-9436960D02*
X10929111Y-9427436D01*
X10929111Y-9427436D02*
X10919587Y-9408389D01*
X10919587Y-9408389D02*
X10919587Y-9351246D01*
X10919587Y-9351246D02*
X10929111Y-9332198D01*
X10929111Y-9332198D02*
X10938635Y-9322674D01*
X10938635Y-9322674D02*
X10957682Y-9313150D01*
X10957682Y-9313150D02*
X10995777Y-9313150D01*
X10995777Y-9313150D02*
X11014825Y-9322674D01*
X11091016Y-9522674D02*
X11100539Y-9513150D01*
X11100539Y-9513150D02*
X11119587Y-9484579D01*
X11119587Y-9484579D02*
X11129111Y-9465531D01*
X11129111Y-9465531D02*
X11138635Y-9436960D01*
X11138635Y-9436960D02*
X11148158Y-9389341D01*
X11148158Y-9389341D02*
X11148158Y-9351246D01*
X11148158Y-9351246D02*
X11138635Y-9303627D01*
X11138635Y-9303627D02*
X11129111Y-9275055D01*
X11129111Y-9275055D02*
X11119587Y-9256008D01*
X11119587Y-9256008D02*
X11100539Y-9227436D01*
X11100539Y-9227436D02*
X11091016Y-9217912D01*
M02*
