%TF.GenerationSoftware,KiCad,Pcbnew,7.0.10*%
%TF.CreationDate,2024-03-15T07:12:17+07:00*%
%TF.ProjectId,Oxygen Monitoring,4f787967-656e-4204-9d6f-6e69746f7269,rev?*%
%TF.SameCoordinates,Original*%
%TF.FileFunction,Soldermask,Top*%
%TF.FilePolarity,Negative*%
%FSLAX46Y46*%
G04 Gerber Fmt 4.6, Leading zero omitted, Abs format (unit mm)*
G04 Created by KiCad (PCBNEW 7.0.10) date 2024-03-15 07:12:17*
%MOMM*%
%LPD*%
G01*
G04 APERTURE LIST*
G04 Aperture macros list*
%AMRoundRect*
0 Rectangle with rounded corners*
0 $1 Rounding radius*
0 $2 $3 $4 $5 $6 $7 $8 $9 X,Y pos of 4 corners*
0 Add a 4 corners polygon primitive as box body*
4,1,4,$2,$3,$4,$5,$6,$7,$8,$9,$2,$3,0*
0 Add four circle primitives for the rounded corners*
1,1,$1+$1,$2,$3*
1,1,$1+$1,$4,$5*
1,1,$1+$1,$6,$7*
1,1,$1+$1,$8,$9*
0 Add four rect primitives between the rounded corners*
20,1,$1+$1,$2,$3,$4,$5,0*
20,1,$1+$1,$4,$5,$6,$7,0*
20,1,$1+$1,$6,$7,$8,$9,0*
20,1,$1+$1,$8,$9,$2,$3,0*%
G04 Aperture macros list end*
%ADD10RoundRect,0.250000X0.250000X0.475000X-0.250000X0.475000X-0.250000X-0.475000X0.250000X-0.475000X0*%
%ADD11RoundRect,0.243750X0.456250X-0.243750X0.456250X0.243750X-0.456250X0.243750X-0.456250X-0.243750X0*%
%ADD12RoundRect,0.250000X0.450000X-0.262500X0.450000X0.262500X-0.450000X0.262500X-0.450000X-0.262500X0*%
%ADD13RoundRect,0.250000X0.475000X-0.250000X0.475000X0.250000X-0.475000X0.250000X-0.475000X-0.250000X0*%
%ADD14C,1.500000*%
%ADD15RoundRect,0.250000X0.262500X0.450000X-0.262500X0.450000X-0.262500X-0.450000X0.262500X-0.450000X0*%
%ADD16R,1.200000X1.200000*%
%ADD17C,1.200000*%
%ADD18RoundRect,0.250000X-0.262500X-0.450000X0.262500X-0.450000X0.262500X0.450000X-0.262500X0.450000X0*%
%ADD19C,0.800000*%
%ADD20C,6.000000*%
%ADD21RoundRect,0.075000X-0.662500X-0.075000X0.662500X-0.075000X0.662500X0.075000X-0.662500X0.075000X0*%
%ADD22RoundRect,0.075000X-0.075000X-0.662500X0.075000X-0.662500X0.075000X0.662500X-0.075000X0.662500X0*%
%ADD23R,2.600000X2.600000*%
%ADD24C,2.600000*%
%ADD25R,2.000000X2.000000*%
%ADD26C,2.000000*%
%ADD27RoundRect,0.243750X-0.456250X0.243750X-0.456250X-0.243750X0.456250X-0.243750X0.456250X0.243750X0*%
%ADD28RoundRect,0.250000X-0.475000X0.250000X-0.475000X-0.250000X0.475000X-0.250000X0.475000X0.250000X0*%
%ADD29RoundRect,0.250000X0.250000X0.750000X-0.250000X0.750000X-0.250000X-0.750000X0.250000X-0.750000X0*%
%ADD30RoundRect,0.218750X0.381250X-0.218750X0.381250X0.218750X-0.381250X0.218750X-0.381250X-0.218750X0*%
%ADD31R,1.600000X1.600000*%
%ADD32RoundRect,0.150000X0.150000X-0.512500X0.150000X0.512500X-0.150000X0.512500X-0.150000X-0.512500X0*%
%ADD33RoundRect,0.150000X-0.587500X-0.150000X0.587500X-0.150000X0.587500X0.150000X-0.587500X0.150000X0*%
%ADD34C,3.250000*%
%ADD35RoundRect,0.250500X0.499500X-0.499500X0.499500X0.499500X-0.499500X0.499500X-0.499500X-0.499500X0*%
%ADD36C,2.500000*%
%ADD37R,2.900000X5.400000*%
%ADD38R,1.320000X2.250000*%
%ADD39R,1.700000X1.700000*%
%ADD40O,1.700000X1.700000*%
%ADD41R,1.500000X1.500000*%
%ADD42RoundRect,0.250000X-0.450000X0.262500X-0.450000X-0.262500X0.450000X-0.262500X0.450000X0.262500X0*%
%ADD43RoundRect,0.250000X-0.250000X-0.475000X0.250000X-0.475000X0.250000X0.475000X-0.250000X0.475000X0*%
%ADD44C,1.600000*%
%ADD45RoundRect,0.250000X-0.300000X2.050000X-0.300000X-2.050000X0.300000X-2.050000X0.300000X2.050000X0*%
%ADD46RoundRect,0.250002X-5.149998X4.449998X-5.149998X-4.449998X5.149998X-4.449998X5.149998X4.449998X0*%
%ADD47RoundRect,0.225000X0.225000X0.375000X-0.225000X0.375000X-0.225000X-0.375000X0.225000X-0.375000X0*%
%ADD48R,3.200000X3.200000*%
%ADD49O,3.200000X3.200000*%
%ADD50RoundRect,0.062500X0.675000X0.062500X-0.675000X0.062500X-0.675000X-0.062500X0.675000X-0.062500X0*%
%ADD51RoundRect,0.062500X0.062500X0.675000X-0.062500X0.675000X-0.062500X-0.675000X0.062500X-0.675000X0*%
G04 APERTURE END LIST*
D10*
%TO.C,C35*%
X101280000Y-77978000D03*
X99380000Y-77978000D03*
%TD*%
D11*
%TO.C,D13*%
X111050700Y-82623900D03*
X111050700Y-80748900D03*
%TD*%
D12*
%TO.C,R14*%
X126949200Y-42619300D03*
X126949200Y-40794300D03*
%TD*%
D13*
%TO.C,C5*%
X58862000Y-82230000D03*
X58862000Y-80330000D03*
%TD*%
D14*
%TO.C,Y3*%
X81280000Y-75492000D03*
X81280000Y-70612000D03*
%TD*%
D15*
%TO.C,R15*%
X91082500Y-60389151D03*
X89257500Y-60389151D03*
%TD*%
D16*
%TO.C,C32*%
X71550000Y-80900000D03*
D17*
X71550000Y-82900000D03*
%TD*%
D18*
%TO.C,R28*%
X112701700Y-74269600D03*
X114526700Y-74269600D03*
%TD*%
D14*
%TO.C,Y1*%
X84229500Y-51906000D03*
X84229500Y-56786000D03*
%TD*%
D19*
%TO.C,H4*%
X44850000Y-28600000D03*
X45509010Y-27009010D03*
X45509010Y-30190990D03*
X47100000Y-26350000D03*
D20*
X47100000Y-28600000D03*
D19*
X47100000Y-30850000D03*
X48690990Y-27009010D03*
X48690990Y-30190990D03*
X49350000Y-28600000D03*
%TD*%
D21*
%TO.C,U3*%
X93275000Y-46792000D03*
X93275000Y-47292000D03*
X93275000Y-47792000D03*
X93275000Y-48292000D03*
X93275000Y-48792000D03*
X93275000Y-49292000D03*
X93275000Y-49792000D03*
X93275000Y-50292000D03*
X93275000Y-50792000D03*
X93275000Y-51292000D03*
X93275000Y-51792000D03*
X93275000Y-52292000D03*
D22*
X94687500Y-53704500D03*
X95187500Y-53704500D03*
X95687500Y-53704500D03*
X96187500Y-53704500D03*
X96687500Y-53704500D03*
X97187500Y-53704500D03*
X97687500Y-53704500D03*
X98187500Y-53704500D03*
X98687500Y-53704500D03*
X99187500Y-53704500D03*
X99687500Y-53704500D03*
X100187500Y-53704500D03*
D21*
X101600000Y-52292000D03*
X101600000Y-51792000D03*
X101600000Y-51292000D03*
X101600000Y-50792000D03*
X101600000Y-50292000D03*
X101600000Y-49792000D03*
X101600000Y-49292000D03*
X101600000Y-48792000D03*
X101600000Y-48292000D03*
X101600000Y-47792000D03*
X101600000Y-47292000D03*
X101600000Y-46792000D03*
D22*
X100187500Y-45379500D03*
X99687500Y-45379500D03*
X99187500Y-45379500D03*
X98687500Y-45379500D03*
X98187500Y-45379500D03*
X97687500Y-45379500D03*
X97187500Y-45379500D03*
X96687500Y-45379500D03*
X96187500Y-45379500D03*
X95687500Y-45379500D03*
X95187500Y-45379500D03*
X94687500Y-45379500D03*
%TD*%
D10*
%TO.C,C10*%
X79900000Y-38600000D03*
X78000000Y-38600000D03*
%TD*%
D23*
%TO.C,J4*%
X138300000Y-46706800D03*
D24*
X138300000Y-41706800D03*
X138300000Y-36706800D03*
%TD*%
D15*
%TO.C,R12*%
X128725300Y-35001200D03*
X126900300Y-35001200D03*
%TD*%
D13*
%TO.C,C23*%
X111967000Y-31188000D03*
X111967000Y-29288000D03*
%TD*%
D25*
%TO.C,C1*%
X51308000Y-67502323D03*
D26*
X51308000Y-75002323D03*
%TD*%
D19*
%TO.C,H3*%
X140150000Y-28600000D03*
X140809010Y-27009010D03*
X140809010Y-30190990D03*
X142400000Y-26350000D03*
D20*
X142400000Y-28600000D03*
D19*
X142400000Y-30850000D03*
X143990990Y-27009010D03*
X143990990Y-30190990D03*
X144650000Y-28600000D03*
%TD*%
D27*
%TO.C,D5*%
X110750000Y-46812500D03*
X110750000Y-48687500D03*
%TD*%
D28*
%TO.C,C13*%
X76768000Y-41056000D03*
X76768000Y-42956000D03*
%TD*%
D13*
%TO.C,C44*%
X109880400Y-65720000D03*
X109880400Y-63820000D03*
%TD*%
D29*
%TO.C,TP1*%
X94610000Y-29250000D03*
%TD*%
D11*
%TO.C,D9*%
X131013200Y-82623900D03*
X131013200Y-80748900D03*
%TD*%
D18*
%TO.C,R2*%
X84287500Y-38150000D03*
X86112500Y-38150000D03*
%TD*%
D28*
%TO.C,C21*%
X105057500Y-45450000D03*
X105057500Y-47350000D03*
%TD*%
D30*
%TO.C,L2*%
X85852000Y-74151651D03*
X85852000Y-72026651D03*
%TD*%
D31*
%TO.C,U4*%
X115722400Y-42976800D03*
X115722400Y-45516800D03*
X115722400Y-48056800D03*
X115722400Y-50596800D03*
X115722400Y-53136800D03*
X115722400Y-55676800D03*
X115722400Y-58216800D03*
X123342400Y-58216800D03*
X123342400Y-55676800D03*
X123342400Y-53136800D03*
X123342400Y-50596800D03*
X123342400Y-48056800D03*
X123342400Y-45516800D03*
X123342400Y-42976800D03*
%TD*%
D32*
%TO.C,U7*%
X116220200Y-71343100D03*
X117170200Y-71343100D03*
X118120200Y-71343100D03*
X118120200Y-69068100D03*
X117170200Y-69068100D03*
X116220200Y-69068100D03*
%TD*%
D10*
%TO.C,C40*%
X101280000Y-60389151D03*
X99380000Y-60389151D03*
%TD*%
D27*
%TO.C,D4*%
X110750000Y-39212500D03*
X110750000Y-41087500D03*
%TD*%
D28*
%TO.C,C29*%
X76708000Y-75206000D03*
X76708000Y-77106000D03*
%TD*%
D13*
%TO.C,C18*%
X105057500Y-53540000D03*
X105057500Y-51640000D03*
%TD*%
D33*
%TO.C,D7*%
X129489200Y-40741600D03*
X129489200Y-42641600D03*
X131364200Y-41691600D03*
%TD*%
D13*
%TO.C,C37*%
X104140000Y-64516000D03*
X104140000Y-62616000D03*
%TD*%
%TO.C,C38*%
X85852000Y-66927151D03*
X85852000Y-65027151D03*
%TD*%
D34*
%TO.C,J5*%
X137060000Y-74930000D03*
X137060000Y-63500000D03*
D35*
X130710000Y-73660000D03*
D14*
X128170000Y-72390000D03*
X130710000Y-71120000D03*
X128170000Y-69850000D03*
X130710000Y-68580000D03*
X128170000Y-67310000D03*
X130710000Y-66040000D03*
X128170000Y-64770000D03*
X142140000Y-75540000D03*
X140440000Y-73000000D03*
X142140000Y-65430000D03*
X140440000Y-62890000D03*
D36*
X134010000Y-77090000D03*
X134010000Y-61340000D03*
%TD*%
D10*
%TO.C,C20*%
X102550000Y-57050000D03*
X100650000Y-57050000D03*
%TD*%
D37*
%TO.C,L1*%
X47374000Y-58282651D03*
X57274000Y-58282651D03*
%TD*%
D29*
%TO.C,TP2*%
X92610000Y-29250000D03*
%TD*%
D38*
%TO.C,Y2*%
X85150000Y-42725000D03*
X79950000Y-42725000D03*
X79950000Y-45975000D03*
X85150000Y-45975000D03*
%TD*%
D15*
%TO.C,R20*%
X86714500Y-81750000D03*
X84889500Y-81750000D03*
%TD*%
D11*
%TO.C,D10*%
X125933200Y-82623900D03*
X125933200Y-80748900D03*
%TD*%
%TO.C,D8*%
X135942700Y-82623900D03*
X135942700Y-80748900D03*
%TD*%
D15*
%TO.C,R19*%
X82142500Y-80268000D03*
X80317500Y-80268000D03*
%TD*%
D39*
%TO.C,J3*%
X106450000Y-29250000D03*
D40*
X103910000Y-29250000D03*
X101370000Y-29250000D03*
X98830000Y-29250000D03*
%TD*%
D41*
%TO.C,SW1*%
X75050000Y-34850000D03*
X82850000Y-34850000D03*
%TD*%
D28*
%TO.C,C6*%
X58928000Y-67630000D03*
X58928000Y-69530000D03*
%TD*%
D18*
%TO.C,R30*%
X112752500Y-62865000D03*
X114577500Y-62865000D03*
%TD*%
%TO.C,R22*%
X95087500Y-82750000D03*
X96912500Y-82750000D03*
%TD*%
D28*
%TO.C,C11*%
X78500000Y-51150000D03*
X78500000Y-53050000D03*
%TD*%
D11*
%TO.C,D11*%
X120702700Y-82623900D03*
X120702700Y-80748900D03*
%TD*%
D27*
%TO.C,D2*%
X59436000Y-43258500D03*
X59436000Y-45133500D03*
%TD*%
D11*
%TO.C,D12*%
X115798200Y-82623900D03*
X115798200Y-80748900D03*
%TD*%
D16*
%TO.C,C31*%
X71100000Y-68200000D03*
D17*
X71100000Y-70200000D03*
%TD*%
D18*
%TO.C,R13*%
X126951100Y-47345600D03*
X128776100Y-47345600D03*
%TD*%
D26*
%TO.C,F1*%
X127762000Y-29972000D03*
X132842000Y-29982000D03*
%TD*%
D42*
%TO.C,R8*%
X112000000Y-51537500D03*
X112000000Y-53362500D03*
%TD*%
D28*
%TO.C,C42*%
X104175000Y-74650000D03*
X104175000Y-76550000D03*
%TD*%
D31*
%TO.C,U5*%
X115777000Y-28968000D03*
X115777000Y-31508000D03*
X115777000Y-34048000D03*
X115777000Y-36588000D03*
X123397000Y-36588000D03*
X123397000Y-34048000D03*
X123397000Y-31508000D03*
X123397000Y-28968000D03*
%TD*%
D10*
%TO.C,C4*%
X63942000Y-38367151D03*
X62042000Y-38367151D03*
%TD*%
D39*
%TO.C,J2*%
X81425000Y-27875000D03*
D40*
X81425000Y-30415000D03*
X78885000Y-27875000D03*
X78885000Y-30415000D03*
X76345000Y-27875000D03*
X76345000Y-30415000D03*
%TD*%
D29*
%TO.C,TP4*%
X88610000Y-29250000D03*
%TD*%
D15*
%TO.C,R34*%
X90562500Y-35450000D03*
X88737500Y-35450000D03*
%TD*%
D42*
%TO.C,R3*%
X68200000Y-27137500D03*
X68200000Y-28962500D03*
%TD*%
D43*
%TO.C,C34*%
X88800000Y-78000000D03*
X90700000Y-78000000D03*
%TD*%
D23*
%TO.C,J1*%
X51300000Y-41518651D03*
D24*
X51300000Y-46518651D03*
%TD*%
D12*
%TO.C,R11*%
X111967000Y-36230500D03*
X111967000Y-34405500D03*
%TD*%
D28*
%TO.C,C16*%
X89550150Y-53340000D03*
X89550150Y-55240000D03*
%TD*%
D31*
%TO.C,C3*%
X56388000Y-29093349D03*
D44*
X56388000Y-34093349D03*
%TD*%
D27*
%TO.C,D3*%
X68200000Y-31862500D03*
X68200000Y-33737500D03*
%TD*%
D31*
%TO.C,C33*%
X70713600Y-74295000D03*
D44*
X70713600Y-76295000D03*
%TD*%
D12*
%TO.C,R32*%
X118289700Y-65682500D03*
X118289700Y-63857500D03*
%TD*%
D13*
%TO.C,C14*%
X76768000Y-47396000D03*
X76768000Y-45496000D03*
%TD*%
%TO.C,C30*%
X76708000Y-71054000D03*
X76708000Y-69154000D03*
%TD*%
D10*
%TO.C,C9*%
X64450000Y-79756000D03*
X62550000Y-79756000D03*
%TD*%
D18*
%TO.C,R31*%
X112805200Y-66649600D03*
X114630200Y-66649600D03*
%TD*%
D13*
%TO.C,C26*%
X112000000Y-58650000D03*
X112000000Y-56750000D03*
%TD*%
D45*
%TO.C,U1*%
X71472000Y-42939151D03*
X69772000Y-42939151D03*
X68072000Y-42939151D03*
D46*
X68072000Y-52089151D03*
D45*
X66372000Y-42939151D03*
X64672000Y-42939151D03*
%TD*%
D12*
%TO.C,R29*%
X118590700Y-77112500D03*
X118590700Y-75287500D03*
%TD*%
D19*
%TO.C,H2*%
X140150000Y-83362800D03*
X140809010Y-81771810D03*
X140809010Y-84953790D03*
X142400000Y-81112800D03*
D20*
X142400000Y-83362800D03*
D19*
X142400000Y-85612800D03*
X143990990Y-81771810D03*
X143990990Y-84953790D03*
X144650000Y-83362800D03*
%TD*%
D18*
%TO.C,R24*%
X104701500Y-80268000D03*
X106526500Y-80268000D03*
%TD*%
D28*
%TO.C,C19*%
X89560400Y-43769200D03*
X89560400Y-45669200D03*
%TD*%
D18*
%TO.C,R23*%
X100737500Y-81700000D03*
X102562500Y-81700000D03*
%TD*%
D19*
%TO.C,H1*%
X44850000Y-83400000D03*
X45509010Y-81809010D03*
X45509010Y-84990990D03*
X47100000Y-81150000D03*
D20*
X47100000Y-83400000D03*
D19*
X47100000Y-85650000D03*
X48690990Y-81809010D03*
X48690990Y-84990990D03*
X49350000Y-83400000D03*
%TD*%
D26*
%TO.C,F2*%
X127715000Y-53340000D03*
X132795000Y-53350000D03*
%TD*%
D47*
%TO.C,D6*%
X121182400Y-39827200D03*
X117882400Y-39827200D03*
%TD*%
D48*
%TO.C,D1*%
X74752200Y-61341000D03*
D49*
X62052200Y-61341000D03*
%TD*%
D28*
%TO.C,C45*%
X122936000Y-68072000D03*
X122936000Y-69972000D03*
%TD*%
D43*
%TO.C,C8*%
X62616000Y-70104000D03*
X64516000Y-70104000D03*
%TD*%
D13*
%TO.C,C12*%
X78486000Y-57550000D03*
X78486000Y-55650000D03*
%TD*%
%TO.C,C39*%
X106650000Y-68072000D03*
X106650000Y-66172000D03*
%TD*%
D43*
%TO.C,C2*%
X71800000Y-38300000D03*
X73700000Y-38300000D03*
%TD*%
D29*
%TO.C,TP3*%
X90550000Y-29250000D03*
%TD*%
D15*
%TO.C,R21*%
X91390000Y-82750000D03*
X89565000Y-82750000D03*
%TD*%
D43*
%TO.C,C17*%
X92217200Y-57150000D03*
X94117200Y-57150000D03*
%TD*%
D13*
%TO.C,C36*%
X106680000Y-72120800D03*
X106680000Y-70220800D03*
%TD*%
%TO.C,C43*%
X109831500Y-77150000D03*
X109831500Y-75250000D03*
%TD*%
D18*
%TO.C,R27*%
X112805200Y-78105000D03*
X114630200Y-78105000D03*
%TD*%
%TO.C,R33*%
X92637500Y-35450000D03*
X94462500Y-35450000D03*
%TD*%
D50*
%TO.C,U6*%
X100658500Y-73333151D03*
X100658500Y-72933151D03*
X100658500Y-72533151D03*
X100658500Y-72133151D03*
X100658500Y-71733151D03*
X100658500Y-71333151D03*
X100658500Y-70933151D03*
X100658500Y-70533151D03*
X100658500Y-70133151D03*
X100658500Y-69733151D03*
X100658500Y-69333151D03*
X100658500Y-68933151D03*
X100658500Y-68533151D03*
X100658500Y-68133151D03*
X100658500Y-67733151D03*
X100658500Y-67333151D03*
X100658500Y-66933151D03*
X100658500Y-66533151D03*
X100658500Y-66133151D03*
X100658500Y-65733151D03*
D51*
X98796000Y-63870651D03*
X98396000Y-63870651D03*
X97996000Y-63870651D03*
X97596000Y-63870651D03*
X97196000Y-63870651D03*
X96796000Y-63870651D03*
X96396000Y-63870651D03*
X95996000Y-63870651D03*
X95596000Y-63870651D03*
X95196000Y-63870651D03*
X94796000Y-63870651D03*
X94396000Y-63870651D03*
X93996000Y-63870651D03*
X93596000Y-63870651D03*
X93196000Y-63870651D03*
X92796000Y-63870651D03*
X92396000Y-63870651D03*
X91996000Y-63870651D03*
X91596000Y-63870651D03*
X91196000Y-63870651D03*
D50*
X89333500Y-65733151D03*
X89333500Y-66133151D03*
X89333500Y-66533151D03*
X89333500Y-66933151D03*
X89333500Y-67333151D03*
X89333500Y-67733151D03*
X89333500Y-68133151D03*
X89333500Y-68533151D03*
X89333500Y-68933151D03*
X89333500Y-69333151D03*
X89333500Y-69733151D03*
X89333500Y-70133151D03*
X89333500Y-70533151D03*
X89333500Y-70933151D03*
X89333500Y-71333151D03*
X89333500Y-71733151D03*
X89333500Y-72133151D03*
X89333500Y-72533151D03*
X89333500Y-72933151D03*
X89333500Y-73333151D03*
D51*
X91196000Y-75195651D03*
X91596000Y-75195651D03*
X91996000Y-75195651D03*
X92396000Y-75195651D03*
X92796000Y-75195651D03*
X93196000Y-75195651D03*
X93596000Y-75195651D03*
X93996000Y-75195651D03*
X94396000Y-75195651D03*
X94796000Y-75195651D03*
X95196000Y-75195651D03*
X95596000Y-75195651D03*
X95996000Y-75195651D03*
X96396000Y-75195651D03*
X96796000Y-75195651D03*
X97196000Y-75195651D03*
X97596000Y-75195651D03*
X97996000Y-75195651D03*
X98396000Y-75195651D03*
X98796000Y-75195651D03*
%TD*%
D28*
%TO.C,C7*%
X65125600Y-74234000D03*
X65125600Y-76134000D03*
%TD*%
M02*
