%TF.GenerationSoftware,KiCad,Pcbnew,7.0.10*%
%TF.CreationDate,2024-03-15T07:12:17+07:00*%
%TF.ProjectId,Oxygen Monitoring,4f787967-656e-4204-9d6f-6e69746f7269,rev?*%
%TF.SameCoordinates,Original*%
%TF.FileFunction,Soldermask,Bot*%
%TF.FilePolarity,Negative*%
%FSLAX46Y46*%
G04 Gerber Fmt 4.6, Leading zero omitted, Abs format (unit mm)*
G04 Created by KiCad (PCBNEW 7.0.10) date 2024-03-15 07:12:17*
%MOMM*%
%LPD*%
G01*
G04 APERTURE LIST*
G04 Aperture macros list*
%AMRoundRect*
0 Rectangle with rounded corners*
0 $1 Rounding radius*
0 $2 $3 $4 $5 $6 $7 $8 $9 X,Y pos of 4 corners*
0 Add a 4 corners polygon primitive as box body*
4,1,4,$2,$3,$4,$5,$6,$7,$8,$9,$2,$3,0*
0 Add four circle primitives for the rounded corners*
1,1,$1+$1,$2,$3*
1,1,$1+$1,$4,$5*
1,1,$1+$1,$6,$7*
1,1,$1+$1,$8,$9*
0 Add four rect primitives between the rounded corners*
20,1,$1+$1,$2,$3,$4,$5,0*
20,1,$1+$1,$4,$5,$6,$7,0*
20,1,$1+$1,$6,$7,$8,$9,0*
20,1,$1+$1,$8,$9,$2,$3,0*%
G04 Aperture macros list end*
%ADD10C,1.500000*%
%ADD11R,1.200000X1.200000*%
%ADD12C,1.200000*%
%ADD13C,0.800000*%
%ADD14C,6.000000*%
%ADD15R,2.600000X2.600000*%
%ADD16C,2.600000*%
%ADD17R,2.000000X2.000000*%
%ADD18C,2.000000*%
%ADD19C,3.250000*%
%ADD20RoundRect,0.250500X0.499500X-0.499500X0.499500X0.499500X-0.499500X0.499500X-0.499500X-0.499500X0*%
%ADD21C,2.500000*%
%ADD22R,1.700000X1.700000*%
%ADD23O,1.700000X1.700000*%
%ADD24R,1.600000X1.600000*%
%ADD25C,1.600000*%
%ADD26R,3.200000X3.200000*%
%ADD27O,3.200000X3.200000*%
%ADD28RoundRect,0.250000X0.450000X-0.262500X0.450000X0.262500X-0.450000X0.262500X-0.450000X-0.262500X0*%
%ADD29RoundRect,0.250000X-0.450000X0.262500X-0.450000X-0.262500X0.450000X-0.262500X0.450000X0.262500X0*%
%ADD30RoundRect,0.250000X0.475000X-0.250000X0.475000X0.250000X-0.475000X0.250000X-0.475000X-0.250000X0*%
%ADD31RoundRect,0.250000X0.250000X0.475000X-0.250000X0.475000X-0.250000X-0.475000X0.250000X-0.475000X0*%
%ADD32RoundRect,0.250000X-0.475000X0.250000X-0.475000X-0.250000X0.475000X-0.250000X0.475000X0.250000X0*%
%ADD33RoundRect,0.218750X-0.218750X-0.381250X0.218750X-0.381250X0.218750X0.381250X-0.218750X0.381250X0*%
%ADD34RoundRect,0.250000X-0.250000X-0.475000X0.250000X-0.475000X0.250000X0.475000X-0.250000X0.475000X0*%
G04 APERTURE END LIST*
D10*
%TO.C,Y3*%
X81280000Y-75492000D03*
X81280000Y-70612000D03*
%TD*%
D11*
%TO.C,C32*%
X71550000Y-80900000D03*
D12*
X71550000Y-82900000D03*
%TD*%
D10*
%TO.C,Y1*%
X84229500Y-51906000D03*
X84229500Y-56786000D03*
%TD*%
D13*
%TO.C,H4*%
X44850000Y-28600000D03*
X45509010Y-27009010D03*
X45509010Y-30190990D03*
X47100000Y-26350000D03*
D14*
X47100000Y-28600000D03*
D13*
X47100000Y-30850000D03*
X48690990Y-27009010D03*
X48690990Y-30190990D03*
X49350000Y-28600000D03*
%TD*%
D15*
%TO.C,J4*%
X138300000Y-46706800D03*
D16*
X138300000Y-41706800D03*
X138300000Y-36706800D03*
%TD*%
D17*
%TO.C,C1*%
X51308000Y-67502323D03*
D18*
X51308000Y-75002323D03*
%TD*%
D13*
%TO.C,H3*%
X140150000Y-28600000D03*
X140809010Y-27009010D03*
X140809010Y-30190990D03*
X142400000Y-26350000D03*
D14*
X142400000Y-28600000D03*
D13*
X142400000Y-30850000D03*
X143990990Y-27009010D03*
X143990990Y-30190990D03*
X144650000Y-28600000D03*
%TD*%
D19*
%TO.C,J5*%
X137060000Y-74930000D03*
X137060000Y-63500000D03*
D20*
X130710000Y-73660000D03*
D10*
X128170000Y-72390000D03*
X130710000Y-71120000D03*
X128170000Y-69850000D03*
X130710000Y-68580000D03*
X128170000Y-67310000D03*
X130710000Y-66040000D03*
X128170000Y-64770000D03*
X142140000Y-75540000D03*
X140440000Y-73000000D03*
X142140000Y-65430000D03*
X140440000Y-62890000D03*
D21*
X134010000Y-77090000D03*
X134010000Y-61340000D03*
%TD*%
D22*
%TO.C,J3*%
X106450000Y-29250000D03*
D23*
X103910000Y-29250000D03*
X101370000Y-29250000D03*
X98830000Y-29250000D03*
%TD*%
D11*
%TO.C,C31*%
X71100000Y-68200000D03*
D12*
X71100000Y-70200000D03*
%TD*%
D18*
%TO.C,F1*%
X127762000Y-29972000D03*
X132842000Y-29982000D03*
%TD*%
D22*
%TO.C,J2*%
X81425000Y-27875000D03*
D23*
X81425000Y-30415000D03*
X78885000Y-27875000D03*
X78885000Y-30415000D03*
X76345000Y-27875000D03*
X76345000Y-30415000D03*
%TD*%
D15*
%TO.C,J1*%
X51300000Y-41518651D03*
D16*
X51300000Y-46518651D03*
%TD*%
D24*
%TO.C,C3*%
X56388000Y-29093349D03*
D25*
X56388000Y-34093349D03*
%TD*%
D24*
%TO.C,C33*%
X70713600Y-74295000D03*
D25*
X70713600Y-76295000D03*
%TD*%
D13*
%TO.C,H2*%
X140150000Y-83362800D03*
X140809010Y-81771810D03*
X140809010Y-84953790D03*
X142400000Y-81112800D03*
D14*
X142400000Y-83362800D03*
D13*
X142400000Y-85612800D03*
X143990990Y-81771810D03*
X143990990Y-84953790D03*
X144650000Y-83362800D03*
%TD*%
%TO.C,H1*%
X44850000Y-83400000D03*
X45509010Y-81809010D03*
X45509010Y-84990990D03*
X47100000Y-81150000D03*
D14*
X47100000Y-83400000D03*
D13*
X47100000Y-85650000D03*
X48690990Y-81809010D03*
X48690990Y-84990990D03*
X49350000Y-83400000D03*
%TD*%
D18*
%TO.C,F2*%
X127715000Y-53340000D03*
X132795000Y-53350000D03*
%TD*%
D26*
%TO.C,D1*%
X74752200Y-61341000D03*
D27*
X62052200Y-61341000D03*
%TD*%
D28*
%TO.C,R10*%
X119587000Y-44255000D03*
X119587000Y-42430000D03*
%TD*%
D29*
%TO.C,R7*%
X114507000Y-31865500D03*
X114507000Y-33690500D03*
%TD*%
D30*
%TO.C,C27*%
X124900000Y-54350000D03*
X124900000Y-52450000D03*
%TD*%
D28*
%TO.C,R16*%
X96266000Y-70381500D03*
X96266000Y-68556500D03*
%TD*%
D31*
%TO.C,C41*%
X95950000Y-79200000D03*
X94050000Y-79200000D03*
%TD*%
D32*
%TO.C,C28*%
X124866400Y-28971200D03*
X124866400Y-30871200D03*
%TD*%
D33*
%TO.C,FB1*%
X96375000Y-49542000D03*
X98500000Y-49542000D03*
%TD*%
D31*
%TO.C,C15*%
X103559200Y-33822000D03*
X101659200Y-33822000D03*
%TD*%
D28*
%TO.C,R17*%
X92964000Y-70405000D03*
X92964000Y-68580000D03*
%TD*%
%TO.C,R18*%
X83820000Y-74064500D03*
X83820000Y-72239500D03*
%TD*%
%TO.C,R26*%
X123952000Y-76604500D03*
X123952000Y-74779500D03*
%TD*%
D29*
%TO.C,R4*%
X81181500Y-53443500D03*
X81181500Y-55268500D03*
%TD*%
%TO.C,R25*%
X123952000Y-62079500D03*
X123952000Y-63904500D03*
%TD*%
D28*
%TO.C,R9*%
X115750000Y-53412500D03*
X115750000Y-51587500D03*
%TD*%
D34*
%TO.C,C22*%
X96400000Y-42050000D03*
X98300000Y-42050000D03*
%TD*%
D30*
%TO.C,C24*%
X115550000Y-43400000D03*
X115550000Y-41500000D03*
%TD*%
%TO.C,C25*%
X115700000Y-48450000D03*
X115700000Y-46550000D03*
%TD*%
D28*
%TO.C,R5*%
X84806400Y-30062500D03*
X84806400Y-28237500D03*
%TD*%
D29*
%TO.C,R1*%
X68072000Y-43180000D03*
X68072000Y-45005000D03*
%TD*%
D28*
%TO.C,R6*%
X72864800Y-30012500D03*
X72864800Y-28187500D03*
%TD*%
M02*
